<?xml version="1.0" standalone="no"?>
<!DOCTYPE svg PUBLIC " -//W3C//DTD SVG 1.0//EN" "http://www.w3.org/TR/2001/REC-SVG-20010904/DTD/svg10.dtd">
<svg width="103.92981108279882" height="31.178943324839643">
<!-- reference contigs -->
<polygon points="3.530700678141679e-05,14.84117702262367 3.530700678141679e-05,14.654103362674633 0.5034073026894407,14.654103362674633 0.503442609696222,14.84117702262367 0.517247649347756,14.84117702262367 0.5172829563545375,14.654103362674633 1.493380465833586,14.654103362674633 1.4934157728403674,14.84117702262367 1.539208960635865,14.84117702262367 1.5392442676426465,14.654103362674633 3.105357167445951,14.654103362674633 3.1053924744527324,14.84117702262367 3.146348602319176,14.84117702262367 3.1463839093259574,14.654103362674633 4.01917311696258,14.654103362674633 4.019208423969362,14.84117702262367 4.0857621317523325,14.84117702262367 4.085797438759114,14.654103362674633 5.409492430001211,14.654103362674633 5.409527737007992,14.84117702262367 5.450907548955813,14.84117702262367 5.4509428559625945,14.654103362674633 9.922822413876501,14.654103362674633 9.922857720883282,14.84117702262367 9.967344549427867,14.84117702262367 9.967379856434649,14.654103362674633 11.231653155263622,14.654103362674633 11.231688462270403,14.84117702262367 11.26748976714676,14.84117702262367 11.267525074153541,14.654103362674633 15.182613135124505,14.654103362674633 15.182648442131287,14.84117702262367 15.193346465186055,14.84117702262367 15.193381772192836,14.654103362674633 15.548746795447798,14.654103362674633 15.54878210245458,14.84117702262367 15.565447009655408,14.84117702262367 15.56548231666219,14.654103362674633 15.807264699101331,14.654103362674633 15.807300006108113,14.84117702262367 15.823400001200438,14.84117702262367 15.82343530820722,14.654103362674633 16.746572307514143,14.654103362674633 16.746607614520926,14.467029702725595 16.763625591789566,14.467029702725595 16.76366089879635,14.279956042776558 16.931581023048768,14.279956042776558 16.931616330055547,14.467029702725595 16.938536503384707,14.467029702725595 16.938571810391487,14.654103362674633 18.31452117167008,14.654103362674633 18.314556478676863,14.467029702725595 18.33047993873528,14.467029702725595 18.330515245742063,14.279956042776558 18.498964975096204,14.279956042776558 18.499000282102983,14.467029702725595 18.49917681713689,14.467029702725595 18.49921212414367,14.654103362674633 18.501789535638718,14.654103362674633 18.501824842645497,14.467029702725595 18.518807512907358,14.467029702725595 18.51884281991414,14.279956042776558 18.68679825117334,14.279956042776558 18.686833558180123,14.467029702725595 18.693647810488933,14.467029702725595 18.693683117495716,14.654103362674633 18.718609864283398,14.654103362674633 18.718645171290177,14.84117702262367 18.804194048721552,14.84117702262367 18.80422935572833,14.654103362674633 21.352336035143182,14.654103362674633 21.352371342149965,14.84117702262367 21.39862352103362,14.84117702262367 21.3986588280404,14.654103362674633 22.586880834262203,14.654103362674633 22.586916141268983,14.84117702262367 22.69071874120635,14.84117702262367 22.69075404821313,14.654103362674633 24.500379373787865,14.654103362674633 24.50041468079465,14.84117702262367 24.577560490612044,14.84117702262367 24.577595797618827,14.654103362674633 24.96145357534639,14.654103362674633 24.96148888235317,14.84117702262367 25.115109668859112,14.84117702262367 25.115144975865896,14.654103362674633 25.611632105226178,14.654103362674633 25.61166741223296,14.84117702262367 25.67423142824963,14.84117702262367 25.674266735256413,14.654103362674633 28.98864138284835,14.654103362674633 28.988676689855133,14.84117702262367 29.10628432944403,14.84117702262367 29.106319636450813,14.654103362674633 29.485410968262883,14.654103362674633 29.485446275269666,14.84117702262367 29.518281791576385,14.84117702262367 29.518317098583164,14.654103362674633 31.889429753002773,14.654103362674633 31.889465060009552,14.84117702262367 31.906447730271417,14.84117702262367 31.906483037278196,14.654103362674633 32.0854542546532,14.654103362674633 32.08548956165998,14.84117702262367 32.106461923688144,14.84117702262367 32.10649723069492,14.654103362674633 47.19339307043501,14.654103362674633 47.19342837744179,14.84117702262367 47.20808078525608,14.84117702262367 47.208116092262856,14.654103362674633 49.901793560637486,14.654103362674633 49.90182886764427,14.84117702262367 49.930568771164346,14.84117702262367 49.93060407817112,14.654103362674633 56.53343803037744,14.654103362674633 56.53347333738422,14.84117702262367 56.58209108572223,14.84117702262367 56.582126392729016,14.654103362674633 59.038470161518966,14.654103362674633 59.03850546852575,14.84117702262367 59.33490779045574,14.84117702262367 59.33494309746252,14.654103362674633 63.415515099217984,14.654103362674633 63.41555040622477,14.84117702262367 63.45159886014859,14.84117702262367 63.451634167155376,14.654103362674633 64.51942397324576,14.654103362674633 64.51945928025255,14.84117702262367 64.53432353010751,14.84117702262367 64.5343588371143,14.654103362674633 64.76261863595616,14.654103362674633 64.76265394296294,14.84117702262367 64.86137233392378,14.84117702262367 64.86140764093057,14.654103362674633 67.5254272236088,14.654103362674633 67.52546253061558,14.84117702262367 67.55307260991866,14.84117702262367 67.55310791692544,14.654103362674633 68.42822738700963,14.654103362674633 68.42826269401641,14.84117702262367 68.44436268910874,14.84117702262367 68.44439799611553,14.654103362674633 68.76498561769078,14.654103362674633 68.76502092469757,14.467029702725595 68.7651621527247,14.467029702725595 68.76519745973148,14.279956042776558 68.76526807374503,14.279956042776558 68.76530338075182,14.092882382827518 68.9342474082009,14.092882382827518 68.93428271520769,14.279956042776558 68.95024148227289,14.279956042776558 68.95027678927967,14.654103362674633 69.06301206193272,14.654103362674633 69.06304736893951,14.84117702262367 69.07801753981482,14.84117702262367 69.0780528468216,14.654103362674633 69.4048545015904,14.654103362674633 69.40488980859719,14.84117702262367 69.40503103662431,14.84117702262367 69.40506634363109,14.654103362674633 69.79305504115209,14.654103362674633 69.79309034815887,14.84117702262367 69.80569494957983,14.84117702262367 69.80573025658661,14.654103362674633 70.69137121469167,14.654103362674633 70.69140652169845,14.84117702262367 70.73963589296187,14.84117702262367 70.73967119996864,14.654103362674633 72.18305694419975,14.654103362674633 72.18309225120653,14.84117702262367 72.20484136738388,14.84117702262367 72.20487667439066,14.654103362674633 72.38497771598267,14.654103362674633 72.38501302298945,14.84117702262367 72.46014633342031,14.84117702262367 72.46018164042708,14.654103362674633 73.23411122907575,14.654103362674633 73.23414653608252,14.84117702262367 73.24314982281179,14.84117702262367 73.24318512981857,14.654103362674633 75.50816492185324,14.654103362674633 75.50820022886002,14.467029702725595 75.50837676389392,14.467029702725595 75.5084120709007,14.279956042776558 75.51512040218917,14.279956042776558 75.51515570919595,14.092882382827518 75.70132955595437,14.092882382827518 75.70136486296114,14.279956042776558 75.70334205534091,14.279956042776558 75.7033773623477,14.654103362674633 76.224897159516,14.654103362674633 76.22493246652277,14.84117702262367 76.25766206180916,14.84117702262367 76.25769736881594,14.654103362674633 76.99102389966596,14.654103362674633 76.99105920667274,14.84117702262367 77.02424779304728,14.84117702262367 77.02428310005405,14.654103362674633 77.9623902702363,14.654103362674633 77.96242557724308,14.84117702262367 77.98371570233228,14.84117702262367 77.98375100933906,14.654103362674633 79.08003356990204,14.654103362674633 79.08006887690883,14.84117702262367 79.22885260348572,14.84117702262367 79.2288879104925,14.654103362674633 79.518264138073,14.654103362674633 79.51829944507978,14.467029702725595 79.51840536610011,14.467029702725595 79.5184406731069,13.905808722878481 79.51851128712046,13.905808722878481 79.51854659412724,13.718735062929444 79.57945118082519,13.718735062929444 79.57948648783197,13.905808722878481 79.60631981298584,13.905808722878481 79.60635511999263,13.718735062929444 79.68367746484392,13.718735062929444 79.68371277185071,13.905808722878481 79.69963623190912,13.905808722878481 79.69967153891591,14.092882382827518 79.69970684592269,14.092882382827518 79.69970684592269,14.467029702725595 79.69981276694304,14.467029702725595 79.69984807394982,14.654103362674633 80.08070475610096,14.654103362674633 80.08074006310774,14.84117702262367 80.1072556252006,14.84117702262367 80.10729093220736,14.654103362674633 80.95826040965308,14.654103362674633 80.95829571665986,14.84117702262367 80.97919746467446,14.84117702262367 80.97923277168124,14.654103362674633 84.0021127712858,14.654103362674633 84.00214807829258,14.84117702262367 84.01747131923571,14.84117702262367 84.0175066262425,14.654103362674633 89.86844256203176,14.654103362674633 89.86847786903854,14.84117702262367 89.94188113613711,14.84117702262367 89.9419164431439,14.654103362674633 92.12653748774406,14.654103362674633 92.12657279475084,14.84117702262367 92.15157015555208,14.84117702262367 92.15160546255886,14.654103362674633 95.19457514902204,14.654103362674633 95.19461045602883,14.84117702262367 95.22642206913889,14.84117702262367 95.22645737614567,14.654103362674633 95.53814763201201,14.654103362674633 95.5381829390188,14.84117702262367 95.55668381057225,14.84117702262367 95.55671911757904,14.654103362674633 99.99996469299322,14.654103362674633 99.99996469299322,14.84117702262367" fill="black" stroke="black" stroke-width="0.1" />
<polygon points="3.530700678141679e-05,16.33776630221597 3.530700678141679e-05,16.33776630221597 2.8513232536536575,16.33776630221597 2.851358560660439,15.215324342521745 2.9292458176202443,15.215324342521745 2.9292811246270256,16.33776630221597 4.532042697469441,16.33776630221597 4.532078004476222,15.215324342521745 4.555098172897706,15.215324342521745 4.555133479904487,16.33776630221597 4.847475496054619,16.33776630221597 4.8475108030614,15.215324342521745 4.873991058147462,15.215324342521745 4.874026365154244,16.33776630221597 4.994776328346689,16.33776630221597 4.994811635353471,15.215324342521745 5.0190322420055224,15.215324342521745 5.019067549012304,16.33776630221597 11.154966336534384,16.33776630221597 11.155001643541166,15.215324342521745 11.232712365467064,15.215324342521745 11.232747672473845,16.33776630221597 16.745442483297136,16.33776630221597 16.74547779030392,15.215324342521745 16.942384967123882,15.215324342521745 16.94242027413066,16.33776630221597 18.314379943642955,16.33776630221597 18.314415250649738,15.215324342521745 18.499070896116546,15.215324342521745 18.49910620312333,16.33776630221597 18.50065971142171,16.33776630221597 18.50069501842849,15.215324342521745 18.697496274228108,15.215324342521745 18.69753158123489,16.33776630221597 20.81976514485229,16.33776630221597 20.819800451859074,15.215324342521745 21.18780538354178,15.215324342521745 21.187840690548562,16.33776630221597 28.894336367735185,16.33776630221597 28.89437167474197,15.215324342521745 28.972082396667865,15.215324342521745 28.97211770367465,16.33776630221597 33.119878939335145,16.33776630221597 33.11991424634193,15.215324342521745 33.14646511544156,15.215324342521745 33.146500422448334,16.33776630221597 34.508609437068614,16.33776630221597 34.5086447440754,15.215324342521745 34.58632015899451,15.215324342521745 34.586355466001294,16.33776630221597 39.00859337238053,16.33776630221597 39.00862867938731,15.215324342521745 39.08630409430643,15.215324342521745 39.08633940131321,16.33776630221597 40.398347773310654,16.33776630221597 40.39838308031744,15.215324342521745 40.42048526656261,15.215324342521745 40.420520573569384,16.33776630221597 44.23438344609803,16.33776630221597 44.23441875310481,15.215324342521745 44.27745799437136,15.215324342521745 44.277493301378136,16.33776630221597 45.327205919996445,16.33776630221597 45.32724122700322,15.215324342521745 45.40519909797659,15.215324342521745 45.405234404983375,16.33776630221597 45.433162247347475,16.33776630221597 45.43319755435425,15.215324342521745 45.45028614563646,15.215324342521745 45.450321452643244,16.33776630221597 53.79449697930904,16.33776630221597 53.794532286315814,15.215324342521745 53.84879915573885,15.215324342521745 53.848834462745636,16.33776630221597 55.21468602008474,16.33776630221597 55.214721327091524,15.215324342521745 55.22570180620055,15.215324342521745 55.22573711320733,16.33776630221597 55.346275234359084,16.33776630221597 55.34631054136587,15.215324342521745 55.42398595628498,15.215324342521745 55.42402126329176,16.33776630221597 65.42031755828039,16.33776630221597 65.42035286528717,15.215324342521745 65.45410636377021,15.215324342521745 65.45414167077699,16.33776630221597 65.90550644547062,16.33776630221597 65.9055417524774,15.215324342521745 65.92266565076639,15.215324342521745 65.92270095777317,16.33776630221597 66.21500766691652,16.33776630221597 66.2150429739233,15.215324342521745 66.25808221518984,15.215324342521745 66.25811752219663,16.33776630221597 66.75400443244163,16.33776630221597 66.75403973944842,15.215324342521745 66.83199761042178,15.215324342521745 66.83203291742856,16.33776630221597 67.1612001416517,16.33776630221597 67.16123544865849,15.215324342521745 67.20459245298608,15.215324342521745 67.20462775999286,16.33776630221597 68.6141187777138,16.33776630221597 68.61415408472058,15.215324342521745 68.67689463577115,15.215324342521745 68.67692994277793,16.33776630221597 69.94024995242381,16.33776630221597 69.9402852594306,15.215324342521745 69.94964161622767,15.215324342521745 69.94967692323445,16.33776630221597 70.84954660507242,16.33776630221597 70.8495819120792,15.215324342521745 70.86126853132384,15.215324342521745 70.86130383833063,16.33776630221597 70.88407685770464,16.33776630221597 70.88411216471142,15.215324342521745 70.89495141579332,15.215324342521745 70.8949867228001,16.33776630221597 72.28685954413712,16.33776630221597 72.2868948511439,15.215324342521745 72.34105579954658,15.215324342521745 72.34109110655336,16.33776630221597 73.14316037960681,16.33776630221597 73.1431956866136,15.215324342521745 73.1865173839344,15.215324342521745 73.18655269094117,16.33776630221597 73.63728193951275,16.33776630221597 73.63731724651953,15.215324342521745 73.64826241862177,15.215324342521745 73.64829772562854,16.33776630221597 75.43010112985952,16.33776630221597 75.4301364368663,15.215324342521745 75.50781185178542,15.215324342521745 75.5078471587922,16.33776630221597 78.27764653378757,16.33776630221597 78.27768184079436,15.215324342521745 78.30066670220906,15.215324342521745 78.30070200921584,16.33776630221597 79.51840536610011,16.33776630221597 79.5184406731069,15.215324342521745 79.69981276694304,15.215324342521745 79.69984807394982,16.33776630221597 82.41280316802711,16.33776630221597 82.41283847503388,15.215324342521745 82.42219483183096,15.215324342521745 82.42223013883775,16.33776630221597 85.0100218938749,16.33776630221597 85.01005720088169,15.215324342521745 85.38597090208343,15.215324342521745 85.38600620909021,16.33776630221597 88.60660544667071,16.33776630221597 88.6066407536775,15.215324342521745 88.64046486617409,15.215324342521745 88.64050017318087,16.33776630221597 90.67203003637681,16.33776630221597 90.6720653433836,15.215324342521745 90.7497407583027,15.215324342521745 90.74977606530949,16.33776630221597 91.29911778382156,16.33776630221597 91.29915309082834,15.215324342521745 91.33428356257585,15.215324342521745 91.33431886958263,16.33776630221597 95.35257400436889,16.33776630221597 95.35260931137567,15.215324342521745 95.3789836454414,15.215324342521745 95.37901895244816,16.33776630221597 99.21802041380518,16.33776630221597 99.21805572081196,15.215324342521745 99.25777610344106,15.215324342521745 99.25781141044784,16.33776630221597 99.76312529150347,16.33776630221597 99.76316059851025,15.215324342521745 99.78957023958276,15.215324342521745 99.78960554658954,16.33776630221597 99.99996469299322,16.33776630221597 99.99996469299322,16.33776630221597" fill="blue" stroke="blue" stroke-width="0.1" />
<polygon points="3.530700678141679e-05,17.834355581808275 3.530700678141679e-05,17.647281921859236 16.746572307514143,17.647281921859236 16.746607614520926,17.4602082619102 16.74749028969046,17.4602082619102 16.74752559669724,17.27313460196116 16.931581023048768,17.27313460196116 16.931616330055547,17.647281921859236 18.314379943642955,17.647281921859236 18.314415250649738,17.27313460196116 18.499070896116546,17.27313460196116 18.49910620312333,17.647281921859236 18.501789535638718,17.647281921859236 18.501824842645497,17.4602082619102 18.502707517815033,17.4602082619102 18.502742824821816,17.08606094201212 18.68679825117334,17.08606094201212 18.686833558180123,17.4602082619102 18.693647810488933,17.4602082619102 18.693683117495716,17.647281921859236 68.7558411029344,17.647281921859236 68.75587640994118,17.4602082619102 68.76498561769078,17.4602082619102 68.76502092469757,17.27313460196116 68.7651621527247,17.27313460196116 68.76519745973148,16.711913622114047 68.95027678927967,16.711913622114047 68.95031209628644,17.27313460196116 68.95123007846276,17.27313460196116 68.95126538546954,17.647281921859236 73.44800107615757,17.647281921859236 73.44803638316435,17.4602082619102 74.03826361552929,17.4602082619102 74.03829892253607,17.647281921859236 75.50816492185324,17.647281921859236 75.50820022886002,17.27313460196116 75.51512040218917,17.27313460196116 75.51515570919595,16.898987282063086 75.7033773623477,16.898987282063086 75.70341266935448,17.08606094201212 75.70344797636125,17.08606094201212 75.70348328336803,17.27313460196116 75.70351859037481,17.27313460196116 75.70351859037481,17.647281921859236 79.500010415567,17.647281921859236 79.50004572257379,17.4602082619102 79.51840536610011,17.4602082619102 79.5184406731069,16.898987282063086 79.69970684592269,16.898987282063086 79.69974215292947,17.08606094201212 79.69977745993626,17.08606094201212 79.69981276694304,17.27313460196116 79.69984807394982,17.27313460196116 79.69984807394982,17.647281921859236 99.99996469299322,17.647281921859236 99.99996469299322,17.834355581808275" fill="black" stroke="black" stroke-width="0.1" />
<!-- assembly contigs before -->
<polygon points="0,0 103.92981108279882,0 103.92981108279882,1.2471577329935857 0,1.2471577329935857" fill="grey" stroke="grey" stroke-width="0" />
<!-- assembly contigs after -->
<polygon points="0,29.931785591846058 100.59065091644632,29.931785591846058 100.59065091644632,31.178943324839643 0,31.178943324839643" fill="grey" stroke="grey" stroke-width="0" />
<!-- hits before vs ref -->
<polygon points="31.80243328829336,1.4965892795923028 32.32593027784143,1.4965892795923028 0.503442609696222,13.469303516330726 0.0,13.469303516330726" fill="lightblue" fill-opacity="0.5" stroke="blue" stroke-width="0.1" />
<polygon points="32.34167720286594,1.4965892795923028 33.357318559940175,1.4965892795923028 1.4934157728403674,13.469303516330726 0.5172829563545375,13.469303516330726" fill="lightblue" fill-opacity="0.5" stroke="blue" stroke-width="0.1" />
<polygon points="33.41815253262455,1.4965892795923028 35.04481694905799,1.4965892795923028 3.1053924744527324,13.469303516330726 1.5392442676426465,13.469303516330726" fill="lightblue" fill-opacity="0.5" stroke="blue" stroke-width="0.1" />
<polygon points="35.10653359691191,1.4965892795923028 36.00583836664138,1.4965892795923028 4.019208423969362,13.469303516330726 3.1463839093259574,13.469303516330726" fill="lightblue" fill-opacity="0.5" stroke="blue" stroke-width="0.1" />
<polygon points="36.083549088567274,1.4965892795923028 37.453708100733714,1.4965892795923028 5.409527737007992,13.469303516330726 4.085797438759114,13.469303516330726" fill="lightblue" fill-opacity="0.5" stroke="blue" stroke-width="0.1" />
<polygon points="37.49999558662415,1.4965892795923028 42.140007110831164,1.4965892795923028 9.922857720883282,13.469303516330726 5.4509428559625945,13.469303516330726" fill="lightblue" fill-opacity="0.5" stroke="blue" stroke-width="0.1" />
<polygon points="42.19346191909823,1.4965892795923028 43.5043051598719,1.4965892795923028 11.231688462270403,13.469303516330726 9.967379856434649,13.469303516330726" fill="lightblue" fill-opacity="0.5" stroke="blue" stroke-width="0.1" />
<polygon points="43.539788701687215,1.4965892795923028 47.60450785739782,1.4965892795923028 15.182648442131287,13.469303516330726 11.267525074153541,13.469303516330726" fill="lightblue" fill-opacity="0.5" stroke="blue" stroke-width="0.1" />
<polygon points="47.61591202058822,1.4965892795923028 47.978444366219804,1.4965892795923028 15.548782102454577,13.469303516330726 15.193381772192836,13.469303516330726" fill="lightblue" fill-opacity="0.5" stroke="blue" stroke-width="0.1" />
<polygon points="48.00375949008208,1.4965892795923028 48.25514537836577,1.4965892795923028 15.807300006108113,13.469303516330726 15.56548231666219,13.469303516330726" fill="lightblue" fill-opacity="0.5" stroke="blue" stroke-width="0.1" />
<polygon points="48.27728287161772,1.4965892795923028 51.25903020832193,1.4965892795923028 18.718645171290177,13.469303516330726 15.82343530820722,13.469303516330726" fill="lightblue" fill-opacity="0.5" stroke="blue" stroke-width="0.1" />
<polygon points="103.43519522479795,1.4965892795923028 103.25103387742608,1.4965892795923028 16.93161633005555,13.469303516330726 16.746607614520926,13.469303516330726" fill="pink" fill-opacity="0.5" stroke="orchid" stroke-width="0.1" />
<polygon points="6.564843612909512,1.4965892795923028 6.380717572544424,1.4965892795923028 16.938571810391487,13.469303516330726 16.76366089879635,13.469303516330726" fill="pink" fill-opacity="0.5" stroke="orchid" stroke-width="0.1" />
<polygon points="103.43417132160128,1.4965892795923028 103.25092795640573,1.4965892795923028 18.49921212414367,13.469303516330726 18.314556478676863,13.469303516330726" fill="pink" fill-opacity="0.5" stroke="orchid" stroke-width="0.1" />
<polygon points="6.564843612909513,1.4965892795923028 6.388061429954959,1.4965892795923028 18.499000282102983,13.469303516330726 18.330515245742063,13.469303516330726" fill="pink" fill-opacity="0.5" stroke="orchid" stroke-width="0.1" />
<polygon points="103.43519522479795,1.4965892795923028 103.25103387742608,1.4965892795923028 18.686833558180123,13.469303516330726 18.501824842645497,13.469303516330726" fill="pink" fill-opacity="0.5" stroke="orchid" stroke-width="0.1" />
<polygon points="6.564843612909512,1.4965892795923028 6.380717572544424,1.4965892795923028 18.693683117495716,13.469303516330726 18.51884281991414,13.469303516330726" fill="pink" fill-opacity="0.5" stroke="orchid" stroke-width="0.1" />
<polygon points="51.34129553412264,1.4965892795923028 53.98914450769499,1.4965892795923028 21.35237134214996,13.469303516330726 18.80422935572833,13.469303516330726" fill="lightblue" fill-opacity="0.5" stroke="blue" stroke-width="0.1" />
<polygon points="54.055733522484736,1.4965892795923028 55.24409675673366,1.4965892795923028 22.586916141268983,13.469303516330726 21.3986588280404,13.469303516330726" fill="lightblue" fill-opacity="0.5" stroke="blue" stroke-width="0.1" />
<polygon points="55.36647084223805,1.4965892795923028 57.22418431104908,1.4965892795923028 24.50041468079465,13.469303516330726 22.69075404821313,13.469303516330726" fill="lightblue" fill-opacity="0.5" stroke="blue" stroke-width="0.1" />
<polygon points="57.326221560647376,1.4965892795923028 57.723496000951876,1.4965892795923028 24.961488882353173,13.469303516330726 24.577595797618827,13.469303516330726" fill="lightblue" fill-opacity="0.5" stroke="blue" stroke-width="0.1" />
<polygon points="57.90250252533366,1.4965892795923028 58.423987015495186,1.4965892795923028 25.61166741223296,13.469303516330726 25.115144975865896,13.469303516330726" fill="lightblue" fill-opacity="0.5" stroke="blue" stroke-width="0.1" />
<polygon points="58.49735497558697,1.4965892795923028 61.914473012912836,1.4965892795923028 28.988676689855133,13.469303516330726 25.674266735256413,13.469303516330726" fill="lightblue" fill-opacity="0.5" stroke="blue" stroke-width="0.1" />
<polygon points="62.08062778682618,1.4965892795923028 62.46586253781822,1.4965892795923028 29.485446275269666,13.469303516330726 29.106319636450813,13.469303516330726" fill="lightblue" fill-opacity="0.5" stroke="blue" stroke-width="0.1" />
<polygon points="62.50773664786098,1.4965892795923028 64.95161704325709,1.4965892795923028 31.889465060009552,13.469303516330726 29.518317098583164,13.469303516330726" fill="lightblue" fill-opacity="0.5" stroke="blue" stroke-width="0.1" />
<polygon points="64.97280124732593,1.4965892795923028 65.16169373360651,1.4965892795923028 32.085489561659976,13.469303516330726 31.906483037278196,13.469303516330726" fill="lightblue" fill-opacity="0.5" stroke="blue" stroke-width="0.1" />
<polygon points="65.18213649053295,1.4965892795923028 80.77335761513879,1.4965892795923028 47.19342837744178,13.469303516330726 32.10649723069492,13.469303516330726" fill="lightblue" fill-opacity="0.5" stroke="blue" stroke-width="0.1" />
<polygon points="80.79012844335998,1.4965892795923028 83.56660084263703,1.4965892795923028 49.90182886764427,13.469303516330726 47.208116092262856,13.469303516330726" fill="lightblue" fill-opacity="0.5" stroke="blue" stroke-width="0.1" />
<polygon points="83.59745916656398,1.4965892795923028 90.48084259465543,1.4965892795923028 56.53347333738422,13.469303516330726 49.93060407817112,13.469303516330726" fill="lightblue" fill-opacity="0.5" stroke="blue" stroke-width="0.1" />
<polygon points="90.542453321489,1.4965892795923028 93.0920075881819,1.4965892795923028 59.03850546852574,13.469303516330726 56.582126392729016,13.469303516330726" fill="lightblue" fill-opacity="0.5" stroke="blue" stroke-width="0.1" />
<polygon points="93.4417941043654,1.4965892795923028 97.69445245717348,1.4965892795923028 63.41555040622477,13.469303516330726 59.33494309746252,13.469303516330726" fill="lightblue" fill-opacity="0.5" stroke="blue" stroke-width="0.1" />
<polygon points="97.73957481184013,1.4965892795923028 98.84927403498006,1.4965892795923028 64.51945928025255,13.469303516330726 63.451634167155376,13.469303516330726" fill="lightblue" fill-opacity="0.5" stroke="blue" stroke-width="0.1" />
<polygon points="98.8625141625231,1.4965892795923028 99.09850619585009,1.4965892795923028 64.76265394296294,13.469303516330726 64.5343588371143,13.469303516330726" fill="lightblue" fill-opacity="0.5" stroke="blue" stroke-width="0.1" />
<polygon points="99.19704805177702,1.4965892795923028 101.9616926037823,1.4965892795923028 67.52546253061558,13.469303516330726 64.86140764093057,13.469303516330726" fill="lightblue" fill-opacity="0.5" stroke="blue" stroke-width="0.1" />
<polygon points="101.99488119015683,1.4965892795923028 102.89376227580492,1.4965892795923028 68.42826269401642,13.469303516330726 67.55310791692544,13.469303516330726" fill="lightblue" fill-opacity="0.5" stroke="blue" stroke-width="0.1" />
<polygon points="102.91251029640586,1.4965892795923028 103.55135527710881,1.4965892795923028 69.06304736893951,13.469303516330726 68.44439799611553,13.469303516330726" fill="lightblue" fill-opacity="0.5" stroke="blue" stroke-width="0.1" />
<polygon points="51.028863831113874,1.4965892795923028 50.84163077415202,1.4965892795923028 68.95027678927966,13.469303516330726 68.76502092469757,13.469303516330726" fill="pink" fill-opacity="0.5" stroke="orchid" stroke-width="0.1" />
<polygon points="51.22531201684568,1.4965892795923028 51.03274760185983,1.4965892795923028 68.95027678927967,13.469303516330726 68.76519745973148,13.469303516330726" fill="pink" fill-opacity="0.5" stroke="orchid" stroke-width="0.1" />
<polygon points="6.388061429954959,1.4965892795923028 6.564843612909513,1.4965892795923028 68.93428271520767,13.469303516330726 68.76530338075182,13.469303516330726" fill="lightblue" fill-opacity="0.5" stroke="blue" stroke-width="0.1" />
<polygon points="103.57441075253708,1.4965892795923028 103.92981108279882,1.4965892795923028 69.40488980859718,13.469303516330726 69.0780528468216,13.469303516330726" fill="lightblue" fill-opacity="0.5" stroke="blue" stroke-width="0.1" />
<polygon points="0.0,1.4965892795923028 0.4085373754677737,1.4965892795923028 69.79309034815886,13.469303516330726 69.40506634363109,13.469303516330726" fill="lightblue" fill-opacity="0.5" stroke="blue" stroke-width="0.1" />
<polygon points="0.42947443048915385,1.4965892795923028 1.337676565927538,1.4965892795923028 70.69140652169845,13.469303516330726 69.80573025658661,13.469303516330726" fill="lightblue" fill-opacity="0.5" stroke="blue" stroke-width="0.1" />
<polygon points="1.3925436544658598,1.4965892795923028 2.892385302540445,1.4965892795923028 72.18309225120652,13.469303516330726 70.73967119996864,13.469303516330726" fill="lightblue" fill-opacity="0.5" stroke="blue" stroke-width="0.1" />
<polygon points="2.9230670914334964,1.4965892795923028 3.1239286530129764,1.4965892795923028 72.38501302298945,13.469303516330726 72.20487667439066,13.469303516330726" fill="lightblue" fill-opacity="0.5" stroke="blue" stroke-width="0.1" />
<polygon points="3.2193281853363644,1.4965892795923028 4.026234518318864,1.4965892795923028 73.23414653608252,13.469303516330726 72.46018164042708,13.469303516330726" fill="lightblue" fill-opacity="0.5" stroke="blue" stroke-width="0.1" />
<polygon points="4.035696796136284,1.4965892795923028 7.1322978259004435,1.4965892795923028 76.22493246652279,13.469303516330726 73.24318512981857,13.469303516330726" fill="lightblue" fill-opacity="0.5" stroke="blue" stroke-width="0.1" />
<polygon points="51.232620567249434,1.4965892795923028 51.03274760185983,1.4965892795923028 75.7033773623477,13.469303516330726 75.50820022886002,13.469303516330726" fill="pink" fill-opacity="0.5" stroke="orchid" stroke-width="0.1" />
<polygon points="49.43090401119373,1.4965892795923028 49.23254924709573,1.4965892795923028 75.70136486296114,13.469303516330726 75.5084120709007,13.469303516330726" fill="pink" fill-opacity="0.5" stroke="orchid" stroke-width="0.1" />
<polygon points="51.028687296079966,1.4965892795923028 50.84163077415202,1.4965892795923028 75.70337736234768,13.469303516330726 75.51515570919595,13.469303516330726" fill="pink" fill-opacity="0.5" stroke="orchid" stroke-width="0.1" />
<polygon points="7.1914370622593164,1.4965892795923028 7.980160286749387,1.4965892795923028 76.99105920667274,13.469303516330726 76.25769736881594,13.469303516330726" fill="lightblue" fill-opacity="0.5" stroke="blue" stroke-width="0.1" />
<polygon points="8.034462463179205,1.4965892795923028 9.015644181634777,1.4965892795923028 77.96242557724308,13.469303516330726 77.02428310005405,13.469303516330726" fill="lightblue" fill-opacity="0.5" stroke="blue" stroke-width="0.1" />
<polygon points="9.042053822707278,1.4965892795923028 10.151541203806518,1.4965892795923028 79.08006887690883,13.469303516330726 77.98375100933906,13.469303516330726" fill="lightblue" fill-opacity="0.5" stroke="blue" stroke-width="0.1" />
<polygon points="10.292557388891497,1.4965892795923028 10.66268074098109,1.4965892795923028 79.57948648783197,13.469303516330726 79.2288879104925,13.469303516330726" fill="lightblue" fill-opacity="0.5" stroke="blue" stroke-width="0.1" />
<polygon points="103.25085734239217,1.4965892795923028 103.43417132160128,1.4965892795923028 79.69967153891591,13.469303516330726 79.51829944507978,13.469303516330726" fill="lightblue" fill-opacity="0.5" stroke="blue" stroke-width="0.1" />
<polygon points="49.42363076779676,1.4965892795923028 49.230148370634595,1.4965892795923028 79.69984807394981,13.469303516330726 79.5184406731069,13.469303516330726" fill="pink" fill-opacity="0.5" stroke="orchid" stroke-width="0.1" />
<polygon points="51.028687296079966,1.4965892795923028 50.84163077415202,1.4965892795923028 79.69970684592269,13.469303516330726 79.5184406731069,13.469303516330726" fill="pink" fill-opacity="0.5" stroke="orchid" stroke-width="0.1" />
<polygon points="51.22531201684568,1.4965892795923028 51.03274760185983,1.4965892795923028 79.69970684592269,13.469303516330726 79.5184406731069,13.469303516330726" fill="pink" fill-opacity="0.5" stroke="orchid" stroke-width="0.1" />
<polygon points="6.388061429954959,1.4965892795923028 6.564843612909513,1.4965892795923028 79.68371277185071,13.469303516330726 79.51854659412724,13.469303516330726" fill="lightblue" fill-opacity="0.5" stroke="blue" stroke-width="0.1" />
<polygon points="10.689019768040026,1.4965892795923028 11.187837159847883,1.4965892795923028 80.08074006310774,13.469303516330726 79.60635511999263,13.469303516330726" fill="lightblue" fill-opacity="0.5" stroke="blue" stroke-width="0.1" />
<polygon points="11.22091982520207,1.4965892795923028 12.119377226768783,1.4965892795923028 80.95829571665985,13.469303516330726 80.10729093220736,13.469303516330726" fill="lightblue" fill-opacity="0.5" stroke="blue" stroke-width="0.1" />
<polygon points="12.14045550981729,1.4965892795923028 15.271410257179769,1.4965892795923028 84.00214807829258,13.469303516330726 80.97923277168124,13.469303516330726" fill="lightblue" fill-opacity="0.5" stroke="blue" stroke-width="0.1" />
<polygon points="15.297572749204798,1.4965892795923028 21.289877940146855,1.4965892795923028 89.86847786903854,13.469303516330726 84.0175066262425,13.469303516330726" fill="lightblue" fill-opacity="0.5" stroke="blue" stroke-width="0.1" />
<polygon points="21.349370246573542,1.4965892795923028 23.608453768475716,1.4965892795923028 92.12657279475084,13.469303516330726 89.9419164431439,13.469303516330726" fill="lightblue" fill-opacity="0.5" stroke="blue" stroke-width="0.1" />
<polygon points="23.63941801342302,1.4965892795923028 26.791768806895035,1.4965892795923028 95.19461045602883,13.469303516330726 92.15160546255886,13.469303516330726" fill="lightblue" fill-opacity="0.5" stroke="blue" stroke-width="0.1" />
<polygon points="26.84155168645683,1.4965892795923028 27.17170750686986,1.4965892795923028 95.53818293901881,13.469303516330726 95.22645737614567,13.469303516330726" fill="lightblue" fill-opacity="0.5" stroke="blue" stroke-width="0.1" />
<polygon points="27.198964516105114,1.4965892795923028 31.80243328829336,1.4965892795923028 100.0,13.469303516330726 95.55671911757904,13.469303516330726" fill="lightblue" fill-opacity="0.5" stroke="blue" stroke-width="0.1" />
<!-- hits after vs ref -->
<polygon points="0.0,18.457934448305068 74.03829892253607,18.457934448305068 100.59065091644632,29.68235404524734 26.55214015186956,29.68235404524734" fill="lightblue" fill-opacity="0.5" stroke="blue" stroke-width="0.1" />
<polygon points="16.746607614520926,18.457934448305068 16.93161633005555,18.457934448305068 95.31737291860782,29.68235404524734 95.50344084434589,29.68235404524734" fill="pink" fill-opacity="0.5" stroke="orchid" stroke-width="0.1" />
<polygon points="16.74752559669724,18.457934448305068 16.931616330055547,18.457934448305068 6.070580824976459,29.68235404524734 6.251988225819379,29.68235404524734" fill="pink" fill-opacity="0.5" stroke="orchid" stroke-width="0.1" />
<polygon points="18.314415250649738,18.457934448305068 18.49910620312333,18.457934448305068 2.067295861065516,29.68235404524734 2.255623435237593,29.68235404524734" fill="pink" fill-opacity="0.5" stroke="orchid" stroke-width="0.1" />
<polygon points="18.314415250649738,18.457934448305068 18.49910620312333,18.457934448305068 6.070580824976459,29.68235404524734 6.251952918812597,29.68235404524734" fill="pink" fill-opacity="0.5" stroke="orchid" stroke-width="0.1" />
<polygon points="18.501824842645497,18.457934448305068 18.686833558180123,18.457934448305068 95.31737291860782,29.68235404524734 95.50344084434589,29.68235404524734" fill="pink" fill-opacity="0.5" stroke="orchid" stroke-width="0.1" />
<polygon points="18.502742824821816,18.457934448305068 18.693683117495716,18.457934448305068 2.060340380729577,29.68235404524734 2.2556587422443743,29.68235404524734" fill="pink" fill-opacity="0.5" stroke="orchid" stroke-width="0.1" />
<polygon points="18.502742824821816,18.457934448305068 18.686833558180123,18.457934448305068 6.070580824976459,29.68235404524734 6.251988225819379,29.68235404524734" fill="pink" fill-opacity="0.5" stroke="orchid" stroke-width="0.1" />
<polygon points="68.75587640994118,18.457934448305068 68.95031209628644,18.457934448305068 6.251882304799034,29.68235404524734 6.0521858744433406,29.68235404524734" fill="lightblue" fill-opacity="0.5" stroke="blue" stroke-width="0.1" />
<polygon points="68.76502092469757,18.457934448305068 68.95031209628644,18.457934448305068 44.86662601653286,29.68235404524734 45.0514228900268,29.68235404524734" fill="pink" fill-opacity="0.5" stroke="orchid" stroke-width="0.1" />
<polygon points="68.76519745973148,18.457934448305068 68.95031209628645,18.457934448305068 2.2555528212240303,29.68235404524734 2.067295861065516,29.68235404524734" fill="lightblue" fill-opacity="0.5" stroke="blue" stroke-width="0.1" />
<polygon points="68.76519745973148,18.457934448305068 68.95126538546955,18.457934448305068 43.298747766390484,29.68235404524734 43.483756481925106,29.68235404524734" fill="pink" fill-opacity="0.5" stroke="orchid" stroke-width="0.1" />
<polygon points="68.76519745973148,18.457934448305068 68.95126538546955,18.457934448305068 45.053964994515056,29.68235404524734 45.23897371004968,29.68235404524734" fill="pink" fill-opacity="0.5" stroke="orchid" stroke-width="0.1" />
<polygon points="73.44803638316435,18.457934448305068 100.0,18.457934448305068 26.55214015186956,29.68235404524734 0.0,29.68235404524734" fill="lightblue" fill-opacity="0.5" stroke="blue" stroke-width="0.1" />
<polygon points="75.50820022886002,18.457934448305068 75.70351859037481,18.457934448305068 43.2996657485668,29.68235404524734 43.490711962261045,29.68235404524734" fill="pink" fill-opacity="0.5" stroke="orchid" stroke-width="0.1" />
<polygon points="75.50820022886002,18.457934448305068 75.70351859037481,18.457934448305068 45.054882976691374,29.68235404524734 45.245823269365275,29.68235404524734" fill="pink" fill-opacity="0.5" stroke="orchid" stroke-width="0.1" />
<polygon points="75.51515570919595,18.457934448305068 75.70348328336803,18.457934448305068 44.866555402519296,29.68235404524734 45.051246354992884,29.68235404524734" fill="pink" fill-opacity="0.5" stroke="orchid" stroke-width="0.1" />
<polygon points="75.51515570919595,18.457934448305068 75.70341266935446,18.457934448305068 95.50248755516279,29.68235404524734 95.31737291860782,29.68235404524734" fill="lightblue" fill-opacity="0.5" stroke="blue" stroke-width="0.1" />
<polygon points="79.50004572257379,18.457934448305068 79.69974215292947,18.457934448305068 95.50248755516279,29.68235404524734 95.30805186881753,29.68235404524734" fill="lightblue" fill-opacity="0.5" stroke="blue" stroke-width="0.1" />
<polygon points="79.5184406731069,18.457934448305068 79.69984807394981,18.457934448305068 43.2996657485668,29.68235404524734 43.48375648192511,29.68235404524734" fill="pink" fill-opacity="0.5" stroke="orchid" stroke-width="0.1" />
<polygon points="79.5184406731069,18.457934448305068 79.69981276694303,18.457934448305068 44.866555402519296,29.68235404524734 45.051246354992884,29.68235404524734" fill="pink" fill-opacity="0.5" stroke="orchid" stroke-width="0.1" />
<polygon points="79.5184406731069,18.457934448305068 79.69984807394981,18.457934448305068 45.054882976691374,29.68235404524734 45.238973710049684,29.68235404524734" fill="pink" fill-opacity="0.5" stroke="orchid" stroke-width="0.1" />
</svg>
