<?xml version="1.0" standalone="no"?>
<!DOCTYPE svg PUBLIC " -//W3C//DTD SVG 1.0//EN" "http://www.w3.org/TR/2001/REC-SVG-20010904/DTD/svg10.dtd">
<svg width="150.32222380357288" height="45.09666714107186">
<!-- reference contigs -->
<polygon points="3.899175129501354e-05,21.466013559150205 3.899175129501354e-05,21.364546058082794 0.7062575912065803,21.364546058082794 0.7062965829578752,21.466013559150205 0.74879759186944,21.466013559150205 0.748836583620735,21.364546058082794 2.069799133993204,21.364546058082794 2.0698381257444987,21.466013559150205 2.1008755597753295,21.466013559150205 2.1009145515266243,21.364546058082794 2.39152007392836,21.364546058082794 2.3915590656796555,21.466013559150205 2.408442493990396,21.466013559150205 2.4084814857416914,21.364546058082794 3.457788504841801,21.364546058082794 3.457827496593096,21.466013559150205 3.5429854814214052,21.466013559150205 3.5430244731727,21.364546058082794 4.14763056875318,21.364546058082794 4.147669560504475,21.466013559150205 4.178200101768471,21.466013559150205 4.178239093519766,21.364546058082794 4.922435658736394,21.364546058082794 4.92247465048769,21.466013559150205 4.982015054715174,21.466013559150205 4.98205404646647,21.364546058082794 6.47980519721053,21.364546058082794 6.479844188961825,21.263078557015383 6.495635848236305,21.263078557015383 6.4956748399876005,21.364546058082794 7.405430381202857,21.364546058082794 7.405469372954152,21.466013559150205 7.427499712435833,21.466013559150205 7.427538704187129,21.364546058082794 8.8141633637404,21.364546058082794 8.814202355491696,21.466013559150205 8.8415355731495,21.466013559150205 8.841574564900794,21.364546058082794 9.389408670595737,21.364546058082794 9.38944766234703,21.466013559150205 9.417794665538505,21.466013559150205 9.417833657289801,21.364546058082794 12.579362835792088,21.364546058082794 12.579401827543382,21.466013559150205 12.61063422033069,21.466013559150205 12.610673212081982,21.364546058082794 13.454766644116438,21.364546058082794 13.454805635867734,21.466013559150205 13.473716635245813,21.466013559150205 13.473755626997109,21.364546058082794 14.26177892066933,21.364546058082794 14.261817912420627,21.466013559150205 14.289619031093972,21.466013559150205 14.289658022845266,21.364546058082794 15.875491539764765,21.364546058082794 15.875530531516057,21.466013559150205 15.933004372924907,21.466013559150205 15.933043364676204,21.364546058082794 16.872042719362717,21.364546058082794 16.872081711114014,21.466013559150205 16.881712673683882,21.466013559150205 16.881751665435175,21.364546058082794 23.17642402749698,21.364546058082794 23.176463019248278,21.466013559150205 23.319250812490615,21.466013559150205 23.31928980424191,21.364546058082794 23.691115144591162,21.364546058082794 23.691154136342455,21.466013559150205 23.74773116747152,21.466013559150205 23.747770159222817,21.364546058082794 24.250997701436262,21.364546058082794 24.251036693187555,21.466013559150205 24.283945731280546,21.466013559150205 24.283984723031843,21.364546058082794 25.183017532640967,21.364546058082794 25.183056524392263,21.466013559150205 25.204696946360997,21.466013559150205 25.204735938112293,21.364546058082794 25.669439630046263,21.364546058082794 25.66947862179756,21.466013559150205 25.820532666314442,21.466013559150205 25.820571658065735,21.364546058082794 26.36961450805082,21.364546058082794 26.369653499802116,21.466013559150205 26.58629166999721,21.466013559150205 26.586330661748505,21.364546058082794 27.052633015485572,21.364546058082794 27.05267200723687,21.466013559150205 27.174677197038964,21.466013559150205 27.17471618879026,21.364546058082794 27.419233461161287,21.364546058082794 27.419272452912583,21.466013559150205 27.465594653451063,21.466013559150205 27.465633645202356,21.364546058082794 29.638448986116988,21.364546058082794 29.638487977868284,21.466013559150205 29.661766053391407,21.466013559150205 29.6618050451427,21.364546058082794 30.602013144119365,21.364546058082794 30.602052135870654,21.466013559150205 30.661085647331305,21.466013559150205 30.6611246390826,21.364546058082794 34.38596764854395,21.364546058082794 34.38600664029524,21.466013559150205 34.44043912510309,21.466013559150205 34.44047811685438,21.364546058082794 37.83389124030811,21.364546058082794 37.83393023205941,21.466013559150205 37.84309329361374,21.466013559150205 37.84313228536503,21.364546058082794 38.28646849758934,21.364546058082794 38.28650748934063,21.466013559150205 38.61548089501666,21.466013559150205 38.615519886767956,21.364546058082794 39.0139376015004,21.364546058082794 39.0139765932517,21.466013559150205 39.03105498031891,21.466013559150205 39.0310939720702,21.364546058082794 41.68565240023473,21.364546058082794 41.685691391986026,21.466013559150205 41.69929951318798,21.466013559150205 41.69933850493928,21.364546058082794 43.07555236689678,21.364546058082794 43.075591358648076,21.466013559150205 43.17622906874051,21.466013559150205 43.17626806049181,21.364546058082794 43.85523142579188,21.364546058082794 43.85527041754317,21.466013559150205 43.99068876979075,21.466013559150205 43.99072776154205,21.364546058082794 45.0287661645179,21.364546058082794 45.02880515626919,21.466013559150205 45.13045665189529,21.466013559150205 45.13049564364658,21.364546058082794 45.71162870494747,21.364546058082794 45.71166769669877,21.466013559150205 45.73529669798354,21.466013559150205 45.73533568973484,21.364546058082794 46.398741346268196,21.364546058082794 46.39878033801949,21.466013559150205 46.454811484630426,21.466013559150205 46.454850476381715,21.364546058082794 47.16075714182665,21.364546058082794 47.160796133577946,21.466013559150205 47.16945230236543,21.466013559150205 47.169491294116725,21.364546058082794 47.43588293896426,21.364546058082794 47.43592193071555,21.466013559150205 47.643942923874455,21.466013559150205 47.64398191562575,21.364546058082794 48.45060427466569,21.364546058082794 48.45064326641699,21.466013559150205 48.47415529244788,21.466013559150205 48.47419428419918,21.364546058082794 49.08609183727182,21.364546058082794 49.08613082902312,21.466013559150205 49.30740901762233,21.466013559150205 49.307448009373616,21.364546058082794 50.71216484152777,21.364546058082794 50.71220383327907,21.466013559150205 50.73099785740326,21.466013559150205 50.731036849154556,21.364546058082794 51.96454090137232,21.364546058082794 51.96457989312361,21.466013559150205 52.04260238746493,21.466013559150205 52.04264137921622,21.364546058082794 52.33886171380445,21.364546058082794 52.33890070555574,21.466013559150205 52.3415131528925,21.466013559150205 52.3415521446438,21.364546058082794 53.451764279266726,21.364546058082794 53.451803271018015,21.466013559150205 53.516529578167734,21.466013559150205 53.51656856991903,21.364546058082794 54.15423967059769,21.364546058082794 54.15427866234897,21.466013559150205 54.21674344792359,21.466013559150205 54.21678243967489,21.364546058082794 54.514445469061016,21.364546058082794 54.51448446081231,21.466013559150205 54.54259751349601,21.466013559150205 54.54263650524731,21.364546058082794 55.00441581583416,21.364546058082794 55.004454807585454,21.466013559150205 55.02617321305677,21.466013559150205 55.02621220480807,21.364546058082794 55.21025327092054,21.364546058082794 55.210292262671835,21.466013559150205 55.224407276640626,21.466013559150205 55.22444626839192,21.364546058082794 56.4522575249206,21.364546058082794 56.45229651667189,21.466013559150205 56.462278405003424,21.466013559150205 56.46231739675472,21.364546058082794 57.01050242821131,21.364546058082794 57.01054141996261,21.466013559150205 57.03428739650127,21.466013559150205 57.034326388252566,21.364546058082794 57.37398353378343,21.364546058082794 57.37402252553473,21.466013559150205 57.39433722795942,21.466013559150205 57.394376219710715,21.364546058082794 58.18926206161087,21.364546058082794 58.189301053362165,21.466013559150205 58.25114197091605,21.466013559150205 58.25118096266735,21.364546058082794 60.71826705060544,21.364546058082794 60.71830604235674,21.466013559150205 60.992184103452914,21.466013559150205 60.99222309520421,21.364546058082794 61.22352216388623,21.364546058082794 61.223561155637526,21.466013559150205 61.32996964492161,21.466013559150205 61.33000863667291,21.364546058082794 61.59940264637016,21.364546058082794 61.599441638121455,21.466013559150205 61.64506198713662,21.466013559150205 61.64510097888792,21.364546058082794 62.16996894307009,21.364546058082794 62.170007934821385,21.161611055947972 62.17020289357786,21.161611055947972 62.170241885329155,21.06014355488056 62.17031986883175,21.06014355488056 62.17035886058304,20.958676053813146 62.37112738800107,20.958676053813146 62.37116637975236,21.06014355488056 62.37362286008394,21.06014355488056 62.37366185183524,21.364546058082794 63.12109473240936,21.364546058082794 63.12113372416066,21.466013559150205 63.1582928631448,21.466013559150205 63.1583318548961,21.364546058082794 63.59585829617745,21.364546058082794 63.59589728792874,21.466013559150205 63.65056372324434,21.466013559150205 63.650602714995635,21.364546058082794 64.80167820497574,21.364546058082794 64.80171719672704,21.263078557015383 64.92442423805244,21.263078557015383 64.92446322980373,21.364546058082794 65.69209383754867,21.364546058082794 65.69213282929996,21.466013559150205 65.72246841180748,21.466013559150205 65.72250740355878,21.364546058082794 65.92167726917371,21.364546058082794 65.921716260925,21.466013559150205 65.98375213723536,21.466013559150205 65.98379112898665,21.364546058082794 66.83825636686558,21.364546058082794 66.83829535861688,21.466013559150205 66.88395469938334,21.466013559150205 66.88399369113463,21.364546058082794 67.02042582891589,21.364546058082794 67.02046482066719,21.263078557015383 67.02085473818013,21.263078557015383 67.02089372993143,21.161611055947972 67.02327222676043,21.161611055947972 67.02331121851172,21.06014355488056 67.0234671855169,21.06014355488056 67.0235061772682,20.958676053813146 67.21706123069664,20.958676053813146 67.21710022244794,21.06014355488056 67.2196346862821,21.06014355488056 67.2196736780334,21.161611055947972 67.21979065328729,21.161611055947972 67.21982964503859,21.263078557015383 67.21990762854118,21.263078557015383 67.21994662029248,21.364546058082794 67.58837967827905,21.364546058082794 67.58841867003035,21.466013559150205 67.73775707749026,21.466013559150205 67.73779606924155,21.364546058082794 70.50593746892845,21.364546058082794 70.50597646067975,21.161611055947972 70.50609343593364,21.161611055947972 70.50613242768492,21.06014355488056 70.50617141943621,21.06014355488056 70.50617141943621,20.958676053813146 70.5062494029388,20.958676053813146 70.5062883946901,20.857208552745735 70.5462549397675,20.857208552745735 70.54629393151879,20.958676053813146 70.59511160414014,20.958676053813146 70.59515059589144,20.857208552745735 70.69957050585948,20.857208552745735 70.69960949761078,20.958676053813146 70.70214396144495,20.958676053813146 70.70218295319624,21.06014355488056 70.70222194494754,21.06014355488056 70.70226093669883,21.263078557015383 70.70229992845013,21.263078557015383 70.70229992845013,21.364546058082794 71.79976176039959,21.364546058082794 71.79980075215089,21.466013559150205 72.11282653154726,21.466013559150205 72.11286552329855,21.364546058082794 73.6528837324464,21.364546058082794 73.6529227241977,21.466013559150205 73.66259267851886,21.466013559150205 73.66263167027014,21.364546058082794 74.05305607598713,21.364546058082794 74.05309506773843,21.466013559150205 74.10487611345819,21.466013559150205 74.10491510520949,21.364546058082794 76.93017942054358,21.364546058082794 76.93021841229488,21.466013559150205 77.1146493959203,21.466013559150205 77.11468838767158,21.364546058082794 77.40681458837382,21.364546058082794 77.40685358012512,21.466013559150205 77.48538296723328,21.466013559150205 77.48542195898457,21.364546058082794 79.2030475952812,21.364546058082794 79.2030865870325,21.466013559150205 79.33503467341484,21.466013559150205 79.33507366516614,21.364546058082794 79.9311795589643,21.364546058082794 79.9312185507156,21.466013559150205 80.10453688522193,21.466013559150205 80.10457587697323,21.364546058082794 80.36082966648405,21.364546058082794 80.36086865823535,21.466013559150205 80.41276667920901,21.466013559150205 80.41280567096031,21.364546058082794 81.92034375127942,21.364546058082794 81.92038274303071,21.466013559150205 82.15008314990963,21.466013559150205 82.15012214166093,21.364546058082794 82.41573395148257,21.364546058082794 82.41577294323386,21.466013559150205 82.51375921423822,21.466013559150205 82.51379820598952,21.364546058082794 82.7313331864644,21.364546058082794 82.7313721782157,21.466013559150205 82.75979716490976,21.466013559150205 82.75983615666105,21.364546058082794 83.14433381618119,21.364546058082794 83.14437280793247,21.466013559150205 83.35329061137116,21.466013559150205 83.35332960312246,21.364546058082794 83.61504223781459,21.364546058082794 83.61508122956589,21.466013559150205 83.64448101004233,21.466013559150205 83.64452000179362,21.364546058082794 83.8494996383515,21.364546058082794 83.8495386301028,21.466013559150205 83.91067769613338,21.466013559150205 83.91071668788467,21.364546058082794 84.26503473190247,21.364546058082794 84.26507372365377,21.466013559150205 84.40524906955933,21.466013559150205 84.40528806131063,21.364546058082794 85.62549592633678,21.364546058082794 85.62553491808808,21.466013559150205 85.82895488459417,21.466013559150205 85.82899387634546,21.364546058082794 86.53727903861939,21.364546058082794 86.53731803037067,21.466013559150205 86.80990936367411,21.466013559150205 86.8099483554254,21.364546058082794 87.15674099144327,21.364546058082794 87.15677998319455,21.466013559150205 87.23059136839602,21.466013559150205 87.23063036014732,21.364546058082794 88.10404558915562,21.364546058082794 88.10408458090691,21.263078557015383 88.1042015561608,21.263078557015383 88.10424054791208,21.364546058082794 89.74310284659279,21.364546058082794 89.74314183834409,21.466013559150205 89.77336044559773,21.466013559150205 89.77339943734903,21.364546058082794 90.49965979696995,21.364546058082794 90.49969878872125,21.466013559150205 90.52438056729099,21.466013559150205 90.52441955904229,21.364546058082794 90.94397080297662,21.364546058082794 90.94400979472792,21.263078557015383 90.94463366274864,21.263078557015383 90.94467265449994,21.161611055947972 90.94693417607505,21.161611055947972 90.94697316782634,21.06014355488056 90.94712913483153,21.06014355488056 90.94716812658282,20.958676053813146 91.14676690146199,20.958676053813146 91.14680589321328,21.06014355488056 91.14684488496458,21.06014355488056 91.14688387671588,21.161611055947972 91.14692286846717,21.161611055947972 91.14692286846717,21.364546058082794 91.1474687529853,21.364546058082794 91.1475077447366,21.466013559150205 91.15975115464325,21.466013559150205 91.15979014639453,21.364546058082794 92.07227511020044,21.364546058082794 92.07231410195172,21.466013559150205 92.09742478978572,21.466013559150205 92.09746378153702,21.364546058082794 92.68834478066165,21.364546058082794 92.68838377241295,21.263078557015383 92.68842276416424,21.263078557015383 92.68842276416424,21.161611055947972 92.691035211501,21.161611055947972 92.6910742032523,21.06014355488056 92.69123017025748,21.06014355488056 92.69126916200878,20.958676053813146 92.88474623193464,20.958676053813146 92.88478522368594,21.06014355488056 92.8873196875201,21.06014355488056 92.8873586792714,21.161611055947972 92.8873976710227,21.161611055947972 92.887436662774,21.263078557015383 92.88747565452529,21.263078557015383 92.88747565452529,21.364546058082794 93.42271542455192,21.364546058082794 93.42275441630322,21.466013559150205 93.47161108067588,21.466013559150205 93.47165007242718,21.364546058082794 94.83866188107905,21.364546058082794 94.83870087283034,21.466013559150205 94.90420701500597,21.466013559150205 94.90424600675726,21.364546058082794 95.53552246022355,21.364546058082794 95.53556145197484,21.466013559150205 95.55634405541508,21.466013559150205 95.55638304716638,21.364546058082794 97.45122619309885,21.364546058082794 97.45122619309885,21.466013559150205" fill="black" stroke="black" stroke-width="0.1" />
<polygon points="3.899175129501354e-05,23.630653581921653 3.899175129501354e-05,23.630653581921653 2.163262361847351,23.630653581921653 2.163301353598646,22.007173564843068 2.2253762216603077,22.007173564843068 2.2254152134116025,23.630653581921653 2.742562810837367,23.630653581921653 2.7426018025886623,22.007173564843068 2.773444277863018,22.007173564843068 2.7734832696143132,23.630653581921653 2.9556917234159115,23.630653581921653 2.9557307151672063,22.007173564843068 3.0302049601406824,22.007173564843068 3.0302439518919773,23.630653581921653 3.143475997652697,23.630653581921653 3.1435149894039913,22.007173564843068 3.1742794811757573,22.007173564843068 3.174318472927052,23.630653581921653 3.4745159661473615,23.630653581921653 3.4745549578986568,22.007173564843068 3.505397433173012,22.007173564843068 3.505436424924307,23.630653581921653 3.7914019289219367,23.630653581921653 3.7914409206732316,22.007173564843068 3.8194759898543467,22.007173564843068 3.819514981605641,23.630653581921653 5.8298906866252445,23.630653581921653 5.829929678376539,22.007173564843068 5.857964747557654,22.007173564843068 5.858003739308949,23.630653581921653 6.548430679489754,23.630653581921653 6.548469671241048,22.007173564843068 6.950279668336163,22.007173564843068 6.950318660087458,23.630653581921653 10.90088491779564,23.630653581921653 10.900923909546934,22.007173564843068 10.963037769359891,22.007173564843068 10.963076761111187,23.630653581921653 18.918329827325028,23.630653581921653 18.918368819076324,22.007173564843068 18.984654796277848,22.007173564843068 18.98469378802914,23.630653581921653 23.91391401149087,23.630653581921653 23.913953003242163,22.007173564843068 24.051048000795433,22.007173564843068 24.051086992546725,23.630653581921653 24.784404859152044,23.630653581921653 24.78444385090334,22.007173564843068 24.819965336333098,22.007173564843068 24.820004328084394,23.630653581921653 25.585373414254214,23.630653581921653 25.58541240600551,22.007173564843068 25.66257708181834,22.007173564843068 25.662616073569634,23.630653581921653 25.97131376857226,23.630653581921653 25.97135276032355,22.007173564843068 26.033193677877446,22.007173564843068 26.033232669628738,23.630653581921653 26.464676397708065,23.630653581921653 26.464715389459357,22.007173564843068 26.527180175033973,22.007173564843068 26.527219166785265,23.630653581921653 31.234186407865415,23.630653581921653 31.23422539961671,22.007173564843068 31.269746885046466,22.007173564843068 31.269785876797762,23.630653581921653 39.71516525678993,23.630653581921653 39.71520424854123,22.007173564843068 39.74452604551507,22.007173564843068 39.74456503726637,23.630653581921653 51.47343979381162,23.630653581921653 51.47347878556292,22.007173564843068 51.50241066502382,22.007173564843068 51.502449656775106,23.630653581921653 55.47009430155051,23.630653581921653 55.47013329330181,22.007173564843068 55.491032871995934,22.007173564843068 55.49107186374723,23.630653581921653 58.54541271793952,23.630653581921653 58.545451709690816,22.007173564843068 58.68952623072589,22.007173564843068 58.689565222477185,23.630653581921653 65.79089893533023,23.630653581921653 65.79093792708153,22.007173564843068 66.18986253458081,22.007173564843068 66.18990152633211,23.630653581921653 67.0203868371646,23.630653581921653 67.02042582891589,22.007173564843068 67.2196346862821,22.007173564843068 67.2196736780334,23.630653581921653 69.11697330429747,23.630653581921653 69.11701229604877,22.007173564843068 69.1793601063695,22.007173564843068 69.1793990981208,23.630653581921653 70.50609343593364,23.630653581921653 70.50613242768492,22.007173564843068 70.70222194494754,22.007173564843068 70.70226093669883,23.630653581921653 75.49009706996485,23.630653581921653 75.49013606171614,22.007173564843068 75.57194075593308,22.007173564843068 75.57197974768438,23.630653581921653 78.73873382086019,23.630653581921653 78.73877281261149,22.007173564843068 78.82073347383361,22.007173564843068 78.8207724655849,23.630653581921653 82.79563058434988,23.630653581921653 82.79566957610118,22.007173564843068 82.87790317958235,22.007173564843068 82.87794217133364,23.630653581921653 88.14097077763199,23.630653581921653 88.14100976938329,22.007173564843068 88.17037055810843,22.007173564843068 88.17040954985973,23.630653581921653 90.21611178155261,23.630653581921653 90.21615077330391,22.007173564843068 90.62049523423319,22.007173564843068 90.62053422598449,23.630653581921653 90.75606955348596,23.630653581921653 90.75610854523725,22.007173564843068 90.81880728131964,22.007173564843068 90.81884627307093,23.630653581921653 90.94397080297662,23.630653581921653 90.94400979472792,22.007173564843068 91.14684488496458,22.007173564843068 91.14688387671588,23.630653581921653 92.68834478066165,23.630653581921653 92.68838377241295,22.007173564843068 92.8873976710227,22.007173564843068 92.887436662774,23.630653581921653 97.45122619309885,23.630653581921653 97.45122619309885,23.630653581921653" fill="blue" stroke="blue" stroke-width="0.1" />
<polygon points="3.899175129501354e-05,25.7952936046931 3.899175129501354e-05,25.69382610362569 2.5994630835846677,25.69382610362569 2.599502075335963,25.592358602558278 3.3768806209046476,25.592358602558278 3.3769196126559424,25.69382610362569 62.16996894307009,25.69382610362569 62.170007934821385,25.490891101490867 62.17020289357786,25.490891101490867 62.170241885329155,25.389423600423456 62.37362286008394,25.389423600423456 62.37366185183524,25.592358602558278 62.37381781884042,25.592358602558278 62.37385681059172,25.69382610362569 64.80054744418818,25.69382610362569 64.80058643593948,25.592358602558278 64.92442423805244,25.592358602558278 64.92446322980373,25.69382610362569 67.0203868371646,25.69382610362569 67.02042582891589,25.592358602558278 67.02062078767237,25.592358602558278 67.02065977942367,25.490891101490867 67.0234671855169,25.490891101490867 67.0235061772682,25.389423600423456 67.2196346862821,25.389423600423456 67.2196736780334,25.69382610362569 70.50609343593364,25.69382610362569 70.50613242768492,25.490891101490867 70.50617141943621,25.490891101490867 70.50617141943621,25.389423600423456 70.70218295319624,25.389423600423456 70.70222194494754,25.490891101490867 70.70226093669883,25.490891101490867 70.70226093669883,25.69382610362569 88.10404558915562,25.69382610362569 88.10408458090691,25.592358602558278 88.10427953966338,25.592358602558278 88.10431853141468,25.69382610362569 90.94397080297662,25.69382610362569 90.94400979472792,25.592358602558278 90.9442047534844,25.592358602558278 90.9442437452357,25.490891101490867 90.94693417607505,25.490891101490867 90.94697316782634,25.389423600423456 90.94709014308023,25.389423600423456 90.94712913483153,25.28795609935604 90.94716812658282,25.28795609935604 90.94716812658282,25.18648859828863 91.14684488496458,25.18648859828863 91.14688387671588,25.28795609935604 91.14692286846717,25.28795609935604 91.14692286846717,25.592358602558278 91.14696186021847,25.592358602558278 91.14700085196976,25.69382610362569 92.68834478066165,25.69382610362569 92.68838377241295,25.490891101490867 92.691035211501,25.490891101490867 92.6910742032523,25.389423600423456 92.69119117850619,25.389423600423456 92.69123017025748,25.28795609935604 92.88724170401751,25.28795609935604 92.88728069576881,25.389423600423456 92.8873196875201,25.389423600423456 92.8873586792714,25.490891101490867 92.8873976710227,25.490891101490867 92.887436662774,25.592358602558278 92.88934725858745,25.592358602558278 92.88938625033875,25.69382610362569 97.45122619309885,25.69382610362569 97.45122619309885,25.7952936046931" fill="black" stroke="black" stroke-width="0.1" />
<polygon points="102.45130417660144,21.466013559150205 102.45130417660144,20.552806049543502 102.45134316835274,20.552806049543502 102.45138216010403,20.34987104740868 102.4515381271092,20.34987104740868 102.4515771188605,20.146936045273854 102.46003832889153,20.146936045273854 102.46007732064281,20.045468544206443 102.46709583587592,20.045468544206443 102.46713482762722,20.146936045273854 102.47384140884996,20.146936045273854 102.47388040060125,20.045468544206443 102.48167875086025,20.045468544206443 102.48171774261155,19.944001043139032 102.48261455289133,19.944001043139032 102.48265354464263,19.84253354207162 102.48292648690169,19.84253354207162 102.48296547865299,19.944001043139032 102.49119273817624,19.944001043139032 102.49123172992753,19.84253354207162 102.50121361825906,19.84253354207162 102.50125261001035,19.944001043139032 102.52246412271484,19.944001043139032 102.52250311446613,20.045468544206443 102.52538850406197,20.045468544206443 102.52542749581326,19.944001043139032 102.52550547931585,19.944001043139032 102.52554447106715,19.84253354207162 102.52628531434175,19.84253354207162 102.52632430609304,19.944001043139032 102.539269567523,19.944001043139032 102.53930855927429,20.045468544206443 102.54129713859034,20.045468544206443 102.54133613034163,20.146936045273854 102.54227193237271,20.146936045273854 102.54231092412401,20.248403546341265 102.55221482895294,20.248403546341265 102.55225382070424,20.146936045273854 102.56102696474561,20.146936045273854 102.5610659564969,20.248403546341265 102.56399033784403,20.248403546341265 102.56402932959533,20.34987104740868 102.56519908213417,20.34987104740868 102.56523807388547,20.248403546341265 102.56839640574037,20.248403546341265 102.56843539749167,20.146936045273854 102.57159372934656,20.146936045273854 102.57163272109786,20.248403546341265 102.57635072300455,20.248403546341265 102.57638971475585,20.146936045273854 102.57872921983355,20.146936045273854 102.57876821158484,20.248403546341265 102.58333024648636,20.248403546341265 102.58336923823765,20.146936045273854 102.58711244636197,20.146936045273854 102.58715143811327,20.045468544206443 102.58722942161586,20.045468544206443 102.58726841336716,19.944001043139032 102.5900758194604,19.944001043139032 102.59011481121169,20.045468544206443 102.59432592035155,20.045468544206443 102.59436491210285,19.944001043139032 102.59608054915982,19.944001043139032 102.59611954091112,19.84253354207162 102.60017468304581,19.84253354207162 102.6002136747971,19.944001043139032 102.60150040258983,19.944001043139032 102.60153939434113,20.045468544206443 102.60387889941883,20.045468544206443 102.60391789117013,19.944001043139032 102.61109237340841,19.944001043139032 102.61113136515971,20.045468544206443 102.6182668556467,20.045468544206443 102.61830584739799,20.146936045273854 102.62419360184353,20.146936045273854 102.62423259359483,20.248403546341265 102.62427158534612,20.248403546341265 102.62431057709742,20.45133854847609 102.62434956884871,20.45133854847609 102.62434956884871,21.466013559150205" fill="black" stroke="black" stroke-width="0.1" />
<polygon points="102.45130417660144,23.630653581921653 102.45130417660144,23.630653581921653 102.62431057709742,23.630653581921653 102.62431057709742,23.630653581921653" fill="blue" stroke="blue" stroke-width="0.1" />
<polygon points="102.45130417660144,25.7952936046931 102.45130417660144,25.490891101490867 102.45134316835274,25.490891101490867 102.45138216010403,25.389423600423456 102.50339715633157,25.389423600423456 102.50343614808287,25.28795609935604 102.54866657958509,25.28795609935604 102.54870557133638,25.389423600423456 102.57295844064188,25.389423600423456 102.57299743239318,25.18648859828863 102.61834483914929,25.18648859828863 102.61838383090058,25.389423600423456 102.62431057709742,25.389423600423456 102.62431057709742,25.7952936046931" fill="black" stroke="black" stroke-width="0.1" />
<polygon points="107.62438856060001,21.466013559150205 107.62438856060001,21.263078557015383 107.7424945752726,21.263078557015383 107.7425335670239,21.364546058082794 107.74265054227779,21.364546058082794 107.74268953402908,21.263078557015383 107.80671398965549,21.263078557015383 107.80675298140679,21.364546058082794 107.80679197315808,21.364546058082794 107.80679197315808,21.466013559150205" fill="black" stroke="black" stroke-width="0.1" />
<polygon points="107.62438856060001,23.630653581921653 107.62438856060001,23.630653581921653 107.80675298140679,23.630653581921653 107.80675298140679,23.630653581921653" fill="blue" stroke="blue" stroke-width="0.1" />
<polygon points="107.62438856060001,25.7952936046931 107.62438856060001,25.592358602558278 107.68350005556326,25.592358602558278 107.68353904731454,25.18648859828863 107.72471433668208,25.18648859828863 107.72475332843338,25.08502109722122 107.72869149531417,25.08502109722122 107.72873048706546,25.490891101490867 107.7394142269203,25.490891101490867 107.7394532186716,25.18648859828863 107.74537996486843,25.18648859828863 107.74541895661973,25.28795609935604 107.76351112922062,25.28795609935604 107.76355012097191,25.592358602558278 107.80675298140679,25.592358602558278 107.80675298140679,25.7952936046931" fill="black" stroke="black" stroke-width="0.1" />
<polygon points="112.80683096490938,21.466013559150205 112.80683096490938,21.364546058082794 113.05680708246172,21.364546058082794 113.05684607421301,21.466013559150205 113.05688506596431,21.466013559150205 113.0569240577156,21.364546058082794 113.11864800001561,21.364546058082794 113.11868699176691,21.466013559150205 113.11895993402597,21.466013559150205 113.11895993402597,21.466013559150205" fill="black" stroke="black" stroke-width="0.1" />
<polygon points="112.80683096490938,23.630653581921653 112.80683096490938,23.630653581921653 113.11895993402597,23.630653581921653 113.11895993402597,23.630653581921653" fill="blue" stroke="blue" stroke-width="0.1" />
<polygon points="112.80683096490938,25.7952936046931 112.80683096490938,25.490891101490867 112.92614572387212,25.490891101490867 112.92618471562342,25.592358602558278 112.99017017949853,25.592358602558278 112.99020917124983,25.490891101490867 113.11888195052337,25.490891101490867 113.11892094227467,25.7952936046931 113.11895993402597,25.7952936046931 113.11895993402597,25.7952936046931" fill="black" stroke="black" stroke-width="0.1" />
<polygon points="118.11903791752856,21.466013559150205 118.11903791752856,21.364546058082794 118.17838336299957,21.364546058082794 118.17842235475086,21.263078557015383 118.17916319802546,21.263078557015383 118.17920218977676,21.364546058082794 118.50076716270674,21.364546058082794 118.50080615445803,21.466013559150205 118.50236582450984,21.466013559150205 118.50240481626113,21.364546058082794 118.76427341795844,21.364546058082794 118.76431240970973,21.466013559150205 118.7919965531292,21.466013559150205 118.7919965531292,21.466013559150205" fill="black" stroke="black" stroke-width="0.1" />
<polygon points="118.11903791752856,23.630653581921653 118.11903791752856,23.630653581921653 118.7919965531292,23.630653581921653 118.7919965531292,23.630653581921653" fill="blue" stroke="blue" stroke-width="0.1" />
<polygon points="118.11903791752856,25.7952936046931 118.11903791752856,25.592358602558278 118.22291194297847,25.592358602558278 118.22295093472977,25.69382610362569 118.50076716270674,25.69382610362569 118.50080615445803,25.7952936046931 118.50236582450984,25.7952936046931 118.50240481626113,25.592358602558278 118.7919965531292,25.592358602558278 118.7919965531292,25.7952936046931" fill="black" stroke="black" stroke-width="0.1" />
<polygon points="123.79207453663179,21.466013559150205 123.79207453663179,21.466013559150205 123.79207453663179,21.466013559150205 123.79211352838308,21.364546058082794 123.99639131341766,21.364546058082794 123.99643030516896,21.263078557015383 123.99873081849536,21.263078557015383 123.99876981024666,21.364546058082794 124.0640420019145,21.364546058082794 124.0640809936658,21.263078557015383 124.19914842015173,21.263078557015383 124.19918741190303,21.161611055947972 124.31842418736318,21.161611055947972 124.31846317911447,21.263078557015383 124.31854116261707,21.263078557015383 124.31858015436836,21.364546058082794 124.74195258992961,21.364546058082794 124.7419915816809,21.466013559150205 124.7420305734322,21.466013559150205 124.7420305734322,21.466013559150205" fill="black" stroke="black" stroke-width="0.1" />
<polygon points="123.79207453663179,23.630653581921653 123.79207453663179,23.630653581921653 124.7420305734322,23.630653581921653 124.7420305734322,23.630653581921653" fill="blue" stroke="blue" stroke-width="0.1" />
<polygon points="123.79207453663179,25.7952936046931 123.79207453663179,25.69382610362569 124.06380805140674,25.69382610362569 124.06384704315803,25.592358602558278 124.19493731101187,25.592358602558278 124.19497630276317,25.490891101490867 124.19829060162324,25.490891101490867 124.19832959337454,25.28795609935604 124.25120240813057,25.28795609935604 124.25124139988186,25.389423600423456 124.31854116261707,25.389423600423456 124.31858015436836,25.592358602558278 124.60173825227274,25.592358602558278 124.60177724402403,25.69382610362569 124.74195258992961,25.69382610362569 124.7419915816809,25.7952936046931 124.7420305734322,25.7952936046931 124.7420305734322,25.7952936046931" fill="black" stroke="black" stroke-width="0.1" />
<polygon points="129.7421085569348,21.466013559150205 129.7421085569348,21.364546058082794 129.99879125570988,21.364546058082794 129.99879125570988,21.466013559150205" fill="black" stroke="black" stroke-width="0.1" />
<polygon points="129.7421085569348,23.630653581921653 129.7421085569348,23.630653581921653 129.99879125570988,23.630653581921653 129.99879125570988,23.630653581921653" fill="blue" stroke="blue" stroke-width="0.1" />
<polygon points="129.7421085569348,25.7952936046931 129.7421085569348,25.592358602558278 129.7835177968101,25.592358602558278 129.78355678856138,25.490891101490867 129.78999042752508,25.490891101490867 129.79002941927638,25.389423600423456 129.7999723158566,25.389423600423456 129.8000113076079,25.28795609935604 129.81412632157668,25.28795609935604 129.81416531332798,25.490891101490867 129.99091492194827,25.490891101490867 129.99095391369957,25.592358602558278 129.99879125570988,25.592358602558278 129.99879125570988,25.7952936046931" fill="black" stroke="black" stroke-width="0.1" />
<!-- assembly contigs before -->
<polygon points="0,0 103.07090927878063,0 103.07090927878063,1.8038666856428744 0,1.8038666856428744" fill="grey" stroke="grey" stroke-width="0" />
<polygon points="105.07090927878063,0 105.21510246177301,0 105.21510246177301,1.8038666856428744 105.07090927878063,1.8038666856428744" fill="grey" stroke="grey" stroke-width="0" />
<polygon points="107.21510246177301,0 107.38078035104684,0 107.38078035104684,1.8038666856428744 107.21510246177301,1.8038666856428744" fill="grey" stroke="grey" stroke-width="0" />
<polygon points="109.38078035104684,0 109.53639825080957,0 109.53639825080957,1.8038666856428744 109.38078035104684,1.8038666856428744" fill="grey" stroke="grey" stroke-width="0" />
<polygon points="111.53639825080957,0 111.69174320512045,0 111.69174320512045,1.8038666856428744 111.53639825080957,1.8038666856428744" fill="grey" stroke="grey" stroke-width="0" />
<polygon points="113.69174320512045,0 113.84720513605355,0 113.84720513605355,1.8038666856428744 113.69174320512045,1.8038666856428744" fill="grey" stroke="grey" stroke-width="0" />
<polygon points="115.84720513605355,0 116.00216016829036,0 116.00216016829036,1.8038666856428744 115.84720513605355,1.8038666856428744" fill="grey" stroke="grey" stroke-width="0" />
<polygon points="118.00216016829036,0 118.13734615137164,0 118.13734615137164,1.8038666856428744 118.00216016829036,1.8038666856428744" fill="grey" stroke="grey" stroke-width="0" />
<polygon points="120.13734615137164,0 120.30996465356398,0 120.30996465356398,1.8038666856428744 120.13734615137164,1.8038666856428744" fill="grey" stroke="grey" stroke-width="0" />
<polygon points="122.30996465356398,0 122.45825201833414,0 122.45825201833414,1.8038666856428744 122.30996465356398,1.8038666856428744" fill="grey" stroke="grey" stroke-width="0" />
<polygon points="124.45825201833414,0 124.58825203783024,0 124.58825203783024,1.8038666856428744 124.45825201833414,1.8038666856428744" fill="grey" stroke="grey" stroke-width="0" />
<polygon points="126.58825203783024,0 126.75396891931148,0 126.75396891931148,1.8038666856428744 126.58825203783024,1.8038666856428744" fill="grey" stroke="grey" stroke-width="0" />
<polygon points="128.7539689193115,0 128.8876731985113,0 128.8876731985113,1.8038666856428744 128.7539689193115,1.8038666856428744" fill="grey" stroke="grey" stroke-width="0" />
<polygon points="130.8876731985113,0 131.12139248971096,0 131.12139248971096,1.8038666856428744 130.8876731985113,1.8038666856428744" fill="grey" stroke="grey" stroke-width="0" />
<polygon points="133.12139248971096,0 133.25880102861444,0 133.25880102861444,1.8038666856428744 133.12139248971096,1.8038666856428744" fill="grey" stroke="grey" stroke-width="0" />
<polygon points="135.25880102861444,0 135.41597861667347,0 135.41597861667347,1.8038666856428744 135.25880102861444,1.8038666856428744" fill="grey" stroke="grey" stroke-width="0" />
<polygon points="137.41597861667347,0 137.5678142723177,0 137.5678142723177,1.8038666856428744 137.41597861667347,1.8038666856428744" fill="grey" stroke="grey" stroke-width="0" />
<polygon points="139.5678142723177,0 139.94853418544307,0 139.94853418544307,1.8038666856428744 139.5678142723177,1.8038666856428744" fill="grey" stroke="grey" stroke-width="0" />
<polygon points="141.94853418544307,0 142.2697519900648,0 142.2697519900648,1.8038666856428744 141.94853418544307,1.8038666856428744" fill="grey" stroke="grey" stroke-width="0" />
<polygon points="144.2697519900648,0 145.07014503151547,0 145.07014503151547,1.8038666856428744 144.2697519900648,1.8038666856428744" fill="grey" stroke="grey" stroke-width="0" />
<polygon points="147.07014503151547,0 148.05423036206216,0 148.05423036206216,1.8038666856428744 147.07014503151547,1.8038666856428744" fill="grey" stroke="grey" stroke-width="0" />
<polygon points="150.05423036206216,0 150.32222380357288,0 150.32222380357288,1.8038666856428744 150.05423036206216,1.8038666856428744" fill="grey" stroke="grey" stroke-width="0" />
<!-- assembly contigs after -->
<polygon points="0,43.29280045542899 98.19212630355824,43.29280045542899 98.19212630355824,45.09666714107186 0,45.09666714107186" fill="grey" stroke="grey" stroke-width="0" />
<polygon points="100.19212630355824,43.29280045542899 100.93059971964604,43.29280045542899 100.93059971964604,45.09666714107186 100.19212630355824,45.09666714107186" fill="grey" stroke="grey" stroke-width="0" />
<polygon points="102.93059971964604,43.29280045542899 103.31560877558621,43.29280045542899 103.31560877558621,45.09666714107186 102.93059971964604,45.09666714107186" fill="grey" stroke="grey" stroke-width="0" />
<polygon points="105.31560877558621,43.29280045542899 106.1877864708738,43.29280045542899 106.1877864708738,45.09666714107186 105.31560877558621,45.09666714107186" fill="grey" stroke="grey" stroke-width="0" />
<polygon points="108.1877864708738,43.29280045542899 109.36944531635353,43.29280045542899 109.36944531635353,45.09666714107186 108.1877864708738,45.09666714107186" fill="grey" stroke="grey" stroke-width="0" />
<polygon points="111.36944531635353,43.29280045542899 112.72664707958116,43.29280045542899 112.72664707958116,45.09666714107186 111.36944531635353,45.09666714107186" fill="grey" stroke="grey" stroke-width="0" />
<polygon points="114.72664707958116,43.29280045542899 115.44503950885417,43.29280045542899 115.44503950885417,45.09666714107186 114.72664707958116,45.09666714107186" fill="grey" stroke="grey" stroke-width="0" />
<polygon points="117.44503950885417,43.29280045542899 118.72246321572635,43.29280045542899 118.72246321572635,45.09666714107186 117.44503950885417,45.09666714107186" fill="grey" stroke="grey" stroke-width="0" />
<polygon points="120.72246321572635,43.29280045542899 120.78882795273366,43.29280045542899 120.78882795273366,45.09666714107186 120.72246321572635,45.09666714107186" fill="grey" stroke="grey" stroke-width="0" />
<!-- hits before vs ref -->
<polygon points="89.52981246697847,2.1646400227714495 90.27351083885885,2.1646400227714495 0.7063048449767314,19.481760204943047 0.0,19.481760204943047" fill="lightblue" fill-opacity="0.5" stroke="blue" stroke-width="0.1" />
<polygon points="90.32256303577729,2.1646400227714495 91.69625850273822,2.1646400227714495 2.0698623380117485,19.481760204943047 0.7488453432581499,19.481760204943047" fill="lightblue" fill-opacity="0.5" stroke="blue" stroke-width="0.1" />
<polygon points="91.72756924528633,2.1646400227714495 92.02316916964145,2.1646400227714495 2.39158704132979,19.481760204943047 2.100939127315406,19.481760204943047" fill="lightblue" fill-opacity="0.5" stroke="blue" stroke-width="0.1" />
<polygon points="92.03595861367106,2.1646400227714495 93.11140268617316,2.1646400227714495 3.4578679450911736,19.481760204943047 2.40850965934458,19.481760204943047" fill="lightblue" fill-opacity="0.5" stroke="blue" stroke-width="0.1" />
<polygon points="93.23157666940261,2.1646400227714495 93.84726362436466,2.1646400227714495 4.147718078542003,19.481760204943047 3.5430659182762323,19.481760204943047" fill="lightblue" fill-opacity="0.5" stroke="blue" stroke-width="0.1" />
<polygon points="93.87334941112019,2.1646400227714495 94.62890141405241,2.1646400227714495 4.922532231933448,19.481760204943047 4.178287969149365,19.481760204943047" fill="lightblue" fill-opacity="0.5" stroke="blue" stroke-width="0.1" />
<polygon points="94.70228474839304,2.1646400227714495 96.27963651464256,2.1646400227714495 6.495750824197785,19.481760204943047 4.982112324851879,19.481760204943047" fill="lightblue" fill-opacity="0.5" stroke="blue" stroke-width="0.1" />
<polygon points="96.2315981151167,2.1646400227714495 97.20807996521896,2.1646400227714495 7.405555999633473,19.481760204943047 6.4799199879904,19.481760204943047" fill="lightblue" fill-opacity="0.5" stroke="blue" stroke-width="0.1" />
<polygon points="97.24972364273,2.1646400227714495 98.70881204391303,2.1646400227714495 8.814305461053609,19.481760204943047 7.427625589026033,19.481760204943047" fill="lightblue" fill-opacity="0.5" stroke="blue" stroke-width="0.1" />
<polygon points="98.74776525911297,2.1646400227714495 99.3405247961195,2.1646400227714495 9.389557496934238,19.481760204943047 8.841677990653569,19.481760204943047" fill="lightblue" fill-opacity="0.5" stroke="blue" stroke-width="0.1" />
<polygon points="99.37043181920093,2.1646400227714495 102.69845571362563,2.1646400227714495 12.579548977136918,19.481760204943047 9.417943823926787,19.481760204943047" fill="lightblue" fill-opacity="0.5" stroke="blue" stroke-width="0.1" />
<polygon points="102.74356969759593,2.1646400227714495 103.07090927878063,2.1646400227714495 12.923850168543815,19.481760204943047 12.610820727477613,19.481760204943047" fill="lightblue" fill-opacity="0.5" stroke="blue" stroke-width="0.1" />
<polygon points="0.0,2.1646400227714495 0.5518177192288122,2.1646400227714495 13.454963025639326,19.481760204943047 12.923850168543817,19.481760204943047" fill="lightblue" fill-opacity="0.5" stroke="blue" stroke-width="0.1" />
<polygon points="0.5935783733620836,2.1646400227714495 1.415183175642348,2.1646400227714495 14.261984742349242,19.481760204943047 13.473913238439298,19.481760204943047" fill="lightblue" fill-opacity="0.5" stroke="blue" stroke-width="0.1" />
<polygon points="1.44575306624971,2.1646400227714495 3.099919481091704,2.1646400227714495 15.875716238109813,19.481760204943047 14.28982517843809,19.481760204943047" fill="lightblue" fill-opacity="0.5" stroke="blue" stroke-width="0.1" />
<polygon points="3.1896405503360152,2.1646400227714495 4.1593767485568005,2.1646400227714495 16.872279075026857,19.481760204943047 15.933229744035655,19.481760204943047" fill="lightblue" fill-opacity="0.5" stroke="blue" stroke-width="0.1" />
<polygon points="4.17204921596419,2.1646400227714495 10.68788102697676,2.1646400227714495 23.17673412968418,19.481760204943047 16.881949142463878,19.481760204943047" fill="lightblue" fill-opacity="0.5" stroke="blue" stroke-width="0.1" />
<polygon points="10.863345960309832,2.1646400227714495 11.260637561583318,2.1646400227714495 23.691431267461198,19.481760204943047 23.319562585417305,19.481760204943047" fill="lightblue" fill-opacity="0.5" stroke="blue" stroke-width="0.1" />
<polygon points="11.338232054323944,2.1646400227714495 11.875232734737963,2.1646400227714495 24.251320373623333,19.481760204943047 23.74804795261667,19.481760204943047" fill="lightblue" fill-opacity="0.5" stroke="blue" stroke-width="0.1" />
<polygon points="11.93294120170084,2.1646400227714495 12.891954542884605,2.1646400227714495 25.18335110728121,19.481760204943047 24.284268788882542,19.481760204943047" fill="lightblue" fill-opacity="0.5" stroke="blue" stroke-width="0.1" />
<polygon points="12.918547228336417,2.1646400227714495 13.414645083180126,2.1646400227714495 25.669778894687894,19.481760204943047 25.205030774599695,19.481760204943047" fill="lightblue" fill-opacity="0.5" stroke="blue" stroke-width="0.1" />
<polygon points="13.614792083802053,2.1646400227714495 14.193085511860456,2.1646400227714495 26.369961963101677,19.481760204943047 25.820873698391377,19.481760204943047" fill="lightblue" fill-opacity="0.5" stroke="blue" stroke-width="0.1" />
<polygon points="14.409765208423096,2.1646400227714495 14.89564710492608,2.1646400227714495 27.052988460256216,19.481760204943047 26.586641659664316,19.481760204943047" fill="lightblue" fill-opacity="0.5" stroke="blue" stroke-width="0.1" />
<polygon points="15.018199612807381,2.1646400227714495 15.271492992125523,2.1646400227714495 27.419593194300116,19.481760204943047 27.17503406944122,19.481760204943047" fill="lightblue" fill-opacity="0.5" stroke="blue" stroke-width="0.1" />
<polygon points="15.331696960362471,2.1646400227714495 17.60396784702577,2.1646400227714495 29.638834678889424,19.481760204943047 27.465954928907458,19.481760204943047" fill="lightblue" fill-opacity="0.5" stroke="blue" stroke-width="0.1" />
<polygon points="17.641556334966456,2.1646400227714495 18.620611670757597,2.1646400227714495 30.60241010833985,19.481760204943047 29.66215201891902,19.481760204943047" fill="lightblue" fill-opacity="0.5" stroke="blue" stroke-width="0.1" />
<polygon points="18.700857633601924,2.1646400227714495 22.57169204734434,2.1646400227714495 34.386408876186096,19.481760204943047 30.661483302561983,19.481760204943047" fill="lightblue" fill-opacity="0.5" stroke="blue" stroke-width="0.1" />
<polygon points="22.642111973922013,2.1646400227714495 26.141935534183496,2.1646400227714495 37.8343728005958,19.481760204943047 34.440880989934165,19.481760204943047" fill="lightblue" fill-opacity="0.5" stroke="blue" stroke-width="0.1" />
<polygon points="26.158663191161246,2.1646400227714495 26.613156360701314,2.1646400227714495 38.28695535197291,19.481760204943047 37.843574961543936,19.481760204943047" fill="lightblue" fill-opacity="0.5" stroke="blue" stroke-width="0.1" />
<polygon points="27.012124626893314,2.1646400227714495 27.42871737083344,2.1646400227714495 39.01443296557183,19.481760204943047 38.61597159807612,19.481760204943047" fill="lightblue" fill-opacity="0.5" stroke="blue" stroke-width="0.1" />
<polygon points="27.452853547218588,2.1646400227714495 30.177823961881217,2.1646400227714495 41.68617901712343,19.481760204943047 39.031550544623656,19.481760204943047" fill="lightblue" fill-opacity="0.5" stroke="blue" stroke-width="0.1" />
<polygon points="30.19646223702193,2.1646400227714495 31.619053932071672,2.1646400227714495 43.07609524236581,19.481760204943047 41.699826289716,19.481760204943047" fill="lightblue" fill-opacity="0.5" stroke="blue" stroke-width="0.1" />
<polygon points="31.74246426851594,2.1646400227714495 32.44830120700378,2.1646400227714495 43.85578342168318,19.481760204943047 43.17677312189159,19.481760204943047" fill="lightblue" fill-opacity="0.5" stroke="blue" stroke-width="0.1" />
<polygon points="32.63047280001092,2.1646400227714495 33.7121166334908,2.1646400227714495 45.02933188802218,19.481760204943047 43.99124235021631,19.481760204943047" fill="lightblue" fill-opacity="0.5" stroke="blue" stroke-width="0.1" />
<polygon points="33.826519770023964,2.1646400227714495 34.42657084981567,2.1646400227714495 45.7122024163471,19.481760204943047 45.13102356494055,19.481760204943047" fill="lightblue" fill-opacity="0.5" stroke="blue" stroke-width="0.1" />
<polygon points="34.44661284442304,2.1646400227714495 35.142038863533124,2.1646400227714495 46.39932309527941,19.481760204943047 45.73587068624335,19.481760204943047" fill="lightblue" fill-opacity="0.5" stroke="blue" stroke-width="0.1" />
<polygon points="35.20232081618489,2.1646400227714495 35.94024834136898,2.1646400227714495 47.161347804641245,19.481760204943047 46.45539388953118,19.481760204943047" fill="lightblue" fill-opacity="0.5" stroke="blue" stroke-width="0.1" />
<polygon points="35.95619615419859,2.1646400227714495 36.23175408394633,2.1646400227714495 47.4364768201075,19.481760204943047 47.17004306689308,19.481760204943047" fill="lightblue" fill-opacity="0.5" stroke="blue" stroke-width="0.1" />
<polygon points="36.457869894701545,2.1646400227714495 37.26009556990036,2.1646400227714495 48.45121002567637,19.481760204943047 47.64453923883312,19.481760204943047" fill="lightblue" fill-opacity="0.5" stroke="blue" stroke-width="0.1" />
<polygon points="37.27795400089292,2.1646400227714495 37.91173334009198,2.1646400227714495 49.086705022001354,19.481760204943047 48.47476131895041,19.481760204943047" fill="lightblue" fill-opacity="0.5" stroke="blue" stroke-width="0.1" />
<polygon points="38.14167038717312,2.1646400227714495 39.61300234148205,2.1646400227714495 50.71279704751006,19.481760204943047 49.30802479124547,19.481760204943047" fill="lightblue" fill-opacity="0.5" stroke="blue" stroke-width="0.1" />
<polygon points="39.63897115161535,2.1646400227714495 40.962717600887466,2.1646400227714495 51.96518775722672,19.481760204943047 50.73163028368781,19.481760204943047" fill="lightblue" fill-opacity="0.5" stroke="blue" stroke-width="0.1" />
<polygon points="41.063512457035465,2.1646400227714495 41.36772965922761,2.1646400227714495 52.33951294833727,19.481760204943047 52.04325015645623,19.481760204943047" fill="lightblue" fill-opacity="0.5" stroke="blue" stroke-width="0.1" />
<polygon points="41.417717669123824,2.1646400227714495 42.57582522132952,2.1646400227714495 53.452428532157846,19.481760204943047 52.34216441844097,19.481760204943047" fill="lightblue" fill-opacity="0.5" stroke="blue" stroke-width="0.1" />
<polygon points="42.65844970882569,2.1646400227714495 43.33020745803951,2.1646400227714495 54.154912140808655,19.481760204943047 53.517194588661454,19.481760204943047" fill="lightblue" fill-opacity="0.5" stroke="blue" stroke-width="0.1" />
<polygon points="43.431470220676395,2.1646400227714495 43.73958664360927,2.1646400227714495 54.515122152837755,19.481760204943047 54.21741664928264,19.481760204943047" fill="lightblue" fill-opacity="0.5" stroke="blue" stroke-width="0.1" />
<polygon points="43.76157824858702,2.1646400227714495 44.23634736597891,2.1646400227714495 55.00509823111851,19.481760204943047 54.54327452658586,19.481760204943047" fill="lightblue" fill-opacity="0.5" stroke="blue" stroke-width="0.1" />
<polygon points="44.26040555794924,2.1646400227714495 44.45606845471932,2.1646400227714495 55.21093809402191,19.481760204943047 55.02685588285181,19.481760204943047" fill="lightblue" fill-opacity="0.5" stroke="blue" stroke-width="0.1" />
<polygon points="44.47486269868967,2.1646400227714495 45.75860314316184,2.1646400227714495 56.452956876568216,19.481760204943047 55.22509226531078,19.481760204943047" fill="lightblue" fill-opacity="0.5" stroke="blue" stroke-width="0.1" />
<polygon points="45.768819101502565,2.1646400227714495 46.34680059190171,2.1646400227714495 57.01120831001924,19.481760204943047 56.46297787387191,19.481760204943047" fill="lightblue" fill-opacity="0.5" stroke="blue" stroke-width="0.1" />
<polygon points="46.3764736617387,2.1646400227714495 46.7192151648493,2.1646400227714495 57.37469366747056,19.481760204943047 57.03499355653773,19.481760204943047" fill="lightblue" fill-opacity="0.5" stroke="blue" stroke-width="0.1" />
<polygon points="46.74545692043445,2.1646400227714495 47.573456444729516,2.1646400227714495 58.18998173215083,19.481760204943047 57.39504759973719,19.481760204943047" fill="lightblue" fill-opacity="0.5" stroke="blue" stroke-width="0.1" />
<polygon points="47.655963955603475,2.1646400227714495 50.205391452518214,2.1646400227714495 60.71901630459153,19.481760204943047 58.251862365306295,19.481760204943047" fill="lightblue" fill-opacity="0.5" stroke="blue" stroke-width="0.1" />
<polygon points="50.547002181614005,2.1646400227714495 50.7846596857618,2.1646400227714495 61.22427732817596,19.481760204943047 60.992936561628156,19.481760204943047" fill="lightblue" fill-opacity="0.5" stroke="blue" stroke-width="0.1" />
<polygon points="50.91337296241346,2.1646400227714495 51.198561967390816,2.1646400227714495 61.60016220758281,19.481760204943047 61.33072605439803,19.481760204943047" fill="lightblue" fill-opacity="0.5" stroke="blue" stroke-width="0.1" />
<polygon points="51.26789011216108,2.1646400227714495 52.81841523971434,2.1646400227714495 63.121872093862045,19.481760204943047 61.645822082456824,19.481760204943047" fill="lightblue" fill-opacity="0.5" stroke="blue" stroke-width="0.1" />
<polygon points="84.5360414721118,2.1646400227714495 84.73618847273373,2.1646400227714495 62.37439147786315,19.481760204943047 62.17073517857456,19.481760204943047" fill="lightblue" fill-opacity="0.5" stroke="blue" stroke-width="0.1" />
<polygon points="82.50949947652961,2.1646400227714495 82.72360568740336,2.1646400227714495 62.37439147786315,19.481760204943047 62.17073517857456,19.481760204943047" fill="lightblue" fill-opacity="0.5" stroke="blue" stroke-width="0.1" />
<polygon points="82.72886963540337,2.1646400227714495 82.92804183084012,2.1646400227714495 62.37189597658908,19.481760204943047 62.17096913181901,19.481760204943047" fill="lightblue" fill-opacity="0.5" stroke="blue" stroke-width="0.1" />
<polygon points="56.909789578552726,2.1646400227714495 57.11289998693761,2.1646400227714495 62.37439147786315,19.481760204943047 62.17108610844123,19.481760204943047" fill="lightblue" fill-opacity="0.5" stroke="blue" stroke-width="0.1" />
<polygon points="52.86298333278094,2.1646400227714495 53.31673565038027,2.1646400227714495 63.59664121125393,19.481760204943047 63.159070659728656,19.481760204943047" fill="lightblue" fill-opacity="0.5" stroke="blue" stroke-width="0.1" />
<polygon points="53.38193062116536,2.1646400227714495 55.48817268868817,2.1646400227714495 65.69290127368045,19.481760204943047 63.65134727824644,19.481760204943047" fill="lightblue" fill-opacity="0.5" stroke="blue" stroke-width="0.1" />
<polygon points="55.51901552474738,2.1646400227714495 55.728286701902626,2.1646400227714495 65.92248739089493,19.481760204943047 65.72327620325078,19.481760204943047" fill="lightblue" fill-opacity="0.5" stroke="blue" stroke-width="0.1" />
<polygon points="55.8029567790877,2.1646400227714495 56.697009102730824,2.1646400227714495 66.8390772104195,19.481760204943047 65.98456298508744,19.481760204943047" fill="lightblue" fill-opacity="0.5" stroke="blue" stroke-width="0.1" />
<polygon points="56.76313988649368,2.1646400227714495 57.50414779606295,2.1646400227714495 67.5892092965221,19.481760204943047 66.88477607750092,19.481760204943047" fill="lightblue" fill-opacity="0.5" stroke="blue" stroke-width="0.1" />
<polygon points="82.50641909214444,2.1646400227714495 82.7236836718182,2.1646400227714495 67.22045999107078,19.481760204943047 67.02124880342663,19.481760204943047" fill="lightblue" fill-opacity="0.5" stroke="blue" stroke-width="0.1" />
<polygon points="84.53354597083772,2.1646400227714495 84.73642242597816,2.1646400227714495 67.22061595990041,19.481760204943047 67.02167771770812,19.481760204943047" fill="lightblue" fill-opacity="0.5" stroke="blue" stroke-width="0.1" />
<polygon points="51.8181481430936,2.1646400227714495 52.03241032279699,2.1646400227714495 67.22073293652264,19.481760204943047 67.02409523456737,19.481760204943047" fill="lightblue" fill-opacity="0.5" stroke="blue" stroke-width="0.1" />
<polygon points="82.72886963540337,2.1646400227714495 82.92804183084012,2.1646400227714495 67.2178865053819,19.481760204943047 67.02429019560441,19.481760204943047" fill="lightblue" fill-opacity="0.5" stroke="blue" stroke-width="0.1" />
<polygon points="57.67817001772196,2.1646400227714495 60.60164976029541,2.1646400227714495 70.54711915823623,19.481760204943047 67.73858844309964,19.481760204943047" fill="lightblue" fill-opacity="0.5" stroke="blue" stroke-width="0.1" />
<polygon points="82.50953846873702,2.1646400227714495 82.723761656233,2.1646400227714495 70.70308798786563,19.481760204943047 70.50680121577703,19.481760204943047" fill="lightblue" fill-opacity="0.5" stroke="blue" stroke-width="0.1" />
<polygon points="51.81818713530101,2.1646400227714495 52.032332338382176,2.1646400227714495 70.70312698007304,19.481760204943047 70.50680121577703,19.481760204943047" fill="lightblue" fill-opacity="0.5" stroke="blue" stroke-width="0.1" />
<polygon points="84.53619744094142,2.1646400227714495 84.73634444156335,2.1646400227714495 70.70308798786563,19.481760204943047 70.50695718460666,19.481760204943047" fill="lightblue" fill-opacity="0.5" stroke="blue" stroke-width="0.1" />
<polygon points="82.72886963540337,2.1646400227714495 82.92804183084012,2.1646400227714495 70.70043651776193,19.481760204943047 70.50699617681407,19.481760204943047" fill="lightblue" fill-opacity="0.5" stroke="blue" stroke-width="0.1" />
<polygon points="56.909789578552726,2.1646400227714495 57.11297797135242,2.1646400227714495 70.7030100034508,19.481760204943047 70.50711315343628,19.481760204943047" fill="lightblue" fill-opacity="0.5" stroke="blue" stroke-width="0.1" />
<polygon points="60.667819536265675,2.1646400227714495 61.93475433934528,2.1646400227714495 71.8006406419677,19.481760204943047 70.59597639411764,19.481760204943047" fill="lightblue" fill-opacity="0.5" stroke="blue" stroke-width="0.1" />
<polygon points="62.309742397981765,2.1646400227714495 63.92959567030529,2.1646400227714495 73.6537842912094,19.481760204943047 72.11370907524132,19.481760204943047" fill="lightblue" fill-opacity="0.5" stroke="blue" stroke-width="0.1" />
<polygon points="63.94016255851268,2.1646400227714495 64.35004864277875,2.1646400227714495 74.05396131583103,19.481760204943047 73.66349335085383,19.481760204943047" fill="lightblue" fill-opacity="0.5" stroke="blue" stroke-width="0.1" />
<polygon points="64.42113143688233,2.1646400227714495 67.34831543915948,2.1646400227714495 76.93111831600454,19.481760204943047 74.1057819594754,19.481760204943047" fill="lightblue" fill-opacity="0.5" stroke="blue" stroke-width="0.1" />
<polygon points="67.57010311489249,2.1646400227714495 67.87502217681796,2.1646400227714495 77.40775905935199,19.481760204943047 77.11559044924871,19.481760204943047" fill="lightblue" fill-opacity="0.5" stroke="blue" stroke-width="0.1" />
<polygon points="67.98521415495114,2.1646400227714495 69.77070632434109,2.1646400227714495 79.20401307798636,19.481760204943047 77.4863283572778,19.481760204943047" fill="lightblue" fill-opacity="0.5" stroke="blue" stroke-width="0.1" />
<polygon points="69.93716405776306,2.1646400227714495 70.55577542828065,2.1646400227714495 79.9321535591112,19.481760204943047 79.33600170006024,19.481760204943047" fill="lightblue" fill-opacity="0.5" stroke="blue" stroke-width="0.1" />
<polygon points="70.77534054819144,2.1646400227714495 71.04134538712438,2.1646400227714495 80.36180869253279,19.481760204943047 80.10551291324428,19.481760204943047" fill="lightblue" fill-opacity="0.5" stroke="blue" stroke-width="0.1" />
<polygon points="71.12580250836871,2.1646400227714495 72.68252739689973,2.1646400227714495 81.92134101999716,19.481760204943047 80.41374631279939,19.481760204943047" fill="lightblue" fill-opacity="0.5" stroke="blue" stroke-width="0.1" />
<polygon points="72.9360157372549,2.1646400227714495 73.21321133971375,2.1646400227714495 82.41673701510753,19.481760204943047 82.15108310604126,19.481760204943047" fill="lightblue" fill-opacity="0.5" stroke="blue" stroke-width="0.1" />
<polygon points="73.33591981642469,2.1646400227714495 73.5630494245725,2.1646400227714495 82.73233994186262,19.481760204943047 82.5147634245296,19.481760204943047" fill="lightblue" fill-opacity="0.5" stroke="blue" stroke-width="0.1" />
<polygon points="73.60699364232059,2.1646400227714495 74.00194571114963,2.1646400227714495 83.14534540272126,19.481760204943047 82.76080425326998,19.481760204943047" fill="lightblue" fill-opacity="0.5" stroke="blue" stroke-width="0.1" />
<polygon points="74.2267747790604,2.1646400227714495 74.4898941946452,2.1646400227714495 83.6160593305428,19.481760204943047 83.35430464221726,19.481760204943047" fill="lightblue" fill-opacity="0.5" stroke="blue" stroke-width="0.1" />
<polygon points="74.53465724874884,2.1646400227714495 74.75227275828927,2.1646400227714495 83.85051947368318,19.481760204943047 83.64549844713534,19.481760204943047" fill="lightblue" fill-opacity="0.5" stroke="blue" stroke-width="0.1" />
<polygon points="74.8288534536373,2.1646400227714495 75.20598608368118,2.1646400227714495 84.26605942802331,19.481760204943047 83.91169824710532,19.481760204943047" fill="lightblue" fill-opacity="0.5" stroke="blue" stroke-width="0.1" />
<polygon points="75.38671496501424,2.1646400227714495 76.65813387194568,2.1646400227714495 85.62653653667314,19.481760204943047 84.40627540586014,19.481760204943047" fill="lightblue" fill-opacity="0.5" stroke="blue" stroke-width="0.1" />
<polygon points="76.9255424303453,2.1646400227714495 77.6555155452183,2.1646400227714495 86.53833031468662,19.481760204943047 85.8299978749247,19.481760204943047" fill="lightblue" fill-opacity="0.5" stroke="blue" stroke-width="0.1" />
<polygon points="77.9686229706993,2.1646400227714495 78.33659243200246,2.1646400227714495 87.15779951376717,19.481760204943047 86.8109638288788,19.481760204943047" fill="lightblue" fill-opacity="0.5" stroke="blue" stroke-width="0.1" />
<polygon points="78.42003575585419,2.1646400227714495 79.31346420417879,2.1646400227714495 88.10527116155836,19.481760204943047 87.2316507545967,19.481760204943047" fill="lightblue" fill-opacity="0.5" stroke="blue" stroke-width="0.1" />
<polygon points="79.573464243171,2.1646400227714495 81.25687481356852,2.1646400227714495 89.74419162330408,19.481760204943047 88.10511519272873,19.481760204943047" fill="lightblue" fill-opacity="0.5" stroke="blue" stroke-width="0.1" />
<polygon points="81.3178196337462,2.1646400227714495 82.0621808731525,2.1646400227714495 90.50075742362888,19.481760204943047 89.77444957625218,19.481760204943047" fill="lightblue" fill-opacity="0.5" stroke="blue" stroke-width="0.1" />
<polygon points="82.08775976121173,2.1646400227714495 82.7237226640256,2.1646400227714495 91.14798907438347,19.481760204943047 90.52547848312514,19.481760204943047" fill="lightblue" fill-opacity="0.5" stroke="blue" stroke-width="0.1" />
<polygon points="56.90631927209347,2.1646400227714495 57.11297797135242,2.1646400227714495 91.14795008217608,19.481760204943047 90.94507362703564,19.481760204943047" fill="lightblue" fill-opacity="0.5" stroke="blue" stroke-width="0.1" />
<polygon points="84.53374093187476,2.1646400227714495 84.73630544935594,2.1646400227714495 91.14798907438347,19.481760204943047 90.94573649456156,19.481760204943047" fill="lightblue" fill-opacity="0.5" stroke="blue" stroke-width="0.1" />
<polygon points="51.8181481430936,2.1646400227714495 52.03213737734514,2.1646400227714495 91.14787209776127,19.481760204943047 90.9480370347986,19.481760204943047" fill="lightblue" fill-opacity="0.5" stroke="blue" stroke-width="0.1" />
<polygon points="82.72886963540337,2.1646400227714495 82.93104423081047,2.1646400227714495 91.14857395749459,19.481760204943047 90.94823199583563,19.481760204943047" fill="lightblue" fill-opacity="0.5" stroke="blue" stroke-width="0.1" />
<polygon points="82.94270290082527,2.1646400227714495 83.87266704749055,2.1646400227714495 92.07339113278212,19.481760204943047 91.16085650282791,19.481760204943047" fill="lightblue" fill-opacity="0.5" stroke="blue" stroke-width="0.1" />
<polygon points="83.9131799509868,2.1646400227714495 85.3058256307477,2.1646400227714495 93.42384724412825,19.481760204943047 92.09854110655985,19.481760204943047" fill="lightblue" fill-opacity="0.5" stroke="blue" stroke-width="0.1" />
<polygon points="56.906592217545324,2.1646400227714495 57.11297797135243,2.1646400227714495 92.88844524421795,19.481760204943047 92.68946800981824,19.481760204943047" fill="lightblue" fill-opacity="0.5" stroke="blue" stroke-width="0.1" />
<polygon points="82.50661405318147,2.1646400227714495 82.723761656233,2.1646400227714495 92.88852322863276,19.481760204943047 92.68950700202565,19.481760204943047" fill="lightblue" fill-opacity="0.5" stroke="blue" stroke-width="0.1" />
<polygon points="51.8181481430936,2.1646400227714495 52.03229334617477,2.1646400227714495 92.88856222084017,19.481760204943047 92.69215847212935,19.481760204943047" fill="lightblue" fill-opacity="0.5" stroke="blue" stroke-width="0.1" />
<polygon points="82.72886963540337,2.1646400227714495 82.92804183084012,2.1646400227714495 92.88587175852906,19.481760204943047 92.69235343316639,19.481760204943047" fill="lightblue" fill-opacity="0.5" stroke="blue" stroke-width="0.1" />
<polygon points="85.38256229492536,2.1646400227714495 86.79521097708623,2.1646400227714495 94.83981026391875,19.481760204943047 93.47274347221708,19.481760204943047" fill="lightblue" fill-opacity="0.5" stroke="blue" stroke-width="0.1" />
<polygon points="86.8582223842565,2.1646400227714495 87.51937425305553,2.1646400227714495 95.53667899470291,19.481760204943047 94.9053561645705,19.481760204943047" fill="lightblue" fill-opacity="0.5" stroke="blue" stroke-width="0.1" />
<polygon points="87.54167779569254,2.1646400227714495 89.52977347477108,2.1646400227714495 97.4524051368334,19.481760204943047 95.55750083345843,19.481760204943047" fill="lightblue" fill-opacity="0.5" stroke="blue" stroke-width="0.1" />
<polygon points="79.31389311846027,2.1646400227714495 79.57334726654878,2.1646400227714495 124.31846933708712,19.481760204943047 124.06408417596157,19.481760204943047" fill="lightblue" fill-opacity="0.5" stroke="blue" stroke-width="0.1" />
<polygon points="105.12132620295833,2.1646400227714495 105.215102461773,2.1646400227714495 102.54133718396112,19.481760204943047 102.45126518485014,19.481760204943047" fill="lightblue" fill-opacity="0.5" stroke="blue" stroke-width="0.1" />
<polygon points="105.07090927878063,2.1646400227714495 105.12128721075094,2.1646400227714495 102.62435159353136,19.481760204943047 102.57639117842032,19.481760204943047" fill="lightblue" fill-opacity="0.5" stroke="blue" stroke-width="0.1" />
<polygon points="107.24680312639519,2.1646400227714495 107.38074135883944,2.1646400227714495 102.57876970307218,19.481760204943047 102.45126518485014,19.481760204943047" fill="lightblue" fill-opacity="0.5" stroke="blue" stroke-width="0.1" />
<polygon points="107.21510246177301,2.1646400227714495 107.24676413418779,2.1646400227714495 102.62435159353137,19.481760204943047 102.59436658603512,19.481760204943047" fill="lightblue" fill-opacity="0.5" stroke="blue" stroke-width="0.1" />
<polygon points="109.41899271430604,2.1646400227714495 109.53639825080957,2.1646400227714495 102.5640306486722,19.481760204943047 102.45126518485014,19.481760204943047" fill="lightblue" fill-opacity="0.5" stroke="blue" stroke-width="0.1" />
<polygon points="109.38078035104684,2.1646400227714495 109.41895372209864,2.1646400227714495 102.62435159353137,19.481760204943047 102.58715302766475,19.481760204943047" fill="lightblue" fill-opacity="0.5" stroke="blue" stroke-width="0.1" />
<polygon points="111.56614930506137,2.1646400227714495 111.69174320512045,2.1646400227714495 102.57163412911663,19.481760204943047 102.45126518485014,19.481760204943047" fill="lightblue" fill-opacity="0.5" stroke="blue" stroke-width="0.1" />
<polygon points="111.53639825080957,2.1646400227714495 111.56614930506137,2.1646400227714495 102.62435159353136,19.481760204943047 102.59612123536844,19.481760204943047" fill="lightblue" fill-opacity="0.5" stroke="blue" stroke-width="0.1" />
<polygon points="113.73108634239446,2.1646400227714495 113.84720513605355,2.1646400227714495 102.56106724090924,19.481760204943047 102.45126518485014,19.481760204943047" fill="lightblue" fill-opacity="0.5" stroke="blue" stroke-width="0.1" />
<polygon points="113.69186018174267,2.1646400227714495 113.73089138135742,2.1646400227714495 102.62423461690915,19.481760204943047 102.58727000428698,19.481760204943047" fill="lightblue" fill-opacity="0.5" stroke="blue" stroke-width="0.1" />
<polygon points="115.91045049646827,2.1646400227714495 116.00216016829036,2.1646400227714495 102.53930958917594,19.481760204943047 102.45138216147237,19.481760204943047" fill="lightblue" fill-opacity="0.5" stroke="blue" stroke-width="0.1" />
<polygon points="115.84720513605355,2.1646400227714495 115.91029452763864,2.1646400227714495 102.62435159353137,19.481760204943047 102.56523940710183,19.481760204943047" fill="lightblue" fill-opacity="0.5" stroke="blue" stroke-width="0.1" />
<polygon points="118.05986863525324,2.1646400227714495 118.13691723709016,2.1646400227714495 102.5263251841093,19.481760204943047 102.45138216147237,19.481760204943047" fill="lightblue" fill-opacity="0.5" stroke="blue" stroke-width="0.1" />
<polygon points="118.00216016829036,2.1646400227714495 118.05971266642361,2.1646400227714495 102.62431260132395,19.481760204943047 102.56843676810922,19.481760204943047" fill="lightblue" fill-opacity="0.5" stroke="blue" stroke-width="0.1" />
<polygon points="120.15922077972716,2.1646400227714495 120.30996465356398,2.1646400227714495 102.59011643542772,19.481760204943047 102.4515771225094,19.481760204943047" fill="lightblue" fill-opacity="0.5" stroke="blue" stroke-width="0.1" />
<polygon points="120.13734615137164,2.1646400227714495 120.15840194337162,2.1646400227714495 102.62435159353136,19.481760204943047 102.60391967684991,19.481760204943047" fill="lightblue" fill-opacity="0.5" stroke="blue" stroke-width="0.1" />
<polygon points="122.30996465356398,2.1646400227714495 122.4580570572971,2.1646400227714495 102.60021541714622,19.481760204943047 102.4600774237242,19.481760204943047" fill="lightblue" fill-opacity="0.5" stroke="blue" stroke-width="0.1" />
<polygon points="124.45825201833414,2.1646400227714495 124.58825203783024,2.1646400227714495 102.60154115219807,19.481760204943047 102.47388066514641,19.481760204943047" fill="lightblue" fill-opacity="0.5" stroke="blue" stroke-width="0.1" />
<polygon points="126.73755319999299,2.1646400227714495 126.75381295048186,2.1646400227714495 102.46713501326494,19.481760204943047 102.45126518485014,19.481760204943047" fill="lightblue" fill-opacity="0.5" stroke="blue" stroke-width="0.1" />
<polygon points="126.58825203783024,2.1646400227714495 126.73755319999299,2.1646400227714495 102.62435159353137,19.481760204943047 102.48171809883529,19.481760204943047" fill="lightblue" fill-opacity="0.5" stroke="blue" stroke-width="0.1" />
<polygon points="128.7539689193115,2.1646400227714495 128.8876731985113,2.1646400227714495 102.61113323522028,19.481760204943047 102.48265391181306,19.481760204943047" fill="lightblue" fill-opacity="0.5" stroke="blue" stroke-width="0.1" />
<polygon points="131.0256276283185,2.1646400227714495 131.1213145052961,2.1646400227714495 102.5423119891463,19.481760204943047 102.45126518485014,19.481760204943047" fill="lightblue" fill-opacity="0.5" stroke="blue" stroke-width="0.1" />
<polygon points="130.8876731985113,2.1646400227714495 131.0256276283185,2.1646400227714495 102.62431260132395,19.481760204943047 102.49123219744267,19.481760204943047" fill="lightblue" fill-opacity="0.5" stroke="blue" stroke-width="0.1" />
<polygon points="133.22604757439228,2.1646400227714495 133.25880102861444,2.1646400227714495 102.48296584947232,19.481760204943047 102.45126518485014,19.481760204943047" fill="lightblue" fill-opacity="0.5" stroke="blue" stroke-width="0.1" />
<polygon points="133.12139248971096,2.1646400227714495 133.22600858218487,2.1646400227714495 102.62435159353136,19.481760204943047 102.52542836333892,19.481760204943047" fill="lightblue" fill-opacity="0.5" stroke="blue" stroke-width="0.1" />
<polygon points="135.36400200419948,2.1646400227714495 135.41597861667347,2.1646400227714495 102.50125319474637,19.481760204943047 102.4515771225094,19.481760204943047" fill="lightblue" fill-opacity="0.5" stroke="blue" stroke-width="0.1" />
<polygon points="135.25880102861444,2.1646400227714495 135.36376805095503,2.1646400227714495 102.62435159353136,19.481760204943047 102.52554533996114,19.481760204943047" fill="lightblue" fill-opacity="0.5" stroke="blue" stroke-width="0.1" />
<polygon points="137.49318318734004,2.1646400227714495 137.5678142723177,2.1646400227714495 102.52250394778338,19.481760204943047 102.45126518485014,19.481760204943047" fill="lightblue" fill-opacity="0.5" stroke="blue" stroke-width="0.1" />
<polygon points="137.41597861667347,2.1646400227714495 137.49318318734004,2.1646400227714495 102.62435159353137,19.481760204943047 102.55225500203518,19.481760204943047" fill="lightblue" fill-opacity="0.5" stroke="blue" stroke-width="0.1" />
<polygon points="139.7084981566434,2.1646400227714495 139.74495587056927,2.1646400227714495 102.61830780138322,19.481760204943047 102.58337078354624,19.481760204943047" fill="lightblue" fill-opacity="0.5" stroke="blue" stroke-width="0.1" />
<polygon points="139.82598167756174,2.1646400227714495 139.94853418544304,2.1646400227714495 107.7425349495004,19.481760204943047 107.62434956884871,19.481760204943047" fill="lightblue" fill-opacity="0.5" stroke="blue" stroke-width="0.1" />
<polygon points="139.63725939371017,2.1646400227714495 139.82598167756174,2.1646400227714495 107.80679410730771,19.481760204943047 107.62434956884871,19.481760204943047" fill="lightblue" fill-opacity="0.5" stroke="blue" stroke-width="0.1" />
<polygon points="139.56843814763621,2.1646400227714495 139.63718140929538,2.1646400227714495 107.8067551151003,19.481760204943047 107.74269091833003,19.481760204943047" fill="lightblue" fill-opacity="0.5" stroke="blue" stroke-width="0.1" />
<polygon points="142.01189652248001,2.1646400227714495 142.2697519900648,2.1646400227714495 113.05684899926142,19.481760204943047 112.80679197315808,19.481760204943047" fill="lightblue" fill-opacity="0.5" stroke="blue" stroke-width="0.1" />
<polygon points="141.94853418544307,2.1646400227714495 142.01146760819853,2.1646400227714495 113.11869064020948,19.481760204943047 113.05692698367623,19.481760204943047" fill="lightblue" fill-opacity="0.5" stroke="blue" stroke-width="0.1" />
<polygon points="145.0093561801674,2.1646400227714495 145.07014503151547,2.1646400227714495 118.17920289401421,19.481760204943047 118.11899892577726,19.481760204943047" fill="lightblue" fill-opacity="0.5" stroke="blue" stroke-width="0.1" />
<polygon points="144.2697519900648,2.1646400227714495 144.61631472950134,2.1646400227714495 118.50081062071004,19.481760204943047 118.17842304986607,19.481760204943047" fill="lightblue" fill-opacity="0.5" stroke="blue" stroke-width="0.1" />
<polygon points="144.71515997527897,2.1646400227714495 144.98545395702672,2.1646400227714495 118.7643199583689,19.481760204943047 118.50240930121373,19.481760204943047" fill="lightblue" fill-opacity="0.5" stroke="blue" stroke-width="0.1" />
<polygon points="144.74436513862707,2.1646400227714495 144.61631472950134,2.1646400227714495 124.31858631370935,19.481760204943047 124.19919217462804,19.481760204943047" fill="pink" fill-opacity="0.5" stroke="orchid" stroke-width="0.1" />
<polygon points="147.27037001655222,2.1646400227714495 147.14727161776722,2.1646400227714495 64.92522269424455,19.481760204943047 64.80247522532622,19.481760204943047" fill="pink" fill-opacity="0.5" stroke="orchid" stroke-width="0.1" />
<polygon points="147.8263599019736,2.1646400227714495 148.05423036206216,2.1646400227714495 123.99877222855426,19.481760204943047 123.7921135292953,19.481760204943047" fill="lightblue" fill-opacity="0.5" stroke="blue" stroke-width="0.1" />
<polygon points="147.07014503151547,2.1646400227714495 147.82600897210693,2.1646400227714495 124.74200269394575,19.481760204943047 123.99643269610982,19.481760204943047" fill="lightblue" fill-opacity="0.5" stroke="blue" stroke-width="0.1" />
<polygon points="150.2464619445804,2.1646400227714495 150.32222380357288,2.1646400227714495 129.81560886835376,19.481760204943047 129.7420695651835,19.481760204943047" fill="lightblue" fill-opacity="0.5" stroke="blue" stroke-width="0.1" />
<polygon points="150.05454229972142,2.1646400227714495 150.2464619445804,2.1646400227714495 129.9988332509609,19.481760204943047 129.81560886835376,19.481760204943047" fill="lightblue" fill-opacity="0.5" stroke="blue" stroke-width="0.1" />
<!-- hits after vs ref -->
<polygon points="0.0,26.69722694751454 3.376959114720923,26.69722694751454 10.045874332014748,42.93202711830041 6.667628474449382,42.93202711830041" fill="lightblue" fill-opacity="0.5" stroke="blue" stroke-width="0.1" />
<polygon points="2.599532483433186,26.69722694751454 88.10534914597316,26.69722694751454 94.77399141781515,42.93202711830041 9.267160957882567,42.93202711830041" fill="lightblue" fill-opacity="0.5" stroke="blue" stroke-width="0.1" />
<polygon points="62.17073517857456,26.69722694751454 62.37439147786315,26.69722694751454 2.103590597419106,42.93202711830041 1.9073038253305077,42.93202711830041" fill="lightblue" fill-opacity="0.5" stroke="blue" stroke-width="0.1" />
<polygon points="62.17073517857456,26.69722694751454 62.37439147786315,26.69722694751454 98.0715623982547,42.93202711830041 97.87164935087722,42.93202711830041" fill="lightblue" fill-opacity="0.5" stroke="blue" stroke-width="0.1" />
<polygon points="62.17096913181901,26.69722694751454 62.37458643890019,26.69722694751454 0.36317341979205453,42.93202711830041 0.16688664770345646,42.93202711830041" fill="lightblue" fill-opacity="0.5" stroke="blue" stroke-width="0.1" />
<polygon points="67.02120981121922,26.69722694751454 67.22045999107078,26.69722694751454 98.07164038266953,42.93202711830041 97.86868594311427,42.93202711830041" fill="lightblue" fill-opacity="0.5" stroke="blue" stroke-width="0.1" />
<polygon points="67.02144376446367,26.69722694751454 67.22045999107078,26.69722694751454 2.1036685818339205,42.93202711830041 1.9046133630194007,42.93202711830041" fill="lightblue" fill-opacity="0.5" stroke="blue" stroke-width="0.1" />
<polygon points="67.02429019560441,26.69722694751454 67.22045999107078,26.69722694751454 0.36305644316983254,42.93202711830041 0.16688664770345646,42.93202711830041" fill="lightblue" fill-opacity="0.5" stroke="blue" stroke-width="0.1" />
<polygon points="70.50695718460666,26.69722694751454 70.70308798786563,26.69722694751454 2.103746566248735,42.93202711830041 1.907459794160137,42.93202711830041" fill="lightblue" fill-opacity="0.5" stroke="blue" stroke-width="0.1" />
<polygon points="70.50695718460666,26.69722694751454 70.70308798786563,26.69722694751454 98.07171836708433,42.93202711830041 97.87180531970685,42.93202711830041" fill="lightblue" fill-opacity="0.5" stroke="blue" stroke-width="0.1" />
<polygon points="70.50699617681407,26.69722694751454 70.70304899565822,26.69722694751454 0.3630954353772399,42.93202711830041 0.16688664770345646,42.93202711830041" fill="lightblue" fill-opacity="0.5" stroke="blue" stroke-width="0.1" />
<polygon points="88.10511519272873,26.69722694751454 91.14798907438349,26.69722694751454 98.07167937487694,42.93202711830041 95.02872750880736,42.93202711830041" fill="lightblue" fill-opacity="0.5" stroke="blue" stroke-width="0.1" />
<polygon points="90.94507362703564,26.69722694751454 91.14795008217608,26.69722694751454 73.88898528629053,42.93202711830041 73.68981309085379,42.93202711830041" fill="lightblue" fill-opacity="0.5" stroke="blue" stroke-width="0.1" />
<polygon points="90.94530758028009,26.69722694751454 91.14798907438349,26.69722694751454 2.103707574041328,42.93202711830041 1.9046133630194007,42.93202711830041" fill="lightblue" fill-opacity="0.5" stroke="blue" stroke-width="0.1" />
<polygon points="90.9480370347986,26.69722694751454 91.1480670587983,26.69722694751454 69.04311173411993,42.93202711830041 68.83926047379431,42.93202711830041" fill="lightblue" fill-opacity="0.5" stroke="blue" stroke-width="0.1" />
<polygon points="90.94819300362822,26.69722694751454 91.14798907438347,26.69722694751454 77.37169126750018,42.93202711830041 77.1754824798264,42.93202711830041" fill="lightblue" fill-opacity="0.5" stroke="blue" stroke-width="0.1" />
<polygon points="90.94823199583563,26.69722694751454 97.45240513683339,26.69722694751454 6.667628474449381,42.93202711830041 0.16688664770345646,42.93202711830041" fill="lightblue" fill-opacity="0.5" stroke="blue" stroke-width="0.1" />
<polygon points="92.68946800981824,26.69722694751454 92.88844524421795,26.69722694751454 73.88898528629053,42.93202711830041 73.69004704409824,42.93202711830041" fill="lightblue" fill-opacity="0.5" stroke="blue" stroke-width="0.1" />
<polygon points="92.68946800981824,26.69722694751454 92.89047283900312,26.69722694751454 98.07362898524731,42.93202711830041 97.86891989635872,42.93202711830041" fill="lightblue" fill-opacity="0.5" stroke="blue" stroke-width="0.1" />
<polygon points="92.69215847212935,26.69722694751454 92.88836725980313,26.69722694751454 69.0429167730829,42.93202711830041 68.83926047379431,42.93202711830041" fill="lightblue" fill-opacity="0.5" stroke="blue" stroke-width="0.1" />
<polygon points="92.69231444095898,26.69722694751454 92.88852322863276,26.69722694751454 77.37173025970759,42.93202711830041 77.1754824798264,42.93202711830041" fill="lightblue" fill-opacity="0.5" stroke="blue" stroke-width="0.1" />
<polygon points="124.06385022271712,26.69722694751454 124.31858631370933,26.69722694751454 95.02872750880736,42.93202711830041 94.77399141781515,42.93202711830041" fill="lightblue" fill-opacity="0.5" stroke="blue" stroke-width="0.1" />
<polygon points="102.45126518485014,26.69722694751454 102.62435159353137,26.69722694751454 100.48620553182448,42.93202711830041 100.31308013093584,42.93202711830041" fill="lightblue" fill-opacity="0.5" stroke="blue" stroke-width="0.1" />
<polygon points="102.45126518485014,26.69722694751454 102.62435159353137,26.69722694751454 100.83276827126099,42.93202711830041 100.6593309327131,42.93202711830041" fill="lightblue" fill-opacity="0.5" stroke="blue" stroke-width="0.1" />
<polygon points="102.45126518485014,26.69722694751454 102.54870671116112,26.69722694751454 100.93059971964603,42.93202711830041 100.83276827126099,42.93202711830041" fill="lightblue" fill-opacity="0.5" stroke="blue" stroke-width="0.1" />
<polygon points="102.45138216147237,26.69722694751454 102.62435159353137,26.69722694751454 100.6593309327131,42.93202711830041 100.4863615006541,42.93202711830041" fill="lightblue" fill-opacity="0.5" stroke="blue" stroke-width="0.1" />
<polygon points="102.50343675836118,26.69722694751454 102.62435159353137,26.69722694751454 100.31308013093584,42.93202711830041 100.19212630355824,42.93202711830041" fill="lightblue" fill-opacity="0.5" stroke="blue" stroke-width="0.1" />
<polygon points="107.68353973969307,26.69722694751454 107.72873170807819,26.69722694751454 100.30711432320251,42.93202711830041 100.26172739378036,42.93202711830041" fill="lightblue" fill-opacity="0.5" stroke="blue" stroke-width="0.1" />
<polygon points="107.68353973969307,26.69722694751454 107.72873170807819,26.69722694751454 100.48023972409115,42.93202711830041 100.43477481025418,42.93202711830041" fill="lightblue" fill-opacity="0.5" stroke="blue" stroke-width="0.1" />
<polygon points="107.68353973969307,26.69722694751454 107.72873170807819,26.69722694751454 100.65336512497977,42.93202711830041 100.60797819555762,42.93202711830041" fill="lightblue" fill-opacity="0.5" stroke="blue" stroke-width="0.1" />
<polygon points="107.68353973969307,26.69722694751454 107.72873170807819,26.69722694751454 100.82680246352767,42.93202711830041 100.78106460423885,42.93202711830041" fill="lightblue" fill-opacity="0.5" stroke="blue" stroke-width="0.1" />
<polygon points="102.57299885637589,26.69722694751454 102.61838578579804,26.69722694751454 103.29884212640104,42.93202711830041 103.25365015801593,42.93202711830041" fill="lightblue" fill-opacity="0.5" stroke="blue" stroke-width="0.1" />
<polygon points="102.57299885637589,26.69722694751454 102.61838578579804,26.69722694751454 103.11639758794206,42.93202711830041 103.07120561955695,42.93202711830041" fill="lightblue" fill-opacity="0.5" stroke="blue" stroke-width="0.1" />
<polygon points="107.62434956884871,26.69722694751454 107.74542037284853,26.69722694751454 103.3156087755862,42.93202711830041 103.19445998717157,42.93202711830041" fill="lightblue" fill-opacity="0.5" stroke="blue" stroke-width="0.1" />
<polygon points="107.62434956884871,26.69722694751454 107.80679410730771,26.69722694751454 103.19445998717158,42.93202711830041 103.01201544871259,42.93202711830041" fill="lightblue" fill-opacity="0.5" stroke="blue" stroke-width="0.1" />
<polygon points="107.72475450292264,26.69722694751454 107.8067941073077,26.69722694751454 103.01201544871259,42.93202711830041 102.93059971964604,42.93202711830041" fill="lightblue" fill-opacity="0.5" stroke="blue" stroke-width="0.1" />
<polygon points="129.79002998029455,26.69722694751454 129.8141661566797,26.69722694751454 103.15121762915683,42.93202711830041 103.12712044497908,42.93202711830041" fill="lightblue" fill-opacity="0.5" stroke="blue" stroke-width="0.1" />
<polygon points="129.80001198539082,26.69722694751454 129.8141661566797,26.69722694751454 102.96877309069784,42.93202711830041 102.95457992720156,42.93202711830041" fill="lightblue" fill-opacity="0.5" stroke="blue" stroke-width="0.1" />
<polygon points="112.80679197315808,26.69722694751454 112.92618611223939,26.69722694751454 106.18778647087382,42.93202711830041 106.06850930841473,42.93202711830041" fill="lightblue" fill-opacity="0.5" stroke="blue" stroke-width="0.1" />
<polygon points="112.80679197315808,26.69722694751454 113.11892459345391,26.69722694751454 106.0684313239999,42.93202711830041 105.75614273487444,42.93202711830041" fill="lightblue" fill-opacity="0.5" stroke="blue" stroke-width="0.1" />
<polygon points="112.80679197315808,26.69722694751454 113.11892459345391,26.69722694751454 105.75606475045963,42.93202711830041 105.4438931379564,42.93202711830041" fill="lightblue" fill-opacity="0.5" stroke="blue" stroke-width="0.1" />
<polygon points="112.99021131680226,26.69722694751454 113.11892459345393,26.69722694751454 105.44381515354158,42.93202711830041 105.31560877558621,42.93202711830041" fill="lightblue" fill-opacity="0.5" stroke="blue" stroke-width="0.1" />
<polygon points="118.11899892577726,26.69722694751454 118.22295215072526,26.69722694751454 109.36944531635353,42.93202711830041 109.26537511478332,42.93202711830041" fill="lightblue" fill-opacity="0.5" stroke="blue" stroke-width="0.1" />
<polygon points="118.11899892577726,26.69722694751454 118.50081062071003,26.69722694751454 108.88399233413203,42.93202711830041 108.50210265478445,42.93202711830041" fill="lightblue" fill-opacity="0.5" stroke="blue" stroke-width="0.1" />
<polygon points="118.50240930121373,26.69722694751454 118.79204341783553,26.69722694751454 109.26537511478332,42.93202711830041 108.97574099816153,42.93202711830041" fill="lightblue" fill-opacity="0.5" stroke="blue" stroke-width="0.1" />
<polygon points="118.50240930121373,26.69722694751454 118.79204341783553,26.69722694751454 108.50210265478444,42.93202711830041 108.21215660050339,42.93202711830041" fill="lightblue" fill-opacity="0.5" stroke="blue" stroke-width="0.1" />
<polygon points="124.19833434606508,26.69722694751454 124.31858631370935,26.69722694751454 108.88399233413203,42.93202711830041 109.0042443017763,42.93202711830041" fill="pink" fill-opacity="0.5" stroke="orchid" stroke-width="0.1" />
<polygon points="124.19833434606508,26.69722694751454 124.25124677151686,26.69722694751454 108.1877864708738,42.93202711830041 108.24065990411817,42.93202711830041" fill="pink" fill-opacity="0.5" stroke="orchid" stroke-width="0.1" />
<polygon points="64.80134445131141,26.69722694751454 64.92522269424455,26.69722694751454 112.19888755232267,42.93202711830041 112.32276579525582,42.93202711830041" fill="pink" fill-opacity="0.5" stroke="orchid" stroke-width="0.1" />
<polygon points="123.79203554488049,26.69722694751454 124.60178671610892,26.69722694751454 112.72664707958116,42.93202711830041 111.91693490056014,42.93202711830041" fill="lightblue" fill-opacity="0.5" stroke="blue" stroke-width="0.1" />
<polygon points="124.19498101622804,26.69722694751454 124.74200269394575,26.69722694751454 111.91666195510828,42.93202711830041 111.36944531635353,42.93202711830041" fill="lightblue" fill-opacity="0.5" stroke="blue" stroke-width="0.1" />
<polygon points="107.73945456511521,26.69722694751454 107.76355174929296,26.69722694751454 114.75729495460334,42.93202711830041 114.73315877821818,42.93202711830041" fill="lightblue" fill-opacity="0.5" stroke="blue" stroke-width="0.1" />
<polygon points="107.73945456511521,26.69722694751454 107.76355174929296,26.69722694751454 115.01405864038074,42.93202711830041 114.98992246399558,42.93202711830041" fill="lightblue" fill-opacity="0.5" stroke="blue" stroke-width="0.1" />
<polygon points="107.73945456511521,26.69722694751454 107.76355174929296,26.69722694751454 115.27082232615814,42.93202711830041 115.24668614977298,42.93202711830041" fill="lightblue" fill-opacity="0.5" stroke="blue" stroke-width="0.1" />
<polygon points="129.7420695651835,26.69722694751454 129.9988332509609,26.69722694751454 115.19872573466193,42.93202711830041 114.94196204888453,42.93202711830041" fill="lightblue" fill-opacity="0.5" stroke="blue" stroke-width="0.1" />
<polygon points="129.7420695651835,26.69722694751454 129.99095682506461,26.69722694751454 115.44503950885417,42.93202711830041 115.19872573466193,42.93202711830041" fill="lightblue" fill-opacity="0.5" stroke="blue" stroke-width="0.1" />
<polygon points="129.78355727386491,26.69722694751454 129.9988332509609,26.69722694751454 114.94196204888453,42.93202711830041 114.72664707958116,42.93202711830041" fill="lightblue" fill-opacity="0.5" stroke="blue" stroke-width="0.1" />
</svg>
