<?xml version="1.0" standalone="no"?>
<!DOCTYPE svg PUBLIC " -//W3C//DTD SVG 1.0//EN" "http://www.w3.org/TR/2001/REC-SVG-20010904/DTD/svg10.dtd">
<svg width="104.44897597702295" height="31.334692793106885">
<!-- reference contigs -->
<polygon points="2.2420996815097403e-05,14.915313769518876 2.2420996815097403e-05,14.915313769518876 0.0,14.915313769518876 2.2420996815097403e-05,14.633301534380914 0.14858394589365048,14.633301534380914 0.14860636689046558,14.915313769518876 0.2539626309246083,14.915313769518876 0.2539850519214234,14.633301534380914 1.2527059340531221,14.633301534380914 1.252728355049937,14.915313769518876 1.2721000962981812,14.915313769518876 1.2721225172949964,14.633301534380914 1.6326969880753928,14.633301534380914 1.632719409072208,14.915313769518876 1.639199077151771,14.915313769518876 1.6392214981485862,14.633301534380914 2.9951312805416017,14.633301534380914 2.995153701538417,14.915313769518876 3.000983160710342,14.915313769518876 3.0010055817071573,14.633301534380914 4.041339833927677,14.633301534380914 4.041362254924492,14.915313769518876 4.048088553969021,14.915313769518876 4.048110974965836,14.633301534380914 4.632850571903576,14.633301534380914 4.632872992900391,14.915313769518876 4.644352543269721,14.915313769518876 4.644374964266536,14.633301534380914 4.861410213436679,14.633301534380914 4.861432634433494,14.915313769518876 4.879167642914236,14.915313769518876 4.879190063911051,14.633301534380914 5.048580694849112,14.633301534380914 5.0486031158459275,14.915313769518876 5.0699927468075305,14.915313769518876 5.070015167804345,14.633301534380914 5.336690503923114,14.633301534380914 5.336712924919929,14.915313769518876 5.3473404774102855,14.915313769518876 5.3473628984071,14.633301534380914 5.880220308714705,14.633301534380914 5.8802427297115205,14.915313769518876 5.902035938615795,14.915313769518876 5.90205835961261,14.633301534380914 6.106179114617257,14.633301534380914 6.106201535614072,14.351289299242953 6.225862395616247,14.351289299242953 6.225884816613061,14.633301534380914 6.9459799713235455,14.633301534380914 6.94600239232036,14.915313769518876 6.974589163259609,14.915313769518876 6.974611584256424,14.633301534380914 7.315567682823611,14.633301534380914 7.315590103820425,14.915313769518876 7.363100196071617,14.915313769518876 7.3631226170684325,14.633301534380914 7.587422269206667,14.633301534380914 7.587444690203482,14.915313769518876 7.598430978642879,14.915313769518876 7.598453399639695,14.633301534380914 8.88891629232944,14.633301534380914 8.888938713326256,14.915313769518876 8.989205411083372,14.915313769518876 8.989227832080186,14.633301534380914 9.241038047310546,14.633301534380914 9.24106046830736,14.351289299242953 9.242898990046198,14.351289299242953 9.242921411043014,14.633301534380914 10.163482698277283,14.633301534380914 10.163505119274097,14.915313769518876 10.32982407364849,14.915313769518876 10.329846494645306,14.633301534380914 10.991848846607871,14.633301534380914 10.991871267604687,14.915313769518876 11.03036811913621,14.915313769518876 11.030390540133023,14.633301534380914 11.567507939835497,14.633301534380914 11.567530360832313,14.915313769518876 11.591722616395803,14.915313769518876 11.591745037392618,14.633301534380914 12.370897097714067,14.633301534380914 12.370919518710883,14.915313769518876 12.375381297077087,14.915313769518876 12.375403718073901,14.633301534380914 12.556049689413141,14.633301534380914 12.556072110409957,14.915313769518876 12.612147023444516,14.915313769518876 12.61216944444133,14.633301534380914 12.802546128398323,14.633301534380914 12.802568549395138,14.915313769518876 12.876871732840371,14.915313769518876 12.876894153837185,14.633301534380914 13.867207162163222,14.633301534380914 13.867229583160038,14.915313769518876 13.87435946014724,14.915313769518876 13.874381881144053,14.633301534380914 15.167423188467536,14.633301534380914 15.167445609464352,14.915313769518876 15.317890498093655,14.915313769518876 15.31791291909047,14.633301534380914 15.430286955127738,14.633301534380914 15.430309376124553,14.915313769518876 15.437977357035317,14.915313769518876 15.43799977803213,14.633301534380914 15.635349391998618,14.633301534380914 15.635371812995434,14.915313769518876 15.682926747240256,14.915313769518876 15.682949168237071,14.633301534380914 16.17343089456414,14.633301534380914 16.173453315560955,14.915313769518876 16.292665755626828,14.915313769518876 16.292688176623646,14.633301534380914 16.759246699349006,14.633301534380914 16.75926912034582,14.915313769518876 16.779066860533554,14.915313769518876 16.779089281530368,14.633301534380914 17.18486448189,14.633301534380914 17.184886902886817,14.915313769518876 17.19515571942813,14.915313769518876 17.195178140424947,14.633301534380914 18.573665866610764,14.633301534380914 18.573688287607578,14.915313769518876 18.708438478466313,14.915313769518876 18.70846089946313,14.633301534380914 20.1385617603173,14.633301534380914 20.138584181314116,14.915313769518876 20.17176725660046,14.915313769518876 20.171789677597275,14.633301534380914 20.671060434675866,14.633301534380914 20.67108285567268,14.915313769518876 20.703256986102346,14.915313769518876 20.70327940709916,14.633301534380914 21.262571172651764,14.633301534380914 21.26259359364858,14.915313769518876 21.268512736807764,14.915313769518876 21.268535157804582,14.633301534380914 21.48344041227729,14.633301534380914 21.483462833274103,14.915313769518876 21.504134992337626,14.915313769518876 21.50415741333444,14.633301534380914 21.677000877782024,14.633301534380914 21.677023298778842,14.915313769518876 21.683861702807445,14.915313769518876 21.683884123804262,14.633301534380914 21.858341900022534,14.633301534380914 21.858364321019348,14.915313769518876 21.85867821497476,14.915313769518876 21.858700635971573,14.633301534380914 22.432879943409404,14.633301534380914 22.432902364406218,14.915313769518876 22.45754303990601,14.915313769518876 22.457565460902828,14.633301534380914 23.866702689734883,14.633301534380914 23.866725110731696,14.915313769518876 24.039972153121955,14.915313769518876 24.039994574118772,14.633301534380914 24.357363784036476,14.633301534380914 24.35738620503329,14.351289299242953 24.366377024756144,14.351289299242953 24.366399445752958,14.633301534380914 24.46677824849415,14.633301534380914 24.466800669490965,14.915313769518876 24.474020230465428,14.915313769518876 24.47404265146224,14.633301534380914 24.962999750005885,14.633301534380914 24.963022171002702,14.915313769518876 24.98584674576047,14.915313769518876 24.985869166757286,14.633301534380914 25.745178644897372,14.633301534380914 25.74520106589419,14.915313769518876 25.759976502795336,14.915313769518876 25.759998923792153,14.633301534380914 26.153577101884373,14.633301534380914 26.153599522881187,14.915313769518876 26.16023613793846,14.915313769518876 26.160258558935272,14.633301534380914 26.726142097551516,14.633301534380914 26.72616451854833,14.915313769518876 26.737442279946325,14.915313769518876 26.73746470094314,14.633301534380914 27.939880339139997,14.633301534380914 27.939902760136814,14.915313769518876 27.972233837544184,14.915313769518876 27.972256258540998,14.633301534380914 28.332113257423313,14.633301534380914 28.332135678420126,14.915313769518876 28.33787545360479,14.915313769518876 28.337897874601605,14.633301534380914 29.153551317738035,14.633301534380914 29.15357373873485,14.915313769518876 29.28877234952989,14.915313769518876 29.288794770526703,14.633301534380914 29.504282970916606,14.633301534380914 29.50430539191342,14.915313769518876 29.609885865915714,14.915313769518876 29.60990828691253,14.633301534380914 30.334016800052915,14.633301534380914 30.33403922104973,14.915313769518876 30.437400016367327,14.915313769518876 30.43742243736414,14.633301534380914 33.18072108167857,14.633301534380914 33.180743502675384,14.915313769518876 33.2422442969392,14.915313769518876 33.24226671793601,14.633301534380914 33.70176262666462,14.633301534380914 33.70178504766143,14.915313769518876 33.70756966483973,14.915313769518876 33.707592085836545,14.633301534380914 34.11776180157194,14.633301534380914 34.11778422256875,14.915313769518876 34.12318768280119,14.915313769518876 34.123210103798,14.633301534380914 34.48909835082358,14.633301534380914 34.489120771820396,14.915313769518876 34.50277515888079,14.915313769518876 34.5027975798776,14.633301534380914 35.02740406335725,14.633301534380914 35.027426484354066,14.915313769518876 35.050721900044955,14.915313769518876 35.05074432104177,14.633301534380914 35.54252646518412,14.633301534380914 35.54254888618093,14.915313769518876 35.549163080241385,14.915313769518876 35.5491855012382,14.633301534380914 35.98323357858167,14.633301534380914 35.98325599957848,14.915313769518876 36.03755965386465,14.915313769518876 36.03758207486147,14.633301534380914 37.749739075649565,14.633301534380914 37.74976149664638,14.915313769518876 37.758236633442486,14.915313769518876 37.7582590544393,14.633301534380914 38.1417029419711,14.633301534380914 38.14172536296791,14.915313769518876 38.146231983327745,14.915313769518876 38.14625440432456,14.633301534380914 40.22355975924334,14.633301534380914 40.22358218024015,14.915313769518876 40.23039816327194,14.915313769518876 40.23042058426876,14.633301534380914 41.16037626916855,14.633301534380914 41.160398690165366,14.915313769518876 41.16954645686592,14.915313769518876 41.169568877862744,14.633301534380914 41.645858113205854,14.633301534380914 41.64588053420267,14.915313769518876 41.68383928181063,14.915313769518876 41.68386170280745,14.633301534380914 42.13270763804888,14.633301534380914 42.1327300590457,14.915313769518876 42.19367032838913,14.915313769518876 42.193692749385946,14.633301534380914 42.44032371435202,14.633301534380914 42.44034613534883,14.915313769518876 42.45092884584556,14.915313769518876 42.450951266842374,14.633301534380914 43.05844817554744,14.633301534380914 43.058470596544254,14.915313769518876 43.118379500034195,14.915313769518876 43.11840192103101,14.633301534380914 44.12813151259892,14.633301534380914 44.12815393359573,14.915313769518876 44.13622549244917,14.915313769518876 44.136247913445985,14.633301534380914 44.83719553687637,14.633301534380914 44.837217957873186,14.915313769518876 44.84542404270751,14.915313769518876 44.84544646370433,14.633301534380914 45.85717152398878,14.633301534380914 45.8571939449856,14.915313769518876 45.8828884073357,14.915313769518876 45.88291082833252,14.633301534380914 46.08102275619072,14.633301534380914 46.081045177187534,14.915313769518876 46.22956186009074,14.915313769518876 46.229584281087554,14.633301534380914 46.962481824979456,14.633301534380914 46.96250424597627,14.915313769518876 46.97252643155262,14.915313769518876 46.97254885254944,14.633301534380914 47.75250806875623,14.633301534380914 47.75253048975304,14.915313769518876 47.7784491620713,14.915313769518876 47.77847158306811,14.633301534380914 50.00084078738057,14.633301534380914 50.00086320837738,14.351289299242953 50.143303801143695,14.351289299242953 50.14332622214051,14.633301534380914 51.140253424527,14.633301534380914 51.14027584552382,14.915313769518876 51.147046986561975,14.915313769518876 51.14706940755879,14.633301534380914 51.873689072342465,14.633301534380914 51.87371149333928,14.915313769518876 51.883621573931556,14.915313769518876 51.88364399492837,14.633301534380914 52.122203401041006,14.633301534380914 52.12222582203782,14.915313769518876 52.18682071386212,14.915313769518876 52.18684313485893,14.633301534380914 52.34201885381622,14.633301534380914 52.342041274813035,14.915313769518876 52.45452741583438,14.915313769518876 52.4545498368312,14.633301534380914 53.41085019298873,14.633301534380914 53.410872613985546,14.915313769518876 53.435109711542665,14.915313769518876 53.43513213253948,14.633301534380914 53.76445173375963,14.633301534380914 53.76447415475645,14.915313769518876 54.05957931483676,14.915313769518876 54.059601735833574,14.633301534380914 54.93422240059371,14.633301534380914 54.934244821590525,14.915313769518876 54.946329738873864,14.915313769518876 54.94635215987068,14.633301534380914 56.04771636542189,14.633301534380914 56.047738786418705,14.915313769518876 56.09706497941192,14.915313769518876 56.09708740040873,14.633301534380914 56.25661279274815,14.633301534380914 56.25663521374497,14.915313769518876 56.26340635478313,14.915313769518876 56.26342877577994,14.633301534380914 56.93787478097489,14.633301534380914 56.9378972019717,14.915313769518876 56.952201797939736,14.915313769518876 56.95222421893655,14.633301534380914 57.28327023691146,14.633301534380914 57.28329265790828,14.915313769518876 57.28844948717575,14.915313769518876 57.28847190817257,14.633301534380914 58.31210251776584,14.633301534380914 58.31212493876265,14.351289299242953 58.31299935763844,14.351289299242953 58.31302177863525,14.069277064104991 58.319479025718,14.069277064104991 58.31950144671482,13.787264828967029 58.42310887299738,13.787264828967029 58.4231312939942,14.069277064104991 58.43077685390815,14.069277064104991 58.43079927490496,14.351289299242953 58.43492473831894,14.351289299242953 58.434947159315755,14.633301534380914 59.86585517605527,14.633301534380914 59.86587759705209,14.915313769518876 59.887895015924514,14.915313769518876 59.88791743692133,14.633301534380914 60.44646930957904,14.633301534380914 60.44649173057585,14.915313769518876 60.45382339653439,14.915313769518876 60.4538458175312,14.633301534380914 61.15730459260488,14.633301534380914 61.157327013601694,14.915313769518876 61.16282015782139,14.915313769518876 61.162842578818214,14.633301534380914 61.523080734646385,14.633301534380914 61.5231031556432,14.915313769518876 61.733210316797475,14.915313769518876 61.73323273779429,14.633301534380914 62.58206925621706,14.633301534380914 62.582091677213874,14.915313769518876 62.60119436650034,14.915313769518876 62.60121678749716,14.633301534380914 63.28458634942451,14.633301534380914 63.28460877042132,14.915313769518876 63.31104312566632,14.915313769518876 63.31106554666314,14.633301534380914 63.93398810117699,14.633301534380914 63.93401052217381,14.915313769518876 63.93732882970244,14.915313769518876 63.93735125069926,14.633301534380914 64.1297458243696,14.633301534380914 64.12976824536642,14.351289299242953 64.14431947229941,14.351289299242953 64.14434189329623,14.633301534380914 64.33357510641565,14.633301534380914 64.33359752741246,14.915313769518876 64.33861983069906,14.915313769518876 64.33864225169587,14.633301534380914 64.89486234068481,14.633301534380914 64.89488476168162,14.915313769518876 64.96613868956,14.915313769518876 64.96616111055681,14.633301534380914 65.12308566726568,14.633301534380914 65.1231080882625,14.915313769518876 65.25631123034098,14.915313769518876 65.25633365133781,14.633301534380914 65.42554491430134,14.633301534380914 65.42556733529815,14.915313769518876 65.5269102409024,14.915313769518876 65.52693266189921,14.633301534380914 66.26184809550448,14.633301534380914 66.26187051650129,14.915313769518876 66.32097226410589,14.915313769518876 66.3209946851027,14.633301534380914 66.94714586315793,14.633301534380914 66.94716828415474,14.915313769518876 66.96815433717367,14.915313769518876 66.96817675817049,14.633301534380914 67.37922089278167,14.633301534380914 67.37924331377849,14.915313769518876 67.39179907199494,14.915313769518876 67.39182149299175,14.633301534380914 67.88313279620098,14.633301534380914 67.8831552171978,14.915313769518876 68.03599915248633,14.915313769518876 68.03602157348314,14.633301534380914 68.81250553518359,14.633301534380914 68.8125279561804,14.915313769518876 68.8613833082405,14.915313769518876 68.86140572923732,14.633301534380914 69.02075175360221,14.633301534380914 69.02077417459903,14.915313769518876 69.04265706749057,14.915313769518876 69.04267948848738,14.633301534380914 69.30518451919853,14.633301534380914 69.30520694019535,14.915313769518876 69.31114850435135,14.915313769518876 69.31117092534816,14.633301534380914 69.68782125084499,14.633301534380914 69.6878436718418,14.915313769518876 69.73167672061533,14.915313769518876 69.73169914161214,14.633301534380914 72.34493358340218,14.633301534380914 72.344956004399,14.915313769518876 72.40899037130292,14.915313769518876 72.40901279229973,14.633301534380914 72.69360250487377,14.633301534380914 72.69362492587058,14.915313769518876 72.69411818780051,14.915313769518876 72.69414060879733,14.633301534380914 73.94794517169439,14.633301534380914 73.9479675926912,14.351289299242953 73.94799001368801,14.351289299242953 73.94799001368801,14.069277064104991 74.06767329468701,14.069277064104991 74.06769571568383,14.351289299242953 74.06915308047681,14.351289299242953 74.06917550147362,14.633301534380914 74.14921846010351,14.633301534380914 74.14924088110033,14.915313769518876 74.21130220028452,14.915313769518876 74.21132462128134,14.633301534380914 74.4129342246427,14.633301534380914 74.41295664563951,14.915313769518876 74.42060220555345,14.915313769518876 74.42062462655028,14.633301534380914 74.63481240912489,14.633301534380914 74.63483483012172,14.915313769518876 74.64961026702287,14.915313769518876 74.64963268801968,14.633301534380914 74.87774390961648,14.633301534380914 74.8777663306133,14.915313769518876 74.89601702202079,14.915313769518876 74.8960394430176,14.633301534380914 76.13614477686063,14.633301534380914 76.13616719785745,14.915313769518876 76.14074108120774,14.915313769518876 76.14076350220455,14.633301534380914 76.63936162937868,14.633301534380914 76.6393840503755,14.915313769518876 76.68106468345476,14.915313769518876 76.68108710445158,14.633301534380914 77.14452910861964,14.633301534380914 77.14455152961645,14.915313769518876 77.1502688838043,14.915313769518876 77.15029130480112,14.633301534380914 78.07273595576785,14.633301534380914 78.07275837676467,14.915313769518876 78.10607597803191,14.915313769518876 78.10609839902872,14.633301534380914 78.40530660152619,14.633301534380914 78.405329022523,14.915313769518876 78.41546331308344,14.915313769518876 78.41548573408025,14.633301534380914 80.52682616216434,14.633301534380914 80.52684858316115,14.915313769518876 80.53646719079484,14.915313769518876 80.53648961179165,14.633301534380914 80.70457982491443,14.633301534380914 80.70460224591125,14.915313769518876 80.7603632649904,14.915313769518876 80.76038568598722,14.633301534380914 81.00623191606476,14.633301534380914 81.00625433706158,14.915313769518876 81.06192567215346,14.915313769518876 81.06194809315028,14.633301534380914 81.7650257112781,14.633301534380914 81.76504813227491,14.915313769518876 81.7736577950519,14.915313769518876 81.77368021604873,14.633301534380914 82.02869663382364,14.633301534380914 82.02871905482046,14.915313769518876 82.0800182955334,14.915313769518876 82.08004071653022,14.633301534380914 82.26880308871652,14.633301534380914 82.26882550971334,14.915313769518876 82.45487494128501,14.915313769518876 82.45489736228183,14.633301534380914 82.67110303456981,14.633301534380914 82.67112545556662,14.915313769518876 82.71942028270635,14.915313769518876 82.71944270370317,14.633301534380914 83.05826880757292,14.633301534380914 83.05829122856973,14.351289299242953 83.20055245336152,14.351289299242953 83.20057487435834,14.633301534380914 83.36175942046208,14.633301534380914 83.36178184145889,14.915313769518876 83.48532153391008,14.915313769518876 83.4853439549069,14.633301534380914 84.02176630370809,14.633301534380914 84.0217887247049,14.915313769518876 84.03566732173346,14.915313769518876 84.03568974273027,14.633301534380914 84.22718747652802,14.633301534380914 84.22720989752483,14.915313769518876 84.24021407567759,14.915313769518876 84.2402364966744,14.633301534380914 84.73302758567343,14.633301534380914 84.73305000667024,14.915313769518876 84.73917093880077,14.915313769518876 84.73919335979758,14.633301534380914 84.81773411164087,14.633301534380914 84.81775653263769,14.351289299242953 84.8204470522555,14.351289299242953 84.82046947325232,14.069277064104991 84.82188199605166,14.069277064104991 84.82190441704847,13.787264828967029 84.93809002254432,13.787264828967029 84.93811244354113,14.069277064104991 84.93959222933093,14.069277064104991 84.93961465032774,14.351289299242953 84.939704334315,14.351289299242953 84.93972675531181,14.633301534380914 86.89577935945454,14.633301534380914 86.89580178045135,14.351289299242953 86.96716781331381,14.351289299242953 86.96719023431062,14.633301534380914 86.9727954835144,14.633301534380914 86.97281790451122,14.351289299242953 87.01739084617964,14.351289299242953 87.01741326717645,14.633301534380914 87.38747181960963,14.633301534380914 87.38749424060644,14.915313769518876 87.40783008471773,14.915313769518876 87.40785250571456,14.633301534380914 87.67502110376326,14.633301534380914 87.67504352476007,14.915313769518876 87.68724054702749,14.915313769518876 87.6872629680243,14.633301534380914 88.61199456066618,14.633301534380914 88.61201698166299,14.915313769518876 88.72526543657604,14.915313769518876 88.72528785757287,14.633301534380914 89.63914526675941,14.633301534380914 89.63916768775623,14.351289299242953 89.7658014777679,14.351289299242953 89.76582389876471,14.633301534380914 90.55858550415293,14.633301534380914 90.55860792514974,14.351289299242953 90.5606258148631,14.351289299242953 90.56064823585992,14.069277064104991 90.5621056006529,14.069277064104991 90.56212802164971,13.787264828967029 90.6807799367952,13.787264828967029 90.68080235779202,14.069277064104991 90.68082477878885,14.069277064104991 90.68082477878885,14.351289299242953 90.68187856563915,14.351289299242953 90.68190098663597,14.633301534380914 91.61535434703892,14.633301534380914 91.61537676803573,14.915313769518876 91.62625095149106,14.915313769518876 91.62627337248787,14.633301534380914 91.77680794510444,14.633301534380914 91.77683036610125,14.915313769518876 91.91628896629115,14.915313769518876 91.91631138728796,14.633301534380914 92.49096153565891,14.633301534380914 92.49098395665573,14.915313769518876 92.49786720267797,14.915313769518876 92.49788962367478,14.633301534380914 92.65985890466705,14.633301534380914 92.65988132566386,14.915313769518876 92.665441732874,14.915313769518876 92.66546415387081,14.633301534380914 92.95915679115178,14.633301534380914 92.9591792121486,14.915313769518876 93.05819033408406,14.915313769518876 93.05821275508087,14.633301534380914 93.4906913626473,14.633301534380914 93.49071378364411,14.915313769518876 93.52562327568522,14.915313769518876 93.52564569668203,14.633301534380914 93.92740753861176,14.633301534380914 93.92742995960857,14.915313769518876 93.94704833182179,14.915313769518876 93.9470707528186,14.633301534380914 94.07626053646719,14.633301534380914 94.076282957464,14.915313769518876 94.09805374537146,14.915313769518876 94.09807616636829,14.633301534380914 94.4769461705498,14.633301534380914 94.47696859154661,14.351289299242953 94.4788743762759,14.351289299242953 94.47889679727271,14.633301534380914 95.15677321498036,14.633301534380914 95.15679563597718,14.915313769518876 95.15681805697399,14.915313769518876 95.1568404779708,14.633301534380914 95.51335674832768,14.633301534380914 95.5133791693245,14.915313769518876 95.53985836656312,14.915313769518876 95.53988078755994,14.633301534380914 95.64617873346032,14.633301534380914 95.64620115445713,14.915313769518876 95.703935221256,14.915313769518876 95.70395764225282,14.633301534380914 95.8897156008659,14.633301534380914 95.88973802186271,14.915313769518876 95.89884094656965,14.915313769518876 95.89886336756646,14.633301534380914 97.11715307150841,14.633301534380914 97.11717549250523,14.915313769518876 97.12058348402111,14.915313769518876 97.12060590501792,14.633301534380914 98.0817043544939,14.633301534380914 98.08172677549071,14.915313769518876 98.087511392669,14.915313769518876 98.08753381366583,14.633301534380914 98.80670970750688,14.633301534380914 98.8067321285037,14.915313769518876 98.8281217594653,14.915313769518876 98.82814418046212,14.633301534380914 99.99995515800637,14.633301534380914 99.99997757900319,14.915313769518876 100.0,14.915313769518876 100.0,14.915313769518876" fill="black" stroke="black" stroke-width="0.1" />
<polygon points="2.2420996815097403e-05,16.419379023588007 2.2420996815097403e-05,16.419379023588007 6.102210598180984,16.419379023588007 6.1022330191778,15.29133008303616 6.144720808142409,15.29133008303616 6.144743229139224,16.419379023588007 11.803914930253883,16.419379023588007 11.803937351250699,15.29133008303616 11.831156441384227,15.29133008303616 11.831178862381043,16.419379023588007 20.282616664854302,16.419379023588007 20.282639085851116,15.29133008303616 20.28994833081284,15.29133008303616 20.289970751809655,16.419379023588007 20.743121518439587,16.419379023588007 20.743143939436404,15.29133008303616 20.759556109105056,15.29133008303616 20.75957853010187,16.419379023588007 24.36086145953963,16.419379023588007 24.360883880536445,15.29133008303616 24.368193125498166,15.29133008303616 24.36821554649498,16.419379023588007 32.50161150914609,16.419379023588007 32.5016339301429,15.29133008303616 32.51804609981155,15.29133008303616 32.51806852080836,16.419379023588007 41.60529852996734,16.419379023588007 41.605320950964156,15.29133008303616 41.62137438468377,15.29133008303616 41.62139680568058,16.419379023588007 44.51475918167846,16.419379023588007 44.51478160267527,15.29133008303616 44.543749530560376,15.29133008303616 44.5437719515572,16.419379023588007 44.818608530516656,16.419379023588007 44.81863095151348,15.29133008303616 44.84759887939858,15.29133008303616 44.847621300395396,16.419379023588007 46.01091229914991,16.419379023588007 46.01093472014672,15.29133008303616 46.03815381028025,15.29133008303616 46.03817623127706,16.419379023588007 50.00079594538693,16.419379023588007 50.000818366383754,15.29133008303616 50.14334864313732,15.29133008303616 50.14337106413414,16.419379023588007 58.312012833778574,16.419379023588007 58.312035254775395,15.29133008303616 58.43492473831894,15.29133008303616 58.434947159315755,16.419379023588007 58.816440420124636,16.419379023588007 58.81646284112146,15.29133008303616 58.83251627484106,15.29133008303616 58.832538695837876,16.419379023588007 66.89651925234944,16.419379023588007 66.89654167334625,15.29133008303616 66.9070122788589,15.29133008303616 66.90703469985571,16.419379023588007 67.16339637743954,16.419379023588007 67.16341879843635,15.29133008303616 67.173889403949,15.29133008303616 67.17391182494582,16.419379023588007 73.94790032970076,16.419379023588007 73.94792275069757,15.29133008303616 74.02274161706956,15.29133008303616 74.02276403806637,16.419379023588007 74.028750444216,16.419379023588007 74.02877286521282,15.29133008303616 74.07119339118698,15.29133008303616 74.0712158121838,16.419379023588007 74.6539823614018,16.419379023588007 74.65400478239862,15.29133008303616 74.68057366362451,15.29133008303616 74.68059608462133,16.419379023588007 83.05799975561114,16.419379023588007 83.05802217660795,15.29133008303616 83.20055245336152,15.29133008303616 83.20057487435834,16.419379023588007 84.81706148173642,16.419379023588007 84.81708390273323,15.29133008303616 84.939704334315,15.29133008303616 84.93972675531181,16.419379023588007 86.89120547610426,16.419379023588007 86.89122789710107,15.29133008303616 86.93467978892873,15.29133008303616 86.93470220992555,16.419379023588007 86.94239261183313,16.419379023588007 86.94241503282994,15.29133008303616 87.0186688429981,15.29133008303616 87.01869126399491,16.419379023588007 89.6343695944378,16.419379023588007 89.63439201543461,15.29133008303616 89.6780232752368,15.29133008303616 89.67804569623361,16.419379023588007 89.85774998570662,16.419379023588007 89.85777240670343,15.29133008303616 89.88434128792932,15.29133008303616 89.88436370892613,16.419379023588007 90.5585406621593,16.419379023588007 90.55856308315612,15.29133008303616 90.68228214358182,15.29133008303616 90.68230456457864,16.419379023588007 94.46311241551489,16.419379023588007 94.4631348365117,15.29133008303616 94.47360544202435,15.29133008303616 94.47362786302116,16.419379023588007 99.99997757900319,16.419379023588007 99.99997757900319,16.419379023588007" fill="blue" stroke="blue" stroke-width="0.1" />
<polygon points="2.2420996815097403e-05,17.92344427765714 2.2420996815097403e-05,17.641432042519178 6.104295750884789,17.641432042519178 6.104318171881603,17.077407572243253 6.2325438526671455,17.077407572243253 6.232566273663961,17.641432042519178 24.357363784036476,17.641432042519178 24.35738620503329,17.359419807381215 24.36648912974022,17.359419807381215 24.366511550737034,17.641432042519178 50.00079594538693,17.641432042519178 50.000818366383754,17.359419807381215 50.14334864313732,17.359419807381215 50.14337106413414,17.641432042519178 58.312012833778574,17.641432042519178 58.312035254775395,17.359419807381215 58.31299935763844,17.359419807381215 58.31302177863525,16.79539533710529 58.432234218701126,16.79539533710529 58.43225663969795,17.359419807381215 58.43492473831894,17.359419807381215 58.434947159315755,17.641432042519178 67.30579212821223,17.641432042519178 67.30581454920905,17.359419807381215 67.47363571037005,17.359419807381215 67.47365813136686,17.641432042519178 73.9478106457135,17.641432042519178 73.94783306671032,17.359419807381215 73.94785548770713,17.359419807381215 73.94787790870394,17.077407572243253 73.94790032970076,17.077407572243253 73.94792275069757,16.79539533710529 74.06915308047681,16.79539533710529 74.06917550147362,17.359419807381215 74.07119339118698,17.359419807381215 74.0712158121838,17.641432042519178 83.05799975561114,17.641432042519178 83.05802217660795,17.359419807381215 83.20055245336152,17.359419807381215 83.20057487435834,17.641432042519178 84.81773411164087,17.641432042519178 84.81775653263769,17.359419807381215 84.82042463125867,17.359419807381215 84.8204470522555,17.077407572243253 84.939704334315,17.077407572243253 84.93972675531181,17.359419807381215 84.93974917630862,17.359419807381215 84.93977159730545,17.641432042519178 86.8943668366552,17.641432042519178 86.89438925765201,17.359419807381215 87.01743568817326,17.359419807381215 87.01745810917008,17.641432042519178 89.63773274396006,17.641432042519178 89.63775516495689,17.359419807381215 89.76584631976154,17.359419807381215 89.76586874075835,17.641432042519178 90.55858550415293,17.641432042519178 90.55860792514974,17.359419807381215 90.5606258148631,17.359419807381215 90.56064823585992,17.077407572243253 90.68084719978566,17.077407572243253 90.68086962078247,17.359419807381215 90.68187856563915,17.359419807381215 90.68190098663597,17.641432042519178 95.15305132950905,17.641432042519178 95.15307375050587,17.359419807381215 95.16002425951855,17.359419807381215 95.16004668051536,17.641432042519178 99.99997757900319,17.641432042519178 99.99997757900319,17.92344427765714" fill="black" stroke="black" stroke-width="0.1" />
<!-- assembly contigs before -->
<polygon points="0,0 104.51908643406377,0 104.51908643406377,1.2533877117242755 0,1.2533877117242755" fill="grey" stroke="grey" stroke-width="0" />
<!-- assembly contigs after -->
<polygon points="0,30.08130508138261 100.18143070622777,30.08130508138261 100.18143070622777,31.334692793106885 0,31.334692793106885" fill="grey" stroke="grey" stroke-width="0" />
<!-- hits before vs ref -->
<polygon points="28.840868096154686,1.5040652540691306 28.99821865180304,1.5040652540691306 0.14860636689046558,13.536587286622174 2.2420996815097403e-05,13.536587286622174" fill="lightblue" fill-opacity="0.5" stroke="blue" stroke-width="0.1" />
<polygon points="29.116422147012234,1.5040652540691306 30.148236420443016,1.5040652540691306 1.2527283550499373,13.536587286622174 0.2539850519214234,13.536587286622174" fill="lightblue" fill-opacity="0.5" stroke="blue" stroke-width="0.1" />
<polygon points="30.169648472401434,1.5040652540691306 30.536881979235915,1.5040652540691306 1.632719409072208,13.536587286622174 1.2721225172949964,13.536587286622174" fill="lightblue" fill-opacity="0.5" stroke="blue" stroke-width="0.1" />
<polygon points="30.542083650497016,1.5040652540691306 31.96083948696275,1.5040652540691306 2.995153701538417,13.536587286622174 1.6392214981485862,13.536587286622174" fill="lightblue" fill-opacity="0.5" stroke="blue" stroke-width="0.1" />
<polygon points="31.967296734045497,1.5040652540691306 33.047405834616,1.5040652540691306 4.041362254924492,13.536587286622174 3.0010055817071573,13.536587286622174" fill="lightblue" fill-opacity="0.5" stroke="blue" stroke-width="0.1" />
<polygon points="33.056957179259236,1.5040652540691306 33.66135999040382,1.5040652540691306 4.632872992900392,13.536587286622174 4.048110974965836,13.536587286622174" fill="lightblue" fill-opacity="0.5" stroke="blue" stroke-width="0.1" />
<polygon points="33.67014902115533,1.5040652540691306 33.88577174752612,1.5040652540691306 4.861432634433494,13.536587286622174 4.644374964266536,13.536587286622174" fill="lightblue" fill-opacity="0.5" stroke="blue" stroke-width="0.1" />
<polygon points="33.9020718122107,1.5040652540691306 34.08240388959453,1.5040652540691306 5.048603115845927,13.536587286622174 4.879190063911051,13.536587286622174" fill="lightblue" fill-opacity="0.5" stroke="blue" stroke-width="0.1" />
<polygon points="34.10500425438415,1.5040652540691306 34.3747736880634,1.5040652540691306 5.3367129249199285,13.536587286622174 5.070015167804345,13.536587286622174" fill="lightblue" fill-opacity="0.5" stroke="blue" stroke-width="0.1" />
<polygon points="34.38223988000283,1.5040652540691306 34.93097135605552,1.5040652540691306 5.8802427297115205,13.536587286622174 5.3473628984071,13.536587286622174" fill="lightblue" fill-opacity="0.5" stroke="blue" stroke-width="0.1" />
<polygon points="34.95740571130052,1.5040652540691306 36.03309787549844,1.5040652540691306 6.94600239232036,13.536587286622174 5.90205835961261,13.536587286622174" fill="lightblue" fill-opacity="0.5" stroke="blue" stroke-width="0.1" />
<polygon points="18.021728188013512,1.5040652540691306 18.15042470973217,1.5040652540691306 6.225884816613061,13.536587286622174 6.106201535614072,13.536587286622174" fill="lightblue" fill-opacity="0.5" stroke="blue" stroke-width="0.1" />
<polygon points="36.064576955026844,1.5040652540691306 36.426586369603406,1.5040652540691306 7.315590103820425,13.536587286622174 6.974611584256424,13.536587286622174" fill="lightblue" fill-opacity="0.5" stroke="blue" stroke-width="0.1" />
<polygon points="36.48030707797238,1.5040652540691306 36.715839649514976,1.5040652540691306 7.5874446902034824,13.536587286622174 7.3631226170684325,13.536587286622174" fill="lightblue" fill-opacity="0.5" stroke="blue" stroke-width="0.1" />
<polygon points="36.73680328153709,1.5040652540691306 38.08181645947797,1.5040652540691306 8.888938713326256,13.536587286622174 7.598453399639695,13.536587286622174" fill="lightblue" fill-opacity="0.5" stroke="blue" stroke-width="0.1" />
<polygon points="38.193293655642634,1.5040652540691306 38.45929636185695,1.5040652540691306 9.242921411043012,13.536587286622174 8.989227832080186,13.536587286622174" fill="lightblue" fill-opacity="0.5" stroke="blue" stroke-width="0.1" />
<polygon points="38.47268169695557,1.5040652540691306 39.42404943381378,1.5040652540691306 10.163505119274097,13.536587286622174 9.24106046830736,13.536587286622174" fill="lightblue" fill-opacity="0.5" stroke="blue" stroke-width="0.1" />
<polygon points="39.59462837758304,1.5040652540691306 40.276002470793856,1.5040652540691306 10.991871267604687,13.536587286622174 10.329846494645306,13.536587286622174" fill="lightblue" fill-opacity="0.5" stroke="blue" stroke-width="0.1" />
<polygon points="40.335754427306085,1.5040652540691306 40.90020302212616,1.5040652540691306 11.567530360832311,13.536587286622174 11.030390540133023,13.536587286622174" fill="lightblue" fill-opacity="0.5" stroke="blue" stroke-width="0.1" />
<polygon points="40.936278406001655,1.5040652540691306 41.74843417363493,1.5040652540691306 12.370919518710883,13.536587286622174 11.591745037392618,13.536587286622174" fill="lightblue" fill-opacity="0.5" stroke="blue" stroke-width="0.1" />
<polygon points="41.75738015136415,1.5040652540691306 41.94854157020967,1.5040652540691306 12.556072110409955,13.536587286622174 12.375403718073901,13.536587286622174" fill="lightblue" fill-opacity="0.5" stroke="blue" stroke-width="0.1" />
<polygon points="42.014593826826946,1.5040652540691306 42.21165196783484,1.5040652540691306 12.802568549395136,13.536587286622174 12.61216944444133,13.536587286622174" fill="lightblue" fill-opacity="0.5" stroke="blue" stroke-width="0.1" />
<polygon points="42.291425874502956,1.5040652540691306 43.33005613096553,1.5040652540691306 13.867229583160038,13.536587286622174 12.876894153837185,13.536587286622174" fill="lightblue" fill-opacity="0.5" stroke="blue" stroke-width="0.1" />
<polygon points="43.33781379586355,1.5040652540691306 44.67103352947969,1.5040652540691306 15.167445609464352,13.536587286622174 13.874381881144053,13.536587286622174" fill="lightblue" fill-opacity="0.5" stroke="blue" stroke-width="0.1" />
<polygon points="44.82746482425862,1.5040652540691306 44.94317958882134,1.5040652540691306 15.430309376124553,13.536587286622174 15.31791291909047,13.536587286622174" fill="lightblue" fill-opacity="0.5" stroke="blue" stroke-width="0.1" />
<polygon points="44.95320177439769,1.5040652540691306 45.15750189737686,1.5040652540691306 15.635371812995434,13.536587286622174 15.43799977803213,13.536587286622174" fill="lightblue" fill-opacity="0.5" stroke="blue" stroke-width="0.1" />
<polygon points="45.2199443735069,1.5040652540691306 45.70356527480855,1.5040652540691306 16.173453315560955,13.536587286622174 15.682949168237071,13.536587286622174" fill="lightblue" fill-opacity="0.5" stroke="blue" stroke-width="0.1" />
<polygon points="45.83705988984564,1.5040652540691306 46.32233994491161,1.5040652540691306 16.759269120345824,13.536587286622174 16.292688176623646,13.536587286622174" fill="lightblue" fill-opacity="0.5" stroke="blue" stroke-width="0.1" />
<polygon points="46.34213768509934,1.5040652540691306 46.76098432660217,1.5040652540691306 17.184886902886817,13.536587286622174 16.779089281530368,13.536587286622174" fill="lightblue" fill-opacity="0.5" stroke="blue" stroke-width="0.1" />
<polygon points="46.77371945279315,1.5040652540691306 48.193058235176075,1.5040652540691306 18.57368828760758,13.536587286622174 17.195178140424947,13.536587286622174" fill="lightblue" fill-opacity="0.5" stroke="blue" stroke-width="0.1" />
<polygon points="48.34265112592641,1.5040652540691306 49.8220781797738,1.5040652540691306 20.13858418131412,13.536587286622174 18.70846089946313,13.536587286622174" fill="lightblue" fill-opacity="0.5" stroke="blue" stroke-width="0.1" />
<polygon points="49.866763226426286,1.5040652540691306 50.38078699940921,1.5040652540691306 20.67108285567268,13.536587286622174 20.171789677597275,13.536587286622174" fill="lightblue" fill-opacity="0.5" stroke="blue" stroke-width="0.1" />
<polygon points="50.419530481905696,1.5040652540691306 51.000615456362574,1.5040652540691306 21.262593593648578,13.536587286622174 20.70327940709916,13.536587286622174" fill="lightblue" fill-opacity="0.5" stroke="blue" stroke-width="0.1" />
<polygon points="51.00743143939437,1.5040652540691306 51.23747086671727,1.5040652540691306 21.483462833274107,13.536587286622174 21.268535157804582,13.536587286622174" fill="lightblue" fill-opacity="0.5" stroke="blue" stroke-width="0.1" />
<polygon points="51.26361374900367,1.5040652540691306 51.44591887410722,1.5040652540691306 21.677023298778842,13.536587286622174 21.50415741333444,13.536587286622174" fill="lightblue" fill-opacity="0.5" stroke="blue" stroke-width="0.1" />
<polygon points="51.45585137569631,1.5040652540691306 51.63250640960246,1.5040652540691306 21.85836432101935,13.536587286622174 21.683884123804262,13.536587286622174" fill="lightblue" fill-opacity="0.5" stroke="blue" stroke-width="0.1" />
<polygon points="51.64600384968515,1.5040652540691306 52.23993605531708,1.5040652540691306 22.432902364406218,13.536587286622174 21.858700635971573,13.536587286622174" fill="lightblue" fill-opacity="0.5" stroke="blue" stroke-width="0.1" />
<polygon points="52.26982324407161,1.5040652540691306 53.704610093260136,1.5040652540691306 23.8667251107317,13.536587286622174 22.457565460902828,13.536587286622174" fill="lightblue" fill-opacity="0.5" stroke="blue" stroke-width="0.1" />
<polygon points="53.88303638591468,1.5040652540691306 54.21027083443103,1.5040652540691306 24.36639944575296,13.536587286622174 24.039994574118772,13.536587286622174" fill="lightblue" fill-opacity="0.5" stroke="blue" stroke-width="0.1" />
<polygon points="54.20522611014763,1.5040652540691306 54.31818309210209,1.5040652540691306 24.466800669490965,13.536587286622174 24.35738620503329,13.536587286622174" fill="lightblue" fill-opacity="0.5" stroke="blue" stroke-width="0.1" />
<polygon points="54.325469916067,1.5040652540691306 54.828910978553196,1.5040652540691306 24.963022171002702,13.536587286622174 24.47404265146224,13.536587286622174" fill="lightblue" fill-opacity="0.5" stroke="blue" stroke-width="0.1" />
<polygon points="54.85162344832689,1.5040652540691306 55.64925041002398,1.5040652540691306 25.74520106589419,13.536587286622174 24.985869166757286,13.536587286622174" fill="lightblue" fill-opacity="0.5" stroke="blue" stroke-width="0.1" />
<polygon points="55.66626794660664,1.5040652540691306 56.07533903349809,1.5040652540691306 26.153599522881187,13.536587286622174 25.759998923792153,13.536587286622174" fill="lightblue" fill-opacity="0.5" stroke="blue" stroke-width="0.1" />
<polygon points="56.08437469521458,1.5040652540691306 56.68238752226686,1.5040652540691306 26.72616451854833,13.536587286622174 26.160258558935272,13.536587286622174" fill="lightblue" fill-opacity="0.5" stroke="blue" stroke-width="0.1" />
<polygon points="56.69420338758841,1.5040652540691306 57.94607974475937,1.5040652540691306 27.939902760136814,13.536587286622174 26.73746470094314,13.536587286622174" fill="lightblue" fill-opacity="0.5" stroke="blue" stroke-width="0.1" />
<polygon points="57.995607726723925,1.5040652540691306 58.377033724542365,1.5040652540691306 28.332135678420126,13.536587286622174 27.972256258540998,13.536587286622174" fill="lightblue" fill-opacity="0.5" stroke="blue" stroke-width="0.1" />
<polygon points="58.383064972685624,1.5040652540691306 59.23057865229631,1.5040652540691306 29.15357373873485,13.536587286622174 28.337897874601605,13.536587286622174" fill="lightblue" fill-opacity="0.5" stroke="blue" stroke-width="0.1" />
<polygon points="59.37732407645112,1.5040652540691306 59.600883835694454,1.5040652540691306 29.50430539191342,13.536587286622174 29.288794770526703,13.536587286622174" fill="lightblue" fill-opacity="0.5" stroke="blue" stroke-width="0.1" />
<polygon points="59.70890819834959,1.5040652540691306 60.457388335027986,1.5040652540691306 30.33403922104973,13.536587286622174 29.60990828691253,13.536587286622174" fill="lightblue" fill-opacity="0.5" stroke="blue" stroke-width="0.1" />
<polygon points="60.588596008389935,1.5040652540691306 63.457541918856165,1.5040652540691306 33.180743502675384,13.536587286622174 30.43742243736414,13.536587286622174" fill="lightblue" fill-opacity="0.5" stroke="blue" stroke-width="0.1" />
<polygon points="63.53827992838734,1.5040652540691306 64.02858228673989,1.5040652540691306 33.70178504766143,13.536587286622174 33.24226671793601,13.536587286622174" fill="lightblue" fill-opacity="0.5" stroke="blue" stroke-width="0.1" />
<polygon points="64.0351292178099,1.5040652540691306 64.46931182113426,1.5040652540691306 34.11778422256875,13.536587286622174 33.707592085836545,13.536587286622174" fill="lightblue" fill-opacity="0.5" stroke="blue" stroke-width="0.1" />
<polygon points="64.4753206482807,1.5040652540691306 64.85988558565325,1.5040652540691306 34.48912077182039,13.536587286622174 34.123210103798,13.536587286622174" fill="lightblue" fill-opacity="0.5" stroke="blue" stroke-width="0.1" />
<polygon points="64.87362965670091,1.5040652540691306 65.41742851345428,1.5040652540691306 35.027426484354066,13.536587286622174 34.5027975798776,13.536587286622174" fill="lightblue" fill-opacity="0.5" stroke="blue" stroke-width="0.1" />
<polygon points="65.45014074780751,1.5040652540691306 65.95230381347524,1.5040652540691306 35.54254888618093,13.536587286622174 35.05074432104177,13.536587286622174" fill="lightblue" fill-opacity="0.5" stroke="blue" stroke-width="0.1" />
<polygon points="65.95947853245607,1.5040652540691306 66.40951278052871,1.5040652540691306 35.98325599957848,13.536587286622174 35.5491855012382,13.536587286622174" fill="lightblue" fill-opacity="0.5" stroke="blue" stroke-width="0.1" />
<polygon points="66.47040820787852,1.5040652540691306 68.23518728819165,1.5040652540691306 37.74976149664638,13.536587286622174 36.03758207486147,13.536587286622174" fill="lightblue" fill-opacity="0.5" stroke="blue" stroke-width="0.1" />
<polygon points="68.24480589582532,1.5040652540691306 68.63508818738572,1.5040652540691306 38.14172536296791,13.536587286622174 37.7582590544393,13.536587286622174" fill="lightblue" fill-opacity="0.5" stroke="blue" stroke-width="0.1" />
<polygon points="68.64185932842388,1.5040652540691306 70.7834008392179,1.5040652540691306 40.22358218024015,13.536587286622174 38.14625440432456,13.536587286622174" fill="lightblue" fill-opacity="0.5" stroke="blue" stroke-width="0.1" />
<polygon points="70.79270555289618,1.5040652540691306 71.74965611796135,1.5040652540691306 41.160398690165366,13.536587286622174 40.23042058426876,13.536587286622174" fill="lightblue" fill-opacity="0.5" stroke="blue" stroke-width="0.1" />
<polygon points="71.7599921974931,1.5040652540691306 72.25533928012905,1.5040652540691306 41.645880534202675,13.536587286622174 41.169568877862744,13.536587286622174" fill="lightblue" fill-opacity="0.5" stroke="blue" stroke-width="0.1" />
<polygon points="72.30388073823374,1.5040652540691306 72.7845420679558,1.5040652540691306 42.1327300590457,13.536587286622174 41.68386170280745,13.536587286622174" fill="lightblue" fill-opacity="0.5" stroke="blue" stroke-width="0.1" />
<polygon points="72.85949546030866,1.5040652540691306 73.11471366705491,1.5040652540691306 42.44034613534883,13.536587286622174 42.193692749385946,13.536587286622174" fill="lightblue" fill-opacity="0.5" stroke="blue" stroke-width="0.1" />
<polygon points="73.13036352283186,1.5040652540691306 73.77185066270862,1.5040652540691306 43.058470596544254,13.536587286622174 42.450951266842374,13.536587286622174" fill="lightblue" fill-opacity="0.5" stroke="blue" stroke-width="0.1" />
<polygon points="73.84510005930353,1.5040652540691306 74.89720533485198,1.5040652540691306 44.12815393359573,13.536587286622174 43.11840192103101,13.536587286622174" fill="lightblue" fill-opacity="0.5" stroke="blue" stroke-width="0.1" />
<polygon points="74.90946962010985,1.5040652540691306 75.63106698160693,1.5040652540691306 44.83721795787319,13.536587286622174 44.136247913445985,13.536587286622174" fill="lightblue" fill-opacity="0.5" stroke="blue" stroke-width="0.1" />
<polygon points="75.63925064544445,1.5040652540691306 76.684674463942,1.5040652540691306 45.857193944985596,13.536587286622174 44.84544646370433,13.536587286622174" fill="lightblue" fill-opacity="0.5" stroke="blue" stroke-width="0.1" />
<polygon points="76.71790238122196,1.5040652540691306 76.92348050101958,1.5040652540691306 46.081045177187534,13.536587286622174 45.88291082833252,13.536587286622174" fill="lightblue" fill-opacity="0.5" stroke="blue" stroke-width="0.1" />
<polygon points="77.099619851999,1.5040652540691306 77.85065598231431,1.5040652540691306 46.96250424597628,13.536587286622174 46.229584281087554,13.536587286622174" fill="lightblue" fill-opacity="0.5" stroke="blue" stroke-width="0.1" />
<polygon points="77.86686636301164,1.5040652540691306 78.66144406914188,1.5040652540691306 47.75253048975305,13.536587286622174 46.97254885254944,13.536587286622174" fill="lightblue" fill-opacity="0.5" stroke="blue" stroke-width="0.1" />
<polygon points="78.68929094718622,1.5040652540691306 82.18223562001343,1.5040652540691306 51.14027584552382,13.536587286622174 47.77847158306811,13.536587286622174" fill="lightblue" fill-opacity="0.5" stroke="blue" stroke-width="0.1" />
<polygon points="11.1804991138101,1.5040652540691306 11.322267076671961,1.5040652540691306 50.14332622214051,13.536587286622174 50.00086320837738,13.536587286622174" fill="lightblue" fill-opacity="0.5" stroke="blue" stroke-width="0.1" />
<polygon points="82.19026233687323,1.5040652540691306 82.94282309497197,1.5040652540691306 51.87371149333928,13.536587286622174 51.14706940755879,13.536587286622174" fill="lightblue" fill-opacity="0.5" stroke="blue" stroke-width="0.1" />
<polygon points="82.96340557004824,1.5040652540691306 83.21750272695374,1.5040652540691306 52.12222582203782,13.536587286622174 51.88364399492837,13.536587286622174" fill="lightblue" fill-opacity="0.5" stroke="blue" stroke-width="0.1" />
<polygon points="83.29785957953905,1.5040652540691306 83.45944770358545,1.5040652540691306 52.342041274813035,13.536587286622174 52.18684313485893,13.536587286622174" fill="lightblue" fill-opacity="0.5" stroke="blue" stroke-width="0.1" />
<polygon points="83.588278751285,1.5040652540691306 84.57330040436268,1.5040652540691306 53.410872613985546,13.536587286622174 52.4545498368312,13.536587286622174" fill="lightblue" fill-opacity="0.5" stroke="blue" stroke-width="0.1" />
<polygon points="84.59836707880196,1.5040652540691306 84.93981643929908,1.5040652540691306 53.76447415475644,13.536587286622174 53.43513213253948,13.536587286622174" fill="lightblue" fill-opacity="0.5" stroke="blue" stroke-width="0.1" />
<polygon points="85.27418076480262,1.5040652540691306 86.16837495978234,1.5040652540691306 54.934244821590525,13.536587286622174 54.059601735833574,13.536587286622174" fill="lightblue" fill-opacity="0.5" stroke="blue" stroke-width="0.1" />
<polygon points="86.18664807218664,1.5040652540691306 87.33150901155915,1.5040652540691306 56.047738786418705,13.536587286622174 54.94635215987068,13.536587286622174" fill="lightblue" fill-opacity="0.5" stroke="blue" stroke-width="0.1" />
<polygon points="87.38982602427521,1.5040652540691306 87.55784897440755,1.5040652540691306 56.256635213744964,13.536587286622174 56.09708740040873,13.536587286622174" fill="lightblue" fill-opacity="0.5" stroke="blue" stroke-width="0.1" />
<polygon points="87.5689025258374,1.5040652540691306 88.2695586763092,1.5040652540691306 56.9378972019717,13.536587286622174 56.26342877577994,13.536587286622174" fill="lightblue" fill-opacity="0.5" stroke="blue" stroke-width="0.1" />
<polygon points="88.29106041225486,1.5040652540691306 88.63616439523284,1.5040652540691306 57.28329265790828,13.536587286622174 56.95222421893655,13.536587286622174" fill="lightblue" fill-opacity="0.5" stroke="blue" stroke-width="0.1" />
<polygon points="88.64237501135062,1.5040652540691306 91.325899278156,1.5040652540691306 59.86587759705209,13.536587286622174 57.28847190817257,13.536587286622174" fill="lightblue" fill-opacity="0.5" stroke="blue" stroke-width="0.1" />
<polygon points="19.10520043810628,1.5040652540691306 18.99049461840024,1.5040652540691306 58.423131293994196,13.536587286622174 58.31212493876265,13.536587286622174" fill="pink" fill-opacity="0.5" stroke="orchid" stroke-width="0.1" />
<polygon points="1.60673347376351,1.5040652540691306 1.7263494917720545,1.5040652540691306 58.43079927490496,13.536587286622174 58.31302177863525,13.536587286622174" fill="lightblue" fill-opacity="0.5" stroke="blue" stroke-width="0.1" />
<polygon points="13.154129779455864,1.5040652540691306 13.034356814469614,1.5040652540691306 58.434947159315755,13.536587286622174 58.31950144671482,13.536587286622174" fill="pink" fill-opacity="0.5" stroke="orchid" stroke-width="0.1" />
<polygon points="91.35668330678314,1.5040652540691306 91.95207287720805,1.5040652540691306 60.44649173057585,13.536587286622174 59.88791743692133,13.536587286622174" fill="lightblue" fill-opacity="0.5" stroke="blue" stroke-width="0.1" />
<polygon points="91.9606152769946,1.5040652540691306 92.70120322279408,1.5040652540691306 61.1573270136017,13.536587286622174 60.4538458175312,13.536587286622174" fill="lightblue" fill-opacity="0.5" stroke="blue" stroke-width="0.1" />
<polygon points="92.70707752395964,1.5040652540691306 93.07996112199153,1.5040652540691306 61.5231031556432,13.536587286622174 61.162842578818214,13.536587286622174" fill="lightblue" fill-opacity="0.5" stroke="blue" stroke-width="0.1" />
<polygon points="93.32134557370286,1.5040652540691306 94.20699736889603,1.5040652540691306 62.582091677213874,13.536587286622174 61.73323273779429,13.536587286622174" fill="lightblue" fill-opacity="0.5" stroke="blue" stroke-width="0.1" />
<polygon points="94.22459785139587,1.5040652540691306 94.92888620335171,1.5040652540691306 63.28460877042133,13.536587286622174 62.60121678749716,13.536587286622174" fill="lightblue" fill-opacity="0.5" stroke="blue" stroke-width="0.1" />
<polygon points="94.96204685764124,1.5040652540691306 95.61182976633958,1.5040652540691306 63.9340105221738,13.536587286622174 63.31106554666314,13.536587286622174" fill="lightblue" fill-opacity="0.5" stroke="blue" stroke-width="0.1" />
<polygon points="95.62068606008154,1.5040652540691306 95.83323710988866,1.5040652540691306 64.14434189329624,13.536587286622174 63.93735125069926,13.536587286622174" fill="lightblue" fill-opacity="0.5" stroke="blue" stroke-width="0.1" />
<polygon points="95.8338873187963,1.5040652540691306 96.04805268037411,1.5040652540691306 64.33359752741246,13.536587286622174 64.12976824536642,13.536587286622174" fill="lightblue" fill-opacity="0.5" stroke="blue" stroke-width="0.1" />
<polygon points="96.05572066128488,1.5040652540691306 96.63007933669724,1.5040652540691306 64.89488476168162,13.536587286622174 64.33864225169587,13.536587286622174" fill="lightblue" fill-opacity="0.5" stroke="blue" stroke-width="0.1" />
<polygon points="96.72162426669327,1.5040652540691306 96.88312270675242,1.5040652540691306 65.1231080882625,13.536587286622174 64.96616111055681,13.536587286622174" fill="lightblue" fill-opacity="0.5" stroke="blue" stroke-width="0.1" />
<polygon points="97.01915089442961,1.5040652540691306 97.18665816163521,1.5040652540691306 65.42556733529817,13.536587286622174 65.25633365133781,13.536587286622174" fill="lightblue" fill-opacity="0.5" stroke="blue" stroke-width="0.1" />
<polygon points="97.30078103542405,1.5040652540691306 98.06278103318195,1.5040652540691306 66.26187051650129,13.536587286622174 65.52693266189921,13.536587286622174" fill="lightblue" fill-opacity="0.5" stroke="blue" stroke-width="0.1" />
<polygon points="98.12423698545214,1.5040652540691306 98.78516312956758,1.5040652540691306 66.94716828415474,13.536587286622174 66.3209946851027,13.536587286622174" fill="lightblue" fill-opacity="0.5" stroke="blue" stroke-width="0.1" />
<polygon points="98.80635097155785,1.5040652540691306 99.22748455473582,1.5040652540691306 67.37924331377849,13.536587286622174 66.96817675817049,13.536587286622174" fill="lightblue" fill-opacity="0.5" stroke="blue" stroke-width="0.1" />
<polygon points="99.24362767244268,1.5040652540691306 99.75442282188423,1.5040652540691306 67.8831552171978,13.536587286622174 67.39182149299175,13.536587286622174" fill="lightblue" fill-opacity="0.5" stroke="blue" stroke-width="0.1" />
<polygon points="99.93206437965026,1.5040652540691306 100.75543064569108,1.5040652540691306 68.8125279561804,13.536587286622174 68.03602157348314,13.536587286622174" fill="lightblue" fill-opacity="0.5" stroke="blue" stroke-width="0.1" />
<polygon points="100.80733525331803,1.5040652540691306 100.97670346325927,1.5040652540691306 69.02077417459903,13.536587286622174 68.86140572923732,13.536587286622174" fill="lightblue" fill-opacity="0.5" stroke="blue" stroke-width="0.1" />
<polygon points="101.01051432645644,1.5040652540691306 101.28602353532037,1.5040652540691306 69.30520694019536,13.536587286622174 69.04267948848738,13.536587286622174" fill="lightblue" fill-opacity="0.5" stroke="blue" stroke-width="0.1" />
<polygon points="101.29243594040948,1.5040652540691306 101.68475854268004,1.5040652540691306 69.6878436718418,13.536587286622174 69.31117092534816,13.536587286622174" fill="lightblue" fill-opacity="0.5" stroke="blue" stroke-width="0.1" />
<polygon points="101.73986935285156,1.5040652540691306 104.44897597702295,1.5040652540691306 72.34495600439901,13.536587286622174 69.73169914161214,13.536587286622174" fill="lightblue" fill-opacity="0.5" stroke="blue" stroke-width="0.1" />
<polygon points="0.0,1.5040652540691306 0.29712304979367077,1.5040652540691306 72.69362492587058,13.536587286622174 72.40901279229973,13.536587286622174" fill="lightblue" fill-opacity="0.5" stroke="blue" stroke-width="0.1" />
<polygon points="0.3097012290069404,1.5040652540691306 1.8117510686407607,1.5040652540691306 74.14924088110033,13.536587286622174 72.69414060879733,13.536587286622174" fill="lightblue" fill-opacity="0.5" stroke="blue" stroke-width="0.1" />
<polygon points="13.161080288468545,1.5040652540691306 13.038616803864484,1.5040652540691306 74.06769571568383,13.536587286622174 73.9479675926912,13.536587286622174" fill="pink" fill-opacity="0.5" stroke="orchid" stroke-width="0.1" />
<polygon points="89.7150179199817,1.5040652540691306 89.83766077256028,1.5040652540691306 74.06917550147361,13.536587286622174 73.94799001368801,13.536587286622174" fill="lightblue" fill-opacity="0.5" stroke="blue" stroke-width="0.1" />
<polygon points="1.88181668368794,1.5040652540691306 2.0895696401766326,1.5040652540691306 74.41295664563951,13.536587286622174 74.21132462128134,13.536587286622174" fill="lightblue" fill-opacity="0.5" stroke="blue" stroke-width="0.1" />
<polygon points="2.0961838342370864,1.5040652540691306 2.3126137164932214,1.5040652540691306 74.63483483012172,13.536587286622174 74.42062462655028,13.536587286622174" fill="lightblue" fill-opacity="0.5" stroke="blue" stroke-width="0.1" />
<polygon points="2.3273218904039257,1.5040652540691306 2.565679507545226,1.5040652540691306 74.8777663306133,13.536587286622174 74.64963268801968,13.536587286622174" fill="lightblue" fill-opacity="0.5" stroke="blue" stroke-width="0.1" />
<polygon points="2.596822272121396,1.5040652540691306 3.8980920852760192,1.5040652540691306 76.13616719785745,13.536587286622174 74.8960394430176,13.536587286622174" fill="lightblue" fill-opacity="0.5" stroke="blue" stroke-width="0.1" />
<polygon points="3.9059394341613034,1.5040652540691306 4.427294873102763,1.5040652540691306 76.6393840503755,13.536587286622174 76.14076350220455,13.536587286622174" fill="lightblue" fill-opacity="0.5" stroke="blue" stroke-width="0.1" />
<polygon points="4.483907890060884,1.5040652540691306 4.95817923569064,1.5040652540691306 77.14455152961645,13.536587286622174 76.68108710445158,13.536587286622174" fill="lightblue" fill-opacity="0.5" stroke="blue" stroke-width="0.1" />
<polygon points="4.964277746824346,1.5040652540691306 5.926990508070999,1.5040652540691306 78.07275837676467,13.536587286622174 77.15029130480112,13.536587286622174" fill="lightblue" fill-opacity="0.5" stroke="blue" stroke-width="0.1" />
<polygon points="5.96320041792738,1.5040652540691306 6.276399322437476,1.5040652540691306 78.40532902252302,13.536587286622174 78.10609839902872,13.536587286622174" fill="lightblue" fill-opacity="0.5" stroke="blue" stroke-width="0.1" />
<polygon points="6.2868923489469415,1.5040652540691306 8.456325579778952,1.5040652540691306 80.52684858316115,13.536587286622174 78.41548573408025,13.536587286622174" fill="lightblue" fill-opacity="0.5" stroke="blue" stroke-width="0.1" />
<polygon points="8.468298392078214,1.5040652540691306 8.642554379325151,1.5040652540691306 80.70460224591125,13.536587286622174 80.53648961179165,13.536587286622174" fill="lightblue" fill-opacity="0.5" stroke="blue" stroke-width="0.1" />
<polygon points="8.704391488541189,1.5040652540691306 8.95774875255179,1.5040652540691306 81.00625433706158,13.536587286622174 80.76038568598722,13.536587286622174" fill="lightblue" fill-opacity="0.5" stroke="blue" stroke-width="0.1" />
<polygon points="9.037432975232646,1.5040652540691306 9.753043930580109,1.5040652540691306 81.76504813227491,13.536587286622174 81.06194809315028,13.536587286622174" fill="lightblue" fill-opacity="0.5" stroke="blue" stroke-width="0.1" />
<polygon points="9.767258842560882,1.5040652540691306 10.032095656940813,1.5040652540691306 82.02871905482047,13.536587286622174 81.77368021604873,13.536587286622174" fill="lightblue" fill-opacity="0.5" stroke="blue" stroke-width="0.1" />
<polygon points="10.096533601787401,1.5040652540691306 10.298883098043655,1.5040652540691306 82.26882550971334,13.536587286622174 82.08004071653022,13.536587286622174" fill="lightblue" fill-opacity="0.5" stroke="blue" stroke-width="0.1" />
<polygon points="10.530357469162722,1.5040652540691306 10.76136099934867,1.5040652540691306 82.67112545556662,13.536587286622174 82.45489736228183,13.536587286622174" fill="lightblue" fill-opacity="0.5" stroke="blue" stroke-width="0.1" />
<polygon points="10.823489581523305,1.5040652540691306 11.492846020441222,1.5040652540691306 83.36178184145889,13.536587286622174 82.71944270370317,13.536587286622174" fill="lightblue" fill-opacity="0.5" stroke="blue" stroke-width="0.1" />
<polygon points="81.00069392985142,1.5040652540691306 81.14869492982788,1.5040652540691306 83.20057487435834,13.536587286622174 83.05829122856973,13.536587286622174" fill="lightblue" fill-opacity="0.5" stroke="blue" stroke-width="0.1" />
<polygon points="11.649591209175568,1.5040652540691306 12.196955004422541,1.5040652540691306 84.02178872470492,13.536587286622174 83.4853439549069,13.536587286622174" fill="lightblue" fill-opacity="0.5" stroke="blue" stroke-width="0.1" />
<polygon points="12.213815594027494,1.5040652540691306 12.420582026656323,1.5040652540691306 84.22720989752483,13.536587286622174 84.03568974273027,13.536587286622174" fill="lightblue" fill-opacity="0.5" stroke="blue" stroke-width="0.1" />
<polygon points="12.437935878191208,1.5040652540691306 12.947385767823851,1.5040652540691306 84.73305000667024,13.536587286622174 84.2402364966744,13.536587286622174" fill="lightblue" fill-opacity="0.5" stroke="blue" stroke-width="0.1" />
<polygon points="12.953394594970298,1.5040652540691306 15.280581959393333,1.5040652540691306 86.96719023431062,13.536587286622174 84.73919335979758,13.536587286622174" fill="lightblue" fill-opacity="0.5" stroke="blue" stroke-width="0.1" />
<polygon points="89.84039613417173,1.5040652540691306 89.7150179199817,1.5040652540691306 84.93961465032774,13.536587286622174 84.81775653263769,13.536587286622174" fill="pink" fill-opacity="0.5" stroke="orchid" stroke-width="0.1" />
<polygon points="18.98148137768057,1.5040652540691306 19.102554760482096,1.5040652540691306 84.93811244354113,13.536587286622174 84.82046947325232,13.536587286622174" fill="lightblue" fill-opacity="0.5" stroke="blue" stroke-width="0.1" />
<polygon points="1.7263494917720545,1.5040652540691306 1.606755894760325,1.5040652540691306 84.93972675531181,13.536587286622174 84.82190441704847,13.536587286622174" fill="pink" fill-opacity="0.5" stroke="orchid" stroke-width="0.1" />
<polygon points="35.16589856068411,1.5040652540691306 35.29432603044099,1.5040652540691306 87.01741326717644,13.536587286622174 86.89580178045135,13.536587286622174" fill="lightblue" fill-opacity="0.5" stroke="blue" stroke-width="0.1" />
<polygon points="15.280559538396517,1.5040652540691306 15.694765033558626,1.5040652540691306 87.38749424060644,13.536587286622174 86.97281790451122,13.536587286622174" fill="lightblue" fill-opacity="0.5" stroke="blue" stroke-width="0.1" />
<polygon points="15.721692650733559,1.5040652540691306 15.996686176670728,1.5040652540691306 87.67504352476007,13.536587286622174 87.40785250571456,13.536587286622174" fill="lightblue" fill-opacity="0.5" stroke="blue" stroke-width="0.1" />
<polygon points="16.013658871259757,1.5040652540691306 16.958995359974708,1.5040652540691306 88.61201698166299,13.536587286622174 87.6872629680243,13.536587286622174" fill="lightblue" fill-opacity="0.5" stroke="blue" stroke-width="0.1" />
<polygon points="17.0822435794673,1.5040652540691306 20.07921338174774,1.5040652540691306 91.61537676803573,13.536587286622174 88.72528785757287,13.536587286622174" fill="lightblue" fill-opacity="0.5" stroke="blue" stroke-width="0.1" />
<polygon points="35.16589856068411,1.5040652540691306 35.29432603044099,1.5040652540691306 89.76582389876471,13.536587286622174 89.63916768775623,13.536587286622174" fill="lightblue" fill-opacity="0.5" stroke="blue" stroke-width="0.1" />
<polygon points="1.7302283242210665,1.5040652540691306 1.6068455787475855,1.5040652540691306 90.68080235779202,13.536587286622174 90.55860792514974,13.536587286622174" fill="pink" fill-opacity="0.5" stroke="orchid" stroke-width="0.1" />
<polygon points="89.83766077256028,1.5040652540691306 89.71385202814731,1.5040652540691306 90.68190098663597,13.536587286622174 90.56064823585992,13.536587286622174" fill="pink" fill-opacity="0.5" stroke="orchid" stroke-width="0.1" />
<polygon points="13.038616803864484,1.5040652540691306 13.161080288468545,1.5040652540691306 90.68082477878883,13.536587286622174 90.56212802164971,13.536587286622174" fill="lightblue" fill-opacity="0.5" stroke="blue" stroke-width="0.1" />
<polygon points="20.087553992562956,1.5040652540691306 20.245846230077543,1.5040652540691306 91.77683036610125,13.536587286622174 91.62627337248787,13.536587286622174" fill="lightblue" fill-opacity="0.5" stroke="blue" stroke-width="0.1" />
<polygon points="20.39247954924828,1.5040652540691306 20.984416286163665,1.5040652540691306 92.49098395665573,13.536587286622174 91.91631138728796,13.536587286622174" fill="lightblue" fill-opacity="0.5" stroke="blue" stroke-width="0.1" />
<polygon points="20.991277111189085,1.5040652540691306 21.156923435659024,1.5040652540691306 92.65988132566386,13.536587286622174 92.49788962367478,13.536587286622174" fill="lightblue" fill-opacity="0.5" stroke="blue" stroke-width="0.1" />
<polygon points="21.164524153579343,1.5040652540691306 21.471557283965286,1.5040652540691306 92.95917921214858,13.536587286622174 92.66546415387081,13.536587286622174" fill="lightblue" fill-opacity="0.5" stroke="blue" stroke-width="0.1" />
<polygon points="21.580994169419778,1.5040652540691306 22.02851726584912,1.5040652540691306 93.4907137836441,13.536587286622174 93.05821275508087,13.536587286622174" fill="lightblue" fill-opacity="0.5" stroke="blue" stroke-width="0.1" />
<polygon points="22.074771782278667,1.5040652540691306 22.503528504373776,1.5040652540691306 93.92742995960857,13.536587286622174 93.52564569668203,13.536587286622174" fill="lightblue" fill-opacity="0.5" stroke="blue" stroke-width="0.1" />
<polygon points="22.52738444498504,1.5040652540691306 22.664690629480695,1.5040652540691306 94.07628295746402,13.536587286622174 93.9470707528186,13.536587286622174" fill="lightblue" fill-opacity="0.5" stroke="blue" stroke-width="0.1" />
<polygon points="22.69417424029255,1.5040652540691306 23.093357667588545,1.5040652540691306 94.47889679727271,13.536587286622174 94.09807616636829,13.536587286622174" fill="lightblue" fill-opacity="0.5" stroke="blue" stroke-width="0.1" />
<polygon points="23.093469772572618,1.5040652540691306 23.802107797910587,1.5040652540691306 95.15679563597718,13.536587286622174 94.47696859154661,13.536587286622174" fill="lightblue" fill-opacity="0.5" stroke="blue" stroke-width="0.1" />
<polygon points="23.807331890168506,1.5040652540691306 24.177054127649463,1.5040652540691306 95.51337916932448,13.536587286622174 95.1568404779708,13.536587286622174" fill="lightblue" fill-opacity="0.5" stroke="blue" stroke-width="0.1" />
<polygon points="24.211290989786114,1.5040652540691306 24.324763654667322,1.5040652540691306 95.64620115445713,13.536587286622174 95.53988078755994,13.536587286622174" fill="lightblue" fill-opacity="0.5" stroke="blue" stroke-width="0.1" />
<polygon points="24.394627480743168,1.5040652540691306 24.588770892165098,1.5040652540691306 95.88973802186271,13.536587286622174 95.70395764225282,13.536587286622174" fill="lightblue" fill-opacity="0.5" stroke="blue" stroke-width="0.1" />
<polygon points="24.601349071378365,1.5040652540691306 25.852059536714943,1.5040652540691306 97.11717549250523,13.536587286622174 95.89886336756646,13.536587286622174" fill="lightblue" fill-opacity="0.5" stroke="blue" stroke-width="0.1" />
<polygon points="25.861566039364543,1.5040652540691306 26.842170756069642,1.5040652540691306 98.08172677549071,13.536587286622174 97.12060590501792,13.536587286622174" fill="lightblue" fill-opacity="0.5" stroke="blue" stroke-width="0.1" />
<polygon points="26.848829792123727,1.5040652540691306 27.596188878961367,1.5040652540691306 98.80673212850371,13.536587286622174 98.08753381366583,13.536587286622174" fill="lightblue" fill-opacity="0.5" stroke="blue" stroke-width="0.1" />
<polygon points="27.616457460082216,1.5040652540691306 28.202901052777904,1.5040652540691306 99.39790655152737,13.536587286622174 98.82814418046212,13.536587286622174" fill="lightblue" fill-opacity="0.5" stroke="blue" stroke-width="0.1" />
<polygon points="28.2115107155549,1.5040652540691306 28.84084567515787,1.5040652540691306 99.99997757900319,13.536587286622174 99.39790655152737,13.536587286622174" fill="lightblue" fill-opacity="0.5" stroke="blue" stroke-width="0.1" />
<!-- hits after vs ref -->
<polygon points="0.0,18.550138133519276 24.366511550737034,18.550138133519276 57.06589867278909,29.830627539037753 32.69940954304887,29.830627539037753" fill="lightblue" fill-opacity="0.5" stroke="blue" stroke-width="0.1" />
<polygon points="6.104318171881603,18.550138133519276 6.23256627366396,18.550138133519276 19.711688401954664,29.830627539037753 19.588619550436594,29.830627539037753" fill="lightblue" fill-opacity="0.5" stroke="blue" stroke-width="0.1" />
<polygon points="6.104318171881603,18.550138133519276 6.23256627366396,18.550138133519276 22.460099033542935,29.830627539037753 22.331985457741467,29.830627539037753" fill="lightblue" fill-opacity="0.5" stroke="blue" stroke-width="0.1" />
<polygon points="24.35738620503329,18.550138133519276 67.47365813136686,18.550138133519276 100.17721555882653,29.830627539037753 57.06080910651207,29.830627539037753" fill="lightblue" fill-opacity="0.5" stroke="blue" stroke-width="0.1" />
<polygon points="50.000818366383754,18.550138133519276 50.14337106413414,18.550138133519276 15.894805167142925,29.830627539037753 15.752252469392536,29.830627539037753" fill="lightblue" fill-opacity="0.5" stroke="blue" stroke-width="0.1" />
<polygon points="58.312035254775395,18.550138133519276 58.43225663969795,18.550138133519276 23.254878528644504,29.830627539037753 23.37613127942055,29.830627539037753" fill="pink" fill-opacity="0.5" stroke="orchid" stroke-width="0.1" />
<polygon points="58.31302177863525,18.550138133519276 58.43225663969794,18.550138133519276 6.763405794258207,29.830627539037753 6.64210820148853,29.830627539037753" fill="lightblue" fill-opacity="0.5" stroke="blue" stroke-width="0.1" />
<polygon points="58.31302177863525,18.550138133519276 58.434947159315755,18.550138133519276 17.511986825422273,29.830627539037753 17.633957048096402,29.830627539037753" fill="pink" fill-opacity="0.5" stroke="orchid" stroke-width="0.1" />
<polygon points="67.30581454920905,18.550138133519276 95.16004668051536,18.550138133519276 27.854276973299957,29.830627539037753 0.0,29.830627539037753" fill="lightblue" fill-opacity="0.5" stroke="blue" stroke-width="0.1" />
<polygon points="73.94783306671032,18.550138133519276 74.06917550147362,18.550138133519276 17.514677345040084,29.830627539037753 17.634001890090033,29.830627539037753" fill="pink" fill-opacity="0.5" stroke="orchid" stroke-width="0.1" />
<polygon points="73.94787790870394,18.550138133519276 74.06917550147362,18.550138133519276 91.13574680416717,29.830627539037753 91.01651194310448,29.830627539037753" fill="lightblue" fill-opacity="0.5" stroke="blue" stroke-width="0.1" />
<polygon points="73.94792275069757,18.550138133519276 74.0712158121838,18.550138133519276 23.252838217934332,29.830627539037753 23.37509991356706,29.830627539037753" fill="pink" fill-opacity="0.5" stroke="orchid" stroke-width="0.1" />
<polygon points="83.05802217660795,18.550138133519276 83.20057487435834,18.550138133519276 82.84686122860336,29.830627539037753 82.70430853085297,29.830627539037753" fill="lightblue" fill-opacity="0.5" stroke="blue" stroke-width="0.1" />
<polygon points="84.81775653263769,18.550138133519276 84.93972675531182,18.550138133519276 91.01651194310448,29.830627539037753 91.13843732378497,29.830627539037753" fill="pink" fill-opacity="0.5" stroke="orchid" stroke-width="0.1" />
<polygon points="84.8204470522555,18.550138133519276 84.93977159730545,18.550138133519276 6.6420633594949,29.830627539037753 6.763405794258207,29.830627539037753" fill="pink" fill-opacity="0.5" stroke="orchid" stroke-width="0.1" />
<polygon points="86.89438925765201,18.550138133519276 87.01745810917008,18.550138133519276 38.931975816712836,29.830627539037753 38.80372771493048,29.830627539037753" fill="lightblue" fill-opacity="0.5" stroke="blue" stroke-width="0.1" />
<polygon points="89.63775516495689,18.550138133519276 89.76586874075835,18.550138133519276 38.931975816712836,29.830627539037753 38.80372771493048,29.830627539037753" fill="lightblue" fill-opacity="0.5" stroke="blue" stroke-width="0.1" />
<polygon points="90.55860792514974,18.550138133519276 90.68086962078247,18.550138133519276 6.6421530434821605,29.830627539037753 6.765446104968381,29.830627539037753" fill="pink" fill-opacity="0.5" stroke="orchid" stroke-width="0.1" />
<polygon points="90.56064823585992,18.550138133519276 90.68190098663597,18.550138133519276 91.01552541924461,29.830627539037753 91.13574680416717,29.830627539037753" fill="pink" fill-opacity="0.5" stroke="orchid" stroke-width="0.1" />
<polygon points="95.15307375050587,18.550138133519276 100.0,18.550138133519276 32.69940954304887,29.830627539037753 27.85252813554838,29.830627539037753" fill="lightblue" fill-opacity="0.5" stroke="blue" stroke-width="0.1" />
</svg>
