<?xml version="1.0" standalone="no"?>
<!DOCTYPE svg PUBLIC " -//W3C//DTD SVG 1.0//EN" "http://www.w3.org/TR/2001/REC-SVG-20010904/DTD/svg10.dtd">
<svg width="109.9996748830229" height="32.99990246490687">
<!-- reference contigs -->
<polygon points="3.251169770883564e-05,15.707953573295669 3.251169770883564e-05,15.470354275548338 1.462408674641136,15.470354275548338 1.4624411863388447,15.23275497780101 1.6798469089178287,15.23275497780101 1.6798794206155376,15.470354275548338 1.8731289517968566,15.470354275548338 1.8731614634945655,15.707953573295669 1.8798263615248765,15.707953573295669 1.8798588732225854,15.470354275548338 1.9562613628383494,15.470354275548338 1.956293874536058,15.23275497780101 2.098304970128252,15.23275497780101 2.098337481825961,15.470354275548338 2.106075265880664,15.470354275548338 2.106107777578373,15.23275497780101 2.182575290589554,15.23275497780101 2.182607802287263,15.470354275548338 3.3236383450765588,15.470354275548338 3.3236708567742674,15.23275497780101 3.323703368471976,15.23275497780101 3.3237358801696852,15.470354275548338 4.269273584635752,15.470354275548338 4.269306096333461,15.707953573295669 4.283546219929931,15.707953573295669 4.28357873162764,15.470354275548338 5.244852097784784,15.470354275548338 5.244884609482492,15.707953573295669 5.278891845285934,15.707953573295669 5.278924356983643,15.470354275548338 6.893325218413585,15.470354275548338 6.893357730111294,15.707953573295669 6.902428493772059,15.707953573295669 6.902461005469768,15.470354275548338 7.149419861266083,15.470354275548338 7.1494523729637915,15.707953573295669 7.190157018495254,15.707953573295669 7.190189530192963,15.470354275548338 9.665305076766622,15.470354275548338 9.66533758846433,15.707953573295669 10.084868535699146,15.707953573295669 10.084901047396853,15.470354275548338 10.702883397446401,15.470354275548338 10.70291590914411,15.707953573295669 10.710003459244637,15.707953573295669 10.710035970942346,15.470354275548338 12.457832328071639,15.470354275548338 12.457864839769348,15.23275497780101 12.470381843387251,15.23275497780101 12.47041435508496,15.470354275548338 12.496488736647445,15.470354275548338 12.496521248345154,15.23275497780101 12.680147317004659,15.23275497780101 12.680179828702366,15.470354275548338 12.787078290769019,15.470354275548338 12.787110802466728,15.707953573295669 12.790492019028445,15.707953573295669 12.790524530726154,15.470354275548338 13.95200493137431,15.470354275548338 13.952037443072019,15.707953573295669 14.012216595531072,15.707953573295669 14.012249107228781,15.470354275548338 14.798512004619262,15.470354275548338 14.798544516316971,15.707953573295669 14.887789126527725,15.707953573295669 14.887821638225434,15.470354275548338 15.2622913724358,15.470354275548338 15.26232388413351,15.707953573295669 15.288625847579958,15.707953573295669 15.288658359277667,15.470354275548338 16.832703906865692,15.470354275548338 16.8327364185634,15.707953573295669 16.855494606959585,15.707953573295669 16.855527118657292,15.470354275548338 17.977993482054842,15.470354275548338 17.978025993752553,15.707953573295669 18.186490999461608,15.707953573295669 18.186523511159315,15.470354275548338 18.949670591478814,15.470354275548338 18.949703103176525,14.99515568005368 18.949735614874232,14.99515568005368 18.949735614874232,14.757556382306351 18.949768126571943,14.757556382306351 18.94980063826965,14.519957084559021 19.116423089027432,14.519957084559021 19.11645560072514,14.757556382306351 19.1166831826091,14.757556382306351 19.116715694306812,14.99515568005368 19.121007238404378,14.99515568005368 19.121039750102085,15.23275497780101 19.12536380589736,15.23275497780101 19.125396317595072,15.470354275548338 19.265164106045358,15.470354275548338 19.265196617743065,15.707953573295669 19.347516236341836,15.707953573295669 19.347548748039546,15.470354275548338 19.661904353186276,15.470354275548338 19.661936864883987,15.707953573295669 19.718962382665282,15.707953573295669 19.718994894362993,15.470354275548338 20.389483636212308,15.470354275548338 20.38951614791002,14.99515568005368 20.389548659607726,14.99515568005368 20.389581171305434,14.757556382306351 20.55532580622508,14.757556382306351 20.55535831792279,14.99515568005368 20.55558589980675,14.99515568005368 20.55561841150446,15.23275497780101 20.564299034792718,15.23275497780101 20.564331546490425,15.470354275548338 22.40179516590069,15.470354275548338 22.401827677598398,15.707953573295669 22.441036785035255,15.707953573295669 22.441069296732966,15.470354275548338 22.707827776433962,15.470354275548338 22.707860288131673,15.707953573295669 23.24833475084335,15.707953573295669 23.248367262541063,15.470354275548338 26.86435079341547,15.470354275548338 26.86438330511318,15.707953573295669 26.879338686059246,15.707953573295669 26.879371197756956,15.470354275548338 27.161150081799434,15.470354275548338 27.16118259349714,15.707953573295669 27.170871079414372,15.707953573295669 27.17090359111208,15.470354275548338 27.53318143868164,15.470354275548338 27.53321395037935,15.707953573295669 27.57190287065286,15.707953573295669 27.571935382350567,15.470354275548338 28.91356310000338,15.470354275548338 28.913595611701087,15.707953573295669 29.08906124423568,15.707953573295669 29.089093755933387,15.470354275548338 34.83868996064784,15.470354275548338 34.83872247234555,15.707953573295669 34.88992839623697,15.707953573295669 34.88996090793467,15.470354275548338 36.89014557437766,15.470354275548338 36.89017808607537,15.707953573295669 36.89069827323871,15.707953573295669 36.89073078493642,15.470354275548338 37.17533818667957,15.470354275548338 37.17537069837728,15.707953573295669 37.1912689185569,15.707953573295669 37.191301430254605,15.470354275548338 37.35431508256671,15.470354275548338 37.35434759426442,15.707953573295669 37.36367845150686,15.707953573295669 37.36371096320456,15.470354275548338 38.15520824392616,15.470354275548338 38.15524075562387,15.707953573295669 38.25703488115024,15.707953573295669 38.25706739284795,15.470354275548338 38.68267802755432,15.470354275548338 38.68271053925203,15.707953573295669 38.868124751285514,15.707953573295669 38.868157262983225,15.470354275548338 43.20232419624581,15.470354275548338 43.20235670794352,15.707953573295669 43.25154690657698,15.707953573295669 43.251579418274694,15.470354275548338 45.816362227129325,15.470354275548338 45.81639473882703,15.707953573295669 45.82595317795342,15.707953573295669 45.825985689651134,15.470354275548338 52.08367470615928,15.470354275548338 52.08370721785699,15.707953573295669 52.091802630586486,15.707953573295669 52.0918351422842,15.470354275548338 52.447740697102816,15.470354275548338 52.44777320880052,15.707953573295669 52.456323785297954,15.707953573295669 52.45635629699566,15.470354275548338 53.50472850131477,15.470354275548338 53.504761013012484,15.707953573295669 53.528982227805564,15.707953573295669 53.529014739503275,15.470354275548338 54.335629959659485,15.470354275548338 54.335662471357196,15.707953573295669 54.34954496627887,15.707953573295669 54.34957747797658,15.470354275548338 54.83045799878796,15.470354275548338 54.830490510485674,15.707953573295669 54.839788856030395,15.707953573295669 54.839821367728106,15.470354275548338 56.4039916561979,15.470354275548338 56.40402416789561,15.707953573295669 56.481239449954096,15.707953573295669 56.48127196165181,15.470354275548338 56.75079393565805,15.470354275548338 56.750826447355756,15.707953573295669 56.76490401246369,15.707953573295669 56.7649365241614,15.470354275548338 57.71372539839834,15.470354275548338 57.71375791009605,15.23275497780101 57.93265917076964,15.23275497780101 57.93269168246735,15.470354275548338 58.601977491501444,15.470354275548338 58.60201000319915,15.707953573295669 58.63075034397376,15.707953573295669 58.63078285567147,15.470354275548338 59.967111166597746,15.470354275548338 59.96714367829546,15.707953573295669 59.99103977611145,15.707953573295669 59.99107228780915,15.470354275548338 62.31237499252231,15.470354275548338 62.31240750422001,15.707953573295669 62.3616302145512,15.707953573295669 62.36166272624891,15.470354275548338 65.110299185647,15.470354275548338 65.1103316973447,15.707953573295669 65.1640410219597,15.707953573295669 65.1640735336574,15.470354275548338 65.36480075531176,15.470354275548338 65.36483326700947,15.23275497780101 65.67655542464179,15.23275497780101 65.6765879363395,15.470354275548338 65.72015361126934,15.470354275548338 65.72018612296705,14.99515568005368 65.72041370485101,14.99515568005368 65.72044621654871,14.757556382306351 65.72054375164184,14.757556382306351 65.72057626333955,14.519957084559021 65.89005974349571,14.519957084559021 65.89009225519342,14.757556382306351 65.89031983707739,14.757556382306351 65.8903523487751,14.99515568005368 65.89051490726364,14.99515568005368 65.89054741896135,15.23275497780101 65.89057993065906,15.23275497780101 65.89061244235677,15.470354275548338 66.66907253229712,15.470354275548338 66.66910504399483,15.707953573295669 66.8043862181613,15.707953573295669 66.80441872985901,15.470354275548338 67.13503018386015,15.470354275548338 67.13506269555786,15.707953573295669 67.28731497592834,15.707953573295669 67.28734748762605,15.470354275548338 68.49437677676428,15.470354275548338 68.49440928846198,15.23275497780101 68.50234214270294,15.23275497780101 68.50237465440065,15.470354275548338 68.67780777523754,15.470354275548338 68.67784028693524,15.707953573295669 68.69513651011634,15.707953573295669 68.69516902181405,15.470354275548338 68.88350928664133,15.470354275548338 68.88354179833904,15.707953573295669 68.93718609955863,15.707953573295669 68.93721861125633,15.470354275548338 69.51680464631174,15.470354275548338 69.51683715800945,15.23275497780101 69.70036569157583,15.23275497780101 69.70039820327354,15.470354275548338 71.45528211050336,15.470354275548338 71.45531462220107,15.707953573295669 71.46880697675023,15.707953573295669 71.46883948844794,15.470354275548338 71.64342730514439,15.470354275548338 71.6434598168421,15.707953573295669 71.74626180499745,15.707953573295669 71.74629431669516,15.470354275548338 72.97760984402188,15.470354275548338 72.97764235571958,15.707953573295669 73.02205333478986,15.707953573295669 73.02208584648757,15.470354275548338 73.45917311048515,15.470354275548338 73.45920562218286,15.707953573295669 73.48053329587985,15.707953573295669 73.48056580757756,15.470354275548338 74.1327504636168,15.470354275548338 74.13278297531451,15.707953573295669 74.1499816634025,15.707953573295669 74.1500141751002,15.470354275548338 75.69536019059657,15.470354275548338 75.69539270229428,15.23275497780101 75.6998793165781,15.23275497780101 75.69991182827582,14.99515568005368 75.87248391971431,14.99515568005368 75.87251643141202,15.23275497780101 75.87258145480745,15.23275497780101 75.87261396650514,15.470354275548338 77.66020464163006,15.470354275548338 77.66023715332777,15.707953573295669 77.71953848994869,15.707953573295669 77.7195710016464,15.470354275548338 78.72837646985386,15.470354275548338 78.72840898155157,15.707953573295669 78.72873409852865,15.707953573295669 78.72876661022636,15.470354275548338 79.48895512605435,15.470354275548338 79.48898763775206,15.23275497780101 79.48934526642685,15.23275497780101 79.48937777812456,14.99515568005368 79.66181982277223,14.99515568005368 79.66185233446994,15.23275497780101 79.66191735786536,15.23275497780101 79.66194986956307,15.470354275548338 80.58612738863444,15.470354275548338 80.58615990033215,15.707953573295669 80.61795634069138,15.707953573295669 80.61798885238909,15.470354275548338 81.09714625322191,15.470354275548338 81.09717876491962,15.707953573295669 81.11665327184721,15.707953573295669 81.11668578354492,15.470354275548338 82.35687700434616,15.470354275548338 82.35690951604387,15.707953573295669 82.37449834450436,15.707953573295669 82.37453085620207,15.470354275548338 84.42406827976706,15.470354275548338 84.42410079146477,15.707953573295669 84.4337567656843,15.707953573295669 84.433789277382,15.470354275548338 84.90423354322886,15.470354275548338 84.90426605492657,15.707953573295669 85.0375965272305,15.707953573295669 85.0376290389282,15.470354275548338 85.99334290477714,15.470354275548338 85.99337541647485,15.707953573295669 86.05706583228645,15.707953573295669 86.05709834398417,15.470354275548338 86.36196053339992,15.470354275548338 86.36199304509763,15.707953573295669 86.45413119640446,15.707953573295669 86.45416370810217,15.470354275548338 87.03755361178952,15.470354275548338 87.03758612348723,15.707953573295669 87.04795735505634,15.707953573295669 87.04798986675405,15.470354275548338 88.3356156545125,15.470354275548338 88.3356481662102,15.707953573295669 88.34137022500695,15.707953573295669 88.34140273670467,15.470354275548338 89.0586432998593,15.470354275548338 89.05867581155701,15.707953573295669 89.0696972770803,15.707953573295669 89.069729788778,15.470354275548338 89.60249897913269,15.470354275548338 89.6025314908304,15.707953573295669 89.62857336069519,15.707953573295669 89.6286058723929,15.470354275548338 91.61539571937985,15.470354275548338 91.61542823107756,15.707953573295669 91.69947096965487,15.707953573295669 91.69950348135258,15.470354275548338 93.45376966632595,15.470354275548338 93.45380217802366,15.23275497780101 93.55338550810582,15.23275497780101 93.55341801980353,15.470354275548338 94.02139139662451,15.470354275548338 94.02142390832222,15.707953573295669 94.03628175417515,15.707953573295669 94.03631426587286,15.470354275548338 94.8290795028051,15.470354275548338 94.82911201450281,15.707953573295669 94.84201915849323,15.707953573295669 94.84205167019094,15.470354275548338 95.62512842120596,15.470354275548338 95.62516093290367,15.707953573295669 95.64691125867087,15.707953573295669 95.64694377036858,15.470354275548338 97.21907942477704,15.470354275548338 97.21911193647475,15.707953573295669 97.33248022638546,15.707953573295669 97.33251273808317,15.470354275548338 98.08398811892519,15.470354275548338 98.0840206306229,15.707953573295669 98.10505569904052,15.707953573295669 98.10508821073823,15.470354275548338 98.93989107280801,15.470354275548338 98.93989107280801,15.707953573295669" fill="black" stroke="black" stroke-width="0.1" />
<polygon points="3.251169770883564e-05,17.2919488916112 3.251169770883564e-05,17.2919488916112 1.3811944537644645,17.2919488916112 1.3812269654621734,16.10395240287455 1.405578227046091,16.10395240287455 1.4056107387438002,17.2919488916112 1.461790952384668,17.2919488916112 1.4618234640823768,16.10395240287455 1.6807247247559673,16.10395240287455 1.680757236453676,17.2919488916112 1.9034623657592002,17.2919488916112 1.903494877456909,16.10395240287455 1.9293091654377246,16.10395240287455 1.9293416771354333,17.2919488916112 2.156923561097283,17.2919488916112 2.156956072794992,16.10395240287455 2.1828028724735162,16.10395240287455 2.182835384171225,17.2919488916112 2.2167125731838313,17.2919488916112 2.2167450848815404,16.10395240287455 2.2425593728623556,16.10395240287455 2.2425918845600648,17.2919488916112 2.3874640095506363,17.2919488916112 2.387496521248345,16.10395240287455 2.4133758326245784,16.10395240287455 2.413408344322287,17.2919488916112 2.9304418729859,17.2919488916112 2.930474384683609,16.10395240287455 3.0062591520429054,16.10395240287455 3.006291663740614,17.2919488916112 8.752279070009388,17.2919488916112 8.752311581707097,16.10395240287455 9.087182068108104,16.10395240287455 9.087214579805813,17.2919488916112 9.765506129105253,17.2919488916112 9.765538640802962,16.10395240287455 9.777177828582724,16.10395240287455 9.777210340280433,17.2919488916112 12.457702281280804,17.2919488916112 12.457734792978513,16.10395240287455 12.680147317004659,16.10395240287455 12.680179828702366,17.2919488916112 12.706839420823613,17.2919488916112 12.706871932521322,16.10395240287455 12.718023444835453,16.10395240287455 12.71805595653316,17.2919488916112 12.72172977837426,17.2919488916112 12.721762290071968,16.10395240287455 12.746081039958176,16.10395240287455 12.746113551655885,17.2919488916112 17.36794398624625,17.2919488916112 17.36797649794396,16.10395240287455 17.424774433841296,16.10395240287455 17.424806945539007,17.2919488916112 18.949670591478814,17.2919488916112 18.949703103176525,16.10395240287455 19.12536380589736,16.10395240287455 19.125396317595072,17.2919488916112 20.389483636212308,17.2919488916112 20.38951614791002,16.10395240287455 20.564299034792718,16.10395240287455 20.564331546490425,17.2919488916112 39.93984035455957,17.2919488916112 39.93987286625728,16.10395240287455 39.98311342421003,16.10395240287455 39.98314593590774,17.2919488916112 45.5715816550795,17.2919488916112 45.57161416677721,16.10395240287455 45.614822213032255,16.10395240287455 45.61485472472996,17.2919488916112 48.31875508808069,17.2919488916112 48.3187875997784,16.10395240287455 48.339172434241846,16.10395240287455 48.33920494593955,17.2919488916112 48.84937850638659,17.2919488916112 48.849411018084304,16.10395240287455 48.86534174996164,16.10395240287455 48.86537426165935,17.2919488916112 49.30990670443225,17.2919488916112 49.30993921612996,16.10395240287455 49.33516829355202,16.10395240287455 49.335200805249734,17.2919488916112 56.042689159559615,17.2919488916112 56.042721671257326,16.10395240287455 56.08589720581466,16.10395240287455 56.085929717512364,17.2919488916112 57.71372539839834,17.2919488916112 57.71375791009605,16.10395240287455 57.93265917076964,16.10395240287455 57.93269168246735,17.2919488916112 62.22140726233299,17.2919488916112 62.22143977403069,16.10395240287455 62.264582796890316,16.10395240287455 62.26461530858803,17.2919488916112 63.09730491030673,17.2919488916112 63.09733742200444,16.10395240287455 63.12204631226316,16.10395240287455 63.12207882396086,17.2919488916112 63.58237944012256,17.2919488916112 63.58241195182027,16.10395240287455 63.625717533168434,16.10395240287455 63.625750044866145,17.2919488916112 63.78190372896168,17.2919488916112 63.78193624065939,16.10395240287455 63.83873417655673,16.10395240287455 63.83876668825444,17.2919488916112 65.58649802198832,17.2919488916112 65.58653053368602,16.10395240287455 65.63607836099429,16.10395240287455 65.636110872692,17.2919488916112 65.6692402926573,17.2919488916112 65.66927280435502,16.10395240287455 65.67821352122493,16.10395240287455 65.67824603292264,17.2919488916112 65.67912384876078,17.2919488916112 65.67915636045849,16.10395240287455 65.68809707732842,16.10395240287455 65.68812958902613,17.2919488916112 69.43854898992657,17.2919488916112 69.43858150162428,16.10395240287455 69.46290025151049,16.10395240287455 69.4629327632082,17.2919488916112 69.48754411837379,17.2919488916112 69.4875766300715,16.10395240287455 69.49872814238563,16.10395240287455 69.49876065408334,17.2919488916112 69.51673962291632,17.2919488916112 69.51677213461403,16.10395240287455 69.73915214694247,16.10395240287455 69.73918465864018,17.2919488916112 71.78946985125249,17.2919488916112 71.78950236295019,16.10395240287455 71.83277543260066,16.10395240287455 71.83280794429837,17.2919488916112 71.89532793899245,17.2919488916112 71.89536045069016,16.10395240287455 71.93856849694521,16.10395240287455 71.93860100864292,17.2919488916112 73.03450531501234,17.2919488916112 73.03453782671005,16.10395240287455 73.07771336126739,16.10395240287455 73.0777458729651,17.2919488916112 75.69961922299643,17.2919488916112 75.69965173469414,16.10395240287455 75.87258145480745,16.10395240287455 75.87261396650514,17.2919488916112 79.42165591179706,17.2919488916112 79.42168842349477,16.10395240287455 79.47130127419845,16.10395240287455 79.47133378589616,17.2919488916112 79.48895512605435,17.2919488916112 79.48898763775206,16.10395240287455 79.66191735786536,16.10395240287455 79.66194986956307,17.2919488916112 80.3379981117206,17.2919488916112 80.3380306234183,16.10395240287455 80.36446263365559,16.10395240287455 80.36449514535329,17.2919488916112 85.52858818602934,17.2919488916112 85.52862069772705,16.10395240287455 85.55352465817201,16.10395240287455 85.55355716986972,17.2919488916112 98.72177009287942,17.2919488916112 98.72180260457714,16.10395240287455 98.74654400653354,16.10395240287455 98.74657651823125,17.2919488916112 98.93989107280801,17.2919488916112 98.93989107280801,17.2919488916112" fill="blue" stroke="blue" stroke-width="0.1" />
<polygon points="3.251169770883564e-05,18.87594420992673 3.251169770883564e-05,18.6383449121794 1.461790952384668,18.6383449121794 1.4618234640823768,18.40074561443207 1.6807247247559673,18.40074561443207 1.680757236453676,18.6383449121794 2.158874262959813,18.6383449121794 2.1589067746575217,18.40074561443207 2.1826728256826806,18.40074561443207 2.1827053373803893,18.6383449121794 2.218760810139488,18.6383449121794 2.2187933218371967,18.40074561443207 2.242526861164647,18.40074561443207 2.2425593728623556,18.6383449121794 2.389447223110875,18.6383449121794 2.389479734808584,18.40074561443207 2.413213274136034,18.40074561443207 2.413245785833743,18.6383449121794 2.8410021925888933,18.6383449121794 2.841034704286602,18.40074561443207 2.9051477721684265,18.40074561443207 2.905180283866135,18.6383449121794 12.457702281280804,18.6383449121794 12.457734792978513,18.40074561443207 12.680147317004659,18.40074561443207 12.680179828702366,18.6383449121794 18.948825287338387,18.6383449121794 18.948857799036094,18.40074561443207 19.1166831826091,18.40074561443207 19.116715694306812,18.6383449121794 20.389483636212308,18.6383449121794 20.38951614791002,18.163146316684742 20.389548659607726,18.163146316684742 20.389581171305434,17.92554701893741 20.55558589980675,17.92554701893741 20.55561841150446,18.40074561443207 20.559942467299734,18.40074561443207 20.559974978997445,18.6383449121794 57.71372539839834,18.6383449121794 57.71375791009605,18.40074561443207 57.93265917076964,18.40074561443207 57.93269168246735,18.6383449121794 65.7115705230742,18.6383449121794 65.71160303477191,18.40074561443207 65.72015361126934,18.40074561443207 65.72018612296705,17.92554701893741 65.89057993065906,17.92554701893741 65.89061244235677,18.40074561443207 65.8914577464972,18.40074561443207 65.8914902581949,18.6383449121794 69.51673962291632,18.6383449121794 69.51677213461403,18.40074561443207 69.73915214694247,18.40074561443207 69.73918465864018,18.6383449121794 75.69532767889886,18.6383449121794 75.69536019059657,18.163146316684742 75.69961922299643,18.163146316684742 75.69965173469414,17.92554701893741 75.87248391971431,17.92554701893741 75.87251643141202,18.163146316684742 75.87254894310973,18.163146316684742 75.87254894310973,18.40074561443207 75.87258145480745,18.40074561443207 75.87261396650514,18.6383449121794 78.43866473157043,18.6383449121794 78.43869724326812,18.40074561443207 78.99536253143881,18.40074561443207 78.99539504313653,18.6383449121794 79.47201653154805,18.6383449121794 79.47204904324576,18.40074561443207 79.48895512605435,18.40074561443207 79.48898763775206,17.92554701893741 79.66175479937681,17.92554701893741 79.66178731107452,18.163146316684742 79.66181982277223,18.163146316684742 79.66185233446994,18.40074561443207 79.66191735786536,18.40074561443207 79.66194986956307,18.6383449121794 93.45376966632595,18.6383449121794 93.45380217802366,18.40074561443207 93.55338550810582,18.40074561443207 93.55341801980353,18.6383449121794 98.93989107280801,18.6383449121794 98.93989107280801,18.87594420992673" fill="black" stroke="black" stroke-width="0.1" />
<polygon points="103.93995609620342,15.707953573295669 103.93995609620342,15.470354275548338 104.13414846661829,15.470354275548338 104.134180978316,15.23275497780101 104.16919607674842,15.23275497780101 104.16922858844612,15.470354275548338 104.90171713782618,15.470354275548338 104.9017496495239,15.707953573295669 104.9017821612216,15.707953573295669 104.9017821612216,15.707953573295669" fill="black" stroke="black" stroke-width="0.1" />
<polygon points="103.93995609620342,17.2919488916112 103.93995609620342,17.2919488916112 103.98605768355455,17.2919488916112 103.98609019525226,16.10395240287455 104.0116769013491,16.10395240287455 104.01170941304682,17.2919488916112 104.71731078842167,17.2919488916112 104.71734330011938,16.10395240287455 104.74286498282082,16.10395240287455 104.74289749451853,17.2919488916112 104.9017496495239,17.2919488916112 104.9017496495239,17.2919488916112" fill="blue" stroke="blue" stroke-width="0.1" />
<polygon points="103.93995609620342,18.87594420992673 103.93995609620342,18.87594420992673 103.98797587371936,18.87594420992673 103.98800838541707,18.6383449121794 104.0116769013491,18.6383449121794 104.01170941304682,18.87594420992673 104.08313761291312,18.87594420992673 104.08317012461083,18.6383449121794 104.70658192817776,18.6383449121794 104.70661443987547,18.87594420992673 104.71916395519108,18.87594420992673 104.71919646688879,18.6383449121794 104.74293000621623,18.6383449121794 104.74296251791394,18.87594420992673 104.9017496495239,18.87594420992673 104.9017496495239,18.87594420992673" fill="black" stroke="black" stroke-width="0.1" />
<polygon points="109.90181467291931,15.707953573295669 109.90181467291931,15.470354275548338 109.91108050676633,15.470354275548338 109.91111301846404,15.23275497780101 109.9150144221891,15.23275497780101 109.91504693388681,15.470354275548338 109.91533953916618,15.470354275548338 109.9153720508639,15.23275497780101 109.95162259380925,15.23275497780101 109.95165510550696,15.470354275548338 109.99944730113894,15.470354275548338 109.99947981283665,15.707953573295669 109.9996423713252,15.707953573295669 109.9996423713252,15.707953573295669" fill="black" stroke="black" stroke-width="0.1" />
<polygon points="109.90181467291931,17.2919488916112 109.90181467291931,17.2919488916112 109.9996423713252,17.2919488916112 109.9996423713252,17.2919488916112" fill="blue" stroke="blue" stroke-width="0.1" />
<polygon points="109.90181467291931,18.87594420992673 109.90181467291931,18.87594420992673 109.90978003885797,18.87594420992673 109.90981255055569,18.6383449121794 109.95162259380925,18.6383449121794 109.95165510550696,18.87594420992673 109.9996423713252,18.87594420992673 109.9996423713252,18.87594420992673" fill="black" stroke="black" stroke-width="0.1" />
<!-- assembly contigs before -->
<polygon points="0,0 103.38291816844105,0 103.38291816844105,1.3199960985962746 0,1.3199960985962746" fill="grey" stroke="grey" stroke-width="0" />
<polygon points="105.38291816844105,0 106.3868826577489,0 106.3868826577489,1.3199960985962746 105.38291816844105,1.3199960985962746" fill="grey" stroke="grey" stroke-width="0" />
<polygon points="108.3868826577489,0 108.49495189228449,0 108.49495189228449,1.3199960985962746 108.3868826577489,1.3199960985962746" fill="grey" stroke="grey" stroke-width="0" />
<!-- assembly contigs after -->
<polygon points="0,31.679906366310593 99.54841105063193,31.679906366310593 99.54841105063193,32.99990246490687 0,32.99990246490687" fill="grey" stroke="grey" stroke-width="0" />
<polygon points="101.54841105063193,31.679906366310593 102.17185739282647,31.679906366310593 102.17185739282647,32.99990246490687 101.54841105063193,32.99990246490687" fill="grey" stroke="grey" stroke-width="0" />
<!-- hits before vs ref -->
<polygon points="20.9853287235931,1.5839953183155295 22.90664625792394,1.5839953183155295 1.873167553480291,14.255957864839766 0.0,14.255957864839766" fill="lightblue" fill-opacity="0.5" stroke="blue" stroke-width="0.1" />
<polygon points="81.62995325452906,1.5839953183155295 81.39960712736759,1.5839953183155295 1.6798848822064851,14.255957864839766 1.4624459409988797,14.255957864839766" fill="pink" fill-opacity="0.5" stroke="orchid" stroke-width="0.1" />
<polygon points="22.919033255023237,1.5839953183155295 23.144307540852708,1.5839953183155295 2.098344303899531,14.255957864839766 1.879864984982798,14.255957864839766" fill="lightblue" fill-opacity="0.5" stroke="blue" stroke-width="0.1" />
<polygon points="23.15448373532011,1.5839953183155295 24.436814285426326,1.5839953183155295 3.323746686234437,14.255957864839766 2.106114624914575,14.255957864839766" fill="lightblue" fill-opacity="0.5" stroke="blue" stroke-width="0.1" />
<polygon points="24.439382717895732,1.5839953183155295 25.42985480878833,1.5839953183155295 4.269319976617511,14.255957864839766 3.323681662627617,14.255957864839766" fill="lightblue" fill-opacity="0.5" stroke="blue" stroke-width="0.1" />
<polygon points="25.44230682949445,1.5839953183155295 26.431998637105202,1.5839953183155295 5.244901661548225,14.255957864839766 4.283592658314601,14.255957864839766" fill="lightblue" fill-opacity="0.5" stroke="blue" stroke-width="0.1" />
<polygon points="26.475564453674906,1.5839953183155295 28.178695275319704,1.5839953183155295 6.89338014166043,14.255957864839766 5.2789415197187335,14.255957864839766" fill="lightblue" fill-opacity="0.5" stroke="blue" stroke-width="0.1" />
<polygon points="28.188318769129133,1.5839953183155295 28.446560023616573,1.5839953183155295 7.149475617122796,14.255957864839766 6.902483446615293,14.255957864839766" fill="lightblue" fill-opacity="0.5" stroke="blue" stroke-width="0.1" />
<polygon points="28.500009428422988,1.5839953183155295 31.10599303076982,1.5839953183155295 9.665369012219887,14.255957864839766 7.1902129067958125,14.255957864839766" fill="lightblue" fill-opacity="0.5" stroke="blue" stroke-width="0.1" />
<polygon points="31.59175188552204,1.5839953183155295 32.22839801990113,1.5839953183155295 10.702950706253905,14.255957864839766 10.08493383522888,14.255957864839766" fill="lightblue" fill-opacity="0.5" stroke="blue" stroke-width="0.1" />
<polygon points="32.23792397830032,1.5839953183155295 34.04772602693408,1.5839953183155295 12.470454898650956,14.255957864839766 10.710070791200746,14.255957864839766" fill="lightblue" fill-opacity="0.5" stroke="blue" stroke-width="0.1" />
<polygon points="94.01223614233147,1.5839953183155295 93.77967921253811,1.5839953183155295 12.680221054253746,14.255957864839766 12.457905342534607,14.255957864839766" fill="pink" fill-opacity="0.5" stroke="orchid" stroke-width="0.1" />
<polygon points="34.07435319392705,1.5839953183155295 34.37632282400125,1.5839953183155295 12.787152375669987,14.255957864839766 12.496561876789368,14.255957864839766" fill="lightblue" fill-opacity="0.5" stroke="blue" stroke-width="0.1" />
<polygon points="34.39017285225401,1.5839953183155295 35.596425782380294,1.5839953183155295 13.952082803661868,14.255957864839766 12.79056611502806,14.255957864839766" fill="lightblue" fill-opacity="0.5" stroke="blue" stroke-width="0.1" />
<polygon points="35.670520182352206,1.5839953183155295 36.497587949305,1.5839953183155295 14.798592629053978,14.255957864839766 14.012294663577611,14.255957864839766" fill="lightblue" fill-opacity="0.5" stroke="blue" stroke-width="0.1" />
<polygon points="36.61222456812946,1.5839953183155295 36.9995051703521,1.5839953183155295 15.262373504700882,14.255957864839766 14.887870041218465,14.255957864839766" fill="lightblue" fill-opacity="0.5" stroke="blue" stroke-width="0.1" />
<polygon points="37.02701015603715,1.5839953183155295 38.622982073641836,1.5839953183155295 16.83279114482513,14.255957864839766 15.288708065463167,14.255957864839766" fill="lightblue" fill-opacity="0.5" stroke="blue" stroke-width="0.1" />
<polygon points="38.64346450979028,1.5839953183155295 39.81629530601084,1.5839953183155295 17.978084443557233,14.255957864839766 16.855581919015698,14.255957864839766" fill="lightblue" fill-opacity="0.5" stroke="blue" stroke-width="0.1" />
<polygon points="40.05876833584433,1.5839953183155295 41.17389068101174,1.5839953183155295 19.265259252371575,14.255957864839766 18.186582638827026,14.255957864839766" fill="lightblue" fill-opacity="0.5" stroke="blue" stroke-width="0.1" />
<polygon points="100.4036665511414,1.5839953183155295 100.2171138231735,1.5839953183155295 19.121101916050623,14.255957864839766 18.94976471207872,14.255957864839766" fill="pink" fill-opacity="0.5" stroke="orchid" stroke-width="0.1" />
<polygon points="0.9528559343469647,1.5839953183155295 0.7845423280922139,1.5839953183155295 19.11651775176978,14.255957864839766 18.94976471207872,14.255957864839766" fill="pink" fill-opacity="0.5" stroke="orchid" stroke-width="0.1" />
<polygon points="42.390027199374735,1.5839953183155295 42.57189822765155,1.5839953183155295 19.12545849770759,14.255957864839766 18.94979722388213,14.255957864839766" fill="lightblue" fill-opacity="0.5" stroke="blue" stroke-width="0.1" />
<polygon points="89.96623974333882,1.5839953183155295 89.79067600492358,1.5839953183155295 19.116777846197063,14.255957864839766 18.94986224748895,14.255957864839766" fill="pink" fill-opacity="0.5" stroke="orchid" stroke-width="0.1" />
<polygon points="41.274352153549344,1.5839953183155295 41.60363169848814,1.5839953183155295 19.66200078938659,14.255957864839766 19.347611650409682,14.255957864839766" fill="lightblue" fill-opacity="0.5" stroke="blue" stroke-width="0.1" />
<polygon points="41.68029453092945,1.5839953183155295 44.48069871766945,1.5839953183155295 22.40190050998015,14.255957864839766 19.719059004371537,14.255957864839766" fill="lightblue" fill-opacity="0.5" stroke="blue" stroke-width="0.1" />
<polygon points="40.84782980461056,1.5839953183155295 41.029213155836224,1.5839953183155295 20.56439840484088,14.255957864839766 20.38958243790408,14.255957864839766" fill="lightblue" fill-opacity="0.5" stroke="blue" stroke-width="0.1" />
<polygon points="0.9528234225435545,1.5839953183155295 0.7845423280922139,1.5839953183155295 20.555425147099655,14.255957864839766 20.38958243790408,14.255957864839766" fill="pink" fill-opacity="0.5" stroke="orchid" stroke-width="0.1" />
<polygon points="89.96623974333882,1.5839953183155295 89.79067600492358,1.5839953183155295 20.555685241526934,14.255957864839766 20.3896474615109,14.255957864839766" fill="pink" fill-opacity="0.5" stroke="orchid" stroke-width="0.1" />
<polygon points="44.52062321225721,1.5839953183155295 44.80373599635348,1.5839953183155295 22.707934115480622,14.255957864839766 22.441142256696292,14.255957864839766" fill="lightblue" fill-opacity="0.5" stroke="blue" stroke-width="0.1" />
<polygon points="45.418306616217016,1.5839953183155295 49.15547339461591,1.5839953183155295 26.864470646068057,14.255957864839766 23.248442847175667,14.255957864839766" fill="lightblue" fill-opacity="0.5" stroke="blue" stroke-width="0.1" />
<polygon points="49.17241204419265,1.5839953183155295 49.45919866207427,1.5839953183155295 27.161270899400026,14.255957864839766 26.87945858744017,14.255957864839766" fill="lightblue" fill-opacity="0.5" stroke="blue" stroke-width="0.1" />
<polygon points="49.46999258080646,1.5839953183155295 49.85174617644936,1.5839953183155295 27.533303465823266,14.255957864839766 27.170991928619685,14.255957864839766" fill="lightblue" fill-opacity="0.5" stroke="blue" stroke-width="0.1" />
<polygon points="49.900481369761295,1.5839953183155295 51.303560757733095,1.5839953183155295 28.91368961501473,14.255957864839766 27.572025023684848,14.255957864839766" fill="lightblue" fill-opacity="0.5" stroke="blue" stroke-width="0.1" />
<polygon points="51.50090740443318,1.5839953183155295 57.49969276345777,1.5839953183155295 34.83883573931516,14.255957864839766 29.08918832982314,14.255957864839766" fill="lightblue" fill-opacity="0.5" stroke="blue" stroke-width="0.1" />
<polygon points="57.5674798735681,1.5839953183155295 59.64264326163614,1.5839953183155295 36.890298022697145,14.255957864839766 34.89007434148968,14.255957864839766" fill="lightblue" fill-opacity="0.5" stroke="blue" stroke-width="0.1" />
<polygon points="59.65385983381267,1.5839953183155295 59.95261079534925,1.5839953183155295 37.17549156221166,14.255957864839766 36.890850723355115,14.255957864839766" fill="lightblue" fill-opacity="0.5" stroke="blue" stroke-width="0.1" />
<polygon points="59.97306071969429,1.5839953183155295 60.150412607297085,1.5839953183155295 37.35446903998496,14.255957864839766 37.19142234588267,14.255957864839766" fill="lightblue" fill-opacity="0.5" stroke="blue" stroke-width="0.1" />
<polygon points="60.16322225784071,1.5839953183155295 60.97783800408738,1.5839953183155295 38.15536480519253,14.255957864839766 37.363832439367116,14.255957864839766" fill="lightblue" fill-opacity="0.5" stroke="blue" stroke-width="0.1" />
<polygon points="61.09913954261094,1.5839953183155295 61.53931684898202,1.5839953183155295 38.682836303720066,14.255957864839766 38.25719177347336,14.255957864839766" fill="lightblue" fill-opacity="0.5" stroke="blue" stroke-width="0.1" />
<polygon points="61.76819994499003,1.5839953183155295 66.24546541621936,1.5839953183155295 43.20249716659633,14.255957864839766 38.868283630372005,14.255957864839766" fill="lightblue" fill-opacity="0.5" stroke="blue" stroke-width="0.1" />
<polygon points="66.32554198801876,1.5839953183155295 68.98136618499346,1.5839953183155295 45.8165436961889,14.255957864839766 43.25172003695942,14.255957864839766" fill="lightblue" fill-opacity="0.5" stroke="blue" stroke-width="0.1" />
<polygon points="68.99521621324622,1.5839953183155295 75.50655015303306,1.5839953183155295 52.08387655138198,14.255957864839766 45.82613467819492,14.255957864839766" fill="lightblue" fill-opacity="0.5" stroke="blue" stroke-width="0.1" />
<polygon points="75.51627118225272,1.5839953183155295 75.89594402247737,1.5839953183155295 52.447943725969715,14.255957864839766 52.09200450223454,14.255957864839766" fill="lightblue" fill-opacity="0.5" stroke="blue" stroke-width="0.1" />
<polygon points="75.90878618482441,1.5839953183155295 77.01291954043916,1.5839953183155295 53.50493496663964,14.255957864839766 52.45652684207001,14.255957864839766" fill="lightblue" fill-opacity="0.5" stroke="blue" stroke-width="0.1" />
<polygon points="77.04188755727768,1.5839953183155295 77.89028306726757,1.5839953183155295 54.33583912639484,14.255957864839766 53.52918877198367,14.255957864839766" fill="lightblue" fill-opacity="0.5" stroke="blue" stroke-width="0.1" />
<polygon points="77.90254001715323,1.5839953183155295 78.39964549129562,1.5839953183155295 54.83066877429851,14.255957864839766 54.349754178254415,14.255957864839766" fill="lightblue" fill-opacity="0.5" stroke="blue" stroke-width="0.1" />
<polygon points="78.41700679431668,1.5839953183155295 80.02786911788324,1.5839953183155295 56.404207547550136,14.255957864839766 54.83999966187724,14.255957864839766" fill="lightblue" fill-opacity="0.5" stroke="blue" stroke-width="0.1" />
<polygon points="80.11305004281805,1.5839953183155295 80.39785344069165,1.5839953183155295 56.75101095452704,14.255957864839766 56.48145559245284,14.255957864839766" fill="lightblue" fill-opacity="0.5" stroke="blue" stroke-width="0.1" />
<polygon points="80.41573493256728,1.5839953183155295 82.33819038001747,1.5839953183155295 58.60220052890202,14.255957864839766 56.76512107720708,14.255957864839766" fill="lightblue" fill-opacity="0.5" stroke="blue" stroke-width="0.1" />
<polygon points="22.713818751897875,1.5839953183155295 22.491438016571916,1.5839953183155295 57.93288003209565,14.255957864839766 57.713945547931175,14.255957864839766" fill="pink" fill-opacity="0.5" stroke="orchid" stroke-width="0.1" />
<polygon points="82.36784114472759,1.5839953183155295 83.76506840808555,1.5839953183155295 59.96733864229408,14.255957864839766 58.63097347492007,14.255957864839766" fill="lightblue" fill-opacity="0.5" stroke="blue" stroke-width="0.1" />
<polygon points="83.79839300658104,1.5839953183155295 86.2210425494976,1.5839953183155295 62.3126100930943,14.255957864839766 59.991267329604014,14.255957864839766" fill="lightblue" fill-opacity="0.5" stroke="blue" stroke-width="0.1" />
<polygon points="86.2766702451325,1.5839953183155295 89.1438536760771,1.5839953183155295 65.11054338277512,14.255957864839766 62.36186547526079,14.255957864839766" fill="lightblue" fill-opacity="0.5" stroke="blue" stroke-width="0.1" />
<polygon points="89.20942998355552,1.5839953183155295 89.74506194473904,1.5839953183155295 65.67680146277105,14.255957864839766 65.16428539381222,14.255957864839766" fill="lightblue" fill-opacity="0.5" stroke="blue" stroke-width="0.1" />
<polygon points="89.41955376899584,1.5839953183155295 90.79203954995862,1.5839953183155295 66.6693217972785,14.255957864839766 65.36504577987039,14.255957864839766" fill="lightblue" fill-opacity="0.5" stroke="blue" stroke-width="0.1" />
<polygon points="42.56334762335466,1.5839953183155295 42.39009222298155,1.5839953183155295 65.89082666462059,14.255957864839766 65.72039979114417,14.255957864839766" fill="pink" fill-opacity="0.5" stroke="orchid" stroke-width="0.1" />
<polygon points="41.02007733907795,1.5839953183155295 40.848252458054894,1.5839953183155295 65.89056657019331,14.255957864839766 65.72039979114417,14.255957864839766" fill="pink" fill-opacity="0.5" stroke="orchid" stroke-width="0.1" />
<polygon points="0.7845423280922139,1.5839953183155295 0.9522382100821704,1.5839953183155295 65.89030647576602,14.255957864839766 65.72065988557145,14.255957864839766" fill="lightblue" fill-opacity="0.5" stroke="blue" stroke-width="0.1" />
<polygon points="100.22228319991574,1.5839953183155295 100.40350399212434,1.5839953183155295 65.89076164101377,14.255957864839766 65.7207899327851,14.255957864839766" fill="lightblue" fill-opacity="0.5" stroke="blue" stroke-width="0.1" />
<polygon points="90.96727817033974,1.5839953183155295 91.31469930158144,1.5839953183155295 67.13528096375389,14.255957864839766 66.80463592307187,14.255957864839766" fill="lightblue" fill-opacity="0.5" stroke="blue" stroke-width="0.1" />
<polygon points="91.49696047149918,1.5839953183155295 92.74417827392234,1.5839953183155295 68.50259736797445,14.255957864839766 67.2875662509274,14.255957864839766" fill="lightblue" fill-opacity="0.5" stroke="blue" stroke-width="0.1" />
<polygon points="92.74723438344292,1.5839953183155295 92.93687573273478,1.5839953183155295 68.67806357097945,14.255957864839766 68.49463197613893,14.255957864839766" fill="lightblue" fill-opacity="0.5" stroke="blue" stroke-width="0.1" />
<polygon points="92.95875617642986,1.5839953183155295 93.12742741252212,1.5839953183155295 68.88376575115596,14.255957864839766 68.6953923621971,14.255957864839766" fill="lightblue" fill-opacity="0.5" stroke="blue" stroke-width="0.1" />
<polygon points="93.17343161434759,1.5839953183155295 95.80812313910566,1.5839953183155295 71.45554693631523,14.255957864839766 68.93744273858624,14.255957864839766" fill="lightblue" fill-opacity="0.5" stroke="blue" stroke-width="0.1" />
<polygon points="34.264189614039374,1.5839953183155295 34.07435319392705,1.5839953183155295 69.70062481183794,14.255957864839766 69.5170631697838,14.255957864839766" fill="pink" fill-opacity="0.5" stroke="orchid" stroke-width="0.1" />
<polygon points="95.81914464046172,1.5839953183155295 95.98505237326411,1.5839953183155295 71.64369274265022,14.255957864839766 71.46907184653388,14.255957864839766" fill="lightblue" fill-opacity="0.5" stroke="blue" stroke-width="0.1" />
<polygon points="96.09234132451786,1.5839953183155295 97.35913123259398,1.5839953183155295 72.97787961919575,14.255957864839766 71.74652757683677,14.255957864839766" fill="lightblue" fill-opacity="0.5" stroke="blue" stroke-width="0.1" />
<polygon points="97.42197654858596,1.5839953183155295 97.87493099369726,1.5839953183155295 73.45944445130804,14.255957864839766 73.02232325445753,14.255957864839766" fill="lightblue" fill-opacity="0.5" stroke="blue" stroke-width="0.1" />
<polygon points="97.90068034199817,1.5839953183155295 98.58693948838126,1.5839953183155295 74.13302399436115,14.255957864839766 73.48080470614856,14.255957864839766" fill="lightblue" fill-opacity="0.5" stroke="blue" stroke-width="0.1" />
<polygon points="98.60943765634113,1.5839953183155295 102.25430342485839,1.5839953183155295 77.66048964076407,14.255957864839766 74.15025525016857,14.255957864839766" fill="lightblue" fill-opacity="0.5" stroke="blue" stroke-width="0.1" />
<polygon points="42.56744411058435,1.5839953183155295 42.390027199374735,1.5839953183155295 75.87276310664586,14.255957864839766 75.69563880166695,14.255957864839766" fill="pink" fill-opacity="0.5" stroke="orchid" stroke-width="0.1" />
<polygon points="0.7845423280922139,1.5839953183155295 0.9529209579537852,1.5839953183155295 75.8728606420561,14.255957864839766 75.70015794234097,14.255957864839766" fill="lightblue" fill-opacity="0.5" stroke="blue" stroke-width="0.1" />
<polygon points="102.32605697498477,1.5839953183155295 103.38285314483423,1.5839953183155295 78.72866494180712,14.255957864839766 77.71982368198775,14.255957864839766" fill="lightblue" fill-opacity="0.5" stroke="blue" stroke-width="0.1" />
<polygon points="0.0001950708204613685,1.5839953183155295 1.9158555513579205,1.5839953183155295 80.58642190047097,14.255957864839766 78.72902257164463,14.255957864839766" fill="lightblue" fill-opacity="0.5" stroke="blue" stroke-width="0.1" />
<polygon points="42.56334762335466,1.5839953183155295 42.390027199374735,1.5839953183155295 79.66211132951818,14.255957864839766 79.489246070786,14.255957864839766" fill="pink" fill-opacity="0.5" stroke="orchid" stroke-width="0.1" />
<polygon points="100.22228319991574,1.5839953183155295 100.40373157474822,1.5839953183155295 79.6622088649284,14.255957864839766 79.48963621242692,14.255957864839766" fill="lightblue" fill-opacity="0.5" stroke="blue" stroke-width="0.1" />
<polygon points="1.9476195832897134,1.5839953183155295 2.425803187847348,1.5839953183155295 81.09744242647292,14.255957864839766 80.61825095600958,14.255957864839766" fill="lightblue" fill-opacity="0.5" stroke="blue" stroke-width="0.1" />
<polygon points="2.45314561451535,1.5839953183155295 3.746432642370813,1.5839953183155295 82.35717727320905,14.255957864839766 81.11694950851907,14.255957864839766" fill="lightblue" fill-opacity="0.5" stroke="blue" stroke-width="0.1" />
<polygon points="3.7659072126135396,1.5839953183155295 5.913019221628412,1.5839953183155295 84.42437526944157,14.255957864839766 82.37479867065738,14.255957864839766" fill="lightblue" fill-opacity="0.5" stroke="blue" stroke-width="0.1" />
<polygon points="5.922870298061711,1.5839953183155295 6.408173987566186,1.5839953183155295 84.90454209400723,14.255957864839766 84.43406378685782,14.255957864839766" fill="lightblue" fill-opacity="0.5" stroke="blue" stroke-width="0.1" />
<polygon points="6.534807461849025,1.5839953183155295 7.527360308159878,1.5839953183155295 85.99365499644645,14.255957864839766 85.03790551159598,14.255957864839766" fill="lightblue" fill-opacity="0.5" stroke="blue" stroke-width="0.1" />
<polygon points="7.606689108480834,1.5839953183155295 7.920655594013407,1.5839953183155295 86.36227382351163,14.255957864839766 86.0573781311305,14.255957864839766" fill="lightblue" fill-opacity="0.5" stroke="blue" stroke-width="0.1" />
<polygon points="8.02654653772052,1.5839953183155295 8.65805580716079,1.5839953183155295 87.03786909837616,14.255957864839766 86.45444478617962,14.255957864839766" fill="lightblue" fill-opacity="0.5" stroke="blue" stroke-width="0.1" />
<polygon points="8.669109820320267,1.5839953183155295 9.986845724340222,1.5839953183155295 88.33593536133293,14.255957864839766 87.04827287546743,14.255957864839766" fill="lightblue" fill-opacity="0.5" stroke="blue" stroke-width="0.1" />
<polygon points="9.999037650619057,1.5839953183155295 10.760334039272959,1.5839953183155295 89.058965357373,14.255957864839766 88.34168995053655,14.255957864839766" fill="lightblue" fill-opacity="0.5" stroke="blue" stroke-width="0.1" />
<polygon points="10.771680658663128,1.5839953183155295 11.324836481884748,1.5839953183155295 89.6028228048193,14.255957864839766 89.07001937053248,14.255957864839766" fill="lightblue" fill-opacity="0.5" stroke="blue" stroke-width="0.1" />
<polygon points="11.344473611144526,1.5839953183155295 13.39053893516041,1.5839953183155295 91.61572608935674,14.255957864839766 89.62889727115429,14.255957864839766" fill="lightblue" fill-opacity="0.5" stroke="blue" stroke-width="0.1" />
<polygon points="13.485928566366018,1.5839953183155295 15.873075219958604,1.5839953183155295 94.02172958892726,14.255957864839766 91.69980161297559,14.255957864839766" fill="lightblue" fill-opacity="0.5" stroke="blue" stroke-width="0.1" />
<polygon points="15.889006003629618,1.5839953183155295 16.721405706341688,1.5839953183155295 94.82942032104756,14.255957864839766 94.03661999488915,14.255957864839766" fill="lightblue" fill-opacity="0.5" stroke="blue" stroke-width="0.1" />
<polygon points="16.735093175577394,1.5839953183155295 17.548245890670607,1.5839953183155295 95.62547182754699,14.255957864839766 94.84236001880483,14.255957864839766" fill="lightblue" fill-opacity="0.5" stroke="blue" stroke-width="0.1" />
<polygon points="17.5746129632363,1.5839953183155295 19.21785704299946,1.5839953183155295 97.21942801334025,14.255957864839766 95.64725473583185,14.255957864839766" fill="lightblue" fill-opacity="0.5" stroke="blue" stroke-width="0.1" />
<polygon points="19.317180602417707,1.5839953183155295 20.100975159031485,1.5839953183155295 98.08433951946253,14.255957864839766 97.33282918363511,14.255957864839766" fill="lightblue" fill-opacity="0.5" stroke="blue" stroke-width="0.1" />
<polygon points="20.121230012556058,1.5839953183155295 20.9853287235931,1.5839953183155295 98.94024525604021,14.255957864839766 98.10540716807238,14.255957864839766" fill="lightblue" fill-opacity="0.5" stroke="blue" stroke-width="0.1" />
<polygon points="105.41516987742399,1.5839953183155295 105.64652387049118,1.5839953183155295 2.182614898338842,14.255957864839766 1.9563002348002443,14.255957864839766" fill="lightblue" fill-opacity="0.5" stroke="blue" stroke-width="0.1" />
<polygon points="106.17259736147209,1.5839953183155295 106.28349512290437,1.5839953183155295 93.55372217883702,14.255957864839766 93.45410601318808,14.255957864839766" fill="lightblue" fill-opacity="0.5" stroke="blue" stroke-width="0.1" />
<polygon points="105.57470529675798,1.5839953183155295 106.38688265774888,1.5839953183155295 104.71155872664406,14.255957864839766 103.9399235845057,14.255957864839766" fill="lightblue" fill-opacity="0.5" stroke="blue" stroke-width="0.1" />
<polygon points="105.38291816844105,1.5839953183155295 105.57470529675798,1.5839953183155295 104.9017527765939,14.255957864839766 104.71155872664406,14.255957864839766" fill="lightblue" fill-opacity="0.5" stroke="blue" stroke-width="0.1" />
<polygon points="105.81366705182317,1.5839953183155295 105.77283222673992,1.5839953183155295 109.9516552676529,14.255957864839766 109.91111304880035,14.255957864839766" fill="pink" fill-opacity="0.5" stroke="orchid" stroke-width="0.1" />
<polygon points="108.4259943572514,1.5839953183155295 108.3868826577489,1.5839953183155295 104.16922933395804,14.255957864839766 104.13418160988182,14.255957864839766" fill="pink" fill-opacity="0.5" stroke="orchid" stroke-width="0.1" />
<polygon points="108.48041911616012,1.5839953183155295 108.49452923884016,1.5839953183155295 109.91504697701298,14.255957864839766 109.9017821612216,14.255957864839766" fill="lightblue" fill-opacity="0.5" stroke="blue" stroke-width="0.1" />
<polygon points="108.3868826577489,1.5839953183155295 108.48028906894649,1.5839953183155295 109.99948013046934,14.255957864839766 109.91537209504708,14.255957864839766" fill="lightblue" fill-opacity="0.5" stroke="blue" stroke-width="0.1" />
<!-- hits after vs ref -->
<polygon points="0.0,19.535942259224868 78.99565187141192,19.535942259224868 99.49697737763695,31.415907146591337 20.501390529831856,31.415907146591337" fill="lightblue" fill-opacity="0.5" stroke="blue" stroke-width="0.1" />
<polygon points="1.4618282167340853,19.535942259224868 1.680762700898561,19.535942259224868 78.21533607776303,31.415907146591337 78.4342705619275,31.415907146591337" fill="pink" fill-opacity="0.5" stroke="orchid" stroke-width="0.1" />
<polygon points="12.457775295320966,19.535942259224868 12.680221054253746,19.535942259224868 90.01838867600883,31.415907146591337 90.24080192313819,31.415907146591337" fill="pink" fill-opacity="0.5" stroke="orchid" stroke-width="0.1" />
<polygon points="18.948919405190054,19.535942259224868 19.11677784619706,19.535942259224868 86.22179032097603,31.415907146591337 86.39309501314452,31.415907146591337" fill="pink" fill-opacity="0.5" stroke="orchid" stroke-width="0.1" />
<polygon points="20.38958243790408,19.535942259224868 20.555685241526938,19.535942259224868 1.050391344577649,31.415907146591337 1.2232566033098315,31.415907146591337" fill="pink" fill-opacity="0.5" stroke="orchid" stroke-width="0.1" />
<polygon points="20.38958243790408,19.535942259224868 20.56004182318391,19.535942259224868 96.19699681969539,31.415907146591337 96.37415363647771,31.415907146591337" fill="pink" fill-opacity="0.5" stroke="orchid" stroke-width="0.1" />
<polygon points="20.3896474615109,19.535942259224868 20.555685241526934,19.535942259224868 86.22179032097603,31.415907146591337 86.39221719445244,31.415907146591337" fill="pink" fill-opacity="0.5" stroke="orchid" stroke-width="0.1" />
<polygon points="57.713945547931175,19.535942259224868 57.93288003209565,19.535942259224868 21.96321874656594,31.415907146591337 22.182153230730414,31.415907146591337" fill="pink" fill-opacity="0.5" stroke="orchid" stroke-width="0.1" />
<polygon points="65.71181667504388,19.535942259224868 65.89082666462059,19.535942259224868 1.2231915797030113,31.415907146591337 1.0334526950009202,31.415907146591337" fill="lightblue" fill-opacity="0.5" stroke="blue" stroke-width="0.1" />
<polygon points="65.72039979114417,19.535942259224868 65.89170448331267,19.535942259224868 39.45030993502191,31.415907146591337 39.61816837602892,31.415907146591337" fill="pink" fill-opacity="0.5" stroke="orchid" stroke-width="0.1" />
<polygon points="65.72039979114417,19.535942259224868 65.89082666462059,19.535942259224868 40.891037991342756,31.415907146591337 41.05707577135879,31.415907146591337" fill="pink" fill-opacity="0.5" stroke="orchid" stroke-width="0.1" />
<polygon points="69.51699814617697,19.535942259224868 69.73941139330634,19.535942259224868 32.95916582515282,31.415907146591337 33.1816115840856,31.415907146591337" fill="pink" fill-opacity="0.5" stroke="orchid" stroke-width="0.1" />
<polygon points="75.69560628986353,19.535942259224868 75.87279561844927,19.535942259224868 39.45115524191058,31.415907146591337 39.62249244588248,31.415907146591337" fill="pink" fill-opacity="0.5" stroke="orchid" stroke-width="0.1" />
<polygon points="75.69560628986353,19.535942259224868 75.87276310664586,19.535942259224868 40.890972967735934,31.415907146591337 41.06143235301576,31.415907146591337" fill="pink" fill-opacity="0.5" stroke="orchid" stroke-width="0.1" />
<polygon points="75.69989784791369,19.535942259224868 75.8728606420561,19.535942259224868 1.2233541387200624,31.415907146591337 1.050391344577649,31.415907146591337" fill="lightblue" fill-opacity="0.5" stroke="blue" stroke-width="0.1" />
<polygon points="78.43895226161858,19.535942259224868 98.94024525604021,19.535942259224868 20.501390529831856,31.415907146591337 0.0,31.415907146591337" fill="lightblue" fill-opacity="0.5" stroke="blue" stroke-width="0.1" />
<polygon points="79.47230742120927,19.535942259224868 79.66204630591136,19.535942259224868 86.39221719445244,31.415907146591337 86.21320720487573,31.415907146591337" fill="lightblue" fill-opacity="0.5" stroke="blue" stroke-width="0.1" />
<polygon points="79.489246070786,19.535942259224868 79.66211132951818,19.535942259224868 40.890972967735934,31.415907146591337 41.05707577135879,31.415907146591337" fill="pink" fill-opacity="0.5" stroke="orchid" stroke-width="0.1" />
<polygon points="79.489246070786,19.535942259224868 79.6622088649284,19.535942259224868 96.37425117188795,31.415907146591337 96.20128837774554,31.415907146591337" fill="lightblue" fill-opacity="0.5" stroke="blue" stroke-width="0.1" />
<polygon points="2.158913793652786,19.535942259224868 2.1827124337490726,19.535942259224868 101.59925951116553,31.415907146591337 101.575363335659,31.415907146591337" fill="lightblue" fill-opacity="0.5" stroke="blue" stroke-width="0.1" />
<polygon points="2.2188005355344256,19.535942259224868 2.2425666638273025,19.535942259224868 101.59922699936212,31.415907146591337 101.575363335659,31.415907146591337" fill="lightblue" fill-opacity="0.5" stroke="blue" stroke-width="0.1" />
<polygon points="2.389487503438123,19.535942259224868 2.413253631731,19.535942259224868 101.59922699936212,31.415907146591337 101.575363335659,31.415907146591337" fill="lightblue" fill-opacity="0.5" stroke="blue" stroke-width="0.1" />
<polygon points="2.841043941002781,19.535942259224868 2.905189729131161,19.535942259224868 102.10767909289467,31.415907146591337 102.17182488102306,31.415907146591337" fill="pink" fill-opacity="0.5" stroke="orchid" stroke-width="0.1" />
<polygon points="93.45410601318808,19.535942259224868 93.55372217883702,19.535942259224868 102.08732670395987,31.415907146591337 101.98771053831094,31.415907146591337" fill="lightblue" fill-opacity="0.5" stroke="blue" stroke-width="0.1" />
<polygon points="103.98800854174944,19.535942259224868 104.01170964643549,19.535942259224868 101.5991619757553,31.415907146591337 101.575363335659,31.415907146591337" fill="lightblue" fill-opacity="0.5" stroke="blue" stroke-width="0.1" />
<polygon points="104.08317059033116,19.535942259224868 104.7066169325257,19.535942259224868 102.17185739282647,31.415907146591337 101.54841105063193,31.415907146591337" fill="lightblue" fill-opacity="0.5" stroke="blue" stroke-width="0.1" />
<polygon points="104.71919900044546,19.535942259224868 104.74296512873833,19.535942259224868 101.59922699936212,31.415907146591337 101.575363335659,31.415907146591337" fill="lightblue" fill-opacity="0.5" stroke="blue" stroke-width="0.1" />
<polygon points="109.90981257666392,19.535942259224868 109.95165526765288,19.535942259224868 101.59922699936212,31.415907146591337 101.63996428903513,31.415907146591337" fill="pink" fill-opacity="0.5" stroke="orchid" stroke-width="0.1" />
</svg>
