<?xml version="1.0" standalone="no"?>
<!DOCTYPE svg PUBLIC " -//W3C//DTD SVG 1.0//EN" "http://www.w3.org/TR/2001/REC-SVG-20010904/DTD/svg10.dtd">
<svg width="105.98232148277124" height="31.79469644483137">
<!-- reference contigs -->
<polygon points="3.445164522109171e-05,15.134275507739732 3.445164522109171e-05,14.84812323973625 0.5893298431519948,14.84812323973625 0.5893642947972159,15.134275507739732 0.6763202473352514,15.134275507739732 0.6763546989804725,14.84812323973625 1.8763055020310968,14.84812323973625 1.876339953676318,14.561970971732766 2.1083028809499282,14.561970971732766 2.1083373325951493,14.84812323973625 3.5477959732228035,14.84812323973625 3.5478304248680246,15.134275507739732 3.8191026793389007,15.134275507739732 3.8191371309841218,14.84812323973625 4.9983480436116485,14.84812323973625 4.99838249525687,15.134275507739732 5.0179854813876705,15.134275507739732 5.018019933032892,14.84812323973625 5.20161275041609,14.84812323973625 5.201647202061311,15.134275507739732 5.235616524249307,15.134275507739732 5.235650975894528,14.84812323973625 5.885512359699981,14.84812323973625 5.885546811345202,15.134275507739732 6.148998542350891,15.134275507739732 6.149032993996112,14.84812323973625 6.63938326042791,14.84812323973625 6.639417712073131,15.134275507739732 6.697675444141997,15.134275507739732 6.697709895787218,14.84812323973625 6.909863127058701,14.84812323973625 6.909897578703922,15.134275507739732 6.921748944659978,15.134275507739732 6.921783396305199,14.84812323973625 7.727745184607419,14.84812323973625 7.72777963625264,15.134275507739732 7.774530518817661,15.134275507739732 7.774564970462882,14.84812323973625 8.161939269328837,14.84812323973625 8.161973720974059,15.134275507739732 8.190258521700574,15.134275507739732 8.190292973345796,14.84812323973625 9.266217853600489,14.84812323973625 9.266252305245711,15.134275507739732 9.279998511688927,15.134275507739732 9.280032963334147,14.84812323973625 9.763182835914737,14.84812323973625 9.763217287559959,15.134275507739732 9.943640553582815,15.134275507739732 9.943675005228037,14.84812323973625 11.505023566647914,14.84812323973625 11.505058018293134,15.134275507739732 11.519665515866878,15.134275507739732 11.519699967512098,14.84812323973625 11.860943513427012,14.84812323973625 11.860977965072234,15.134275507739732 12.045569880166843,15.134275507739732 12.045604331812063,14.84812323973625 12.69498339258442,14.84812323973625 12.695017844229643,15.134275507739732 12.730882006904798,15.134275507739732 12.73091645855002,14.84812323973625 15.822503745755126,14.84812323973625 15.822538197400348,15.134275507739732 16.00179010748569,15.134275507739732 16.00182455913091,14.84812323973625 16.483596365902656,14.84812323973625 16.483630817547876,15.134275507739732 16.514154975213764,15.134275507739732 16.514189426858984,14.84812323973625 16.879962544171317,14.84812323973625 16.879996995816537,15.134275507739732 16.921683486534057,15.134275507739732 16.921717938179277,14.84812323973625 17.24084352786225,14.84812323973625 17.240877979507474,14.561970971732766 17.245460048321878,14.561970971732766 17.245494499967098,14.84812323973625 17.411103558544887,14.84812323973625 17.411138010190108,15.134275507739732 17.420543309335464,15.134275507739732 17.420577760980688,14.84812323973625 17.713037777262535,14.84812323973625 17.713072228907755,14.561970971732766 17.7131411321982,14.561970971732766 17.71317558384342,14.275818703729284 17.892014074186104,14.275818703729284 17.892048525831328,14.561970971732766 17.892082977476548,14.561970971732766 17.892082977476548,14.84812323973625 18.236289364880474,14.84812323973625 18.236323816525697,14.561970971732766 18.236358268170918,14.561970971732766 18.236358268170918,14.84812323973625 18.77704238827073,14.84812323973625 18.777076839915953,15.134275507739732 18.827376241938747,15.134275507739732 18.827410693583968,14.84812323973625 19.084488870223755,14.84812323973625 19.084523321868975,15.134275507739732 19.1023692740935,15.134275507739732 19.10240372573872,14.84812323973625 19.288511513223057,14.84812323973625 19.28854596486828,14.561970971732766 19.36120448463956,14.561970971732766 19.36123893628478,14.275818703729284 19.436722490964193,14.275818703729284 19.436756942609417,14.561970971732766 19.468590262793704,14.561970971732766 19.468624714438924,14.84812323973625 19.529535223189814,14.84812323973625 19.529569674835038,15.134275507739732 19.545658593153288,15.134275507739732 19.545693044798508,14.84812323973625 20.028119432829456,14.84812323973625 20.028153884474676,15.134275507739732 20.16902666178372,15.134275507739732 20.169061113428942,14.84812323973625 20.76831303040461,14.84812323973625 20.768347482049833,15.134275507739732 20.811377586930973,15.134275507739732 20.811412038576197,14.84812323973625 21.271031437470782,14.84812323973625 21.271065889116002,15.134275507739732 21.32518942375834,15.134275507739732 21.32522387540356,14.84812323973625 21.708498428488202,14.84812323973625 21.708532880133426,15.134275507739732 21.749805951108293,15.134275507739732 21.749840402753513,14.84812323973625 22.681447341177055,14.84812323973625 22.681481792822275,15.134275507739732 22.687441927445523,15.134275507739732 22.687476379090747,14.84812323973625 22.912135557577486,14.84812323973625 22.912170009222706,15.134275507739732 23.41251125276862,15.134275507739732 23.41254570441384,14.84812323973625 27.609789641699443,14.84812323973625 27.609824093344667,15.134275507739732 27.719311421857295,15.134275507739732 27.719345873502515,14.84812323973625 30.60694496935354,14.84812323973625 30.60697942099876,15.134275507739732 30.629131828875924,15.134275507739732 30.629166280521144,14.84812323973625 31.87307738287388,14.84812323973625 31.8731118345191,15.134275507739732 31.88413636098985,15.134275507739732 31.884170812635073,14.84812323973625 32.24825579933157,14.84812323973625 32.24829025097679,15.134275507739732 32.29052796801785,15.134275507739732 32.29056241966307,14.84812323973625 32.45861754505155,14.84812323973625 32.45865199669677,15.134275507739732 32.593116767994694,15.134275507739732 32.59315121963992,14.84812323973625 34.27160092316628,14.84812323973625 34.27163537481151,15.134275507739732 34.36758320675224,15.134275507739732 34.36761765839747,14.84812323973625 34.6665890356261,14.84812323973625 34.66662348727132,15.134275507739732 34.66714026194964,15.134275507739732 34.66717471359486,14.84812323973625 35.10298802564167,14.84812323973625 35.10302247728689,15.134275507739732 35.187739072885556,15.134275507739732 35.187773524530776,14.84812323973625 37.73750533569855,14.84812323973625 37.73753978734378,15.134275507739732 37.80492720539623,15.134275507739732 37.80496165704145,14.84812323973625 38.01680482350594,14.84812323973625 38.01683927515116,15.134275507739732 38.026589090748736,15.134275507739732 38.026623542393956,14.84812323973625 38.29985954064244,14.84812323973625 38.29989399228766,15.134275507739732 38.39952815026705,15.134275507739732 38.39956260191227,14.84812323973625 38.67117937283536,14.84812323973625 38.67121382448058,15.134275507739732 38.71662109288198,15.134275507739732 38.7166555445272,14.84812323973625 38.90620849653365,14.84812323973625 38.90624294817887,15.134275507739732 38.91719857135918,15.134275507739732 38.9172330230044,14.84812323973625 39.39635205309412,14.84812323973625 39.39638650473934,15.134275507739732 39.76446788228149,15.134275507739732 39.76450233392671,14.84812323973625 39.95615683629164,14.84812323973625 39.95619128793686,15.134275507739732 40.19569912551389,15.134275507739732 40.19573357715911,14.84812323973625 41.46396754103794,14.84812323973625 41.46400199268316,15.134275507739732 41.62537349889875,15.134275507739732 41.62540795054397,14.84812323973625 42.471161389076556,14.84812323973625 42.47119584072178,15.134275507739732 42.544440038461815,15.134275507739732 42.544474490107035,14.84812323973625 43.24635785819634,14.84812323973625 43.24639230984156,15.134275507739732 43.46440232080063,15.134275507739732 43.46443677244585,14.84812323973625 43.767852411908,14.84812323973625 43.76788686355322,15.134275507739732 43.78066842393025,15.134275507739732 43.78070287557547,14.84812323973625 44.307434079360746,14.84812323973625 44.307468531005966,15.134275507739732 44.34488301771607,15.134275507739732 44.34491746936129,14.84812323973625 47.435781272016754,14.84812323973625 47.435815723661975,15.134275507739732 47.443980763579376,15.134275507739732 47.444015215224596,14.84812323973625 47.754080022214424,14.84812323973625 47.754114473859644,15.134275507739732 47.786361213786584,15.134275507739732 47.786395665431805,14.84812323973625 48.519182159284426,14.84812323973625 48.51921661092965,15.134275507739732 48.73657204062951,15.134275507739732 48.73660649227474,14.84812323973625 49.081880880680515,14.84812323973625 49.081915332325735,15.134275507739732 49.1728332240642,15.134275507739732 49.17286767570942,14.84812323973625 49.581670897902896,14.84812323973625 49.581705349548116,15.134275507739732 49.59255761779276,15.134275507739732 49.59259206943798,14.84812323973625 50.119185466642364,14.84812323973625 50.11921991828759,15.134275507739732 50.17286112989683,15.134275507739732 50.17289558154205,14.84812323973625 51.8313977824854,14.84812323973625 51.831432234130624,15.134275507739732 51.83804695001307,15.134275507739732 51.83808140165829,14.84812323973625 52.72786404278343,14.84812323973625 52.72789849442865,15.134275507739732 52.75501193921765,15.134275507739732 52.75504639086287,14.84812323973625 53.69650649981965,14.84812323973625 53.69654095146487,15.134275507739732 53.70642857364332,15.134275507739732 53.70646302528854,14.84812323973625 54.82669272129756,14.84812323973625 54.82672717294278,15.134275507739732 54.84856951601295,15.134275507739732 54.84860396765817,14.84812323973625 55.54983275448827,14.84812323973625 55.5498672061335,15.134275507739732 55.6276245693975,15.134275507739732 55.62765902104272,14.84812323973625 56.05702987543319,14.84812323973625 56.05706432707841,15.134275507739732 56.07146511478082,15.134275507739732 56.07149956642604,14.84812323973625 56.335261362238725,14.84812323973625 56.335295813883945,15.134275507739732 56.346216985419034,15.134275507739732 56.346251437064254,14.84812323973625 57.02711930156869,14.84812323973625 57.02715375321391,15.134275507739732 57.1001567894374,15.134275507739732 57.10019124108262,14.84812323973625 57.41421798727287,14.84812323973625 57.4142524389181,15.134275507739732 57.42920445294405,15.134275507739732 57.42923890458927,14.84812323973625 58.451935992977376,14.84812323973625 58.451970444622596,15.134275507739732 58.45989432302345,15.134275507739732 58.45992877466867,14.84812323973625 58.63253151722634,14.84812323973625 58.63256596887156,15.134275507739732 58.72183018163941,15.134275507739732 58.72186463328463,14.84812323973625 59.7074228481244,14.84812323973625 59.70745729976962,15.134275507739732 59.717241567012415,15.134275507739732 59.717276018657635,14.84812323973625 59.90183348210702,14.84812323973625 59.90186793375224,15.134275507739732 60.03733180276158,15.134275507739732 60.0373662544068,14.84812323973625 60.31721696853772,14.84812323973625 60.31725142018295,15.134275507739732 60.404000662849654,15.134275507739732 60.404035114494874,14.84812323973625 60.74079994653105,14.84812323973625 60.74083439817627,15.134275507739732 61.04245855208693,15.134275507739732 61.04249300373215,14.84812323973625 61.84363156170341,14.84812323973625 61.84366601334863,14.561970971732766 62.075560037331805,14.561970971732766 62.075594488977025,14.84812323973625 62.158933018766845,14.84812323973625 62.158967470412065,15.134275507739732 62.1820500727102,15.134275507739732 62.18208452435542,14.84812323973625 63.567936405019054,14.84812323973625 63.567970856664274,15.134275507739732 63.63811440633442,15.134275507739732 63.63814885797964,14.84812323973625 64.55004945533672,14.84812323973625 64.55008390698194,15.134275507739732 64.7099395408078,15.134275507739732 64.70997399245302,14.84812323973625 66.31948595389198,14.84812323973625 66.3195204055372,15.134275507739732 66.33870997192535,15.134275507739732 66.33874442357057,14.84812323973625 66.6488092305604,14.84812323973625 66.64884368220562,15.134275507739732 66.86578569216283,15.134275507739732 66.86582014380805,14.84812323973625 67.10253739812218,14.84812323973625 67.1025718497674,15.134275507739732 67.26284090333591,15.134275507739732 67.26287535498113,14.84812323973625 70.15116348373658,14.84812323973625 70.1511979353818,14.561970971732766 70.33175900798555,14.561970971732766 70.33179345963077,14.84812323973625 70.58577098820065,14.84812323973625 70.58580543984587,15.134275507739732 70.59803577389937,15.134275507739732 70.59807022554459,14.84812323973625 71.45116186450926,14.84812323973625 71.45119631615448,15.134275507739732 71.47930885865489,15.134275507739732 71.47934331030011,14.84812323973625 73.1739852870804,14.84812323973625 73.17401973872562,15.134275507739732 73.1855954915199,15.134275507739732 73.18562994316513,14.84812323973625 73.87886594830393,14.84812323973625 73.87890039994915,15.134275507739732 73.89064841096955,15.134275507739732 73.89068286261477,14.84812323973625 75.72943607135487,14.84812323973625 75.72947052300009,15.134275507739732 75.73704988494873,15.134275507739732 75.73708433659395,14.84812323973625 76.26808754438665,14.84812323973625 76.26812199603187,14.561970971732766 76.44503119424216,14.561970971732766 76.44506564588738,14.84812323973625 77.14233249351706,14.84812323973625 77.14236694516228,15.134275507739732 77.16500167607254,15.134275507739732 77.16503612771776,14.84812323973625 78.11032036929407,14.84812323973625 78.11035482093929,15.134275507739732 78.13657252295255,15.134275507739732 78.13660697459777,14.84812323973625 78.49428395528314,14.84812323973625 78.49431840692836,14.561970971732766 78.49449066515447,14.561970971732766 78.4945251167997,14.84812323973625 79.0574305480671,14.84812323973625 79.05746499971232,15.134275507739732 79.17866588760013,15.134275507739732 79.17870033924535,14.84812323973625 80.34764466159699,14.84812323973625 80.34767911324221,14.561970971732766 80.52710328155366,14.561970971732766 80.52713773319888,14.84812323973625 80.64792520134402,14.84812323973625 80.64795965298924,15.134275507739732 80.70318564027866,15.134275507739732 80.70322009192388,14.84812323973625 82.17702702283697,14.84812323973625 82.17706147448219,15.134275507739732 82.21209879767203,15.134275507739732 82.21213324931725,14.84812323973625 84.36060674859498,14.84812323973625 84.3606412002402,15.134275507739732 84.39185439081051,15.134275507739732 84.39188884245573,14.84812323973625 85.37338176315941,14.84812323973625 85.37341621480464,15.134275507739732 85.44380092599133,15.134275507739732 85.44383537763655,14.84812323973625 85.70484104183153,14.84812323973625 85.70487549347675,15.134275507739732 85.72923280664807,15.134275507739732 85.72926725829329,14.84812323973625 86.19739621355748,14.84812323973625 86.1974306652027,15.134275507739732 86.37406425025124,15.134275507739732 86.37409870189646,14.84812323973625 89.2839535605603,14.84812323973625 89.28398801220553,15.134275507739732 89.30042144697599,15.134275507739732 89.30045589862121,14.84812323973625 89.83442194790291,14.84812323973625 89.83445639954813,15.134275507739732 89.87314559713141,15.134275507739732 89.87318004877665,14.84812323973625 90.18710344003122,14.84812323973625 90.18713789167644,15.134275507739732 90.21018604232935,15.134275507739732 90.21022049397457,14.84812323973625 91.60279044545632,14.84812323973625 91.60282489710156,15.134275507739732 91.63417589425275,15.134275507739732 91.63421034589797,14.84812323973625 91.97169866248377,14.84812323973625 91.971733114129,15.134275507739732 91.98196525275966,15.134275507739732 91.98199970440488,14.84812323973625 93.32981696874444,14.84812323973625 93.32985142038966,15.134275507739732 93.3671625521641,15.134275507739732 93.36719700380932,14.84812323973625 93.66678851065193,14.84812323973625 93.66682296229715,15.134275507739732 93.68511678590956,15.134275507739732 93.68515123755478,14.84812323973625 94.4203837982181,14.84812323973625 94.42041824986332,15.134275507739732 94.42717077232665,15.134275507739732 94.42720522397187,14.84812323973625 96.95213185058046,14.84812323973625 96.95216630222568,15.134275507739732 96.97128696532339,15.134275507739732 96.9713214169686,14.84812323973625 98.63475020317858,14.84812323973625 98.6347846548238,15.134275507739732 98.65331963995274,15.134275507739732 98.65335409159796,14.84812323973625 99.0602969249495,14.84812323973625 99.06033137659472,15.134275507739732 99.06739396386504,15.134275507739732 99.06742841551026,14.84812323973625 99.95469608653427,14.84812323973625 99.95473053817949,15.134275507739732 99.99996554835478,15.134275507739732 99.99996554835478,15.134275507739732" fill="black" stroke="black" stroke-width="0.1" />
<polygon points="3.445164522109171e-05,16.660420937091637 3.445164522109171e-05,16.660420937091637 1.2519727873344728,16.660420937091637 1.252007238979694,15.515811865077708 1.2792584903495774,15.515811865077708 1.2792929419947985,16.660420937091637 1.436151282686429,16.660420937091637 1.4361857343316502,15.515811865077708 1.4634369857015337,15.515811865077708 1.4634714373467548,16.660420937091637 1.8763055020310968,16.660420937091637 1.876339953676318,15.515811865077708 2.108268429304707,15.515811865077708 2.1083028809499282,16.660420937091637 3.1462964998162004,16.660420937091637 3.1463309514614215,15.515811865077708 3.184055502978517,15.515811865077708 3.184089954623738,16.660420937091637 5.316474535583209,16.660420937091637 5.31650898722843,15.515811865077708 5.338971459912583,15.515811865077708 5.339005911557804,16.660420937091637 15.381660493506038,16.660420937091637 15.381694945151258,15.515811865077708 15.391617018974932,15.515811865077708 15.391651470620154,16.660420937091637 17.713037777262535,16.660420937091637 17.713072228907755,15.515811865077708 17.892048525831328,15.515811865077708 17.892082977476548,16.660420937091637 17.892909816961854,16.660420937091637 17.892944268607074,15.515811865077708 17.950133999674087,15.515811865077708 17.950168451319307,16.660420937091637 19.469486005569454,16.660420937091637 19.469520457214674,15.515811865077708 19.526710188281687,15.515811865077708 19.526744639926907,16.660420937091637 19.526779091572127,16.660420937091637 19.526779091572127,15.515811865077708 19.53559871274873,15.515811865077708 19.53563316439395,16.660420937091637 21.441601532960405,16.660420937091637 21.441635984605625,15.515811865077708 21.797211414932516,15.515811865077708 21.797245866577736,16.660420937091637 25.249679685828557,16.660420937091637 25.249714137473777,15.515811865077708 25.328229436932645,15.515811865077708 25.32826388857787,16.660420937091637 25.556471586522377,16.660420937091637 25.5565060381676,15.515811865077708 25.623996811155717,15.515811865077708 25.62403126280094,16.660420937091637 26.129023478451703,16.660420937091637 26.129057930096923,15.515811865077708 26.19210444085152,15.515811865077708 26.192138892496743,16.660420937091637 26.308654356634474,16.660420937091637 26.308688808279694,15.515811865077708 26.35209788125827,15.515811865077708 26.35213233290349,16.660420937091637 33.53237197165732,16.660420937091637 33.53240642330254,15.515811865077708 33.599724938064554,15.515811865077708 33.599759389709774,16.660420937091637 34.38480902936279,16.660420937091637 34.38484348100801,15.515811865077708 34.422499129234666,15.515811865077708 34.422533580879886,16.660420937091637 34.59589425963242,16.660420937091637 34.595928711277644,15.515811865077708 34.719713472557025,15.515811865077708 34.719747924202245,16.660420937091637 40.73624543903282,16.660420937091637 40.73627989067804,15.515811865077708 40.803667308730496,15.515811865077708 40.803701760375716,16.660420937091637 41.881349222891465,16.660420937091637 41.881383674536686,15.515811865077708 41.9189704194729,15.515811865077708 41.91900487111812,16.660420937091637 47.108800707223374,16.660420937091637 47.108835158868594,15.515811865077708 47.14652525874047,15.515811865077708 47.14655971038569,16.660420937091637 48.51628822108585,16.660420937091637 48.51632267273107,15.515811865077708 48.573512403798084,15.515811865077708 48.57354685544331,16.660420937091637 49.31408496947068,16.660420937091637 49.3141194211159,15.515811865077708 49.38154129081357,15.515811865077708 49.38157574245879,16.660420937091637 51.44808877775554,16.660420937091637 51.44812322940076,15.515811865077708 51.48536545788476,15.515811865077708 51.48539990952998,16.660420937091637 52.02794441847173,16.660420937091637 52.027978870116954,15.515811865077708 52.05526457313206,15.515811865077708 52.05529902477728,16.660420937091637 61.84363156170341,16.660420937091637 61.84366601334863,15.515811865077708 62.075594488977025,15.515811865077708 62.075628940622245,16.660420937091637 73.03555857658205,16.660420937091637 73.03559302822727,15.515811865077708 73.10332496273193,15.515811865077708 73.10335941437715,16.660420937091637 76.25923347156481,16.660420937091637 76.25926792321003,15.515811865077708 76.26801864109619,15.515811865077708 76.26805309274141,16.660420937091637 76.26808754438665,16.660420937091637 76.26812199603187,15.515811865077708 76.44520345246828,15.515811865077708 76.4452379041135,16.660420937091637 79.00682108123732,16.660420937091637 79.00685553288254,15.515811865077708 79.02928355392147,15.515811865077708 79.0293180055667,16.660420937091637 79.36797767809003,16.660420937091637 79.36801212973525,15.515811865077708 79.43557180601381,15.515811865077708 79.43560625765903,16.660420937091637 80.11151308525163,16.660420937091637 80.11154753689685,15.515811865077708 80.17893495494931,15.515811865077708 80.17896940659453,16.660420937091637 80.34754130666133,16.660420937091637 80.34757575830655,15.515811865077708 80.5271721848441,15.515811865077708 80.52720663648932,16.660420937091637 82.40206516942114,16.660420937091637 82.40209962106636,15.515811865077708 82.45925490048815,15.515811865077708 82.45928935213337,16.660420937091637 86.45313077603365,16.660420937091637 86.45316522767887,15.515811865077708 86.46312175314776,15.515811865077708 86.46315620479298,16.660420937091637 87.63475330382664,16.660420937091637 87.63478775547186,15.515811865077708 87.7023129801052,15.515811865077708 87.70234743175043,16.660420937091637 96.38660809427624,16.660420937091637 96.38664254592146,15.515811865077708 96.42457380730988,15.515811865077708 96.4246082589551,16.660420937091637 99.11927814156802,16.660420937091637 99.11931259321324,15.515811865077708 99.17739806705599,15.515811865077708 99.17743251870121,16.660420937091637 99.99996554835478,16.660420937091637 99.99996554835478,16.660420937091637" fill="blue" stroke="blue" stroke-width="0.1" />
<polygon points="3.445164522109171e-05,18.186566366443543 3.445164522109171e-05,17.90041409844006 1.8763055020310968,17.90041409844006 1.876339953676318,17.61426183043658 2.108268429304707,17.61426183043658 2.1083028809499282,17.90041409844006 17.712142034486785,17.90041409844006 17.712176486132005,17.61426183043658 17.713037777262535,17.61426183043658 17.713072228907755,17.041957294429615 17.892048525831328,17.041957294429615 17.892082977476548,17.61426183043658 17.892117429121768,17.61426183043658 17.892117429121768,17.90041409844006 19.288442609932616,17.90041409844006 19.288477061577836,17.3281095624331 19.288511513223057,17.3281095624331 19.28854596486828,17.041957294429615 19.468624714438924,17.041957294429615 19.468659166084148,17.61426183043658 19.468693617729368,17.61426183043658 19.468693617729368,17.90041409844006 47.85812399078212,17.90041409844006 47.85815844242734,17.61426183043658 48.171427252422724,17.61426183043658 48.171461704067944,17.90041409844006 61.54751967102813,17.90041409844006 61.547554122673354,17.61426183043658 61.84363156170341,17.61426183043658 61.84366601334863,17.3281095624331 62.075594488977025,17.3281095624331 62.075628940622245,17.61426183043658 62.23669038203085,17.61426183043658 62.23672483367607,17.90041409844006 70.15112903209136,17.90041409844006 70.15116348373658,17.3281095624331 70.33175900798555,17.3281095624331 70.33179345963077,17.61426183043658 70.33268920240651,17.61426183043658 70.33272365405173,17.90041409844006 76.26805309274141,17.90041409844006 76.26808754438665,17.3281095624331 76.4451000975326,17.3281095624331 76.44513454917782,17.61426183043658 76.44516900082304,17.61426183043658 76.44516900082304,17.90041409844006 80.34754130666133,17.90041409844006 80.34757575830655,17.3281095624331 80.52706882990844,17.3281095624331 80.52710328155366,17.61426183043658 80.52713773319888,17.61426183043658 80.52713773319888,17.90041409844006 99.99996554835478,17.90041409844006 99.99996554835478,18.186566366443543" fill="black" stroke="black" stroke-width="0.1" />
<!-- assembly contigs before -->
<polygon points="0,0 105.9827349025139,0 105.9827349025139,1.2717878577932549 0,1.2717878577932549" fill="grey" stroke="grey" stroke-width="0" />
<!-- assembly contigs after -->
<polygon points="0,30.522908587038117 100.31299319683362,30.522908587038117 100.31299319683362,31.79469644483137 0,31.79469644483137" fill="grey" stroke="grey" stroke-width="0" />
<!-- hits before vs ref -->
<polygon points="22.678622306268924,1.526145429351906 23.28848532997269,1.526145429351906 0.5893642947972159,13.73530886416715 0.0,13.73530886416715" fill="lightblue" fill-opacity="0.5" stroke="blue" stroke-width="0.1" />
<polygon points="23.39897175619673,1.526145429351906 26.406290319191047,1.526145429351906 3.5478304248680246,13.73530886416715 0.6763546989804725,13.73530886416715" fill="lightblue" fill-opacity="0.5" stroke="blue" stroke-width="0.1" />
<polygon points="88.4517051669544,1.526145429351906 88.69393468450389,1.526145429351906 2.1083373325951493,13.73530886416715 1.876339953676318,13.73530886416715" fill="lightblue" fill-opacity="0.5" stroke="blue" stroke-width="0.1" />
<polygon points="26.719662484122097,1.526145429351906 27.949792928386398,1.526145429351906 4.99838249525687,13.73530886416715 3.8191371309841218,13.73530886416715" fill="lightblue" fill-opacity="0.5" stroke="blue" stroke-width="0.1" />
<polygon points="27.970153850712062,1.526145429351906 28.162118417883985,1.526145429351906 5.20164720206131,13.73530886416715 5.018019933032892,13.73530886416715" fill="lightblue" fill-opacity="0.5" stroke="blue" stroke-width="0.1" />
<polygon points="28.224648153960267,1.526145429351906 28.89531833147926,1.526145429351906 5.885546811345202,13.73530886416715 5.235650975894528,13.73530886416715" fill="lightblue" fill-opacity="0.5" stroke="blue" stroke-width="0.1" />
<polygon points="29.207863656925003,1.526145429351906 29.72153768717148,1.526145429351906 6.639417712073132,13.73530886416715 6.149032993996112,13.73530886416715" fill="lightblue" fill-opacity="0.5" stroke="blue" stroke-width="0.1" />
<polygon points="29.802223440279278,1.526145429351906 30.02846739444619,1.526145429351906 6.909897578703922,13.73530886416715 6.697709895787218,13.73530886416715" fill="lightblue" fill-opacity="0.5" stroke="blue" stroke-width="0.1" />
<polygon points="30.045176442378416,1.526145429351906 30.9080868002311,1.526145429351906 7.72777963625264,13.73530886416715 6.921783396305199,13.73530886416715" fill="lightblue" fill-opacity="0.5" stroke="blue" stroke-width="0.1" />
<polygon points="30.975405314993115,1.526145429351906 31.386585700706846,1.526145429351906 8.161973720974059,13.73530886416715 7.774564970462882,13.73530886416715" fill="lightblue" fill-opacity="0.5" stroke="blue" stroke-width="0.1" />
<polygon points="31.41421592017416,1.526145429351906 32.53375658327876,1.526145429351906 9.266252305245711,13.73530886416715 8.190292973345796,13.73530886416715" fill="lightblue" fill-opacity="0.5" stroke="blue" stroke-width="0.1" />
<polygon points="32.55525440989672,1.526145429351906 33.05611242812095,1.526145429351906 9.763217287559959,13.73530886416715 9.280032963334147,13.73530886416715" fill="lightblue" fill-opacity="0.5" stroke="blue" stroke-width="0.1" />
<polygon points="33.26041068428202,1.526145429351906 34.88732072655763,1.526145429351906 11.505058018293134,13.73530886416715 9.943675005228037,13.73530886416715" fill="lightblue" fill-opacity="0.5" stroke="blue" stroke-width="0.1" />
<polygon points="34.901859320840934,1.526145429351906 35.26008752784985,1.526145429351906 11.860977965072232,13.73530886416715 11.519699967512098,13.73530886416715" fill="lightblue" fill-opacity="0.5" stroke="blue" stroke-width="0.1" />
<polygon points="35.47696063451662,1.526145429351906 36.17884400260592,1.526145429351906 12.695017844229643,13.73530886416715 12.045604331812063,13.73530886416715" fill="lightblue" fill-opacity="0.5" stroke="blue" stroke-width="0.1" />
<polygon points="36.24326857916937,1.526145429351906 39.499603633821735,1.526145429351906 15.822538197400348,13.73530886416715 12.73091645855002,13.73530886416715" fill="lightblue" fill-opacity="0.5" stroke="blue" stroke-width="0.1" />
<polygon points="39.69329078325471,1.526145429351906 40.215646628096906,1.526145429351906 16.483630817547876,13.73530886416715 16.00182455913091,13.73530886416715" fill="lightblue" fill-opacity="0.5" stroke="blue" stroke-width="0.1" />
<polygon points="40.241588716948385,1.526145429351906 40.62369191409552,1.526145429351906 16.879996995816537,13.73530886416715 16.514189426858984,13.73530886416715" fill="lightblue" fill-opacity="0.5" stroke="blue" stroke-width="0.1" />
<polygon points="40.673336734859106,1.526145429351906 41.0271206796345,1.526145429351906 17.245494499967098,13.73530886416715 16.921717938179277,13.73530886416715" fill="lightblue" fill-opacity="0.5" stroke="blue" stroke-width="0.1" />
<polygon points="41.02987681125218,1.526145429351906 41.20437439429701,1.526145429351906 17.411138010190108,13.73530886416715 17.240877979507474,13.73530886416715" fill="lightblue" fill-opacity="0.5" stroke="blue" stroke-width="0.1" />
<polygon points="41.220911184003135,1.526145429351906 42.06690578405227,1.526145429351906 18.236358268170918,13.73530886416715 17.420577760980688,13.73530886416715" fill="lightblue" fill-opacity="0.5" stroke="blue" stroke-width="0.1" />
<polygon points="2.146199690693129,1.526145429351906 1.9460356319585863,1.526145429351906 17.892082977476548,13.73530886416715 17.713072228907755,13.73530886416715" fill="pink" fill-opacity="0.5" stroke="orchid" stroke-width="0.1" />
<polygon points="103.83519159765714,1.526145429351906 103.6513576187574,1.526145429351906 17.892048525831328,13.73530886416715 17.71317558384342,13.73530886416715" fill="pink" fill-opacity="0.5" stroke="orchid" stroke-width="0.1" />
<polygon points="42.080514183914595,1.526145429351906 42.64304064708458,1.526145429351906 18.777076839915953,13.73530886416715 18.236323816525697,13.73530886416715" fill="lightblue" fill-opacity="0.5" stroke="blue" stroke-width="0.1" />
<polygon points="42.700299281442035,1.526145429351906 42.97880638140934,1.526145429351906 19.084523321868975,13.73530886416715 18.827410693583968,13.73530886416715" fill="lightblue" fill-opacity="0.5" stroke="blue" stroke-width="0.1" />
<polygon points="43.01101866969106,1.526145429351906 43.36762764937458,1.526145429351906 19.436756942609417,13.73530886416715 19.10240372573872,13.73530886416715" fill="lightblue" fill-opacity="0.5" stroke="blue" stroke-width="0.1" />
<polygon points="103.83519159765714,1.526145429351906 103.6513576187574,1.526145429351906 19.468624714438928,13.73530886416715 19.28854596486828,13.73530886416715" fill="pink" fill-opacity="0.5" stroke="orchid" stroke-width="0.1" />
<polygon points="41.59908689359506,1.526145429351906 41.77372228322077,1.526145429351906 19.529569674835034,13.73530886416715 19.36123893628478,13.73530886416715" fill="lightblue" fill-opacity="0.5" stroke="blue" stroke-width="0.1" />
<polygon points="43.487381568163094,1.526145429351906 43.988032876516,1.526145429351906 20.028153884474676,13.73530886416715 19.545693044798508,13.73530886416715" fill="lightblue" fill-opacity="0.5" stroke="blue" stroke-width="0.1" />
<polygon points="44.128147717630185,1.526145429351906 44.76192018311739,1.526145429351906 20.768347482049833,13.73530886416715 20.169061113428942,13.73530886416715" fill="lightblue" fill-opacity="0.5" stroke="blue" stroke-width="0.1" />
<polygon points="44.819006559248734,1.526145429351906 45.287376676029474,1.526145429351906 21.271065889116002,13.73530886416715 20.811412038576197,13.73530886416715" fill="lightblue" fill-opacity="0.5" stroke="blue" stroke-width="0.1" />
<polygon points="45.36547855574569,1.526145429351906 45.76005324846285,1.526145429351906 21.708532880133426,13.73530886416715 21.32522387540356,13.73530886416715" fill="lightblue" fill-opacity="0.5" stroke="blue" stroke-width="0.1" />
<polygon points="45.81641614004456,1.526145429351906 46.80383474372627,1.526145429351906 22.681481792822275,13.73530886416715 21.749840402753513,13.73530886416715" fill="lightblue" fill-opacity="0.5" stroke="blue" stroke-width="0.1" />
<polygon points="46.815444948165776,1.526145429351906 47.053368010062634,1.526145429351906 22.912170009222706,13.73530886416715 22.687476379090747,13.73530886416715" fill="lightblue" fill-opacity="0.5" stroke="blue" stroke-width="0.1" />
<polygon points="47.64073410943703,1.526145429351906 52.04820198586173,1.526145429351906 27.609824093344663,13.73530886416715 23.41254570441384,13.73530886416715" fill="lightblue" fill-opacity="0.5" stroke="blue" stroke-width="0.1" />
<polygon points="52.17443281395181,1.526145429351906 55.20790017566893,1.526145429351906 30.60697942099876,13.73530886416715 27.719345873502515,13.73530886416715" fill="lightblue" fill-opacity="0.5" stroke="blue" stroke-width="0.1" />
<polygon points="55.25554680100971,1.526145429351906 56.56026505717767,1.526145429351906 31.8731118345191,13.73530886416715 30.629166280521144,13.73530886416715" fill="lightblue" fill-opacity="0.5" stroke="blue" stroke-width="0.1" />
<polygon points="56.58162507721475,1.526145429351906 56.96214349868171,1.526145429351906 32.248290250976794,13.73530886416715 31.884170812635073,13.73530886416715" fill="lightblue" fill-opacity="0.5" stroke="blue" stroke-width="0.1" />
<polygon points="57.011271544766984,1.526145429351906 57.20058333525688,1.526145429351906 32.45865199669677,13.73530886416715 32.29056241966307,13.73530886416715" fill="lightblue" fill-opacity="0.5" stroke="blue" stroke-width="0.1" />
<polygon points="57.349311087676334,1.526145429351906 59.10693067192077,1.526145429351906 34.27163537481151,13.73530886416715 32.59315121963992,13.73530886416715" fill="lightblue" fill-opacity="0.5" stroke="blue" stroke-width="0.1" />
<polygon points="59.208528573677775,1.526145429351906 59.52114280241396,1.526145429351906 34.66662348727132,13.73530886416715 34.36761765839747,13.73530886416715" fill="lightblue" fill-opacity="0.5" stroke="blue" stroke-width="0.1" />
<polygon points="59.531409392689845,1.526145429351906 59.977971618045636,1.526145429351906 35.10302247728689,13.73530886416715 34.66717471359486,13.73530886416715" fill="lightblue" fill-opacity="0.5" stroke="blue" stroke-width="0.1" />
<polygon points="60.07950061651219,1.526145429351906 62.77982056894136,1.526145429351906 37.73753978734377,13.73530886416715 35.187773524530776,13.73530886416715" fill="lightblue" fill-opacity="0.5" stroke="blue" stroke-width="0.1" />
<polygon points="62.86336580860251,1.526145429351906 63.08595788837598,1.526145429351906 38.01683927515117,13.73530886416715 37.80496165704145,13.73530886416715" fill="lightblue" fill-opacity="0.5" stroke="blue" stroke-width="0.1" />
<polygon points="63.09426073487426,1.526145429351906 63.36987389664299,1.526145429351906 38.29989399228766,13.73530886416715 38.026623542393956,13.73530886416715" fill="lightblue" fill-opacity="0.5" stroke="blue" stroke-width="0.1" />
<polygon points="63.47333218724194,1.526145429351906 63.75053012469084,1.526145429351906 38.67121382448058,13.73530886416715 38.39956260191227,13.73530886416715" fill="lightblue" fill-opacity="0.5" stroke="blue" stroke-width="0.1" />
<polygon points="63.81409341012375,1.526145429351906 64.0208032814503,1.526145429351906 38.906242948178864,13.73530886416715 38.7166555445272,13.73530886416715" fill="lightblue" fill-opacity="0.5" stroke="blue" stroke-width="0.1" />
<polygon points="64.02996741907911,1.526145429351906 64.53182453501476,1.526145429351906 39.39638650473934,13.73530886416715 38.9172330230044,13.73530886416715" fill="lightblue" fill-opacity="0.5" stroke="blue" stroke-width="0.1" />
<polygon points="64.97315011029694,1.526145429351906 65.17593249406829,1.526145429351906 39.95619128793686,13.73530886416715 39.76450233392671,13.73530886416715" fill="lightblue" fill-opacity="0.5" stroke="blue" stroke-width="0.1" />
<polygon points="65.45278591506498,1.526145429351906 66.78368742160097,1.526145429351906 41.46400199268316,13.73530886416715 40.19573357715911,13.73530886416715" fill="lightblue" fill-opacity="0.5" stroke="blue" stroke-width="0.1" />
<polygon points="66.96566101165878,1.526145429351906 67.8511716487765,1.526145429351906 42.47119584072178,13.73530886416715 41.62540795054397,13.73530886416715" fill="lightblue" fill-opacity="0.5" stroke="blue" stroke-width="0.1" />
<polygon points="67.93840321447631,1.526145429351906 68.67184428958814,1.526145429351906 43.24639230984156,13.73530886416715 42.544474490107035,13.73530886416715" fill="lightblue" fill-opacity="0.5" stroke="blue" stroke-width="0.1" />
<polygon points="68.91131767551994,1.526145429351906 69.22985758723415,1.526145429351906 43.76788686355323,13.73530886416715 43.46443677244585,13.73530886416715" fill="lightblue" fill-opacity="0.5" stroke="blue" stroke-width="0.1" />
<polygon points="69.2456019891002,1.526145429351906 69.8053723206525,1.526145429351906 44.307468531005966,13.73530886416715 43.78070287557547,13.73530886416715" fill="lightblue" fill-opacity="0.5" stroke="blue" stroke-width="0.1" />
<polygon points="69.84981494298769,1.526145429351906 73.05316336729003,1.526145429351906 47.435815723661975,13.73530886416715 44.34491746936129,13.73530886416715" fill="lightblue" fill-opacity="0.5" stroke="blue" stroke-width="0.1" />
<polygon points="73.06866660763951,1.526145429351906 73.39423465497883,1.526145429351906 47.754114473859644,13.73530886416715 47.444015215224596,13.73530886416715" fill="lightblue" fill-opacity="0.5" stroke="blue" stroke-width="0.1" />
<polygon points="73.44735909190976,1.526145429351906 74.22334794886963,1.526145429351906 48.51921661092965,13.73530886416715 47.786395665431805,13.73530886416715" fill="lightblue" fill-opacity="0.5" stroke="blue" stroke-width="0.1" />
<polygon points="74.4665076608401,1.526145429351906 74.83782749303302,1.526145429351906 49.08191533232574,13.73530886416715 48.73660649227474,13.73530886416715" fill="lightblue" fill-opacity="0.5" stroke="blue" stroke-width="0.1" />
<polygon points="74.9606476082462,1.526145429351906 75.39077639883153,1.526145429351906 49.581705349548116,13.73530886416715 49.17286767570942,13.73530886416715" fill="lightblue" fill-opacity="0.5" stroke="blue" stroke-width="0.1" />
<polygon points="75.40124969897875,1.526145429351906 75.95447421793904,1.526145429351906 50.119219918287584,13.73530886416715 49.59259206943798,13.73530886416715" fill="lightblue" fill-opacity="0.5" stroke="blue" stroke-width="0.1" />
<polygon points="76.01917440766425,1.526145429351906 77.72790710733996,1.526145429351906 51.831432234130624,13.73530886416715 50.17289558154205,13.73530886416715" fill="lightblue" fill-opacity="0.5" stroke="blue" stroke-width="0.1" />
<polygon points="77.76949024312181,1.526145429351906 78.72180262032323,1.526145429351906 52.72789849442865,13.73530886416715 51.83808140165829,13.73530886416715" fill="lightblue" fill-opacity="0.5" stroke="blue" stroke-width="0.1" />
<polygon points="78.75373929544318,1.526145429351906 79.73605905563217,1.526145429351906 53.69654095146487,13.73530886416715 52.75504639086287,13.73530886416715" fill="lightblue" fill-opacity="0.5" stroke="blue" stroke-width="0.1" />
<polygon points="79.74632564590806,1.526145429351906 80.93311592048423,1.526145429351906 54.82672717294278,13.73530886416715 53.70646302528854,13.73530886416715" fill="lightblue" fill-opacity="0.5" stroke="blue" stroke-width="0.1" />
<polygon points="80.96253762550303,1.526145429351906 81.68719353108348,1.526145429351906 55.54986720613349,13.73530886416715 54.84860396765817,13.73530886416715" fill="lightblue" fill-opacity="0.5" stroke="blue" stroke-width="0.1" />
<polygon points="81.78527736502792,1.526145429351906 82.23649056248856,1.526145429351906 56.05706432707841,13.73530886416715 55.62765902104272,13.73530886416715" fill="lightblue" fill-opacity="0.5" stroke="blue" stroke-width="0.1" />
<polygon points="82.24999560741523,1.526145429351906 82.52784812612333,1.526145429351906 56.33529581388394,13.73530886416715 56.07149956642604,13.73530886416715" fill="lightblue" fill-opacity="0.5" stroke="blue" stroke-width="0.1" />
<polygon points="82.54169768750222,1.526145429351906 83.26170262097781,1.526145429351906 57.02715375321391,13.73530886416715 56.346251437064254,13.73530886416715" fill="lightblue" fill-opacity="0.5" stroke="blue" stroke-width="0.1" />
<polygon points="83.3457990869625,1.526145429351906 83.67047139152606,1.526145429351906 57.41425243891809,13.73530886416715 57.10019124108262,13.73530886416715" fill="lightblue" fill-opacity="0.5" stroke="blue" stroke-width="0.1" />
<polygon points="83.6850444374546,1.526145429351906 84.73340800153241,1.526145429351906 58.451970444622596,13.73530886416715 57.42923890458927,13.73530886416715" fill="lightblue" fill-opacity="0.5" stroke="blue" stroke-width="0.1" />
<polygon points="84.74653407836165,1.526145429351906 84.93477786784969,1.526145429351906 58.63256596887156,13.73530886416715 58.45992877466867,13.73530886416715" fill="lightblue" fill-opacity="0.5" stroke="blue" stroke-width="0.1" />
<polygon points="85.05963063013093,1.526145429351906 86.09786541051375,1.526145429351906 59.70745729976962,13.73530886416715 58.72186463328463,13.73530886416715" fill="lightblue" fill-opacity="0.5" stroke="blue" stroke-width="0.1" />
<polygon points="86.11081922911687,1.526145429351906 86.30874393091204,1.526145429351906 59.90186793375224,13.73530886416715 59.717276018657635,13.73530886416715" fill="lightblue" fill-opacity="0.5" stroke="blue" stroke-width="0.1" />
<polygon points="86.48644551696243,1.526145429351906 86.7745301743012,1.526145429351906 60.31725142018295,13.73530886416715 60.0373662544068,13.73530886416715" fill="lightblue" fill-opacity="0.5" stroke="blue" stroke-width="0.1" />
<polygon points="86.90865042914692,1.526145429351906 87.25471720539278,1.526145429351906 60.74083439817627,13.73530886416715 60.404035114494874,13.73530886416715" fill="lightblue" fill-opacity="0.5" stroke="blue" stroke-width="0.1" />
<polygon points="87.62548581126218,1.526145429351906 88.78268212259343,1.526145429351906 62.158967470412065,13.73530886416715 61.04249300373215,13.73530886416715" fill="lightblue" fill-opacity="0.5" stroke="blue" stroke-width="0.1" />
<polygon points="24.66882494740095,1.526145429351906 24.912914853792383,1.526145429351906 62.07559448897702,13.73530886416715 61.84366601334863,13.73530886416715" fill="lightblue" fill-opacity="0.5" stroke="blue" stroke-width="0.1" />
<polygon points="88.80858975979969,1.526145429351906 90.26148454206357,1.526145429351906 63.567970856664274,13.73530886416715 62.18208452435542,13.73530886416715" fill="lightblue" fill-opacity="0.5" stroke="blue" stroke-width="0.1" />
<polygon points="90.31791633693571,1.526145429351906 91.28583530942228,1.526145429351906 64.55008390698194,13.73530886416715 63.63814885797964,13.73530886416715" fill="lightblue" fill-opacity="0.5" stroke="blue" stroke-width="0.1" />
<polygon points="91.47559497130005,1.526145429351906 93.14088414635197,1.526145429351906 66.3195204055372,13.73530886416715 64.70997399245302,13.73530886416715" fill="lightblue" fill-opacity="0.5" stroke="blue" stroke-width="0.1" />
<polygon points="93.16985797998291,1.526145429351906 93.48553840514377,1.526145429351906 66.64884368220562,13.73530886416715 66.33874442357057,13.73530886416715" fill="lightblue" fill-opacity="0.5" stroke="blue" stroke-width="0.1" />
<polygon points="93.7395848370041,1.526145429351906 93.9912885569894,1.526145429351906 67.10257184976739,13.73530886416715 66.86582014380805,13.73530886416715" fill="lightblue" fill-opacity="0.5" stroke="blue" stroke-width="0.1" />
<polygon points="94.17839544218515,1.526145429351906 97.62979571207934,1.526145429351906 70.58580543984587,13.73530886416715 67.26287535498113,13.73530886416715" fill="lightblue" fill-opacity="0.5" stroke="blue" stroke-width="0.1" />
<polygon points="103.6513576187574,1.526145429351906 103.83519159765714,1.526145429351906 70.33179345963076,13.73530886416715 70.1511979353818,13.73530886416715" fill="lightblue" fill-opacity="0.5" stroke="blue" stroke-width="0.1" />
<polygon points="97.64199159448759,1.526145429351906 98.56753504335222,1.526145429351906 71.45119631615448,13.73530886416715 70.59807022554459,13.73530886416715" fill="lightblue" fill-opacity="0.5" stroke="blue" stroke-width="0.1" />
<polygon points="98.60122875237846,1.526145429351906 100.40838980245083,1.526145429351906 73.1740197387256,13.73530886416715 71.47934331030011,13.73530886416715" fill="lightblue" fill-opacity="0.5" stroke="blue" stroke-width="0.1" />
<polygon points="100.42203265395837,1.526145429351906 101.15096056354622,1.526145429351906 73.87890039994916,13.73530886416715 73.18562994316513,13.73530886416715" fill="lightblue" fill-opacity="0.5" stroke="blue" stroke-width="0.1" />
<polygon points="101.16477567327989,1.526145429351906 103.07387914156146,1.526145429351906 75.72947052300009,13.73530886416715 73.89068286261477,13.73530886416715" fill="lightblue" fill-opacity="0.5" stroke="blue" stroke-width="0.1" />
<polygon points="103.08362895715904,1.526145429351906 104.56415395889023,1.526145429351906 77.14236694516228,13.73530886416715 75.73708433659395,13.73530886416715" fill="lightblue" fill-opacity="0.5" stroke="blue" stroke-width="0.1" />
<polygon points="97.19205310790014,1.526145429351906 97.36978914559575,1.526145429351906 76.4450656458874,13.73530886416715 76.26812199603187,13.73530886416715" fill="lightblue" fill-opacity="0.5" stroke="blue" stroke-width="0.1" />
<polygon points="104.58454933286112,1.526145429351906 105.57651555371201,1.526145429351906 78.11035482093929,13.73530886416715 77.16503612771776,13.73530886416715" fill="lightblue" fill-opacity="0.5" stroke="blue" stroke-width="0.1" />
<polygon points="105.60762538934665,1.526145429351906 105.98232148277124,1.526145429351906 78.4945251167997,13.73530886416715 78.13660697459777,13.73530886416715" fill="lightblue" fill-opacity="0.5" stroke="blue" stroke-width="0.1" />
<polygon points="0.0,1.526145429351906 0.5928783626097672,1.526145429351906 79.05746499971232,13.73530886416715 78.49431840692836,13.73530886416715" fill="lightblue" fill-opacity="0.5" stroke="blue" stroke-width="0.1" />
<polygon points="0.7453613443583191,1.526145429351906 2.2825937541234316,1.526145429351906 80.64795965298926,13.73530886416715 79.17870033924535,13.73530886416715" fill="lightblue" fill-opacity="0.5" stroke="blue" stroke-width="0.1" />
<polygon points="41.710503514240074,1.526145429351906 41.52391340372264,1.526145429351906 80.52713773319887,13.73530886416715 80.34767911324221,13.73530886416715" fill="pink" fill-opacity="0.5" stroke="orchid" stroke-width="0.1" />
<polygon points="2.365208799363609,1.526145429351906 3.920149354772362,1.526145429351906 82.17706147448219,13.73530886416715 80.70322009192388,13.73530886416715" fill="lightblue" fill-opacity="0.5" stroke="blue" stroke-width="0.1" />
<polygon points="3.9671758504991526,1.526145429351906 6.212699634364689,1.526145429351906 84.3606412002402,13.73530886416715 82.21213324931725,13.73530886416715" fill="lightblue" fill-opacity="0.5" stroke="blue" stroke-width="0.1" />
<polygon points="6.24553205226039,1.526145429351906 7.279770441797563,1.526145429351906 85.37341621480464,13.73530886416715 84.39188884245573,13.73530886416715" fill="lightblue" fill-opacity="0.5" stroke="blue" stroke-width="0.1" />
<polygon points="7.374236852993796,1.526145429351906 7.644131041655829,1.526145429351906 85.70487549347676,13.73530886416715 85.44383537763655,13.73530886416715" fill="lightblue" fill-opacity="0.5" stroke="blue" stroke-width="0.1" />
<polygon points="7.664595318917157,1.526145429351906 8.161939269328837,1.526145429351906 86.1974306652027,13.73530886416715 85.72926725829329,13.73530886416715" fill="lightblue" fill-opacity="0.5" stroke="blue" stroke-width="0.1" />
<polygon points="8.3696482383668,1.526145429351906 11.40642295802515,1.526145429351906 89.28398801220553,13.73530886416715 86.37409870189646,13.73530886416715" fill="lightblue" fill-opacity="0.5" stroke="blue" stroke-width="0.1" />
<polygon points="11.424510071766223,1.526145429351906 11.994409187013522,1.526145429351906 89.83445639954813,13.73530886416715 89.30045589862121,13.73530886416715" fill="lightblue" fill-opacity="0.5" stroke="blue" stroke-width="0.1" />
<polygon points="12.04994523910992,1.526145429351906 12.37399741405951,1.526145429351906 90.18713789167646,13.73530886416715 89.87318004877665,13.73530886416715" fill="lightblue" fill-opacity="0.5" stroke="blue" stroke-width="0.1" />
<polygon points="12.412273191900143,1.526145429351906 13.848286668005688,1.526145429351906 91.60282489710154,13.73530886416715 90.21022049397457,13.73530886416715" fill="lightblue" fill-opacity="0.5" stroke="blue" stroke-width="0.1" />
<polygon points="13.881050182610945,1.526145429351906 14.235454257000315,1.526145429351906 91.97173311412901,13.73530886416715 91.63421034589797,13.73530886416715" fill="lightblue" fill-opacity="0.5" stroke="blue" stroke-width="0.1" />
<polygon points="14.249028205217426,1.526145429351906 15.659960883602016,1.526145429351906 93.32985142038966,13.73530886416715 91.98199970440488,13.73530886416715" fill="lightblue" fill-opacity="0.5" stroke="blue" stroke-width="0.1" />
<polygon points="15.718046357444777,1.526145429351906 16.034760331962275,1.526145429351906 93.66682296229716,13.73530886416715 93.36719700380932,13.73530886416715" fill="lightblue" fill-opacity="0.5" stroke="blue" stroke-width="0.1" />
<polygon points="16.052537380896357,1.526145429351906 16.82900856088932,1.526145429351906 94.42041824986332,13.73530886416715 93.68515123755478,13.73530886416715" fill="lightblue" fill-opacity="0.5" stroke="blue" stroke-width="0.1" />
<polygon points="16.83655347119274,1.526145429351906 19.492224091415373,1.526145429351906 96.95216630222568,13.73530886416715 94.42720522397187,13.73530886416715" fill="lightblue" fill-opacity="0.5" stroke="blue" stroke-width="0.1" />
<polygon points="19.522817152371704,1.526145429351906 21.25452909940988,1.526145429351906 98.6347846548238,13.73530886416715 96.9713214169686,13.73530886416715" fill="lightblue" fill-opacity="0.5" stroke="blue" stroke-width="0.1" />
<polygon points="21.280746801423128,1.526145429351906 21.68848202261475,1.526145429351906 99.06033137659472,13.73530886416715 98.65335409159796,13.73530886416715" fill="lightblue" fill-opacity="0.5" stroke="blue" stroke-width="0.1" />
<polygon points="21.704191972835567,1.526145429351906 22.632009230284787,1.526145429351906 99.95473053817948,13.73530886416715 99.06742841551026,13.73530886416715" fill="lightblue" fill-opacity="0.5" stroke="blue" stroke-width="0.1" />
<!-- hits after vs ref -->
<polygon points="0.0,18.82246029534017 48.171461704067944,18.82246029534017 100.31299319683362,30.268551015479467 52.14122142795868,30.268551015479467" fill="lightblue" fill-opacity="0.5" stroke="blue" stroke-width="0.1" />
<polygon points="1.876339953676318,18.82246029534017 2.1083028809499282,18.82246029534017 14.216815916935706,30.268551015479467 13.985714280792623,30.268551015479467" fill="lightblue" fill-opacity="0.5" stroke="blue" stroke-width="0.1" />
<polygon points="17.712176486132005,18.82246029534017 17.892082977476544,18.82246029534017 22.292350460050045,30.268551015479467 22.4739106303652,30.268551015479467" fill="pink" fill-opacity="0.5" stroke="orchid" stroke-width="0.1" />
<polygon points="17.713072228907755,18.82246029534017 17.892117429121768,18.82246029534017 28.409274520700098,30.268551015479467 28.58632152549129,30.268551015479467" fill="pink" fill-opacity="0.5" stroke="orchid" stroke-width="0.1" />
<polygon points="17.713072228907755,18.82246029534017 17.892082977476548,18.82246029534017 32.48872828297479,30.268551015479467 32.66832470951234,30.268551015479467" fill="pink" fill-opacity="0.5" stroke="orchid" stroke-width="0.1" />
<polygon points="19.288477061577836,18.82246029534017 19.468693617729368,18.82246029534017 28.409274520700098,30.268551015479467 28.586287073846066,30.268551015479467" fill="pink" fill-opacity="0.5" stroke="orchid" stroke-width="0.1" />
<polygon points="19.288477061577836,18.82246029534017 19.468659166084144,18.82246029534017 32.48872828297479,30.268551015479467 32.66829025786712,30.268551015479467" fill="pink" fill-opacity="0.5" stroke="orchid" stroke-width="0.1" />
<polygon points="19.28854596486828,18.82246029534017 19.468659166084148,18.82246029534017 22.292350460050045,30.268551015479467 22.47298043594423,30.268551015479467" fill="pink" fill-opacity="0.5" stroke="orchid" stroke-width="0.1" />
<polygon points="47.85815844242734,18.82246029534017 62.23672483367607,18.82246029534017 14.37791180998953,30.268551015479467 0.0,30.268551015479467" fill="lightblue" fill-opacity="0.5" stroke="blue" stroke-width="0.1" />
<polygon points="61.547554122673354,18.82246029534017 100.0,18.82246029534017 52.141221427958676,30.268551015479467 13.689602390117338,30.268551015479467" fill="lightblue" fill-opacity="0.5" stroke="blue" stroke-width="0.1" />
<polygon points="61.84366601334863,18.82246029534017 62.075628940622245,18.82246029534017 54.24952430890861,30.268551015479467 54.017561381635,30.268551015479467" fill="lightblue" fill-opacity="0.5" stroke="blue" stroke-width="0.1" />
<polygon points="70.15116348373658,18.82246029534017 70.33272365405173,18.82246029534017 69.85339791409069,30.268551015479467 70.03330440543523,30.268551015479467" fill="pink" fill-opacity="0.5" stroke="orchid" stroke-width="0.1" />
<polygon points="70.15116348373658,18.82246029534017 70.33179345963076,18.82246029534017 71.42976739282696,30.268551015479467 71.60988059404282,30.268551015479467" fill="pink" fill-opacity="0.5" stroke="orchid" stroke-width="0.1" />
<polygon points="76.26808754438665,18.82246029534017 76.44516900082306,18.82246029534017 69.85429365686643,30.268551015479467 70.03333885708045,30.268551015479467" fill="pink" fill-opacity="0.5" stroke="orchid" stroke-width="0.1" />
<polygon points="76.26808754438665,18.82246029534017 76.44513454917784,18.82246029534017 71.42969848953652,30.268551015479467 71.60991504568806,30.268551015479467" fill="pink" fill-opacity="0.5" stroke="orchid" stroke-width="0.1" />
<polygon points="80.34757575830655,18.82246029534017 80.52713773319887,18.82246029534017 69.85429365686643,30.268551015479467 70.03330440543522,30.268551015479467" fill="pink" fill-opacity="0.5" stroke="orchid" stroke-width="0.1" />
<polygon points="80.34757575830655,18.82246029534017 80.52710328155365,18.82246029534017 71.42969848953652,30.268551015479467 71.60988059404283,30.268551015479467" fill="pink" fill-opacity="0.5" stroke="orchid" stroke-width="0.1" />
</svg>
