<?xml version="1.0" standalone="no"?>
<!DOCTYPE svg PUBLIC " -//W3C//DTD SVG 1.0//EN" "http://www.w3.org/TR/2001/REC-SVG-20010904/DTD/svg10.dtd">
<svg width="106.49570510401873" height="31.948711531205618">
<!-- reference contigs -->
<polygon points="2.943120661472255e-05,15.207586688853874 2.943120661472255e-05,15.207586688853874 0.0,15.207586688853874 2.943120661472255e-05,14.824202150479406 0.17823538725875976,14.824202150479406 0.17826481846537448,15.207586688853874 0.18565205132566984,15.207586688853874 0.18568148253228456,14.824202150479406 2.5801750214994965,14.824202150479406 2.580204452706111,15.207586688853874 2.6613168581362867,15.207586688853874 2.661346289342901,14.824202150479406 4.346253436829152,14.824202150479406 4.346282868035767,15.207586688853874 4.377185634981226,15.207586688853874 4.377215066187841,14.824202150479406 4.968752887937149,14.824202150479406 4.968782319143764,15.207586688853874 4.983233041591593,15.207586688853874 4.9832624727982076,14.824202150479406 9.038529569827597,14.824202150479406 9.038559001034212,15.207586688853874 9.053304035548189,15.207586688853874 9.053333466754804,14.824202150479406 10.586051844836325,14.824202150479406 10.58608127604294,14.44081761210494 10.586110707249553,14.44081761210494 10.586140138456168,14.057433073730472 10.737858008555063,14.057433073730472 10.737887439761678,14.44081761210494 10.738005164588136,14.44081761210494 10.738034595794751,14.824202150479406 12.050607548398148,14.824202150479406 12.050636979604763,15.207586688853874 12.067589354614842,15.207586688853874 12.067618785821457,14.824202150479406 17.895615750875432,14.824202150479406 17.895645182082045,14.44081761210494 17.895674613288662,14.44081761210494 17.895674613288662,14.057433073730472 18.047598501833857,14.057433073730472 18.047627933040474,14.44081761210494 18.04836371320584,14.44081761210494 18.048393144412454,14.824202150479406 20.150311058422712,14.824202150479406 20.150340489629325,15.207586688853874 20.17291422510282,15.207586688853874 20.17294365630943,14.824202150479406 23.059144364188814,14.824202150479406 23.059173795395427,15.207586688853874 23.06099853020554,15.207586688853874 23.061027961412158,14.824202150479406 24.50489352672383,14.824202150479406 24.504922957930443,15.207586688853874 24.574586623987493,15.207586688853874 24.574616055194106,14.824202150479406 24.82551709158462,14.824202150479406 24.82554652279123,15.207586688853874 24.860039896943686,15.207586688853874 24.860069328150303,14.824202150479406 25.124273269930665,14.824202150479406 25.12430270113728,15.207586688853874 25.166359895389718,15.207586688853874 25.166389326596335,14.824202150479406 26.06745514831268,14.824202150479406 26.067484579519295,15.207586688853874 26.07325309601578,15.207586688853874 26.073282527222396,14.824202150479406 26.778748549777294,14.824202150479406 26.778777980983907,14.44081761210494 26.783428111629036,14.44081761210494 26.78345754283565,14.824202150479406 28.020863193745043,14.824202150479406 28.02089262495166,15.207586688853874 28.04894056485549,15.207586688853874 28.048969996062105,14.824202150479406 28.787722713298255,14.824202150479406 28.78775214450487,15.207586688853874 28.799024296638308,15.207586688853874 28.799053727844925,14.824202150479406 30.191002644688226,14.824202150479406 30.191032075894842,15.207586688853874 30.197094904457472,15.207586688853874 30.19712433566409,14.824202150479406 30.713259406066477,14.824202150479406 30.713288837273094,15.207586688853874 30.720734932546616,15.207586688853874 30.720764363753233,14.824202150479406 30.983408451583017,14.824202150479406 30.98343788278963,15.207586688853874 31.002891910361964,15.207586688853874 31.002921341568577,14.824202150479406 33.00730423685764,14.824202150479406 33.007333668064256,14.44081761210494 33.04112069325796,14.44081761210494 33.04115012446457,14.824202150479406 34.547998471931756,14.824202150479406 34.54802790313837,15.207586688853874 34.606036811375986,15.207586688853874 34.6060662425826,14.824202150479406 38.16344561731073,14.824202150479406 38.16347504851734,15.207586688853874 38.26056859913931,15.207586688853874 38.26059803034593,14.824202150479406 39.70767159717861,14.824202150479406 39.70770102838522,15.207586688853874 39.720238722403096,15.207586688853874 39.72026815360971,14.824202150479406 40.13822071874538,14.824202150479406 40.138250149952,15.207586688853874 40.170389027575276,15.207586688853874 40.17041845878189,14.824202150479406 41.00882524161549,14.824202150479406 41.0088546728221,15.207586688853874 41.02751405781584,15.207586688853874 41.027543489022456,14.824202150479406 42.201171715197745,14.824202150479406 42.20120114640436,15.207586688853874 42.21161979354597,15.207586688853874 42.211649224752584,14.824202150479406 47.67725974275948,14.824202150479406 47.677289173966095,15.207586688853874 47.86803282403611,15.207586688853874 47.86806225524273,14.824202150479406 49.31130976521549,14.824202150479406 49.311339196422104,15.207586688853874 49.34333091801231,15.207586688853874 49.343360349218926,14.824202150479406 50.79393622963875,14.824202150479406 50.79396566084537,14.44081761210494 50.799498727688935,14.44081761210494 50.799528158895555,14.824202150479406 53.146343143146915,14.824202150479406 53.14637257435353,15.207586688853874 53.18065993005968,15.207586688853874 53.180689361266296,14.824202150479406 56.17967045289329,14.824202150479406 56.17969988409991,15.207586688853874 56.18493863887733,15.207586688853874 56.18496807008395,14.824202150479406 57.900483672449504,14.824202150479406 57.900513103656124,15.207586688853874 57.91134378769034,15.207586688853874 57.911373218896955,14.824202150479406 58.7554602246072,14.824202150479406 58.75548965581381,15.207586688853874 58.806729386530044,15.207586688853874 58.80675881773666,14.824202150479406 58.953120208231674,14.824202150479406 58.95314963943829,15.207586688853874 58.99411787904598,15.207586688853874 58.99414731025259,14.824202150479406 61.30852910481453,14.824202150479406 61.308558536021145,15.207586688853874 61.36712663718445,15.207586688853874 61.36715606839106,14.824202150479406 67.49446840471677,14.824202150479406 67.49449783592338,15.207586688853874 67.50721211718094,15.207586688853874 67.50724154838755,14.824202150479406 69.11041823510472,14.824202150479406 69.11044766631133,15.207586688853874 69.1227793418829,15.207586688853874 69.12280877308952,14.824202150479406 70.8081868198816,14.824202150479406 70.80821625108823,15.207586688853874 70.83040738087573,15.207586688853874 70.83043681208234,14.824202150479406 71.75922683042975,14.824202150479406 71.75925626163637,15.207586688853874 71.77108760669549,15.207586688853874 71.7711170379021,14.824202150479406 75.76036993849466,14.824202150479406 75.76039936970128,15.207586688853874 75.7748206609425,15.207586688853874 75.77485009214911,14.824202150479406 76.25546169616753,14.824202150479406 76.25549112737414,15.207586688853874 76.2839805353772,15.207586688853874 76.28400996658381,14.824202150479406 76.43455058841812,14.824202150479406 76.43458001962473,15.207586688853874 76.44255587661732,15.207586688853874 76.44258530782393,14.824202150479406 76.86798396823313,14.824202150479406 76.86801339943975,15.207586688853874 76.87336987904362,15.207586688853874 76.87339931025024,14.824202150479406 79.14222159697259,14.824202150479406 79.1422510281792,15.207586688853874 79.29020170383141,15.207586688853874 79.29023113503803,14.824202150479406 83.35241456562188,14.824202150479406 83.3524439968285,15.207586688853874 83.38075681759186,15.207586688853874 83.38078624879847,14.824202150479406 84.27676047177047,14.824202150479406 84.27678990297709,15.207586688853874 84.29291820420195,15.207586688853874 84.29294763540857,14.824202150479406 84.94902809326396,14.824202150479406 84.94905752447058,15.207586688853874 84.9633022284721,15.207586688853874 84.96333165967872,14.824202150479406 85.93526782692331,14.824202150479406 85.93529725812994,15.207586688853874 85.98029757304384,15.207586688853874 85.98032700425046,14.824202150479406 87.46207053247528,14.824202150479406 87.4620999636819,15.207586688853874 87.47045842636047,15.207586688853874 87.4704878575671,14.824202150479406 88.26165755378406,14.824202150479406 88.26168698499067,15.207586688853874 88.27310629315718,15.207586688853874 88.2731357243638,14.824202150479406 90.73287824839585,14.824202150479406 90.73290767960246,15.207586688853874 90.74264940899194,15.207586688853874 90.74267884019855,14.824202150479406 91.16822465664083,14.824202150479406 91.16825408784744,14.44081761210494 91.16887214318635,14.44081761210494 91.16890157439296,14.057433073730472 91.32123749983077,14.057433073730472 91.32126693103739,14.44081761210494 91.32147294948369,14.44081761210494 91.3215023806903,14.824202150479406 92.76937059010157,14.824202150479406 92.7694000213082,15.207586688853874 92.8005971003198,15.207586688853874 92.80062653152642,14.824202150479406 95.59997574868575,14.824202150479406 95.60000517989236,15.207586688853874 95.68129417256223,15.207586688853874 95.68132360376885,14.824202150479406 96.56169928723504,14.824202150479406 96.56172871844166,14.44081761210494 96.58536197735327,14.44081761210494 96.58539140855989,14.824202150479406 96.8133066725843,14.824202150479406 96.81333610379092,15.207586688853874 96.83367306756169,15.207586688853874 96.8337024987683,14.824202150479406 97.28470630893231,14.824202150479406 97.28473574013893,15.207586688853874 97.33718215032636,15.207586688853874 97.33721158153298,14.824202150479406 98.6230609985302,14.824202150479406 98.62309042973682,14.44081761210494 98.6498433965496,14.44081761210494 98.64987282775621,14.824202150479406 99.76796436704953,14.824202150479406 99.76799379825614,15.207586688853874 99.77443923250476,15.207586688853874 99.77446866371137,14.824202150479406 99.99991170638016,14.824202150479406 99.99994113758677,15.207586688853874 99.99997056879339,15.207586688853874 99.99997056879339,15.207586688853874" fill="black" stroke="black" stroke-width="0.1" />
<polygon points="2.943120661472255e-05,16.741124842351745 2.943120661472255e-05,16.741124842351745 5.101752510629081,16.741124842351745 5.101781941835695,15.590971227228342 5.184248182770148,15.590971227228342 5.184277613976763,16.741124842351745 10.586110707249553,16.741124842351745 10.586140138456168,15.590971227228342 10.738005164588136,15.590971227228342 10.738034595794751,16.741124842351745 10.755134126837905,16.741124842351745 10.75516355804452,15.590971227228342 10.79018669391604,15.590971227228342 10.790216125122654,16.741124842351745 11.234333032938817,16.741124842351745 11.234362464145432,15.590971227228342 11.269385600016953,15.590971227228342 11.269415031223566,16.741124842351745 17.895615750875432,16.741124842351745 17.895645182082045,15.590971227228342 18.04836371320584,15.590971227228342 18.048393144412454,16.741124842351745 20.17291422510282,16.741124842351745 20.17294365630943,15.590971227228342 20.268212472121288,15.590971227228342 20.268241903327905,16.741124842351745 20.4181644698233,16.741124842351745 20.418193901029916,15.590971227228342 20.462105261299083,15.590971227228342 20.462134692505696,16.741124842351745 21.627404456002406,16.741124842351745 21.627433887209023,15.590971227228342 21.671256953858343,15.590971227228342 21.671286385064956,16.741124842351745 24.9744095658485,16.741124842351745 24.974438997055113,15.590971227228342 24.99871974251226,15.590971227228342 24.998749173718874,16.741124842351745 25.058523954353376,16.741124842351745 25.05855338555999,15.590971227228342 25.082804699810524,15.590971227228342 25.082834131017137,16.741124842351745 34.78179997727911,16.741124842351745 34.78182940848572,15.590971227228342 34.82641768650703,15.590971227228342 34.82644711771364,16.741124842351745 40.36445840399276,16.741124842351745 40.36448783519937,15.590971227228342 40.40007016399657,15.590971227228342 40.40009959520319,16.741124842351745 69.49043397491401,16.741124842351745 69.49046340612063,15.590971227228342 69.57272362860878,15.590971227228342 69.5727530598154,16.741124842351745 71.76411241072779,16.741124842351745 71.7641418419344,15.590971227228342 71.80201980484756,15.590971227228342 71.80204923605417,16.741124842351745 72.32595414500284,16.741124842351745 72.32598357620947,15.590971227228342 72.36989493647863,15.590971227228342 72.36992436768524,16.741124842351745 80.4512333735756,16.741124842351745 80.45126280478222,15.590971227228342 80.48684513357942,15.590971227228342 80.48687456478604,16.741124842351745 88.0164367402702,16.741124842351745 88.01646617147681,15.590971227228342 88.32658279557613,15.590971227228342 88.32661222678276,16.741124842351745 91.16810693181436,16.741124842351745 91.16813636302098,15.590971227228342 91.32126693103739,15.590971227228342 91.321296362244,16.741124842351745 94.73605210971718,16.741124842351745 94.73608154092379,15.590971227228342 95.03728050941886,15.590971227228342 95.03730994062549,16.741124842351745 95.09108075511058,16.741124842351745 95.0911101863172,15.590971227228342 95.39310379739086,15.590971227228342 95.39313322859748,16.741124842351745 99.99997056879339,16.741124842351745 99.99997056879339,16.741124842351745" fill="blue" stroke="blue" stroke-width="0.1" />
<polygon points="2.943120661472255e-05,18.274662995849614 2.943120661472255e-05,17.891278457475146 6.624699728114513,17.891278457475146 6.624729159321128,17.50789391910068 6.626024132412176,17.50789391910068 6.6260535636187905,17.124509380726213 6.646714270662326,17.124509380726213 6.646743701868941,17.50789391910068 6.702486407197225,17.50789391910068 6.70251583840384,17.891278457475146 10.586110707249553,17.891278457475146 10.586140138456168,17.50789391910068 10.738005164588136,17.50789391910068 10.738034595794751,17.891278457475146 17.895615750875432,17.891278457475146 17.895645182082045,17.50789391910068 18.04836371320584,17.50789391910068 18.048393144412454,17.891278457475146 18.852895177225896,17.891278457475146 18.852924608432513,17.50789391910068 19.141939057389088,17.50789391910068 19.1419684885957,17.891278457475146 20.17291422510282,17.891278457475146 20.17294365630943,17.50789391910068 20.268212472121288,17.50789391910068 20.268241903327905,17.891278457475146 24.019896672919817,17.891278457475146 24.01992610412643,17.50789391910068 24.038585489120166,17.50789391910068 24.03861492032678,17.891278457475146 91.16810693181436,17.891278457475146 91.16813636302098,17.50789391910068 91.16887214318635,17.50789391910068 91.16890157439296,17.124509380726213 91.32123749983077,17.124509380726213 91.32126693103739,17.50789391910068 91.321296362244,17.50789391910068 91.321296362244,17.891278457475146 98.6230609985302,17.891278457475146 98.62309042973682,17.50789391910068 98.6498433965496,17.50789391910068 98.64987282775621,17.891278457475146 99.99997056879339,17.891278457475146 99.99997056879339,18.274662995849614" fill="black" stroke="black" stroke-width="0.1" />
<!-- assembly contigs before -->
<polygon points="0,0 90.8782978402792,0 90.8782978402792,1.2779484612482248 0,1.2779484612482248" fill="grey" stroke="grey" stroke-width="0" />
<polygon points="92.8782978402792,0 106.49570510401873,0 106.49570510401873,1.2779484612482248 92.8782978402792,1.2779484612482248" fill="grey" stroke="grey" stroke-width="0" />
<!-- assembly contigs after -->
<polygon points="0,30.670763069957392 0.0975055875145758,30.670763069957392 0.0975055875145758,31.948711531205618 0,31.948711531205618" fill="grey" stroke="grey" stroke-width="0" />
<polygon points="2.0975055875145756,30.670763069957392 102.80049938871385,30.670763069957392 102.80049938871385,31.948711531205618 2.0975055875145756,31.948711531205618" fill="grey" stroke="grey" stroke-width="0" />
<!-- hits before vs ref -->
<polygon points="69.86853668629335,1.5335381534978698 70.05145163540385,1.5335381534978698 0.17826481846537448,13.801843381480827 2.943120661472255e-05,13.801843381480827" fill="lightblue" fill-opacity="0.5" stroke="blue" stroke-width="0.1" />
<polygon points="70.05930976756999,1.5335381534978698 72.55872555811868,1.5335381534978698 2.580204452706111,13.801843381480827 0.18568148253228456,13.801843381480827" fill="lightblue" fill-opacity="0.5" stroke="blue" stroke-width="0.1" />
<polygon points="72.64133895508621,1.5335381534978698 74.42760717815356,1.5335381534978698 4.346282868035767,13.801843381480827 2.661346289342901,13.801843381480827" fill="lightblue" fill-opacity="0.5" stroke="blue" stroke-width="0.1" />
<polygon points="74.46713328863714,1.5335381534978698 75.08312844308328,1.5335381534978698 4.968782319143764,13.801843381480827 4.377215066187841,13.801843381480827" fill="lightblue" fill-opacity="0.5" stroke="blue" stroke-width="0.1" />
<polygon points="75.0965490732996,1.5335381534978698 79.31468846773487,1.5335381534978698 9.038559001034212,13.801843381480827 4.9832624727982076,13.801843381480827" fill="lightblue" fill-opacity="0.5" stroke="blue" stroke-width="0.1" />
<polygon points="79.33620267977022,1.5335381534978698 82.44422639190476,1.5335381534978698 12.050636979604763,13.801843381480827 9.053333466754804,13.801843381480827" fill="lightblue" fill-opacity="0.5" stroke="blue" stroke-width="0.1" />
<polygon points="88.49283968174271,1.5335381534978698 88.65138559177622,1.5335381534978698 10.737887439761678,13.801843381480827 10.58608127604294,13.801843381480827" fill="lightblue" fill-opacity="0.5" stroke="blue" stroke-width="0.1" />
<polygon points="60.714725080155894,1.5335381534978698 60.55373637997336,1.5335381534978698 10.738034595794751,13.801843381480827 10.586140138456168,13.801843381480827" fill="pink" fill-opacity="0.5" stroke="orchid" stroke-width="0.1" />
<polygon points="82.481486299479,1.5335381534978698 90.8279410457614,1.5335381534978698 20.150340489629325,13.801843381480827 12.067618785821457,13.801843381480827" fill="lightblue" fill-opacity="0.5" stroke="blue" stroke-width="0.1" />
<polygon points="60.71475451136251,1.5335381534978698 60.553000599807994,1.5335381534978698 18.048393144412454,13.801843381480827 17.895645182082045,13.801843381480827" fill="pink" fill-opacity="0.5" stroke="orchid" stroke-width="0.1" />
<polygon points="80.92469319438665,1.5335381534978698 81.07964849721316,1.5335381534978698 18.047627933040474,13.801843381480827 17.895674613288662,13.801843381480827" fill="lightblue" fill-opacity="0.5" stroke="blue" stroke-width="0.1" />
<polygon points="0.0,1.5335381534978698 1.5851647882689566,1.5335381534978698 34.54802790313837,13.801843381480827 33.007333668064256,13.801843381480827" fill="lightblue" fill-opacity="0.5" stroke="blue" stroke-width="0.1" />
<polygon points="1.6617742190870792,1.5335381534978698 5.318042448040676,1.5335381534978698 38.16347504851734,13.801843381480827 34.6060662425826,13.801843381480827" fill="lightblue" fill-opacity="0.5" stroke="blue" stroke-width="0.1" />
<polygon points="5.4372094036236875,1.5335381534978698 6.942174153867525,1.5335381534978698 39.70770102838522,13.801843381480827 38.26059803034593,13.801843381480827" fill="lightblue" fill-opacity="0.5" stroke="blue" stroke-width="0.1" />
<polygon points="6.957154638034419,1.5335381534978698 7.380669701220277,1.5335381534978698 40.138250149952,13.801843381480827 39.72026815360971,13.801843381480827" fill="lightblue" fill-opacity="0.5" stroke="blue" stroke-width="0.1" />
<polygon points="7.405539070809717,1.5335381534978698 8.272965023365435,1.5335381534978698 41.0088546728221,13.801843381480827 40.17041845878189,13.801843381480827" fill="lightblue" fill-opacity="0.5" stroke="blue" stroke-width="0.1" />
<polygon points="8.304044377550582,1.5335381534978698 9.521289651928893,1.5335381534978698 42.20120114640436,13.801843381480827 41.027543489022456,13.801843381480827" fill="lightblue" fill-opacity="0.5" stroke="blue" stroke-width="0.1" />
<polygon points="9.535151750244426,1.5335381534978698 15.151744358184848,1.5335381534978698 47.677289173966095,13.801843381480827 42.211649224752584,13.801843381480827" fill="lightblue" fill-opacity="0.5" stroke="blue" stroke-width="0.1" />
<polygon points="15.361794879794124,1.5335381534978698 16.873940844451955,1.5335381534978698 49.311339196422104,13.801843381480827 47.86806225524273,13.801843381480827" fill="lightblue" fill-opacity="0.5" stroke="blue" stroke-width="0.1" />
<polygon points="16.912348569084166,1.5335381534978698 18.412162858170426,1.5335381534978698 50.799528158895555,13.801843381480827 49.343360349218926,13.801843381480827" fill="lightblue" fill-opacity="0.5" stroke="blue" stroke-width="0.1" />
<polygon points="18.424759414601528,1.5335381534978698 20.87278831840092,1.5335381534978698 53.146372574353535,13.801843381480827 50.79396566084537,13.801843381480827" fill="lightblue" fill-opacity="0.5" stroke="blue" stroke-width="0.1" />
<polygon points="20.91505153109966,1.5335381534978698 24.023840454606187,1.5335381534978698 56.17969988409991,13.801843381480827 53.180689361266296,13.801843381480827" fill="lightblue" fill-opacity="0.5" stroke="blue" stroke-width="0.1" />
<polygon points="24.03393535847504,1.5335381534978698 25.801985664647884,1.5335381534978698 57.900513103656124,13.801843381480827 56.18496807008395,13.801843381480827" fill="lightblue" fill-opacity="0.5" stroke="blue" stroke-width="0.1" />
<polygon points="25.813022367128404,1.5335381534978698 26.69151445337126,1.5335381534978698 58.75548965581381,13.801843381480827 57.911373218896955,13.801843381480827" fill="lightblue" fill-opacity="0.5" stroke="blue" stroke-width="0.1" />
<polygon points="26.756086520683958,1.5335381534978698 26.909687988006194,1.5335381534978698 58.95314963943829,13.801843381480827 58.80675881773666,13.801843381480827" fill="lightblue" fill-opacity="0.5" stroke="blue" stroke-width="0.1" />
<polygon points="26.96699054728506,1.5335381534978698 29.360807168500134,1.5335381534978698 61.308558536021145,13.801843381480827 58.99414731025259,13.801843381480827" fill="lightblue" fill-opacity="0.5" stroke="blue" stroke-width="0.1" />
<polygon points="29.432325000573908,1.5335381534978698 35.820957020431734,1.5335381534978698 67.49449783592338,13.801843381480827 61.36715606839106,13.801843381480827" fill="lightblue" fill-opacity="0.5" stroke="blue" stroke-width="0.1" />
<polygon points="35.8390866437064,1.5335381534978698 37.49933044004952,1.5335381534978698 69.11044766631133,13.801843381480827 67.50724154838755,13.801843381480827" fill="lightblue" fill-opacity="0.5" stroke="blue" stroke-width="0.1" />
<polygon points="37.51351628163781,1.5335381534978698 39.26308379005661,1.5335381534978698 70.80821625108821,13.801843381480827 69.12280877308952,13.801843381480827" fill="lightblue" fill-opacity="0.5" stroke="blue" stroke-width="0.1" />
<polygon points="39.29322134563009,1.5335381534978698 40.25762312398132,1.5335381534978698 71.75925626163637,13.801843381480827 70.83043681208234,13.801843381480827" fill="lightblue" fill-opacity="0.5" stroke="blue" stroke-width="0.1" />
<polygon points="40.26901300094121,1.5335381534978698 44.40862993612839,1.5335381534978698 75.76039936970129,13.801843381480827 71.7711170379021,13.801843381480827" fill="lightblue" fill-opacity="0.5" stroke="blue" stroke-width="0.1" />
<polygon points="44.42979097368438,1.5335381534978698 44.936949526069284,1.5335381534978698 76.25549112737414,13.801843381480827 75.77485009214911,13.801843381480827" fill="lightblue" fill-opacity="0.5" stroke="blue" stroke-width="0.1" />
<polygon points="44.974444883296435,1.5335381534978698 45.13001824146186,1.5335381534978698 76.43458001962473,13.801843381480827 76.28400996658381,13.801843381480827" fill="lightblue" fill-opacity="0.5" stroke="blue" stroke-width="0.1" />
<polygon points="45.14070176946301,1.5335381534978698 45.5810809140391,1.5335381534978698 76.86801339943975,13.801843381480827 76.44258530782393,13.801843381480827" fill="lightblue" fill-opacity="0.5" stroke="blue" stroke-width="0.1" />
<polygon points="45.590587193775654,1.5335381534978698 47.94581950311883,1.5335381534978698 79.1422510281792,13.801843381480827 76.87339931025024,13.801843381480827" fill="lightblue" fill-opacity="0.5" stroke="blue" stroke-width="0.1" />
<polygon points="48.12505555140248,1.5335381534978698 52.331657912844776,1.5335381534978698 83.3524439968285,13.801843381480827 79.29023113503803,13.801843381480827" fill="lightblue" fill-opacity="0.5" stroke="blue" stroke-width="0.1" />
<polygon points="52.37292046451862,1.5335381534978698 53.307979329874975,1.5335381534978698 84.27678990297709,13.801843381480827 83.38078624879847,13.801843381480827" fill="lightblue" fill-opacity="0.5" stroke="blue" stroke-width="0.1" />
<polygon points="53.332701543431334,1.5335381534978698 54.016800509983945,1.5335381534978698 84.94905752447058,13.801843381480827 84.29294763540857,13.801843381480827" fill="lightblue" fill-opacity="0.5" stroke="blue" stroke-width="0.1" />
<polygon points="54.035342170151225,1.5335381534978698 55.0434198591187,1.5335381534978698 85.93529725812992,13.801843381480827 84.96333165967872,13.801843381480827" fill="lightblue" fill-opacity="0.5" stroke="blue" stroke-width="0.1" />
<polygon points="55.124856007821634,1.5335381534978698 56.680707314302325,1.5335381534978698 87.4620999636819,13.801843381480827 85.98032700425046,13.801843381480827" fill="lightblue" fill-opacity="0.5" stroke="blue" stroke-width="0.1" />
<polygon points="56.693245008320204,1.5335381534978698 57.5240585398472,1.5335381534978698 88.26168698499067,13.801843381480827 87.4704878575671,13.801843381480827" fill="lightblue" fill-opacity="0.5" stroke="blue" stroke-width="0.1" />
<polygon points="57.536449077832,1.5335381534978698 60.09452126316384,1.5335381534978698 90.73290767960246,13.801843381480827 88.2731357243638,13.801843381480827" fill="lightblue" fill-opacity="0.5" stroke="blue" stroke-width="0.1" />
<polygon points="60.10467502944592,1.5335381534978698 62.21353870821725,1.5335381534978698 92.76940002130819,13.801843381480827 90.74267884019855,13.801843381480827" fill="lightblue" fill-opacity="0.5" stroke="blue" stroke-width="0.1" />
<polygon points="88.65229795918127,1.5335381534978698 88.49266309450302,1.5335381534978698 91.3215023806903,13.801843381480827 91.16825408784744,13.801843381480827" fill="pink" fill-opacity="0.5" stroke="orchid" stroke-width="0.1" />
<polygon points="81.07964849721316,1.5335381534978698 80.92469319438665,1.5335381534978698 91.32126693103739,13.801843381480827 91.16890157439296,13.801843381480827" fill="pink" fill-opacity="0.5" stroke="orchid" stroke-width="0.1" />
<polygon points="62.258303573478244,1.5335381534978698 65.17473013055094,1.5335381534978698 95.60000517989236,13.801843381480827 92.80062653152642,13.801843381480827" fill="lightblue" fill-opacity="0.5" stroke="blue" stroke-width="0.1" />
<polygon points="65.27173538755306,1.5335381534978698 66.23260542111052,1.5335381534978698 96.58539140855989,13.801843381480827 95.68132360376885,13.801843381480827" fill="lightblue" fill-opacity="0.5" stroke="blue" stroke-width="0.1" />
<polygon points="66.2325171274907,1.5335381534978698 66.49992907079206,1.5335381534978698 96.81333610379092,13.801843381480827 96.56172871844166,13.801843381480827" fill="lightblue" fill-opacity="0.5" stroke="blue" stroke-width="0.1" />
<polygon points="66.52088408990174,1.5335381534978698 66.99284291917543,1.5335381534978698 97.28473574013893,13.801843381480827 96.8337024987683,13.801843381480827" fill="lightblue" fill-opacity="0.5" stroke="blue" stroke-width="0.1" />
<polygon points="67.0609467312819,1.5335381534978698 68.41463507952606,1.5335381534978698 98.64987282775623,13.801843381480827 97.33721158153298,13.801843381480827" fill="lightblue" fill-opacity="0.5" stroke="blue" stroke-width="0.1" />
<polygon points="68.41846113638597,1.5335381534978698 69.62028445849816,1.5335381534978698 99.76799379825614,13.801843381480827 98.62309042973682,13.801843381480827" fill="lightblue" fill-opacity="0.5" stroke="blue" stroke-width="0.1" />
<polygon points="69.63105628011917,1.5335381534978698 69.86838953026029,1.5335381534978698 99.99994113758676,13.801843381480827 99.77446866371137,13.801843381480827" fill="lightblue" fill-opacity="0.5" stroke="blue" stroke-width="0.1" />
<polygon points="93.09388142873205,1.5335381534978698 96.04550770891596,1.5335381534978698 23.059173795395427,13.801843381480827 20.17294365630943,13.801843381480827" fill="lightblue" fill-opacity="0.5" stroke="blue" stroke-width="0.1" />
<polygon points="96.04895116008987,1.5335381534978698 97.5535038734411,1.5335381534978698 24.504922957930447,13.801843381480827 23.061027961412158,13.801843381480827" fill="lightblue" fill-opacity="0.5" stroke="blue" stroke-width="0.1" />
<polygon points="97.63658816971447,1.5335381534978698 97.89723093549445,1.5335381534978698 24.82554652279123,13.801843381480827 24.574616055194106,13.801843381480827" fill="lightblue" fill-opacity="0.5" stroke="blue" stroke-width="0.1" />
<polygon points="97.9517080989383,1.5335381534978698 98.2259775133809,1.5335381534978698 25.12430270113728,13.801843381480827 24.860069328150303,13.801843381480827" fill="lightblue" fill-opacity="0.5" stroke="blue" stroke-width="0.1" />
<polygon points="98.29031413104069,1.5335381534978698 99.22001651679315,1.5335381534978698 26.067484579519295,13.801843381480827 25.166389326596335,13.801843381480827" fill="lightblue" fill-opacity="0.5" stroke="blue" stroke-width="0.1" />
<polygon points="99.22916962205034,1.5335381534978698 99.97463265439464,1.5335381534978698 26.783457542835652,13.801843381480827 26.073282527222396,13.801843381480827" fill="lightblue" fill-opacity="0.5" stroke="blue" stroke-width="0.1" />
<polygon points="99.97751691264288,1.5335381534978698 101.26263054947475,1.5335381534978698 28.020892624951657,13.801843381480827 26.778777980983907,13.801843381480827" fill="lightblue" fill-opacity="0.5" stroke="blue" stroke-width="0.1" />
<polygon points="101.30006704428868,1.5335381534978698 102.05927445012206,1.5335381534978698 28.78775214450487,13.801843381480827 28.048969996062105,13.801843381480827" fill="lightblue" fill-opacity="0.5" stroke="blue" stroke-width="0.1" />
<polygon points="102.08897053759631,1.5335381534978698 103.52091646422902,1.5335381534978698 30.191032075894842,13.801843381480827 28.799053727844925,13.801843381480827" fill="lightblue" fill-opacity="0.5" stroke="blue" stroke-width="0.1" />
<polygon points="103.53154112981694,1.5335381534978698 104.06648274124615,1.5335381534978698 30.713288837273094,13.801843381480827 30.19712433566409,13.801843381480827" fill="lightblue" fill-opacity="0.5" stroke="blue" stroke-width="0.1" />
<polygon points="104.08093346369397,1.5335381534978698 104.3570864753599,1.5335381534978698 30.98343788278963,13.801843381480827 30.720764363753233,13.801843381480827" fill="lightblue" fill-opacity="0.5" stroke="blue" stroke-width="0.1" />
<polygon points="104.38672370042093,1.5335381534978698 106.49570510401873,1.5335381534978698 33.04115012446457,13.801843381480827 31.002921341568577,13.801843381480827" fill="lightblue" fill-opacity="0.5" stroke="blue" stroke-width="0.1" />
<!-- hits after vs ref -->
<polygon points="6.624729159321128,18.913637226473725 6.70251583840384,18.913637226473725 0.0975055875145758,30.415173377707745 0.01986606446493772,30.415173377707745" fill="lightblue" fill-opacity="0.5" stroke="blue" stroke-width="0.1" />
<polygon points="6.6260535636187905,18.913637226473725 6.646743701868941,18.913637226473725 0.0,30.415173377707745 0.020660707043535228,30.415173377707745" fill="pink" fill-opacity="0.5" stroke="orchid" stroke-width="0.1" />
<polygon points="0.0,18.913637226473725 19.1419684885957,18.913637226473725 102.75308571485752,30.415173377707745 83.61132324470812,30.415173377707745" fill="lightblue" fill-opacity="0.5" stroke="blue" stroke-width="0.1" />
<polygon points="10.586140138456168,18.913637226473725 10.738034595794751,18.913637226473725 74.7498518138747,30.415173377707745 74.90221717051912,30.415173377707745" fill="pink" fill-opacity="0.5" stroke="orchid" stroke-width="0.1" />
<polygon points="17.895645182082045,18.913637226473725 18.048393144412454,18.913637226473725 74.74908660250271,30.415173377707745 74.90224660172574,30.415173377707745" fill="pink" fill-opacity="0.5" stroke="orchid" stroke-width="0.1" />
<polygon points="18.852924608432513,18.913637226473725 20.268241903327905,18.913637226473725 3.512764019996739,30.415173377707745 2.0975055875145756,30.415173377707745" fill="lightblue" fill-opacity="0.5" stroke="blue" stroke-width="0.1" />
<polygon points="20.17294365630943,18.913637226473725 24.03861492032678,18.913637226473725 7.6150621851964555,30.415173377707745 3.749390921179108,30.415173377707745" fill="lightblue" fill-opacity="0.5" stroke="blue" stroke-width="0.1" />
<polygon points="24.01992610412643,18.913637226473725 98.64987282775621,18.913637226473725 82.23079363603132,30.415173377707745 7.600994068434619,30.415173377707745" fill="lightblue" fill-opacity="0.5" stroke="blue" stroke-width="0.1" />
<polygon points="91.16813636302098,18.913637226473725 91.321296362244,18.913637226473725 101.50693899558355,30.415173377707745 101.65965752670735,30.415173377707745" fill="pink" fill-opacity="0.5" stroke="orchid" stroke-width="0.1" />
<polygon points="91.16890157439296,18.913637226473725 91.32126693103739,18.913637226473725 94.19746338316429,30.415173377707745 94.34935784050288,30.415173377707745" fill="pink" fill-opacity="0.5" stroke="orchid" stroke-width="0.1" />
<polygon points="98.62309042973682,18.913637226473725 100.0,18.913637226473725 83.61132324470812,30.415173377707745 82.23441367444494,30.415173377707745" fill="lightblue" fill-opacity="0.5" stroke="blue" stroke-width="0.1" />
</svg>
