<?xml version="1.0" standalone="no"?>
<!DOCTYPE svg PUBLIC " -//W3C//DTD SVG 1.0//EN" "http://www.w3.org/TR/2001/REC-SVG-20010904/DTD/svg10.dtd">
<svg width="108.54856922375629" height="32.56457076712689">
<!-- reference contigs -->
<polygon points="2.1340854419520225e-05,15.5007356851524 2.1340854419520225e-05,15.5007356851524 0.07172661170400747,15.5007356851524 0.07174795255842699,15.207654548248257 2.7785152228582746,15.207654548248257 2.778536563712694,15.5007356851524 2.787478381714473,15.5007356851524 2.7874997225688927,15.207654548248257 3.2238134911759837,15.207654548248257 3.223834832030403,15.5007356851524 3.2311547450962985,15.5007356851524 3.231176085950718,15.207654548248257 3.8891999911222044,15.207654548248257 3.889221331976624,15.5007356851524 3.916409580507093,15.5007356851524 3.9164309213615125,15.207654548248257 4.28351495823168,15.207654548248257 4.2835362990861,15.5007356851524 4.298304170344407,15.5007356851524 4.2983255111988266,15.207654548248257 5.221317464843076,15.207654548248257 5.221338805697496,15.5007356851524 5.2539262903961035,15.5007356851524 5.253947631250523,15.207654548248257 5.811093317580937,15.207654548248257 5.811114658435357,15.5007356851524 5.817965072704022,15.5007356851524 5.817986413558442,15.207654548248257 6.2235906926558435,15.207654548248257 6.223612033510263,15.5007356851524 6.228477748317914,15.5007356851524 6.228499089172334,15.207654548248257 6.273720359687297,15.207654548248257 6.273741700541716,14.914573411344115 6.273763041396136,14.914573411344115 6.273763041396136,14.621492274439973 6.393933392632454,14.621492274439973 6.393954733486874,15.207654548248257 7.130619687194292,15.207654548248257 7.130641028048712,15.5007356851524 7.154905579523707,15.5007356851524 7.154926920378125,15.207654548248257 8.079562119812678,15.207654548248257 8.079583460667099,15.5007356851524 8.105512598786815,15.5007356851524 8.105533939641235,15.207654548248257 10.839617503598069,15.207654548248257 10.839638844452487,15.5007356851524 10.849178206378014,15.5007356851524 10.849199547232432,15.207654548248257 11.124752659497277,15.207654548248257 11.124774000351698,15.5007356851524 11.134377384840482,15.5007356851524 11.1343987256949,15.207654548248257 12.478296351055349,15.207654548248257 12.478317691909767,15.5007356851524 12.522002420906526,15.5007356851524 12.522023761760945,15.207654548248257 14.51457665720271,15.207654548248257 14.514597998057129,15.5007356851524 14.521789865996507,15.5007356851524 14.521811206850927,15.207654548248257 15.195499299166341,15.207654548248257 15.19552064002076,15.5007356851524 15.200557081663767,15.5007356851524 15.200578422518186,15.207654548248257 17.399155926526,15.207654548248257 17.39917726738042,15.5007356851524 17.407734950002645,15.5007356851524 17.407756290857066,15.207654548248257 18.702633973615875,15.207654548248257 18.702655314470295,15.5007356851524 18.768065033266122,15.5007356851524 18.768086374120543,15.207654548248257 20.717189289964164,15.207654548248257 20.717210630818585,15.5007356851524 20.723463501163504,15.5007356851524 20.72348484201792,15.207654548248257 21.06651773595729,15.207654548248257 21.06653907681171,15.5007356851524 21.07313340082734,15.5007356851524 21.073154741681762,15.207654548248257 21.619608659947996,15.207654548248257 21.619630000802417,15.5007356851524 21.683652564060978,15.5007356851524 21.683673904915395,15.207654548248257 23.043897283906777,15.207654548248257 23.043918624761197,15.5007356851524 23.049872723144244,15.5007356851524 23.04989406399866,15.207654548248257 23.32529779028257,15.207654548248257 23.32531913113699,15.5007356851524 23.385436318036778,15.5007356851524 23.385457658891198,15.207654548248257 23.79332406855707,15.207654548248257 23.793345409411486,15.5007356851524 23.798253805927978,15.5007356851524 23.798275146782398,15.207654548248257 23.942475300095094,15.207654548248257 23.942496640949514,15.5007356851524 23.975404238464414,15.5007356851524 23.975425579318834,15.207654548248257 24.07784033967811,15.207654548248257 24.077861680532532,15.5007356851524 24.086440704009178,15.5007356851524 24.086462044863598,15.207654548248257 24.805755543073527,15.207654548248257 24.805776883927948,15.5007356851524 24.808551195002483,15.5007356851524 24.808572535856904,15.207654548248257 26.463747863780473,15.207654548248257 26.463769204634893,15.5007356851524 26.46972330301794,15.5007356851524 26.469744643872357,15.207654548248257 26.941334844834916,15.207654548248257 26.941356185689337,15.5007356851524 27.00736344840891,15.5007356851524 27.00738478926333,15.207654548248257 27.754357375655378,15.207654548248257 27.754378716509798,15.5007356851524 27.764003441853,15.5007356851524 27.76402478270742,15.207654548248257 29.610691597337343,15.207654548248257 29.610712938191764,15.5007356851524 29.630047752295848,15.5007356851524 29.63006909315027,15.207654548248257 31.18016205391212,15.207654548248257 31.18018339476654,15.5007356851524 31.217743298544896,15.5007356851524 31.217764639399316,15.207654548248257 32.476618959897976,15.207654548248257 32.47664030075239,15.5007356851524 32.50406329868148,15.5007356851524 32.5040846395359,15.207654548248257 33.506763343582634,15.207654548248257 33.50678468443705,15.5007356851524 33.513293645035006,15.5007356851524 33.51331498588943,15.207654548248257 34.766578002530174,15.207654548248257 34.76659934338459,15.5007356851524 34.777760610246,15.5007356851524 34.77778195110042,15.207654548248257 35.57535370332115,15.207654548248257 35.575375044175566,15.5007356851524 35.62151397143057,15.5007356851524 35.62153531228499,15.207654548248257 35.73103523631155,15.207654548248257 35.731056577165965,15.5007356851524 35.81567306493937,15.5007356851524 35.815694405793785,15.207654548248257 36.252029515255295,15.207654548248257 36.25205085610972,15.5007356851524 36.261803626579436,15.5007356851524 36.26182496743385,15.207654548248257 36.56757538870232,15.207654548248257 36.56759672955674,15.5007356851524 36.656822841884754,15.5007356851524 36.65684418273918,15.207654548248257 37.13204098809863,15.207654548248257 37.132062328953054,15.5007356851524 37.14452538793405,15.5007356851524 37.14454672878847,15.207654548248257 38.229985266274106,15.207654548248257 38.23000660712853,15.5007356851524 38.236472886017644,15.5007356851524 38.23649422687206,15.207654548248257 38.39441654957651,15.207654548248257 38.39443789043093,15.5007356851524 38.41415683991457,15.5007356851524 38.414178180768985,15.207654548248257 38.947080656478825,15.207654548248257 38.94710199733325,15.5007356851524 38.965006974191226,15.5007356851524 38.96502831504564,15.207654548248257 42.30969506479937,15.207654548248257 42.30971640565379,15.5007356851524 42.324526958620936,15.5007356851524 42.32454829947535,15.207654548248257 42.842042678294305,15.207654548248257 42.84206401914872,15.5007356851524 42.85949949720947,15.5007356851524 42.85952083806389,15.207654548248257 42.988782393282925,15.207654548248257 42.98880373413734,14.914573411344115 43.04529297578581,14.914573411344115 43.04531431664023,15.207654548248257 43.46621998835643,15.207654548248257 43.46624132921085,15.5007356851524 43.4728569940809,15.5007356851524 43.472878334935324,15.207654548248257 45.22679779625801,15.207654548248257 45.22681913711243,15.5007356851524 45.24884289887337,15.5007356851524 45.248864239727794,15.207654548248257 47.716720644801114,15.207654548248257 47.71674198565553,15.5007356851524 47.72655877868851,15.5007356851524 47.72658011954293,15.207654548248257 48.76809917863319,15.207654548248257 48.76812051948762,15.5007356851524 48.79746419431446,15.5007356851524 48.797485535168875,15.207654548248257 49.96843687631353,15.207654548248257 49.96845821716795,14.914573411344115 50.10228671523276,14.914573411344115 50.10230805608718,15.207654548248257 50.76667019502126,15.207654548248257 50.76669153587569,15.5007356851524 50.77200540862614,15.5007356851524 50.77202674948057,15.207654548248257 51.55675130734074,15.207654548248257 51.556772648195164,15.5007356851524 51.69516808910575,15.5007356851524 51.695189429960166,15.207654548248257 54.40513648756853,15.207654548248257 54.405157828422944,15.5007356851524 54.43390395932604,15.5007356851524 54.433925300180455,15.207654548248257 54.77443997329832,15.207654548248257 54.774461314152745,15.5007356851524 54.79104315803671,15.5007356851524 54.79106449889113,15.207654548248257 57.40568195980749,15.207654548248257 57.405703300661905,15.5007356851524 57.41193483015241,15.5007356851524 57.41195617100683,15.207654548248257 57.59903010084834,15.207654548248257 57.59905144170276,15.5007356851524 57.612218748879606,15.5007356851524 57.61224008973402,15.207654548248257 58.65890229473939,15.207654548248257 58.658923635593816,14.914573411344115 58.65969190635292,14.914573411344115 58.659713247207335,14.621492274439973 58.6656886864448,14.621492274439973 58.66571002729922,14.32841113753583 58.77339597870012,14.32841113753583 58.77341731955454,14.621492274439973 58.7735880463899,14.621492274439973 58.77360938724431,14.914573411344115 58.77612760806582,14.914573411344115 58.77614894892024,15.207654548248257 58.90148378692608,15.207654548248257 58.9015051277805,15.5007356851524 58.906626932841185,15.5007356851524 58.9066482736956,15.207654548248257 59.222279510560305,15.207654548248257 59.22230085141473,15.5007356851524 59.23777297086888,15.5007356851524 59.2377943117233,15.207654548248257 59.660065798122346,15.207654548248257 59.66008713897676,15.5007356851524 59.71527458850564,15.5007356851524 59.71529592936007,15.207654548248257 60.012339282025366,15.207654548248257 60.01236062287978,15.5007356851524 60.025634634328725,15.5007356851524 60.02565597518315,15.207654548248257 61.94778405104049,15.207654548248257 61.94780539189492,15.5007356851524 62.00738905743422,15.5007356851524 62.007410398288634,15.207654548248257 62.24026046086002,15.207654548248257 62.24028180171444,15.5007356851524 62.26354333303171,15.5007356851524 62.26356467388614,15.207654548248257 62.78310777472935,15.207654548248257 62.783129115583776,15.5007356851524 62.791558753079485,15.5007356851524 62.7915800939339,15.207654548248257 64.2773303786209,15.207654548248257 64.27735171947532,15.5007356851524 64.34901430861608,15.5007356851524 64.3490356494705,15.207654548248257 65.03373562266638,15.207654548248257 65.0337569635208,15.5007356851524 65.18363378410909,15.5007356851524 65.18365512496351,15.207654548248257 67.14317237776386,15.207654548248257 67.14319371861828,15.5007356851524 67.17669886005692,15.5007356851524 67.17672020091133,15.207654548248257 67.78849847455572,15.207654548248257 67.78851981541014,15.5007356851524 67.79626654556444,15.5007356851524 67.79628788641885,15.207654548248257 68.7006919558637,15.207654548248257 68.70071329671812,15.5007356851524 68.71292026544609,15.5007356851524 68.7129416063005,15.207654548248257 69.73201008654144,15.207654548248257 69.73203142739585,15.5007356851524 69.73792150321565,15.5007356851524 69.73794284407006,15.207654548248257 69.88137472662366,15.207654548248257 69.88139606747808,15.5007356851524 69.93393725105894,15.5007356851524 69.93395859191335,15.207654548248257 70.41079864306312,15.207654548248257 70.41081998391753,15.5007356851524 70.41086266562637,15.5007356851524 70.41088400648079,15.207654548248257 72.4362804768742,15.207654548248257 72.43630181772862,15.5007356851524 72.54514017526817,15.5007356851524 72.54516151612259,15.207654548248257 72.76680763012372,15.207654548248257 72.76682897097814,15.5007356851524 72.77788353356746,15.5007356851524 72.77790487442188,15.207654548248257 73.49721971348623,15.207654548248257 73.49724105434065,15.5007356851524 73.50293906247066,15.5007356851524 73.50296040332508,15.207654548248257 73.59621993713839,15.207654548248257 73.5962412779928,14.621492274439973 73.59991190495296,14.621492274439973 73.59993324580738,14.32841113753583 73.70642410936078,14.32841113753583 73.7064454502152,14.621492274439973 73.70757651549944,14.621492274439973 73.70759785635386,14.914573411344115 73.7096038966693,14.914573411344115 73.70962523752371,15.207654548248257 73.75106917680642,15.207654548248257 73.75109051766084,15.5007356851524 73.79643983330232,15.5007356851524 73.79646117415673,15.207654548248257 74.46519818824682,15.207654548248257 74.46521952910125,15.5007356851524 74.47448145991932,15.5007356851524 74.47450280077373,15.207654548248257 74.74062325538515,15.207654548248257 74.74064459623958,15.5007356851524 74.76557071420157,15.5007356851524 74.76559205505599,15.207654548248257 75.06201652294313,15.207654548248257 75.06203786379754,14.914573411344115 75.06476949316324,14.914573411344115 75.06479083401766,15.207654548248257 75.1750376879489,15.207654548248257 75.17505902880332,15.5007356851524 75.19642122407727,15.5007356851524 75.19644256493169,15.207654548248257 76.24197370465282,15.207654548248257 76.24199504550724,15.5007356851524 76.25008322933223,15.5007356851524 76.25010457018665,15.207654548248257 77.43445796790677,15.207654548248257 77.43447930876118,15.5007356851524 77.43966513638513,15.5007356851524 77.43968647723955,15.207654548248257 78.77641357551504,15.207654548248257 78.77643491636945,15.5007356851524 78.84067088817221,15.5007356851524 78.84069222902663,15.207654548248257 82.3542078189476,15.207654548248257 82.35422915980203,15.5007356851524 82.46720764309896,15.5007356851524 82.46722898395339,15.207654548248257 82.95055665484668,15.207654548248257 82.9505779957011,14.914573411344115 83.08511074196176,14.914573411344115 83.08513208281617,15.207654548248257 83.3151864934586,15.207654548248257 83.31520783431301,15.5007356851524 83.32986900129923,15.5007356851524 83.32989034215365,15.207654548248257 84.14526036696026,15.207654548248257 84.14528170781468,15.5007356851524 84.16043371445254,15.5007356851524 84.16045505530695,15.207654548248257 84.353355038405,15.207654548248257 84.35337637925942,15.5007356851524 84.36464435039292,15.5007356851524 84.36466569124735,15.207654548248257 84.72679864989219,15.207654548248257 84.7268199907466,14.914573411344115 84.73031989087141,14.914573411344115 84.73034123172583,14.621492274439973 84.73036257258025,14.621492274439973 84.73036257258025,14.32841113753583 84.83687477698807,14.32841113753583 84.83689611784249,14.621492274439973 84.84278619366228,14.621492274439973 84.8428075345167,14.914573411344115 84.84282887537111,14.914573411344115 84.84285021622554,15.207654548248257 84.97808721068203,15.207654548248257 84.97810855153645,15.5007356851524 85.1306743197816,15.5007356851524 85.13069566063602,15.207654548248257 85.24890265326574,15.207654548248257 85.24892399412016,15.5007356851524 85.29194715662992,15.5007356851524 85.29196849748433,15.207654548248257 86.7004862300271,15.207654548248257 86.70050757088151,15.5007356851524 86.73047013048652,15.5007356851524 86.73049147134094,15.207654548248257 86.74092714915209,15.207654548248257 86.7409484900065,14.914573411344115 86.74525934259925,14.914573411344115 86.74528068345367,14.621492274439973 86.86114018209724,14.621492274439973 86.86116152295166,14.914573411344115 86.86231392909032,14.914573411344115 86.86233526994474,15.207654548248257 87.16834178146624,15.207654548248257 87.16836312232066,15.5007356851524 87.18462485338833,15.5007356851524 87.18464619424275,15.207654548248257 89.22630439570383,15.207654548248257 89.22632573655825,15.5007356851524 89.23913024920996,15.5007356851524 89.23915159006438,15.207654548248257 89.70980279343247,15.207654548248257 89.7098241342869,15.5007356851524 89.77305708593194,15.5007356851524 89.77307842678636,15.207654548248257 90.12383671002559,15.207654548248257 90.12385805088002,14.914573411344115 90.12836097116254,14.914573411344115 90.12838231201695,14.621492274439973 90.24417778809726,14.621492274439973 90.24419912895169,14.914573411344115 90.24513812654614,14.914573411344115 90.24515946740057,15.207654548248257 90.26707652488942,15.207654548248257 90.26709786574384,15.5007356851524 90.39113091163009,15.5007356851524 90.3911522524845,15.207654548248257 91.05233460411007,15.207654548248257 91.0523559449645,14.914573411344115 91.05451137126087,14.914573411344115 91.05453271211529,14.621492274439973 91.05566377739952,14.621492274439973 91.05568511825395,14.32841113753583 91.16217598180735,14.32841113753583 91.16219732266177,14.621492274439973 91.1648649294642,14.621492274439973 91.16488627031863,14.914573411344115 91.16586794962193,14.914573411344115 91.16588929047634,15.207654548248257 92.2468675893883,15.207654548248257 92.24688893024272,15.5007356851524 92.25301375546113,15.5007356851524 92.25303509631554,15.207654548248257 92.67206277284282,15.207654548248257 92.67208411369724,15.5007356851524 92.67799553037145,15.5007356851524 92.67801687122586,15.207654548248257 95.09130471154847,15.207654548248257 95.09132605240289,15.5007356851524 95.09649053917242,15.5007356851524 95.09651188002684,15.207654548248257 97.51065335452623,15.207654548248257 97.51067469538064,15.5007356851524 97.51682086145347,15.5007356851524 97.51684220230788,15.207654548248257 97.65431998647844,15.207654548248257 97.65434132733286,14.914573411344115 97.7075227365463,14.914573411344115 97.70754407740071,15.207654548248257 97.82534559379647,15.207654548248257 97.82536693465089,15.5007356851524 97.83953726198546,15.5007356851524 97.83955860283987,15.207654548248257 99.4040566403349,15.207654548248257 99.40407798118932,15.5007356851524 99.48229221263686,15.5007356851524 99.48231355349128,15.207654548248257 99.99995731829117,15.207654548248257 99.99997865914558,15.5007356851524 100.0,15.5007356851524 100.0,15.5007356851524" fill="black" stroke="black" stroke-width="0.1" />
<polygon points="2.1340854419520225e-05,17.06383508197449 2.1340854419520225e-05,17.06383508197449 1.3508974256100497,17.06383508197449 1.3509187664644693,15.891510534357922 1.4217277214284374,15.891510534357922 1.4217490622828568,17.06383508197449 6.271735660226281,17.06383508197449 6.271757001080701,15.891510534357922 6.3121979202056915,15.891510534357922 6.312219261060111,17.06383508197449 16.838787771178236,17.06383508197449 16.838809112032656,15.891510534357922 16.909788793831982,15.891510534357922 16.9098101346864,17.06383508197449 31.35633080714526,17.06383508197449 31.35635214799968,15.891510534357922 31.362903790306472,15.891510534357922 31.362925131160893,17.06383508197449 31.621234833054764,17.06383508197449 31.621256173909185,15.891510534357922 31.627807816215977,15.891510534357922 31.627829157070394,17.06383508197449 49.96843687631353,17.06383508197449 49.96845821716795,15.891510534357922 50.10311900855512,15.891510534357922 50.10314034940954,17.06383508197449 58.65789927458167,17.06383508197449 58.6579206154361,15.891510534357922 58.77614894892024,15.891510534357922 58.776170289774655,17.06383508197449 73.59619859628395,17.06383508197449 73.59621993713839,15.891510534357922 73.70971060094139,15.891510534357922 73.70973194179581,17.06383508197449 74.26435940730472,17.06383508197449 74.26438074815914,15.891510534357922 74.28964831979185,15.891510534357922 74.28966966064627,17.06383508197449 74.92797461633413,17.06383508197449 74.92799595718854,15.891510534357922 75.14823357479798,15.891510534357922 75.1482549156524,17.06383508197449 82.95049263228341,17.06383508197449 82.95051397313784,15.891510534357922 83.08517476452501,15.891510534357922 83.08519610537944,17.06383508197449 84.72590233400656,17.06383508197449 84.72592367486098,15.891510534357922 84.84282887537111,15.891510534357922 84.84285021622554,17.06383508197449 86.74075642231674,17.06383508197449 86.74077776317115,15.891510534357922 86.86231392909032,15.891510534357922 86.86233526994474,17.06383508197449 90.12402877771537,17.06383508197449 90.12405011856978,15.891510534357922 90.24599176072293,15.891510534357922 90.24601310157735,17.06383508197449 90.3317819954894,17.06383508197449 90.33180333634381,15.891510534357922 90.35707090797654,15.891510534357922 90.35709224883095,17.06383508197449 91.05233460411007,17.06383508197449 91.0523559449645,15.891510534357922 91.16588929047634,15.891510534357922 91.16591063133076,17.06383508197449 95.00329502792238,17.06383508197449 95.0033163687768,15.891510534357922 95.01486177101775,15.891510534357922 95.01488311187218,17.06383508197449 99.99997865914558,17.06383508197449 99.99997865914558,17.06383508197449" fill="blue" stroke="blue" stroke-width="0.1" />
<polygon points="2.1340854419520225e-05,18.62693447879658 2.1340854419520225e-05,18.33385334189244 58.65973458806175,18.33385334189244 58.65975592891618,18.040772204988297 58.65977726977059,18.040772204988297 58.65977726977059,17.747691068084155 58.77367340980757,17.747691068084155 58.773694750661996,18.040772204988297 58.77614894892024,18.040772204988297 58.776170289774655,18.33385334189244 73.59094874609676,18.33385334189244 73.59097008695117,18.040772204988297 73.59615591457512,18.040772204988297 73.59617725542954,17.747691068084155 73.59619859628395,17.747691068084155 73.59621993713839,17.454609931180013 73.7077685831892,17.454609931180013 73.70778992404364,18.040772204988297 73.70971060094139,18.040772204988297 73.70973194179581,18.33385334189244 84.72645719622147,18.33385334189244 84.72647853707589,18.040772204988297 84.72903943960624,18.040772204988297 84.72906078046066,17.747691068084155 84.84282887537111,17.747691068084155 84.84285021622554,18.040772204988297 84.84287155707996,18.040772204988297 84.84287155707996,18.33385334189244 91.05237728581892,18.33385334189244 91.05239862667334,18.040772204988297 91.05423394015341,18.040772204988297 91.05425528100784,17.747691068084155 91.16588929047634,17.747691068084155 91.16591063133076,18.33385334189244 94.44847549472368,18.33385334189244 94.44849683557811,18.040772204988297 94.58435271481277,18.040772204988297 94.5843740556672,18.33385334189244 97.65431998647844,18.33385334189244 97.65434132733286,18.040772204988297 97.7075227365463,18.040772204988297 97.70754407740071,18.33385334189244 99.99997865914558,18.33385334189244 99.99997865914558,18.62693447879658" fill="black" stroke="black" stroke-width="0.1" />
<!-- assembly contigs before -->
<polygon points="0,0 105.31575074564945,0 105.31575074564945,1.3025828306850755 0,1.3025828306850755" fill="grey" stroke="grey" stroke-width="0" />
<polygon points="107.31575074564945,0 108.66692560236696,0 108.66692560236696,1.3025828306850755 107.31575074564945,1.3025828306850755" fill="grey" stroke="grey" stroke-width="0" />
<!-- assembly contigs after -->
<polygon points="0,31.261987936441813 100.1363253780319,31.261987936441813 100.1363253780319,32.56457076712689 0,32.56457076712689" fill="grey" stroke="grey" stroke-width="0" />
<polygon points="102.1363253780319,31.261987936441813 103.64266958723374,31.261987936441813 103.64266958723374,32.56457076712689 102.1363253780319,32.56457076712689" fill="grey" stroke="grey" stroke-width="0" />
<!-- hits before vs ref -->
<polygon points="31.24951983077556,1.5630993968220905 34.109855889478276,1.5630993968220905 2.778536563712694,14.067894571398815 0.07174795255842699,14.067894571398815" fill="lightblue" fill-opacity="0.5" stroke="blue" stroke-width="0.1" />
<polygon points="34.12118788317504,1.5630993968220905 34.57764741835416,1.5630993968220905 3.2238348320304033,14.067894571398815 2.7874997225688927,14.067894571398815" fill="lightblue" fill-opacity="0.5" stroke="blue" stroke-width="0.1" />
<polygon points="34.58343078990185,1.5630993968220905 35.25039651307511,1.5630993968220905 3.889221331976624,14.067894571398815 3.231176085950718,14.067894571398815" fill="lightblue" fill-opacity="0.5" stroke="blue" stroke-width="0.1" />
<polygon points="35.29102949988988,1.5630993968220905 35.680094616812156,1.5630993968220905 4.2835362990861,14.067894571398815 3.9164309213615125,14.067894571398815" fill="lightblue" fill-opacity="0.5" stroke="blue" stroke-width="0.1" />
<polygon points="35.69277108433735,1.5630993968220905 36.667685336784295,1.5630993968220905 5.221338805697496,14.067894571398815 4.2983255111988266,14.067894571398815" fill="lightblue" fill-opacity="0.5" stroke="blue" stroke-width="0.1" />
<polygon points="36.714293762836526,1.5630993968220905 37.294743662193056,1.5630993968220905 5.811114658435357,14.067894571398815 5.253947631250523,14.067894571398815" fill="lightblue" fill-opacity="0.5" stroke="blue" stroke-width="0.1" />
<polygon points="37.30362145763157,1.5630993968220905 37.74089556468754,1.5630993968220905 6.223612033510263,14.067894571398815 5.817986413558442,14.067894571398815" fill="lightblue" fill-opacity="0.5" stroke="blue" stroke-width="0.1" />
<polygon points="37.747874024082726,1.5630993968220905 38.70198094347064,1.5630993968220905 7.1306410280487125,14.067894571398815 6.228499089172334,14.067894571398815" fill="lightblue" fill-opacity="0.5" stroke="blue" stroke-width="0.1" />
<polygon points="17.185043134134954,1.5630993968220905 17.306792708598316,1.5630993968220905 6.393954733486874,14.067894571398815 6.273741700541716,14.067894571398815" fill="lightblue" fill-opacity="0.5" stroke="blue" stroke-width="0.1" />
<polygon points="20.766443981964418,1.5630993968220905 20.88774539848497,1.5630993968220905 6.393954733486874,14.067894571398815 6.273763041396136,14.067894571398815" fill="lightblue" fill-opacity="0.5" stroke="blue" stroke-width="0.1" />
<polygon points="38.729574668235074,1.5630993968220905 39.7097174300148,1.5630993968220905 8.079583460667097,14.067894571398815 7.154926920378125,14.067894571398815" fill="lightblue" fill-opacity="0.5" stroke="blue" stroke-width="0.1" />
<polygon points="39.74862180762159,1.5630993968220905 42.60859507179917,1.5630993968220905 10.839638844452487,14.067894571398815 8.105533939641235,14.067894571398815" fill="lightblue" fill-opacity="0.5" stroke="blue" stroke-width="0.1" />
<polygon points="42.622509308880694,1.5630993968220905 42.91483633271928,1.5630993968220905 11.124774000351698,14.067894571398815 10.849199547232432,14.067894571398815" fill="lightblue" fill-opacity="0.5" stroke="blue" stroke-width="0.1" />
<polygon points="42.92744877768122,1.5630993968220905 44.307092334194365,1.5630993968220905 12.478317691909767,14.067894571398815 11.1343987256949,14.067894571398815" fill="lightblue" fill-opacity="0.5" stroke="blue" stroke-width="0.1" />
<polygon points="44.3581823396747,1.5630993968220905 46.44849768921228,1.5630993968220905 14.514597998057129,14.067894571398815 12.522023761760945,14.067894571398815" fill="lightblue" fill-opacity="0.5" stroke="blue" stroke-width="0.1" />
<polygon points="46.45812241455549,1.5630993968220905 47.15818780293343,1.5630993968220905 15.19552064002076,14.067894571398815 14.521811206850927,14.067894571398815" fill="lightblue" fill-opacity="0.5" stroke="blue" stroke-width="0.1" />
<polygon points="47.16552905685374,1.5630993968220905 49.48039287659352,1.5630993968220905 17.399177267380416,14.067894571398815 15.200578422518186,14.067894571398815" fill="lightblue" fill-opacity="0.5" stroke="blue" stroke-width="0.1" />
<polygon points="49.49159682516377,1.5630993968220905 50.844713699633445,1.5630993968220905 18.702655314470295,14.067894571398815 17.407756290857066,14.067894571398815" fill="lightblue" fill-opacity="0.5" stroke="blue" stroke-width="0.1" />
<polygon points="50.92378156525777,1.5630993968220905 52.93645888641714,1.5630993968220905 20.717210630818585,14.067894571398815 18.768086374120543,14.067894571398815" fill="lightblue" fill-opacity="0.5" stroke="blue" stroke-width="0.1" />
<polygon points="52.94341600495791,1.5630993968220905 53.305847735564626,1.5630993968220905 21.066539076811708,14.067894571398815 20.72348484201792,14.067894571398815" fill="lightblue" fill-opacity="0.5" stroke="blue" stroke-width="0.1" />
<polygon points="53.31233535530815,1.5630993968220905 53.88439829887781,1.5630993968220905 21.619630000802417,14.067894571398815 21.073154741681762,14.067894571398815" fill="lightblue" fill-opacity="0.5" stroke="blue" stroke-width="0.1" />
<polygon points="53.96602706703248,1.5630993968220905 55.394370453330964,1.5630993968220905 23.043918624761194,14.067894571398815 21.683673904915395,14.067894571398815" fill="lightblue" fill-opacity="0.5" stroke="blue" stroke-width="0.1" />
<polygon points="55.40267204570016,1.5630993968220905 55.691819282230234,1.5630993968220905 23.32531913113699,14.067894571398815 23.04989406399866,14.067894571398815" fill="lightblue" fill-opacity="0.5" stroke="blue" stroke-width="0.1" />
<polygon points="55.76636288671762,1.5630993968220905 56.19283852143732,1.5630993968220905 23.793345409411486,14.067894571398815 23.385457658891198,14.067894571398815" fill="lightblue" fill-opacity="0.5" stroke="blue" stroke-width="0.1" />
<polygon points="56.200435865610665,1.5630993968220905 56.3517852051539,1.5630993968220905 23.942496640949514,14.067894571398815 23.798275146782398,14.067894571398815" fill="lightblue" fill-opacity="0.5" stroke="blue" stroke-width="0.1" />
<polygon points="56.387701863141956,1.5630993968220905 56.50119252694496,1.5630993968220905 24.077861680532532,14.067894571398815 23.975425579318834,14.067894571398815" fill="lightblue" fill-opacity="0.5" stroke="blue" stroke-width="0.1" />
<polygon points="56.50893925709925,1.5630993968220905 57.25757643013602,1.5630993968220905 24.805776883927948,14.067894571398815 24.086462044863598,14.067894571398815" fill="lightblue" fill-opacity="0.5" stroke="blue" stroke-width="0.1" />
<polygon points="57.2672865188969,1.5630993968220905 59.00991666823167,1.5630993968220905 26.463769204634893,14.067894571398815 24.808572535856904,14.067894571398815" fill="lightblue" fill-opacity="0.5" stroke="blue" stroke-width="0.1" />
<polygon points="59.01518785927328,1.5630993968220905 59.50666773655483,1.5630993968220905 26.941356185689333,14.067894571398815 26.469744643872357,14.067894571398815" fill="lightblue" fill-opacity="0.5" stroke="blue" stroke-width="0.1" />
<polygon points="59.58439112835073,1.5630993968220905 60.3686675282681,1.5630993968220905 27.754378716509798,14.067894571398815 27.00738478926333,14.067894571398815" fill="lightblue" fill-opacity="0.5" stroke="blue" stroke-width="0.1" />
<polygon points="60.380725111015124,1.5630993968220905 62.30816705962293,1.5630993968220905 29.610712938191764,14.067894571398815 27.76402478270742,14.067894571398815" fill="lightblue" fill-opacity="0.5" stroke="blue" stroke-width="0.1" />
<polygon points="62.33475776422966,1.5630993968220905 63.97507985747724,1.5630993968220905 31.18018339476654,14.067894571398815 29.63006909315027,14.067894571398815" fill="lightblue" fill-opacity="0.5" stroke="blue" stroke-width="0.1" />
<polygon points="64.02179498780157,1.5630993968220905 65.32787661913062,1.5630993968220905 32.47664030075239,14.067894571398815 31.217764639399316,14.067894571398815" fill="lightblue" fill-opacity="0.5" stroke="blue" stroke-width="0.1" />
<polygon points="65.36150980569579,1.5630993968220905 66.40563244902523,1.5630993968220905 33.50678468443706,14.067894571398815 32.5040846395359,14.067894571398815" fill="lightblue" fill-opacity="0.5" stroke="blue" stroke-width="0.1" />
<polygon points="66.41165056997154,1.5630993968220905 67.72059187579282,1.5630993968220905 34.76659934338459,14.067894571398815 33.51331498588943,14.067894571398815" fill="lightblue" fill-opacity="0.5" stroke="blue" stroke-width="0.1" />
<polygon points="67.73634142635441,1.5630993968220905 68.58107646684228,1.5630993968220905 35.57537504417557,14.067894571398815 34.77778195110042,14.067894571398815" fill="lightblue" fill-opacity="0.5" stroke="blue" stroke-width="0.1" />
<polygon points="68.64226069646305,1.5630993968220905 68.75833360365083,1.5630993968220905 35.731056577165965,14.067894571398815 35.62153531228499,14.067894571398815" fill="lightblue" fill-opacity="0.5" stroke="blue" stroke-width="0.1" />
<polygon points="68.86535798856471,1.5630993968220905 69.31797616994831,1.5630993968220905 36.25205085610971,14.067894571398815 35.815694405793785,14.067894571398815" fill="lightblue" fill-opacity="0.5" stroke="blue" stroke-width="0.1" />
<polygon points="69.328134416652,1.5630993968220905 69.64700946338847,1.5630993968220905 36.56759672955674,14.067894571398815 36.26182496743385,14.067894571398815" fill="lightblue" fill-opacity="0.5" stroke="blue" stroke-width="0.1" />
<polygon points="69.74901874751379,1.5630993968220905 70.24150164495306,1.5630993968220905 37.132062328953054,14.067894571398815 36.65684418273918,14.067894571398815" fill="lightblue" fill-opacity="0.5" stroke="blue" stroke-width="0.1" />
<polygon points="70.25754996747654,1.5630993968220905 71.4125596903698,1.5630993968220905 38.23000660712853,14.067894571398815 37.14454672878847,14.067894571398815" fill="lightblue" fill-opacity="0.5" stroke="blue" stroke-width="0.1" />
<polygon points="71.42077591932133,1.5630993968220905 71.58749067404662,1.5630993968220905 38.39443789043093,14.067894571398815 38.23649422687206,14.067894571398815" fill="lightblue" fill-opacity="0.5" stroke="blue" stroke-width="0.1" />
<polygon points="71.61465758172267,1.5630993968220905 72.178717704885,1.5630993968220905 38.94710199733324,14.067894571398815 38.414178180768985,14.067894571398815" fill="lightblue" fill-opacity="0.5" stroke="blue" stroke-width="0.1" />
<polygon points="72.2112838487292,1.5630993968220905 75.70653166726706,1.5630993968220905 42.30971640565379,14.067894571398815 38.96502831504564,14.067894571398815" fill="lightblue" fill-opacity="0.5" stroke="blue" stroke-width="0.1" />
<polygon points="75.7298572211476,1.5630993968220905 76.27212833194761,1.5630993968220905 42.842064019148715,14.067894571398815 42.32454829947535,14.067894571398815" fill="lightblue" fill-opacity="0.5" stroke="blue" stroke-width="0.1" />
<polygon points="76.29319175525967,1.5630993968220905 76.48737218962289,1.5630993968220905 43.04531431664023,14.067894571398815 42.85952083806389,14.067894571398815" fill="lightblue" fill-opacity="0.5" stroke="blue" stroke-width="0.1" />
<polygon points="76.42853545398826,1.5630993968220905 76.9245822741156,1.5630993968220905 43.466241329210845,14.067894571398815 42.98880373413734,14.067894571398815" fill="lightblue" fill-opacity="0.5" stroke="blue" stroke-width="0.1" />
<polygon points="76.93273448050385,1.5630993968220905 78.77020338687896,1.5630993968220905 45.22681913711243,14.067894571398815 43.472878334935324,14.067894571398815" fill="lightblue" fill-opacity="0.5" stroke="blue" stroke-width="0.1" />
<polygon points="78.7889406570593,1.5630993968220905 81.39504311706227,1.5630993968220905 47.71674198565553,14.067894571398815 45.248864239727794,14.067894571398815" fill="lightblue" fill-opacity="0.5" stroke="blue" stroke-width="0.1" />
<polygon points="81.40456113813337,1.5630993968220905 82.51575808690338,1.5630993968220905 48.76812051948762,14.067894571398815 47.72658011954293,14.067894571398815" fill="lightblue" fill-opacity="0.5" stroke="blue" stroke-width="0.1" />
<polygon points="82.5409402951184,1.5630993968220905 84.59614993913588,1.5630993968220905 50.76669153587569,14.067894571398815 48.797485535168875,14.067894571398815" fill="lightblue" fill-opacity="0.5" stroke="blue" stroke-width="0.1" />
<polygon points="13.187303557435069,1.5630993968220905 13.328942808217425,1.5630993968220905 50.10230805608718,14.067894571398815 49.96845821716795,14.067894571398815" fill="lightblue" fill-opacity="0.5" stroke="blue" stroke-width="0.1" />
<polygon points="84.60191196982916,1.5630993968220905 85.43516563063933,1.5630993968220905 51.556772648195164,14.067894571398815 50.77202674948057,14.067894571398815" fill="lightblue" fill-opacity="0.5" stroke="blue" stroke-width="0.1" />
<polygon points="85.59840182609423,1.5630993968220905 88.45077774609847,1.5630993968220905 54.405157828422944,14.067894571398815 51.695189429960166,14.067894571398815" fill="lightblue" fill-opacity="0.5" stroke="blue" stroke-width="0.1" />
<polygon points="88.47764588181263,1.5630993968220905 88.82740114489415,1.5630993968220905 54.77446131415274,14.067894571398815 54.433925300180455,14.067894571398815" fill="lightblue" fill-opacity="0.5" stroke="blue" stroke-width="0.1" />
<polygon points="88.84507137235352,1.5630993968220905 91.56596628827909,1.5630993968220905 57.40570330066191,14.067894571398815 54.79106449889113,14.067894571398815" fill="lightblue" fill-opacity="0.5" stroke="blue" stroke-width="0.1" />
<polygon points="91.57249658973146,1.5630993968220905 91.76864038270126,1.5630993968220905 57.59905144170276,14.067894571398815 57.41195617100683,14.067894571398815" fill="lightblue" fill-opacity="0.5" stroke="blue" stroke-width="0.1" />
<polygon points="91.78261864234607,1.5630993968220905 93.12171457546212,1.5630993968220905 58.901505127780496,14.067894571398815 57.61224008973402,14.067894571398815" fill="lightblue" fill-opacity="0.5" stroke="blue" stroke-width="0.1" />
<polygon points="3.340227852034466,1.5630993968220905 3.4623188801685414,1.5630993968220905 58.77341731955454,14.067894571398815 58.658923635593816,14.067894571398815" fill="lightblue" fill-opacity="0.5" stroke="blue" stroke-width="0.1" />
<polygon points="15.166475737155793,1.5630993968220905 15.044448731584977,1.5630993968220905 58.77614894892024,14.067894571398815 58.659713247207335,14.067894571398815" fill="pink" fill-opacity="0.5" stroke="orchid" stroke-width="0.1" />
<polygon points="21.878195792949324,1.5630993968220905 21.76035159484473,1.5630993968220905 58.77360938724431,14.067894571398815 58.66571002729922,14.067894571398815" fill="pink" fill-opacity="0.5" stroke="orchid" stroke-width="0.1" />
<polygon points="93.12862901229404,1.5630993968220905 93.45926286981567,1.5630993968220905 59.22230085141472,14.067894571398815 58.9066482736956,14.067894571398815" fill="lightblue" fill-opacity="0.5" stroke="blue" stroke-width="0.1" />
<polygon points="93.47386001423862,1.5630993968220905 93.914868770818,1.5630993968220905 59.66008713897676,14.067894571398815 59.2377943117233,14.067894571398815" fill="lightblue" fill-opacity="0.5" stroke="blue" stroke-width="0.1" />
<polygon points="93.98885751309048,1.5630993968220905 94.31889382668837,1.5630993968220905 60.01236062287979,14.067894571398815 59.71529592936007,14.067894571398815" fill="lightblue" fill-opacity="0.5" stroke="blue" stroke-width="0.1" />
<polygon points="94.3414511098098,1.5630993968220905 96.32947974411462,1.5630993968220905 61.94780539189492,14.067894571398815 60.02565597518315,14.067894571398815" fill="lightblue" fill-opacity="0.5" stroke="blue" stroke-width="0.1" />
<polygon points="96.41332796112891,1.5630993968220905 96.66167148400888,1.5630993968220905 62.24028180171444,14.067894571398815 62.007410398288634,14.067894571398815" fill="lightblue" fill-opacity="0.5" stroke="blue" stroke-width="0.1" />
<polygon points="96.6935120388028,1.5630993968220905 97.24606944143301,1.5630993968220905 62.783129115583776,14.067894571398815 62.26356467388614,14.067894571398815" fill="lightblue" fill-opacity="0.5" stroke="blue" stroke-width="0.1" />
<polygon points="97.2546911466185,1.5630993968220905 98.80706757880324,1.5630993968220905 64.27735171947532,14.067894571398815 62.7915800939339,14.067894571398815" fill="lightblue" fill-opacity="0.5" stroke="blue" stroke-width="0.1" />
<polygon points="98.89004082078634,1.5630993968220905 99.6102519757363,1.5630993968220905 65.0337569635208,14.067894571398815 64.3490356494705,14.067894571398815" fill="lightblue" fill-opacity="0.5" stroke="blue" stroke-width="0.1" />
<polygon points="99.77658259508205,1.5630993968220905 101.8269478651463,1.5630993968220905 67.14319371861828,14.067894571398815 65.18365512496351,14.067894571398815" fill="lightblue" fill-opacity="0.5" stroke="blue" stroke-width="0.1" />
<polygon points="101.8675168293978,1.5630993968220905 102.52005613498348,1.5630993968220905 67.78851981541014,14.067894571398815 67.17672020091133,14.067894571398815" fill="lightblue" fill-opacity="0.5" stroke="blue" stroke-width="0.1" />
<polygon points="102.53151617380675,1.5630993968220905 103.47273321712527,1.5630993968220905 68.70071329671812,14.067894571398815 67.79628788641885,14.067894571398815" fill="lightblue" fill-opacity="0.5" stroke="blue" stroke-width="0.1" />
<polygon points="103.49319909651359,1.5630993968220905 104.58568011595767,1.5630993968220905 69.73203142739585,14.067894571398815 68.7129416063005,14.067894571398815" fill="lightblue" fill-opacity="0.5" stroke="blue" stroke-width="0.1" />
<polygon points="104.59372561807382,1.5630993968220905 104.74419998258585,1.5630993968220905 69.88139606747808,14.067894571398815 69.73794284407006,14.067894571398815" fill="lightblue" fill-opacity="0.5" stroke="blue" stroke-width="0.1" />
<polygon points="104.807539638503,1.5630993968220905 105.31575074564945,1.5630993968220905 70.41081998391753,14.067894571398815 69.93395859191335,14.067894571398815" fill="lightblue" fill-opacity="0.5" stroke="blue" stroke-width="0.1" />
<polygon points="6.402256325856067e-05,1.5630993968220905 2.1188694127509042,1.5630993968220905 72.4363018177286,14.067894571398815 70.41088400648079,14.067894571398815" fill="lightblue" fill-opacity="0.5" stroke="blue" stroke-width="0.1" />
<polygon points="2.2496461686337246,1.5630993968220905 2.4842034995586713,1.5630993968220905 72.76682897097815,14.067894571398815 72.54516151612259,14.067894571398815" fill="lightblue" fill-opacity="0.5" stroke="blue" stroke-width="0.1" />
<polygon points="2.500529253189604,1.5630993968220905 3.244962277905728,1.5630993968220905 73.49724105434065,14.067894571398815 72.77790487442188,14.067894571398815" fill="lightblue" fill-opacity="0.5" stroke="blue" stroke-width="0.1" />
<polygon points="3.250169446384091,1.5630993968220905 3.510250439194784,1.5630993968220905 73.75109051766084,14.067894571398815 73.50296040332508,14.067894571398815" fill="lightblue" fill-opacity="0.5" stroke="blue" stroke-width="0.1" />
<polygon points="21.882122510162514,1.5630993968220905 21.758388236238137,1.5630993968220905 73.70962523752371,14.067894571398815 73.5962412779928,14.067894571398815" fill="pink" fill-opacity="0.5" stroke="orchid" stroke-width="0.1" />
<polygon points="15.166390373738114,1.5630993968220905 15.048396789652587,1.5630993968220905 73.7064454502152,14.067894571398815 73.5962412779928,14.067894571398815" fill="pink" fill-opacity="0.5" stroke="orchid" stroke-width="0.1" />
<polygon points="92.86692611454747,1.5630993968220905 92.98496238034184,1.5630993968220905 73.70759785635386,14.067894571398815 73.59993324580738,14.067894571398815" fill="lightblue" fill-opacity="0.5" stroke="blue" stroke-width="0.1" />
<polygon points="3.5640934148952335,1.5630993968220905 4.27284453102192,1.5630993968220905 74.46521952910123,14.067894571398815 73.79646117415673,14.067894571398815" fill="lightblue" fill-opacity="0.5" stroke="blue" stroke-width="0.1" />
<polygon points="4.281615622188342,1.5630993968220905 4.560775338850086,1.5630993968220905 74.74064459623958,14.067894571398815 74.47450280077373,14.067894571398815" fill="lightblue" fill-opacity="0.5" stroke="blue" stroke-width="0.1" />
<polygon points="4.594003049181279,1.5630993968220905 4.906710588990509,1.5630993968220905 75.06479083401766,14.067894571398815 74.76559205505599,14.067894571398815" fill="lightblue" fill-opacity="0.5" stroke="blue" stroke-width="0.1" />
<polygon points="4.9123232337028435,1.5630993968220905 5.0257925566514325,1.5630993968220905 75.17505902880332,14.067894571398815 75.06203786379754,14.067894571398815" fill="lightblue" fill-opacity="0.5" stroke="blue" stroke-width="0.1" />
<polygon points="5.051444263663695,1.5630993968220905 6.135388941339967,1.5630993968220905 76.24199504550724,14.067894571398815 75.19644256493169,14.067894571398815" fill="lightblue" fill-opacity="0.5" stroke="blue" stroke-width="0.1" />
<polygon points="6.146635571619054,1.5630993968220905 7.388758662252809,1.5630993968220905 77.43447930876118,14.067894571398815 76.25010457018665,14.067894571398815" fill="lightblue" fill-opacity="0.5" stroke="blue" stroke-width="0.1" />
<polygon points="7.39627064300848,1.5630993968220905 8.788804075591013,1.5630993968220905 78.77643491636945,14.067894571398815 77.43968647723955,14.067894571398815" fill="lightblue" fill-opacity="0.5" stroke="blue" stroke-width="0.1" />
<polygon points="8.87085966083407,1.5630993968220905 12.560821435095633,1.5630993968220905 82.35422915980202,14.067894571398815 78.84069222902663,14.067894571398815" fill="lightblue" fill-opacity="0.5" stroke="blue" stroke-width="0.1" />
<polygon points="12.674184053772125,1.5630993968220905 13.58223740932271,1.5630993968220905 83.31520783431303,14.067894571398815 82.46722898395339,14.067894571398815" fill="lightblue" fill-opacity="0.5" stroke="blue" stroke-width="0.1" />
<polygon points="83.7478936576688,1.5630993968220905 83.8843257399728,1.5630993968220905 83.08513208281617,14.067894571398815 82.9505779957011,14.067894571398815" fill="lightblue" fill-opacity="0.5" stroke="blue" stroke-width="0.1" />
<polygon points="13.599630205674618,1.5630993968220905 14.437856285564534,1.5630993968220905 84.14528170781468,14.067894571398815 83.32989034215365,14.067894571398815" fill="lightblue" fill-opacity="0.5" stroke="blue" stroke-width="0.1" />
<polygon points="14.45273086109494,1.5630993968220905 14.652182486499775,1.5630993968220905 84.35337637925942,14.067894571398815 84.16045505530695,14.067894571398815" fill="lightblue" fill-opacity="0.5" stroke="blue" stroke-width="0.1" />
<polygon points="14.663621184468639,1.5630993968220905 15.306898559236236,1.5630993968220905 84.97810855153647,14.067894571398815 84.36466569124735,14.067894571398815" fill="lightblue" fill-opacity="0.5" stroke="blue" stroke-width="0.1" />
<polygon points="92.98754462372659,1.5630993968220905 92.86037447224066,1.5630993968220905 84.8428075345167,14.067894571398815 84.7268199907466,14.067894571398815" fill="pink" fill-opacity="0.5" stroke="orchid" stroke-width="0.1" />
<polygon points="21.76190947721736,1.5630993968220905 21.878195792949324,1.5630993968220905 84.8368961178425,14.067894571398815 84.73034123172583,14.067894571398815" fill="lightblue" fill-opacity="0.5" stroke="blue" stroke-width="0.1" />
<polygon points="3.4612091557387266,1.5630993968220905 3.3410601453568276,1.5630993968220905 84.84285021622554,14.067894571398815 84.73036257258025,14.067894571398815" fill="pink" fill-opacity="0.5" stroke="orchid" stroke-width="0.1" />
<polygon points="15.487804982150509,1.5630993968220905 15.612905070757737,1.5630993968220905 85.24892399412016,14.067894571398815 85.13069566063602,14.067894571398815" fill="lightblue" fill-opacity="0.5" stroke="blue" stroke-width="0.1" />
<polygon points="15.669501016678305,1.5630993968220905 17.133867765236943,1.5630993968220905 86.70050757088151,14.067894571398815 85.29196849748433,14.067894571398815" fill="lightblue" fill-opacity="0.5" stroke="blue" stroke-width="0.1" />
<polygon points="17.17138498730646,1.5630993968220905 17.63755461124646,1.5630993968220905 87.16836312232066,14.067894571398815 86.73049147134094,14.067894571398815" fill="lightblue" fill-opacity="0.5" stroke="blue" stroke-width="0.1" />
<polygon points="20.76332821721917,1.5630993968220905 20.888983168041303,1.5630993968220905 86.86233526994474,14.067894571398815 86.7409484900065,14.067894571398815" fill="lightblue" fill-opacity="0.5" stroke="blue" stroke-width="0.1" />
<polygon points="37.796936648393206,1.5630993968220905 37.91953985703335,1.5630993968220905 86.86116152295166,14.067894571398815 86.74528068345367,14.067894571398815" fill="lightblue" fill-opacity="0.5" stroke="blue" stroke-width="0.1" />
<polygon points="17.65622785886354,1.5630993968220905 19.799916685304346,1.5630993968220905 89.22632573655825,14.067894571398815 87.18464619424275,14.067894571398815" fill="lightblue" fill-opacity="0.5" stroke="blue" stroke-width="0.1" />
<polygon points="19.818739318902363,1.5630993968220905 20.315063570137145,1.5630993968220905 89.7098241342869,14.067894571398815 89.23915159006438,14.067894571398815" fill="lightblue" fill-opacity="0.5" stroke="blue" stroke-width="0.1" />
<polygon points="20.394131435761466,1.5630993968220905 20.911476428599475,1.5630993968220905 90.26709786574384,14.067894571398815 89.77307842678636,14.067894571398815" fill="lightblue" fill-opacity="0.5" stroke="blue" stroke-width="0.1" />
<polygon points="17.181799324263185,1.5630993968220905 17.30785975131929,1.5630993968220905 90.24515946740057,14.067894571398815 90.12385805088002,14.067894571398815" fill="lightblue" fill-opacity="0.5" stroke="blue" stroke-width="0.1" />
<polygon points="37.796936648393206,1.5630993968220905 37.91953985703335,1.5630993968220905 90.24419912895169,14.067894571398815 90.12838231201695,14.067894571398815" fill="lightblue" fill-opacity="0.5" stroke="blue" stroke-width="0.1" />
<polygon points="21.060158161340272,1.5630993968220905 23.012803659017532,1.5630993968220905 92.24688893024272,14.067894571398815 90.3911522524845,14.067894571398815" fill="lightblue" fill-opacity="0.5" stroke="blue" stroke-width="0.1" />
<polygon points="3.4645169881737523,1.5630993968220905 3.3474837425371033,1.5630993968220905 91.16488627031863,14.067894571398815 91.0523559449645,14.067894571398815" fill="pink" fill-opacity="0.5" stroke="orchid" stroke-width="0.1" />
<polygon points="92.98496238034184,1.5630993968220905 92.86692611454747,1.5630993968220905 91.16219732266177,14.067894571398815 91.05453271211529,14.067894571398815" fill="pink" fill-opacity="0.5" stroke="orchid" stroke-width="0.1" />
<polygon points="15.048396789652587,1.5630993968220905 15.166390373738114,1.5630993968220905 91.16588929047634,14.067894571398815 91.05568511825395,14.067894571398815" fill="lightblue" fill-opacity="0.5" stroke="blue" stroke-width="0.1" />
<polygon points="23.021681454456054,1.5630993968220905 23.47425695413082,1.5630993968220905 92.67208411369724,14.067894571398815 92.25303509631554,14.067894571398815" fill="lightblue" fill-opacity="0.5" stroke="blue" stroke-width="0.1" />
<polygon points="23.481683571468814,1.5630993968220905 26.045168345196004,1.5630993968220905 95.09132605240289,14.067894571398815 92.67801687122586,14.067894571398815" fill="lightblue" fill-opacity="0.5" stroke="blue" stroke-width="0.1" />
<polygon points="26.055646704715986,1.5630993968220905 28.58063257707036,1.5630993968220905 97.51067469538064,14.067894571398815 95.09651188002684,14.067894571398815" fill="lightblue" fill-opacity="0.5" stroke="blue" stroke-width="0.1" />
<polygon points="28.587547013902284,1.5630993968220905 28.90576049415175,1.5630993968220905 97.82536693465089,14.067894571398815 97.51684220230788,14.067894571398815" fill="lightblue" fill-opacity="0.5" stroke="blue" stroke-width="0.1" />
<polygon points="28.920699092245417,1.5630993968220905 30.551524505276312,1.5630993968220905 99.40407798118932,14.067894571398815 97.83955860283987,14.067894571398815" fill="lightblue" fill-opacity="0.5" stroke="blue" stroke-width="0.1" />
<polygon points="30.634241657006374,1.5630993968220905 31.173631752459748,1.5630993968220905 99.99997865914558,14.067894571398815 99.48231355349128,14.067894571398815" fill="lightblue" fill-opacity="0.5" stroke="blue" stroke-width="0.1" />
<polygon points="108.49197327783573,1.5630993968220905 108.54856922375629,1.5630993968220905 97.70754407740073,14.067894571398815 97.65434132733286,14.067894571398815" fill="lightblue" fill-opacity="0.5" stroke="blue" stroke-width="0.1" />
<!-- hits after vs ref -->
<polygon points="0.0,19.27822589413912 94.5843740556672,19.27822589413912 100.1363253780319,31.0014713703048 5.5515458461307325,31.0014713703048" fill="lightblue" fill-opacity="0.5" stroke="blue" stroke-width="0.1" />
<polygon points="58.65975592891618,19.27822589413912 58.77617028977466,19.27822589413912 90.27825913260524,31.0014713703048 90.39465215260931,31.0014713703048" fill="pink" fill-opacity="0.5" stroke="orchid" stroke-width="0.1" />
<polygon points="58.65977726977059,19.27822589413912 58.773694750661996,19.27822589413912 96.6060572173916,31.0014713703048 96.71771256771453,31.0014713703048" fill="pink" fill-opacity="0.5" stroke="orchid" stroke-width="0.1" />
<polygon points="73.59097008695117,19.27822589413912 73.70778992404362,19.27822589413912 90.28084137599001,31.0014713703048 90.39465215260931,31.0014713703048" fill="pink" fill-opacity="0.5" stroke="orchid" stroke-width="0.1" />
<polygon points="73.59617725542954,19.27822589413912 73.70778992404362,19.27822589413912 90.28084137599001,31.0014713703048 90.39467349346373,31.0014713703048" fill="pink" fill-opacity="0.5" stroke="orchid" stroke-width="0.1" />
<polygon points="73.59621993713839,19.27822589413912 73.70973194179581,19.27822589413912 96.6042005630571,31.0014713703048 96.71771256771453,31.0014713703048" fill="pink" fill-opacity="0.5" stroke="orchid" stroke-width="0.1" />
<polygon points="84.72647853707589,19.27822589413912 84.84285021622553,19.27822589413912 64.21145116102784,31.0014713703048 64.32788686274074,31.0014713703048" fill="pink" fill-opacity="0.5" stroke="orchid" stroke-width="0.1" />
<polygon points="84.72906078046066,19.27822589413912 84.84287155707996,19.27822589413912 79.14795785095889,31.0014713703048 79.25957051957297,31.0014713703048" fill="pink" fill-opacity="0.5" stroke="orchid" stroke-width="0.1" />
<polygon points="91.05239862667334,19.27822589413912 91.16591063133076,19.27822589413912 79.14800053266772,31.0014713703048 79.26151253732515,31.0014713703048" fill="pink" fill-opacity="0.5" stroke="orchid" stroke-width="0.1" />
<polygon points="91.05425528100784,19.27822589413912 91.16591063133077,19.27822589413912 64.21147250188227,31.0014713703048 64.32541132362809,31.0014713703048" fill="pink" fill-opacity="0.5" stroke="orchid" stroke-width="0.1" />
<polygon points="94.44849683557811,19.27822589413912 100.0,19.27822589413912 5.5515458461307325,31.0014713703048 0.0,31.0014713703048" fill="lightblue" fill-opacity="0.5" stroke="blue" stroke-width="0.1" />
<polygon points="97.65434132733286,19.27822589413912 97.70754407740073,19.27822589413912 102.57024897094401,31.0014713703048 102.51693951660404,31.0014713703048" fill="lightblue" fill-opacity="0.5" stroke="blue" stroke-width="0.1" />
</svg>
