<?xml version="1.0" standalone="no"?>
<!DOCTYPE svg PUBLIC " -//W3C//DTD SVG 1.0//EN" "http://www.w3.org/TR/2001/REC-SVG-20010904/DTD/svg10.dtd">
<svg width="141.3434089514144" height="42.40302268542432">
<!-- reference contigs -->
<polygon points="3.47355254460302e-05,20.183838798261974 3.47355254460302e-05,20.045065269473312 1.5985983520772018,20.045065269473312 1.5986330876026478,20.183838798261974 1.6269078053157164,20.183838798261974 1.6269425408411624,20.045065269473312 1.9111138745151355,20.045065269473312 1.9111486100405815,20.183838798261974 1.9222987137087573,20.183838798261974 1.9223334492342032,20.045065269473312 2.6520573678044057,20.045065269473312 2.6520921033298515,20.183838798261974 2.837371396058977,20.183838798261974 2.8374061315844226,20.045065269473312 3.071975134921465,20.045065269473312 3.0720098704469105,20.183838798261974 3.1168186982722896,20.183838798261974 3.116853433797736,20.045065269473312 3.319708902402552,20.045065269473312 3.3197436379279983,20.183838798261974 3.3533328910343094,20.183838798261974 3.353367626559755,20.045065269473312 3.8101050506496064,20.045065269473312 3.8101397861750526,20.183838798261974 3.8676965518391246,20.183838798261974 3.8677312873645704,20.045065269473312 4.178753182208325,20.045065269473312 4.178787917733771,20.183838798261974 4.319779415519208,20.183838798261974 4.319814151044653,20.045065269473312 5.152042605206091,20.045065269473312 5.1520773407315374,20.183838798261974 5.160726486567599,20.183838798261974 5.160761222093044,20.045065269473312 7.383035933553718,20.045065269473312 7.3830706690791645,20.183838798261974 7.408427602654767,20.183838798261974 7.408462338180213,20.045065269473312 7.7822165919794974,20.045065269473312 7.782251327504944,20.183838798261974 7.807017757147963,20.183838798261974 7.807052492673409,20.045065269473312 8.101019244523163,20.045065269473312 8.10105398004861,20.183838798261974 8.138012579123185,20.183838798261974 8.138047314648631,20.045065269473312 9.401482581697087,20.045065269473312 9.401517317222533,20.183838798261974 9.424442764016913,20.183838798261974 9.424477499542359,20.045065269473312 9.738382442998134,20.045065269473312 9.73841717852358,20.183838798261974 9.79976011646127,20.183838798261974 9.799794851986716,20.045065269473312 10.288905785792267,20.045065269473312 10.288940521317713,20.183838798261974 10.303946268310398,20.183838798261974 10.303981003835844,20.045065269473312 11.186749647521255,20.045065269473312 11.186784383046701,19.90629174068465 11.186819118572148,19.90629174068465 11.186853854097594,19.62874468310733 11.201338568208588,19.62874468310733 11.201373303734034,19.489971154318667 11.229300666192643,19.489971154318667 11.229335401718089,19.62874468310733 11.229648021447103,19.62874468310733 11.229682756972549,19.90629174068465 11.310164969431002,19.90629174068465 11.310199704956446,19.76751821189599 11.328887417646412,19.76751821189599 11.328922153171858,19.90629174068465 11.344066842266326,19.90629174068465 11.344101577791772,19.62874468310733 11.396691163317062,19.62874468310733 11.396725898842508,19.212424096741344 11.397073254096968,19.212424096741344 11.397107989622414,19.073650567952683 11.422360716621679,19.073650567952683 11.422395452147125,18.93487703916402 11.434761299205912,18.93487703916402 11.434796034731358,18.79610351037536 11.586520809879618,18.79610351037536 11.586555545405064,18.93487703916402 11.593988947850514,18.93487703916402 11.59402368337596,19.073650567952683 11.61205142108245,19.073650567952683 11.612086156607896,18.93487703916402 11.62017953403682,18.93487703916402 11.620214269562267,19.073650567952683 11.63497686787683,19.073650567952683 11.635011603402274,19.212424096741344 11.673637507698261,19.212424096741344 11.673672243223708,19.351197625530006 11.673706978749152,19.351197625530006 11.673706978749152,19.489971154318667 11.674575366885303,19.489971154318667 11.67461010241075,20.045065269473312 12.272686379540497,20.045065269473312 12.272721115065943,19.90629174068465 12.272790586116836,19.90629174068465 12.272825321642282,19.76751821189599 12.272860057167728,19.76751821189599 12.272894792693174,19.489971154318667 12.4017288565725,19.489971154318667 12.401763592097947,19.62874468310733 12.416665132514293,19.62874468310733 12.41669986803974,19.76751821189599 12.522087452242994,19.76751821189599 12.52212218776844,19.90629174068465 12.55432201985691,19.90629174068465 12.554356755382356,20.045065269473312 12.586591322996272,20.045065269473312 12.586626058521718,20.183838798261974 12.669261873557824,20.183838798261974 12.66929660908327,20.045065269473312 13.516530810237393,20.045065269473312 13.51656554576284,20.183838798261974 13.591246925471804,20.183838798261974 13.59128166099725,20.045065269473312 13.918837665953316,20.045065269473312 13.91887240147876,20.183838798261974 13.928459406501865,20.183838798261974 13.928494142027311,20.045065269473312 14.608094697378892,20.045065269473312 14.608129432904338,20.183838798261974 14.620668957590356,20.183838798261974 14.6207036931158,20.045065269473312 15.152191967965509,20.045065269473312 15.152226703490955,20.183838798261974 15.177861521270126,20.183838798261974 15.177896256795572,20.045065269473312 16.951665863697105,20.045065269473312 16.951700599222548,20.183838798261974 16.976223880187447,20.183838798261974 16.976258615712894,20.045065269473312 17.448279670998996,20.045065269473312 17.448314406524442,19.90629174068465 17.45029433147487,19.90629174068465 17.450329067000315,19.76751821189599 17.450363802525757,19.76751821189599 17.450363802525757,19.62874468310733 17.450745893305665,19.62874468310733 17.45078062883111,19.489971154318667 17.628695990165678,19.489971154318667 17.628730725691124,19.62874468310733 17.62876546121657,19.62874468310733 17.62876546121657,19.76751821189599 17.633385286100893,19.76751821189599 17.63342002162634,19.90629174068465 17.63803984651066,19.90629174068465 17.638074582036108,20.045065269473312 17.896402684778234,20.045065269473312 17.89643742030368,20.183838798261974 17.9015088070188,20.183838798261974 17.901543542544246,20.045065269473312 18.998109345349974,20.045065269473312 18.99814408087542,19.76751821189599 18.998526171655325,19.76751821189599 18.99856090718077,19.62874468310733 19.175503673802847,19.62874468310733 19.175538409328293,19.76751821189599 19.17557314485374,19.76751821189599 19.17557314485374,19.90629174068465 19.180331911839847,19.90629174068465 19.180366647365293,20.045065269473312 19.535502659525505,20.045065269473312 19.53553739505095,20.183838798261974 19.744020018778023,20.183838798261974 19.74405475430347,20.045065269473312 20.75854051048023,20.045065269473312 20.758575246005677,20.183838798261974 20.813075285430497,20.183838798261974 20.813110020955943,20.045065269473312 21.97258186034443,20.045065269473312 21.972616595869876,19.90629174068465 21.97574279316002,19.90629174068465 21.975777528685466,20.045065269473312 22.817245632615546,20.045065269473312 22.81728036814099,20.183838798261974 22.846388738464768,20.183838798261974 22.846423473990214,20.045065269473312 23.722245012586416,20.045065269473312 23.722279748111863,20.183838798261974 23.82398536661784,20.183838798261974 23.824020102143287,20.045065269473312 24.56798558614636,20.045065269473312 24.568020321671806,20.183838798261974 24.579795664798013,20.183838798261974 24.579830400323456,20.045065269473312 26.81839607321832,20.045065269473312 26.818430808743766,20.183838798261974 26.837326934586407,20.183838798261974 26.837361670111854,20.045065269473312 27.046469533296953,20.045065269473312 27.0465042688224,20.183838798261974 27.056334422523626,20.183838798261974 27.056369158049073,20.045065269473312 27.2341803128073,20.045065269473312 27.234215048332747,20.183838798261974 27.29114657453879,20.183838798261974 27.291181310064236,20.045065269473312 28.53599833547362,20.045065269473312 28.536033070999068,20.183838798261974 28.569657059630824,20.183838798261974 28.56969179515627,20.045065269473312 28.771435726946812,20.045065269473312 28.77147046247226,20.183838798261974 28.937992571460526,20.183838798261974 28.938027306985973,20.045065269473312 29.270272607877253,20.045065269473312 29.2703073434027,20.183838798261974 29.3429045915849,20.183838798261974 29.342939327110347,20.045065269473312 30.590361516928184,20.045065269473312 30.59039625245363,20.183838798261974 30.61453744263862,20.183838798261974 30.614572178164067,20.045065269473312 31.405118001790267,20.045065269473312 31.405152737315714,20.183838798261974 31.425264606548968,20.183838798261974 31.425299342074414,20.045065269473312 31.66584285578817,20.045065269473312 31.665877591313617,20.183838798261974 31.682550643527712,20.183838798261974 31.682585379053158,20.045065269473312 35.346766487303995,20.045065269473312 35.34680122282944,20.183838798261974 35.400745493847126,20.183838798261974 35.40078022937257,20.045065269473312 35.812569883535254,20.045065269473312 35.8126046190607,20.183838798261974 35.92705817540537,20.183838798261974 35.92709291093082,20.045065269473312 37.848627443079764,20.045065269473312 37.84866217860521,19.90629174068465 37.958252761387435,19.90629174068465 37.95828749691288,19.76751821189599 38.06652339420271,19.76751821189599 38.06655812972816,19.90629174068465 38.09914005259653,19.90629174068465 38.09917478812198,19.76751821189599 38.16482493121497,19.76751821189599 38.16485966674042,19.62874468310733 38.38143566789642,19.62874468310733 38.381470403421865,19.489971154318667 38.389633251901685,19.489971154318667 38.38966798742713,19.62874468310733 38.42832862724856,19.62874468310733 38.42836336277401,19.489971154318667 38.42839809829945,19.489971154318667 38.42839809829945,19.351197625530006 38.42850230487579,19.351197625530006 38.42853704040124,19.212424096741344 38.428571775926684,19.212424096741344 38.428571775926684,19.073650567952683 38.45406765160407,19.073650567952683 38.45410238712952,18.93487703916402 38.466468234188305,18.93487703916402 38.46650296971375,18.79610351037536 38.61822774486201,18.79610351037536 38.61826248038746,18.93487703916402 38.62569588283291,18.93487703916402 38.625730618358354,19.073650567952683 38.64375835606484,19.073650567952683 38.64379309159029,18.93487703916402 38.65188646901921,18.93487703916402 38.65192120454466,19.073650567952683 38.66668380285922,19.073650567952683 38.666718538384664,19.212424096741344 38.705344442680655,19.212424096741344 38.7053791782061,19.351197625530006 38.71791870289211,19.351197625530006 38.71795343841756,19.212424096741344 38.81615076885349,19.212424096741344 38.816185504378936,19.351197625530006 38.854672466573135,19.351197625530006 38.85470720209858,19.212424096741344 38.85793760596506,19.212424096741344 38.85797234149051,19.351197625530006 38.98350653045246,19.351197625530006 38.983541265977905,19.489971154318667 38.999415401106745,19.489971154318667 38.99945013663219,19.351197625530006 39.06023730616274,19.351197625530006 39.06027204168819,19.489971154318667 39.06867803884613,19.489971154318667 39.068712774371576,19.62874468310733 39.11115958646662,19.62874468310733 39.111194321992066,19.489971154318667 39.13120198464898,19.489971154318667 39.13123672017443,19.62874468310733 39.194906938317004,19.62874468310733 39.19494167384245,19.489971154318667 39.352953579096436,19.489971154318667 39.35298831462188,19.62874468310733 39.4280865206362,19.62874468310733 39.428121256161646,19.76751821189599 39.54847985183214,19.76751821189599 39.54851458735759,19.90629174068465 39.58071441944606,19.90629174068465 39.58074915497151,20.045065269473312 40.76592528319006,20.045065269473312 40.765960018715504,20.183838798261974 40.77676276712921,20.183838798261974 40.77679750265466,20.045065269473312 44.051871254859066,20.045065269473312 44.05190599038451,20.183838798261974 44.06621702686827,20.183838798261974 44.06625176239372,20.045065269473312 44.940023904988614,20.045065269473312 44.94005864051406,20.183838798261974 44.950062471842514,20.183838798261974 44.95009720736796,20.045065269473312 45.953676008554666,20.045065269473312 45.95371074408011,20.183838798261974 46.06691382150872,20.183838798261974 46.066948557034166,20.045065269473312 46.95819266892841,20.045065269473312 46.95822740445386,20.183838798261974 46.98427904853838,20.183838798261974 46.98431378406383,20.045065269473312 48.33496995550727,20.045065269473312 48.33500469103271,20.183838798261974 48.38794163181246,20.183838798261974 48.387976367337906,20.045065269473312 49.180502115914535,20.045065269473312 49.18053685143998,20.183838798261974 49.20676217315173,20.183838798261974 49.20679690867718,20.045065269473312 50.549846000047935,20.045065269473312 50.54988073557338,19.90629174068465 50.558043584053195,19.90629174068465 50.55807831957864,20.045065269473312 51.7126177143538,20.045065269473312 51.71265244987924,20.183838798261974 51.72765819687193,20.183838798261974 51.727692932397375,20.045065269473312 54.02760154322993,20.045065269473312 54.027636278755374,20.183838798261974 54.05511207938318,20.183838798261974 54.055146814908625,20.045065269473312 54.68299143734562,20.045065269473312 54.68302617287107,20.183838798261974 54.777888892864176,20.183838798261974 54.77792362838962,20.045065269473312 55.76392625370064,20.045065269473312 55.763960989226085,20.183838798261974 55.869973812887366,20.183838798261974 55.87000854841281,20.045065269473312 59.6159570835636,20.045065269473312 59.61599181908905,20.183838798261974 59.65829968908231,20.183838798261974 59.65833442460776,20.045065269473312 61.90075574082713,20.045065269473312 61.900790476352576,20.183838798261974 61.935734414951284,20.183838798261974 61.93576915047673,20.045065269473312 64.37948283665584,20.045065269473312 64.37951757218129,20.183838798261974 64.4187687159353,20.183838798261974 64.41880345146075,20.045065269473312 64.86887165466496,20.045065269473312 64.8689063901904,20.183838798261974 64.90228723014404,20.183838798261974 64.90232196566949,20.045065269473312 65.45291477951451,20.045065269473312 65.45294951503996,20.183838798261974 65.4693446830505,20.183838798261974 65.46937941857594,20.045065269473312 66.00201396576536,20.045065269473312 66.0020487012908,20.183838798261974 66.08232250059659,20.183838798261974 66.08235723612204,20.045065269473312 66.79196928545898,20.045065269473312 66.79200402098442,20.183838798261974 66.84188423552493,20.183838798261974 66.84191897105038,20.045065269473312 67.6929393444781,20.045065269473312 67.69297408000355,20.183838798261974 67.78040339755121,20.183838798261974 67.78043813307666,20.045065269473312 67.96554374817856,20.045065269473312 67.96557848370401,20.183838798261974 67.97627702554138,20.183838798261974 67.97631176106682,20.045065269473312 68.0145555745829,20.045065269473312 68.01459031010835,19.90629174068465 68.01472925221013,19.90629174068465 68.01476398773558,19.76751821189599 68.01490292983736,19.76751821189599 68.01493766536281,19.62874468310733 68.01875857316188,19.62874468310733 68.01879330868732,19.489971154318667 68.19681287659823,19.489971154318667 68.19684761212368,19.90629174068465 68.19775073578526,19.90629174068465 68.19778547131071,20.045065269473312 68.83559918955072,20.045065269473312 68.83563392507617,19.90629174068465 68.86786849269008,19.90629174068465 68.86790322821552,19.76751821189599 68.900103060304,19.76751821189599 68.90013779582945,19.62874468310733 68.93799951856562,19.62874468310733 68.93803425409106,19.76751821189599 69.02049639149993,19.76751821189599 69.02053112702538,19.62874468310733 69.0956293330397,19.62874468310733 69.09566406856514,19.489971154318667 69.25367597381914,19.489971154318667 69.25371070934459,19.62874468310733 69.3174851340635,19.62874468310733 69.31751986958895,19.489971154318667 69.33752753224586,19.489971154318667 69.3375622677713,19.62874468310733 69.38000907986635,19.62874468310733 69.3800438153918,19.489971154318667 69.38844981254974,19.489971154318667 69.38848454807518,19.351197625530006 69.4492369820803,19.351197625530006 69.44927171760574,19.489971154318667 69.46514585273457,19.489971154318667 69.46518058826001,19.351197625530006 69.59071477722198,19.351197625530006 69.59074951274742,19.212424096741344 69.5939799166139,19.212424096741344 69.59401465213935,19.351197625530006 69.63250161433355,19.351197625530006 69.632536349859,19.212424096741344 69.73073368029492,19.212424096741344 69.73076841582036,19.351197625530006 69.74330794050638,19.351197625530006 69.74334267603183,19.212424096741344 69.78193384480237,19.212424096741344 69.78196858032781,19.073650567952683 69.79673117864237,19.073650567952683 69.79676591416782,18.93487703916402 69.80485929159674,18.93487703916402 69.80489402712219,19.073650567952683 69.82292176482868,19.073650567952683 69.82295650035412,18.93487703916402 69.83038990279958,18.93487703916402 69.83042463832503,18.79610351037536 69.93417965283231,18.79610351037536 69.93421438835776,18.6573299815867 69.98214941347328,18.6573299815867 69.98218414899873,18.79610351037536 69.99454999605751,18.79610351037536 69.99458473158296,18.93487703916402 70.01983745858223,18.93487703916402 70.01987219410768,19.073650567952683 70.02021954936214,19.073650567952683 70.02025428488759,19.489971154318667 70.07284387041287,19.489971154318667 70.07287860593831,19.76751821189599 70.07291334146376,19.76751821189599 70.07291334146376,19.90629174068465 70.14155073974511,19.90629174068465 70.14158547527056,20.045065269473312 70.19618972127172,20.045065269473312 70.19622445679717,19.90629174068465 70.19643286994985,19.90629174068465 70.19646760547529,19.76751821189599 70.19660654757708,19.76751821189599 70.19664128310252,19.62874468310733 70.2392617728248,19.62874468310733 70.23929650835025,19.90629174068465 70.2393312438757,19.90629174068465 70.2393312438757,20.045065269473312 70.60183118743046,20.045065269473312 70.60186592295591,20.183838798261974 70.63239844982297,20.183838798261974 70.63243318534842,20.045065269473312 73.86189919264218,20.045065269473312 73.86193392816763,19.90629174068465 73.879718517196,19.90629174068465 73.87975325272144,20.045065269473312 75.73230303133457,20.045065269473312 75.73233776686001,19.90629174068465 75.73688812069345,19.90629174068465 75.7369228562189,19.76751821189599 75.73695759174434,19.76751821189599 75.73695759174434,19.62874468310733 75.73716600489702,19.62874468310733 75.73720074042247,19.489971154318667 75.9084468808714,19.489971154318667 75.90848161639684,19.62874468310733 75.92116008318463,19.62874468310733 75.92119481871008,19.76751821189599 75.92161164501543,19.76751821189599 75.92164638054088,19.90629174068465 75.92168111606632,19.90629174068465 75.92171585159177,20.045065269473312 76.47665060611754,20.045065269473312 76.47668534164299,20.183838798261974 76.48800912293841,20.183838798261974 76.48804385846385,20.045065269473312 78.12957531999234,20.045065269473312 78.12961005551779,20.183838798261974 78.14093383681319,20.183838798261974 78.14096857233864,20.045065269473312 78.39943561718255,20.045065269473312 78.399470352708,20.183838798261974 78.41906118905956,20.183838798261974 78.41909592458501,20.045065269473312 79.78322947990151,20.045065269473312 79.78326421542695,19.76751821189599 79.7832989509524,19.76751821189599 79.7832989509524,19.62874468310733 79.78340315752874,19.62874468310733 79.78343789305418,19.489971154318667 79.95478824007945,19.489971154318667 79.9548229756049,19.62874468310733 79.96750144239269,19.62874468310733 79.96753617791813,19.76751821189599 79.96795300422349,19.76751821189599 79.96798773974893,19.90629174068465 79.96802247527438,19.90629174068465 79.96805721079983,20.045065269473312 80.0020632902115,20.045065269473312 80.00209802573694,20.183838798261974 80.0938345484399,20.183838798261974 80.09386928396535,20.045065269473312 80.89393264156377,20.045065269473312 80.89396737708921,20.183838798261974 80.91835171595233,20.183838798261974 80.91838645147777,20.045065269473312 82.27119622549887,20.045065269473312 82.27123096102432,20.183838798261974 82.2818600318108,20.183838798261974 82.28189476733624,20.045065269473312 83.67065581019398,20.045065269473312 83.67069054571942,20.183838798261974 83.76951311561338,20.183838798261974 83.76954785113882,20.045065269473312 87.27866957379858,20.045065269473312 87.27870430932403,20.183838798261974 87.29357111421493,20.183838798261974 87.29360584974037,20.045065269473312 88.64467884748916,20.045065269473312 88.6447135830146,20.183838798261974 88.7415214924327,20.183838798261974 88.74155622795814,20.045065269473312 90.4017059311257,20.045065269473312 90.40174066665115,20.183838798261974 90.46099947306207,20.183838798261974 90.46103420858752,20.045065269473312 90.748748565857,20.045065269473312 90.74878330138245,20.183838798261974 90.78372723998115,20.183838798261974 90.7837619755066,20.045065269473312 91.07811081813625,20.045065269473312 91.0781455536617,20.183838798261974 91.08203593251166,20.183838798261974 91.0820706680371,20.045065269473312 91.34817952847914,20.045065269473312 91.34821426400458,20.183838798261974 91.35474454278844,20.183838798261974 91.35477927831388,20.045065269473312 92.78539662933409,20.045065269473312 92.78543136485953,20.183838798261974 92.84764269093337,20.183838798261974 92.84767742645882,20.045065269473312 94.99402027929446,20.045065269473312 94.9940550148199,20.183838798261974 95.01468791693486,20.183838798261974 95.01472265246029,20.045065269473312 95.26929931845426,20.045065269473312 95.2693340539797,20.183838798261974 95.3179290540787,20.183838798261974 95.31796378960415,20.045065269473312 97.65920767571747,20.045065269473312 97.65924241124291,20.183838798261974 97.67855536339091,20.183838798261974 97.67859009891636,20.045065269473312 99.99996526447455,20.045065269473312 99.99996526447455,20.183838798261974" fill="black" stroke="black" stroke-width="0.1" />
<polygon points="3.47355254460302e-05,22.21918388716234 3.47355254460302e-05,22.21918388716234 3.63000135121194,22.21918388716234 3.6300360867373858,20.692675070487066 3.6526489138027514,20.692675070487066 3.6526836493281976,22.21918388716234 9.175666930772445,22.21918388716234 9.175701666297892,20.692675070487066 9.195327238174897,20.692675070487066 9.195361973700344,22.21918388716234 11.186784383046701,22.21918388716234 11.186819118572148,20.692675070487066 11.229682756972549,20.692675070487066 11.229717492497995,22.21918388716234 11.310130233905555,22.21918388716234 11.310164969431002,20.692675070487066 11.325761220356268,20.692675070487066 11.325795955881715,22.21918388716234 11.344066842266326,22.21918388716234 11.344101577791772,20.692675070487066 11.674575366885303,20.692675070487066 11.67461010241075,22.21918388716234 15.526050428341133,22.21918388716234 15.526085163866577,20.692675070487066 15.586768126820793,20.692675070487066 15.58680286234624,22.21918388716234 17.45029433147487,22.21918388716234 17.450329067000315,20.692675070487066 17.63803984651066,20.692675070487066 17.638074582036108,22.21918388716234 18.998109345349974,22.21918388716234 18.99814408087542,20.692675070487066 19.18484753014783,20.692675070487066 19.184882265673277,22.21918388716234 38.42836336277401,22.21918388716234 38.42839809829945,20.692675070487066 39.58071441944606,20.692675070487066 39.58074915497151,22.21918388716234 49.77055448666625,22.21918388716234 49.770589222191695,20.692675070487066 49.78125302850363,20.692675070487066 49.781287764029074,22.21918388716234 50.32635762932818,22.21918388716234 50.326392364853625,20.692675070487066 50.343412772322175,20.692675070487066 50.34344750784762,22.21918388716234 64.97026465344193,22.21918388716234 64.97029938896738,20.692675070487066 64.98989022531893,20.692675070487066 64.98992496084438,22.21918388716234 65.90312192482051,22.21918388716234 65.90315666034596,20.692675070487066 65.96383962330017,20.692675070487066 65.96387435882562,22.21918388716234 67.8750229688662,22.21918388716234 67.87505770439165,20.692675070487066 67.92802938069684,20.692675070487066 67.92806411622229,22.21918388716234 68.86786849269008,22.21918388716234 68.86790322821552,20.692675070487066 70.07284387041287,20.692675070487066 70.07287860593831,22.21918388716234 70.1963981344244,22.21918388716234 70.19643286994985,20.692675070487066 70.23929650835025,20.692675070487066 70.2393312438757,22.21918388716234 73.86189919264218,22.21918388716234 73.86193392816763,20.692675070487066 73.8775301790929,20.692675070487066 73.87756491461835,22.21918388716234 75.73688812069345,22.21918388716234 75.7369228562189,20.692675070487066 75.92168111606632,20.692675070487066 75.92171585159177,22.21918388716234 78.46185535640907,22.21918388716234 78.46189009193452,20.692675070487066 78.48446818347443,20.692675070487066 78.48450291899988,22.21918388716234 79.71132694222823,22.21918388716234 79.71136167775367,20.692675070487066 79.76436808958431,20.692675070487066 79.76440282510976,22.21918388716234 79.78322947990151,22.21918388716234 79.78326421542695,20.692675070487066 79.96802247527438,20.692675070487066 79.96805721079983,22.21918388716234 80.69034772692459,22.21918388716234 80.69038246245003,20.692675070487066 80.71862244463765,20.692675070487066 80.71865718016309,22.21918388716234 86.26064079402633,22.21918388716234 86.26067552955178,20.692675070487066 86.27512550813732,20.692675070487066 86.27516024366277,22.21918388716234 91.53672396060018,22.21918388716234 91.53675869612563,20.692675070487066 91.58045598713674,20.692675070487066 91.58049072266219,22.21918388716234 91.65843724176308,22.21918388716234 91.65847197728853,20.692675070487066 91.70216926829963,20.692675070487066 91.70220400382507,22.21918388716234 99.64364824444918,22.21918388716234 99.64368297997463,20.692675070487066 99.65615303360974,20.692675070487066 99.65618776913519,22.21918388716234 99.6779322080644,22.21918388716234 99.67796694358985,20.692675070487066 99.69040226169953,20.692675070487066 99.69043699722498,22.21918388716234 99.99996526447455,22.21918388716234 99.99996526447455,22.21918388716234" fill="blue" stroke="blue" stroke-width="0.1" />
<polygon points="3.47355254460302e-05,24.25452897606271 3.47355254460302e-05,24.115755447274047 11.344066842266326,24.115755447274047 11.344101577791772,23.976981918485386 11.396691163317062,23.976981918485386 11.396725898842508,23.838208389696725 11.674575366885303,23.838208389696725 11.67461010241075,24.115755447274047 12.243404331589494,24.115755447274047 12.24343906711494,23.838208389696725 12.433199242626603,23.838208389696725 12.43323397815205,23.976981918485386 12.473874542923905,23.976981918485386 12.47390927844935,23.838208389696725 12.55432201985691,23.838208389696725 12.554356755382356,23.976981918485386 12.635985240180528,23.976981918485386 12.636019975705974,24.115755447274047 17.448279670998996,24.115755447274047 17.448314406524442,23.976981918485386 17.44939120781327,23.976981918485386 17.449425943338717,23.838208389696725 17.628730725691124,23.838208389696725 17.62876546121657,23.976981918485386 17.63803984651066,23.976981918485386 17.638074582036108,24.115755447274047 18.998109345349974,24.115755447274047 18.99814408087542,23.560661332119402 18.998178816400866,23.560661332119402 18.99821355192631,23.42188780333074 19.175538409328293,23.42188780333074 19.17557314485374,23.838208389696725 19.180192969738062,23.838208389696725 19.18022770526351,23.976981918485386 19.18484753014783,23.976981918485386 19.184882265673277,24.115755447274047 38.42836336277401,24.115755447274047 38.42839809829945,23.838208389696725 38.706282301867695,23.838208389696725 38.70631703739314,23.976981918485386 38.89902973256772,23.976981918485386 38.899064468093165,23.838208389696725 38.981978167332834,23.838208389696725 38.98201290285828,23.976981918485386 39.26927569829695,23.976981918485386 39.2693104338224,23.838208389696725 39.45959164221575,23.838208389696725 39.459626377741195,23.976981918485386 39.58071441944606,23.976981918485386 39.58074915497151,24.115755447274047 44.32471880723763,24.115755447274047 44.32475354276308,23.976981918485386 45.019741935887254,23.976981918485386 45.0197766714127,24.115755447274047 68.00555907349238,24.115755447274047 68.00559380901782,23.976981918485386 68.0145555745829,23.976981918485386 68.01459031010835,23.838208389696725 68.01472925221013,23.838208389696725 68.01476398773558,23.42188780333074 68.19681287659823,23.42188780333074 68.19684761212368,23.838208389696725 68.19775073578526,23.838208389696725 68.19778547131071,24.115755447274047 68.86786849269008,24.115755447274047 68.86790322821552,23.976981918485386 68.98899126992039,23.976981918485386 68.98902600544584,23.838208389696725 69.1793072138392,23.838208389696725 69.17934194936464,23.976981918485386 69.4666742158542,23.976981918485386 69.46670895137964,23.838208389696725 69.54962265061931,23.838208389696725 69.54965738614476,23.976981918485386 69.74237008131934,23.976981918485386 69.74240481684478,23.838208389696725 70.02021954936214,23.838208389696725 70.02025428488759,23.976981918485386 70.07284387041287,23.976981918485386 70.07287860593831,24.115755447274047 74.71014072403423,24.115755447274047 74.71017545955968,23.976981918485386 74.80722651765589,23.976981918485386 74.80726125318134,23.838208389696725 74.80750440185946,23.838208389696725 74.80753913738491,23.976981918485386 74.94384133923514,23.976981918485386 74.94387607476058,24.115755447274047 75.73230303133457,24.115755447274047 75.73233776686001,23.838208389696725 75.73688812069345,23.838208389696725 75.7369228562189,23.560661332119402 75.9215074384391,23.560661332119402 75.92154217396454,23.699434860908063 75.92157690948999,23.699434860908063 75.92161164501543,23.838208389696725 75.92164638054088,23.838208389696725 75.92164638054088,24.115755447274047 79.76513227114413,24.115755447274047 79.76516700666957,23.976981918485386 79.78322947990151,23.976981918485386 79.78326421542695,23.699434860908063 79.96784879764715,23.699434860908063 79.9678835331726,23.838208389696725 79.96791826869804,23.838208389696725 79.96795300422349,23.976981918485386 79.96798773974893,23.976981918485386 79.96798773974893,24.115755447274047 99.99996526447455,24.115755447274047 99.99996526447455,24.25452897606271" fill="black" stroke="black" stroke-width="0.1" />
<!-- assembly contigs before -->
<polygon points="0,0 28.705889790430156,0 28.705889790430156,1.6961209074169727 0,1.6961209074169727" fill="grey" stroke="grey" stroke-width="0" />
<polygon points="30.705889790430156,0 31.489627451068934,0 31.489627451068934,1.6961209074169727 30.705889790430156,1.6961209074169727" fill="grey" stroke="grey" stroke-width="0" />
<polygon points="33.489627451068934,0 34.22230388930205,0 34.22230388930205,1.6961209074169727 33.489627451068934,1.6961209074169727" fill="grey" stroke="grey" stroke-width="0" />
<polygon points="36.22230388930205,0 36.94327445545985,0 36.94327445545985,1.6961209074169727 36.22230388930205,1.6961209074169727" fill="grey" stroke="grey" stroke-width="0" />
<polygon points="38.94327445545985,0 39.64798879570891,0 39.64798879570891,1.6961209074169727 38.94327445545985,1.6961209074169727" fill="grey" stroke="grey" stroke-width="0" />
<polygon points="41.64798879570891,0 42.34429713880003,0 42.34429713880003,1.6961209074169727 41.64798879570891,1.6961209074169727" fill="grey" stroke="grey" stroke-width="0" />
<polygon points="44.34429713880003,0 45.189377737376496,0 45.189377737376496,1.6961209074169727 44.34429713880003,1.6961209074169727" fill="grey" stroke="grey" stroke-width="0" />
<polygon points="47.189377737376496,0 47.842301409185524,0 47.842301409185524,1.6961209074169727 47.189377737376496,1.6961209074169727" fill="grey" stroke="grey" stroke-width="0" />
<polygon points="49.842301409185524,0 50.5083898451386,0 50.5083898451386,1.6961209074169727 49.842301409185524,1.6961209074169727" fill="grey" stroke="grey" stroke-width="0" />
<polygon points="52.5083898451386,0 84.14442962009409,0 84.14442962009409,1.6961209074169727 52.5083898451386,1.6961209074169727" fill="grey" stroke="grey" stroke-width="0" />
<polygon points="86.14442962009409,0 86.8657822770318,0 86.8657822770318,1.6961209074169727 86.14442962009409,1.6961209074169727" fill="grey" stroke="grey" stroke-width="0" />
<polygon points="88.8657822770318,0 89.50581906890035,0 89.50581906890035,1.6961209074169727 88.8657822770318,1.6961209074169727" fill="grey" stroke="grey" stroke-width="0" />
<polygon points="91.50581906890035,0 92.11601804441077,0 92.11601804441077,1.6961209074169727 91.50581906890035,1.6961209074169727" fill="grey" stroke="grey" stroke-width="0" />
<polygon points="94.11601804441077,0 138.10932520336783,0 138.10932520336783,1.6961209074169727 94.11601804441077,1.6961209074169727" fill="grey" stroke="grey" stroke-width="0" />
<polygon points="140.10932520336783,0 141.3434089514144,0 141.3434089514144,1.6961209074169727 140.10932520336783,1.6961209074169727" fill="grey" stroke="grey" stroke-width="0" />
<!-- assembly contigs after -->
<polygon points="0,40.70690177800734 100.3144607118629,40.70690177800734 100.3144607118629,42.40302268542432 0,42.40302268542432" fill="grey" stroke="grey" stroke-width="0" />
<polygon points="102.3144607118629,40.70690177800734 102.54836974021647,40.70690177800734 102.54836974021647,42.40302268542432 102.3144607118629,42.40302268542432" fill="grey" stroke="grey" stroke-width="0" />
<polygon points="104.54836974021647,40.70690177800734 106.16503056552561,40.70690177800734 106.16503056552561,42.40302268542432 104.54836974021647,42.40302268542432" fill="grey" stroke="grey" stroke-width="0" />
<!-- hits before vs ref -->
<polygon points="0.0,2.0353450889003675 1.264060506506485,2.0353450889003675 12.41669986803974,18.318105800103304 11.201373303734034,18.318105800103304" fill="lightblue" fill-opacity="0.5" stroke="blue" stroke-width="0.1" />
<polygon points="1.5559083913040306,2.0353450889003675 2.428152170779295,2.0353450889003675 13.51656554576284,18.318105800103304 12.66929660908327,18.318105800103304" fill="lightblue" fill-opacity="0.5" stroke="blue" stroke-width="0.1" />
<polygon points="2.537603811459736,2.0353450889003675 2.8817633975790033,2.0353450889003675 13.918872401478762,18.318105800103304 13.59128166099725,18.318105800103304" fill="lightblue" fill-opacity="0.5" stroke="blue" stroke-width="0.1" />
<polygon points="2.8910030473476476,2.0353450889003675 3.605755954450611,2.0353450889003675 14.608129432904338,18.318105800103304 13.928494142027311,18.318105800103304" fill="lightblue" fill-opacity="0.5" stroke="blue" stroke-width="0.1" />
<polygon points="3.6181912725602894,2.0353450889003675 4.167498871963811,2.0353450889003675 15.152226703490955,18.318105800103304 14.6207036931158,18.318105800103304" fill="lightblue" fill-opacity="0.5" stroke="blue" stroke-width="0.1" />
<polygon points="4.220505283794453,2.0353450889003675 6.052977928699776,2.0353450889003675 16.95170059922255,18.318105800103304 15.177896256795572,18.318105800103304" fill="lightblue" fill-opacity="0.5" stroke="blue" stroke-width="0.1" />
<polygon points="6.087782925196699,2.0353450889003675 7.040578388181307,2.0353450889003675 17.89643742030368,18.318105800103304 16.976258615712894,18.318105800103304" fill="lightblue" fill-opacity="0.5" stroke="blue" stroke-width="0.1" />
<polygon points="8.374040474528961,2.0353450889003675 8.567656293365133,2.0353450889003675 17.638074582036104,18.318105800103304 17.448314406524442,18.318105800103304" fill="lightblue" fill-opacity="0.5" stroke="blue" stroke-width="0.1" />
<polygon points="8.184905538475325,2.0353450889003675 8.372512111409334,2.0353450889003675 17.62873072569112,18.318105800103304 17.450363802525757,18.318105800103304" fill="lightblue" fill-opacity="0.5" stroke="blue" stroke-width="0.1" />
<polygon points="7.05752932459897,2.0353450889003675 8.372512111409335,2.0353450889003675 19.175538409328297,18.318105800103304 17.901543542544246,18.318105800103304" fill="lightblue" fill-opacity="0.5" stroke="blue" stroke-width="0.1" />
<polygon points="8.376194077106614,2.0353450889003675 8.92529326335746,2.0353450889003675 19.53553739505095,18.318105800103304 18.99814408087542,18.318105800103304" fill="lightblue" fill-opacity="0.5" stroke="blue" stroke-width="0.1" />
<polygon points="9.11227459683344,2.0353450889003675 10.165316786255293,2.0353450889003675 20.758575246005673,18.318105800103304 19.74405475430347,18.318105800103304" fill="lightblue" fill-opacity="0.5" stroke="blue" stroke-width="0.1" />
<polygon points="10.236802497623222,2.0353450889003675 11.453518482946768,2.0353450889003675 21.975777528685466,18.318105800103304 20.813110020955943,18.318105800103304" fill="lightblue" fill-opacity="0.5" stroke="blue" stroke-width="0.1" />
<polygon points="11.453518482946768,2.0353450889003675 12.347089875045894,2.0353450889003675 22.81728036814099,18.318105800103304 21.972616595869876,18.318105800103304" fill="lightblue" fill-opacity="0.5" stroke="blue" stroke-width="0.1" />
<polygon points="12.387626233241411,2.0353450889003675 13.309020781222808,2.0353450889003675 23.722279748111866,18.318105800103304 22.846423473990214,18.318105800103304" fill="lightblue" fill-opacity="0.5" stroke="blue" stroke-width="0.1" />
<polygon points="13.42510690726344,2.0353450889003675 14.188420078939954,2.0353450889003675 24.568020321671806,18.318105800103304 23.824020102143287,18.318105800103304" fill="lightblue" fill-opacity="0.5" stroke="blue" stroke-width="0.1" />
<polygon points="14.204502627221467,2.0353450889003675 16.522438975760508,2.0353450889003675 26.818430808743763,18.318105800103304 24.579830400323456,18.318105800103304" fill="lightblue" fill-opacity="0.5" stroke="blue" stroke-width="0.1" />
<polygon points="16.542759258146436,2.0353450889003675 16.760828886896615,2.0353450889003675 27.046504268822403,18.318105800103304 26.837361670111854,18.318105800103304" fill="lightblue" fill-opacity="0.5" stroke="blue" stroke-width="0.1" />
<polygon points="16.77388944446432,2.0353450889003675 16.96663687516434,2.0353450889003675 27.234215048332747,18.318105800103304 27.056369158049073,18.318105800103304" fill="lightblue" fill-opacity="0.5" stroke="blue" stroke-width="0.1" />
<polygon points="17.03447535636044,2.0353450889003675 18.323371763560836,2.0353450889003675 28.536033070999064,18.318105800103304 27.291181310064236,18.318105800103304" fill="lightblue" fill-opacity="0.5" stroke="blue" stroke-width="0.1" />
<polygon points="18.36682590589382,2.0353450889003675 18.576246388807935,2.0353450889003675 28.77147046247226,18.318105800103304 28.56969179515627,18.318105800103304" fill="lightblue" fill-opacity="0.5" stroke="blue" stroke-width="0.1" />
<polygon points="18.765971828794154,2.0353450889003675 19.10829043206478,2.0353450889003675 29.2703073434027,18.318105800103304 28.938027306985973,18.318105800103304" fill="lightblue" fill-opacity="0.5" stroke="blue" stroke-width="0.1" />
<polygon points="19.21826310562691,2.0353450889003675 20.513550849509375,2.0353450889003675 30.59039625245363,18.318105800103304 29.342939327110347,18.318105800103304" fill="lightblue" fill-opacity="0.5" stroke="blue" stroke-width="0.1" />
<polygon points="20.538352014677844,2.0353450889003675 21.374331905587454,2.0353450889003675 31.405152737315714,18.318105800103304 30.614572178164067,18.318105800103304" fill="lightblue" fill-opacity="0.5" stroke="blue" stroke-width="0.1" />
<polygon points="21.40111299570634,2.0353450889003675 21.64228174887813,2.0353450889003675 31.66587759131362,18.318105800103304 31.425299342074414,18.318105800103304" fill="lightblue" fill-opacity="0.5" stroke="blue" stroke-width="0.1" />
<polygon points="21.66833339296265,2.0353450889003675 25.48656655656663,2.0353450889003675 35.34680122282944,18.318105800103304 31.682585379053158,18.318105800103304" fill="lightblue" fill-opacity="0.5" stroke="blue" stroke-width="0.1" />
<polygon points="25.556002871933245,2.0353450889003675 25.985820263802424,2.0353450889003675 35.81260461906071,18.318105800103304 35.40078022937257,18.318105800103304" fill="lightblue" fill-opacity="0.5" stroke="blue" stroke-width="0.1" />
<polygon points="26.11611321975048,2.0353450889003675 28.705889790430156,2.0353450889003675 38.38966798742713,18.318105800103304 35.92709291093082,18.318105800103304" fill="lightblue" fill-opacity="0.5" stroke="blue" stroke-width="0.1" />
<polygon points="0.20212602257044973,2.0353450889003675 0.4958843612675271,2.0353450889003675 38.7053791782061,18.318105800103304 38.42853704040124,18.318105800103304" fill="lightblue" fill-opacity="0.5" stroke="blue" stroke-width="0.1" />
<polygon points="8.372685789036565,2.0353450889003675 8.184975009526218,2.0353450889003675 68.19684761212366,18.318105800103304 68.01459031010835,18.318105800103304" fill="pink" fill-opacity="0.5" stroke="orchid" stroke-width="0.1" />
<polygon points="8.55779140413846,2.0353450889003675 8.375221482394124,2.0353450889003675 68.19778547131071,18.318105800103304 68.01493766536281,18.318105800103304" fill="pink" fill-opacity="0.5" stroke="orchid" stroke-width="0.1" />
<polygon points="6.759984813628275,2.0353450889003675 6.5807147668013135,2.0353450889003675 68.19684761212368,18.318105800103304 68.01879330868732,18.318105800103304" fill="pink" fill-opacity="0.5" stroke="orchid" stroke-width="0.1" />
<polygon points="0.4958843612675271,2.0353450889003675 0.14741756999295216,2.0353450889003675 70.07287860593831,18.318105800103304 69.74334267603183,18.318105800103304" fill="pink" fill-opacity="0.5" stroke="orchid" stroke-width="0.1" />
<polygon points="8.562723848751796,2.0353450889003675 8.376159341581168,2.0353450889003675 75.92164638054088,18.318105800103304 75.73233776686001,18.318105800103304" fill="pink" fill-opacity="0.5" stroke="orchid" stroke-width="0.1" />
<polygon points="8.372512111409334,2.0353450889003675 8.198348186822939,2.0353450889003675 75.90848161639684,18.318105800103304 75.73695759174434,18.318105800103304" fill="pink" fill-opacity="0.5" stroke="orchid" stroke-width="0.1" />
<polygon points="8.372512111409334,2.0353450889003675 8.198348186822939,2.0353450889003675 79.9548229756049,18.318105800103304 79.7832989509524,18.318105800103304" fill="pink" fill-opacity="0.5" stroke="orchid" stroke-width="0.1" />
<polygon points="8.55779140413846,2.0353450889003675 8.376159341581168,2.0353450889003675 79.96798773974895,18.318105800103304 79.78343789305418,18.318105800103304" fill="pink" fill-opacity="0.5" stroke="orchid" stroke-width="0.1" />
<polygon points="31.080373490263806,2.0353450889003675 31.12348027734233,2.0353450889003675 11.229682756972549,18.318105800103304 11.186853854097594,18.318105800103304" fill="lightblue" fill-opacity="0.5" stroke="blue" stroke-width="0.1" />
<polygon points="31.293996971756894,2.0353450889003675 31.489627451068937,2.0353450889003675 11.586555545405062,18.318105800103304 11.396725898842508,18.318105800103304" fill="lightblue" fill-opacity="0.5" stroke="blue" stroke-width="0.1" />
<polygon points="30.705889790430156,2.0353450889003675 31.489627451068934,2.0353450889003675 38.61826248038746,18.318105800103304 37.84866217860521,18.318105800103304" fill="lightblue" fill-opacity="0.5" stroke="blue" stroke-width="0.1" />
<polygon points="31.489627451068937,2.0353450889003675 31.293996971756894,2.0353450889003675 70.02025428488759,18.318105800103304 69.83042463832503,18.318105800103304" fill="pink" fill-opacity="0.5" stroke="orchid" stroke-width="0.1" />
<polygon points="31.12348027734233,2.0353450889003675 31.080373490263806,2.0353450889003675 70.23929650835025,18.318105800103304 70.19646760547529,18.318105800103304" fill="pink" fill-opacity="0.5" stroke="orchid" stroke-width="0.1" />
<polygon points="33.75941827720825,2.0353450889003675 33.80436604713541,2.0353450889003675 11.229682756972549,18.318105800103304 11.186784383046701,18.318105800103304" fill="lightblue" fill-opacity="0.5" stroke="blue" stroke-width="0.1" />
<polygon points="33.98176037558829,2.0353450889003675 34.22230388930205,2.0353450889003675 11.620214269562267,18.318105800103304 11.396725898842508,18.318105800103304" fill="lightblue" fill-opacity="0.5" stroke="blue" stroke-width="0.1" />
<polygon points="33.49598405222556,2.0353450889003675 33.61286909535145,2.0353450889003675 38.06655812972816,18.318105800103304 37.95828749691288,18.318105800103304" fill="lightblue" fill-opacity="0.5" stroke="blue" stroke-width="0.1" />
<polygon points="33.635308244789584,2.0353450889003675 34.22230388930205,2.0353450889003675 38.65192120454466,18.318105800103304 38.09917478812198,18.318105800103304" fill="lightblue" fill-opacity="0.5" stroke="blue" stroke-width="0.1" />
<polygon points="34.22230388930205,2.0353450889003675 33.98176037558829,2.0353450889003675 70.02025428488759,18.318105800103304 69.79676591416782,18.318105800103304" fill="pink" fill-opacity="0.5" stroke="orchid" stroke-width="0.1" />
<polygon points="33.80460919581353,2.0353450889003675 33.759453012733694,2.0353450889003675 70.2393312438757,18.318105800103304 70.19622445679717,18.318105800103304" fill="pink" fill-opacity="0.5" stroke="orchid" stroke-width="0.1" />
<polygon points="36.277602845812126,2.0353450889003675 36.32036227763619,2.0353450889003675 11.229335401718089,18.318105800103304 11.186853854097594,18.318105800103304" fill="lightblue" fill-opacity="0.5" stroke="blue" stroke-width="0.1" />
<polygon points="36.49133053388155,2.0353450889003675 36.78029537006708,2.0353450889003675 11.67461010241075,18.318105800103304 11.397107989622414,18.318105800103304" fill="lightblue" fill-opacity="0.5" stroke="blue" stroke-width="0.1" />
<polygon points="36.22230388930205,2.0353450889003675 36.94327445545985,2.0353450889003675 38.85797234149051,18.318105800103304 38.16485966674042,18.318105800103304" fill="lightblue" fill-opacity="0.5" stroke="blue" stroke-width="0.1" />
<polygon points="36.94327445545985,2.0353450889003675 36.49133053388155,2.0353450889003675 70.01987219410768,18.318105800103304 69.59074951274742,18.318105800103304" fill="pink" fill-opacity="0.5" stroke="orchid" stroke-width="0.1" />
<polygon points="36.320535955263416,2.0353450889003675 36.277602845812126,2.0353450889003675 70.23929650835025,18.318105800103304 70.19664128310252,18.318105800103304" fill="pink" fill-opacity="0.5" stroke="orchid" stroke-width="0.1" />
<polygon points="38.99200839766063,2.0353450889003675 39.27868068916672,2.0353450889003675 11.673672243223706,18.318105800103304 11.396725898842508,18.318105800103304" fill="lightblue" fill-opacity="0.5" stroke="blue" stroke-width="0.1" />
<polygon points="38.94327445545985,2.0353450889003675 39.64798879570891,2.0353450889003675 39.06027204168819,18.318105800103304 38.381470403421865,18.318105800103304" fill="lightblue" fill-opacity="0.5" stroke="blue" stroke-width="0.1" />
<polygon points="39.64798879570891,2.0353450889003675 38.99200839766063,2.0353450889003675 70.02025428488759,18.318105800103304 69.38848454807518,18.318105800103304" fill="pink" fill-opacity="0.5" stroke="orchid" stroke-width="0.1" />
<polygon points="41.64798879570891,2.0353450889003675 41.90405908929705,2.0353450889003675 11.67461010241075,18.318105800103304 11.422395452147125,18.318105800103304" fill="lightblue" fill-opacity="0.5" stroke="blue" stroke-width="0.1" />
<polygon points="41.64798879570891,2.0353450889003675 42.34429713880003,2.0353450889003675 39.13123672017443,18.318105800103304 38.45410238712952,18.318105800103304" fill="lightblue" fill-opacity="0.5" stroke="blue" stroke-width="0.1" />
<polygon points="42.34429713880003,2.0353450889003675 41.64798879570891,2.0353450889003675 69.99458473158298,18.318105800103304 69.31751986958895,18.318105800103304" fill="pink" fill-opacity="0.5" stroke="orchid" stroke-width="0.1" />
<polygon points="44.34440134537637,2.0353450889003675 44.410398843723826,2.0353450889003675 11.67461010241075,18.318105800103304 11.612086156607896,18.318105800103304" fill="lightblue" fill-opacity="0.5" stroke="blue" stroke-width="0.1" />
<polygon points="45.05220714739013,2.0353450889003675 45.1893777373765,2.0353450889003675 12.401763592097945,18.318105800103304 12.272721115065943,18.318105800103304" fill="lightblue" fill-opacity="0.5" stroke="blue" stroke-width="0.1" />
<polygon points="44.34440134537637,2.0353450889003675 45.189377737376496,2.0353450889003675 39.42812125616165,18.318105800103304 38.64379309159029,18.318105800103304" fill="lightblue" fill-opacity="0.5" stroke="blue" stroke-width="0.1" />
<polygon points="45.189377737376496,2.0353450889003675 44.34440134537637,2.0353450889003675 69.80489402712219,18.318105800103304 69.02053112702538,18.318105800103304" fill="pink" fill-opacity="0.5" stroke="orchid" stroke-width="0.1" />
<polygon points="47.18951667947828,2.0353450889003675 47.396679353238405,2.0353450889003675 11.635011603402276,18.318105800103304 11.434796034731358,18.318105800103304" fill="lightblue" fill-opacity="0.5" stroke="blue" stroke-width="0.1" />
<polygon points="47.18951667947828,2.0353450889003675 47.396679353238405,2.0353450889003675 38.66671853838467,18.318105800103304 38.46650296971375,18.318105800103304" fill="lightblue" fill-opacity="0.5" stroke="blue" stroke-width="0.1" />
<polygon points="47.46976289877685,2.0353450889003675 47.842301409185524,2.0353450889003675 39.06871277437157,18.318105800103304 38.71795343841756,18.318105800103304" fill="lightblue" fill-opacity="0.5" stroke="blue" stroke-width="0.1" />
<polygon points="47.842301409185524,2.0353450889003675 47.46976289877685,2.0353450889003675 69.73076841582036,18.318105800103304 69.3800438153918,18.318105800103304" fill="pink" fill-opacity="0.5" stroke="orchid" stroke-width="0.1" />
<polygon points="47.396679353238405,2.0353450889003675 47.18951667947828,2.0353450889003675 69.98218414899873,18.318105800103304 69.78196858032781,18.318105800103304" fill="pink" fill-opacity="0.5" stroke="orchid" stroke-width="0.1" />
<polygon points="50.26520643149094,2.0353450889003675 50.508389845138595,2.0353450889003675 12.52212218776844,18.318105800103304 12.272825321642282,18.318105800103304" fill="lightblue" fill-opacity="0.5" stroke="blue" stroke-width="0.1" />
<polygon points="49.842301409185524,2.0353450889003675 50.5083898451386,2.0353450889003675 39.54851458735759,18.318105800103304 38.85470720209858,18.318105800103304" fill="lightblue" fill-opacity="0.5" stroke="blue" stroke-width="0.1" />
<polygon points="50.5083898451386,2.0353450889003675 49.842301409185524,2.0353450889003675 69.59401465213935,18.318105800103304 68.90013779582945,18.318105800103304" fill="pink" fill-opacity="0.5" stroke="orchid" stroke-width="0.1" />
<polygon points="52.62055085680383,2.0353450889003675 52.92643189388157,2.0353450889003675 12.554356755382356,18.318105800103304 12.272894792693174,18.318105800103304" fill="lightblue" fill-opacity="0.5" stroke="blue" stroke-width="0.1" />
<polygon points="82.90148831305878,2.0353450889003675 82.7106513362583,2.0353450889003675 17.62876546121657,18.318105800103304 17.45078062883111,18.318105800103304" fill="pink" fill-opacity="0.5" stroke="orchid" stroke-width="0.1" />
<polygon points="82.90148831305878,2.0353450889003675 82.7106513362583,2.0353450889003675 19.17557314485374,18.318105800103304 18.99856090718077,18.318105800103304" fill="pink" fill-opacity="0.5" stroke="orchid" stroke-width="0.1" />
<polygon points="84.14442962009409,2.0353450889003675 83.88200272534932,2.0353450889003675 39.35298831462188,18.318105800103304 39.111194321992066,18.318105800103304" fill="pink" fill-opacity="0.5" stroke="orchid" stroke-width="0.1" />
<polygon points="52.5083898451386,2.0353450889003675 54.16715012728833,2.0353450889003675 40.765960018715504,18.318105800103304 39.19494167384245,18.318105800103304" fill="lightblue" fill-opacity="0.5" stroke="blue" stroke-width="0.1" />
<polygon points="54.18378844397698,2.0353450889003675 57.61062170685509,2.0353450889003675 44.05190599038451,18.318105800103304 40.77679750265466,18.318105800103304" fill="lightblue" fill-opacity="0.5" stroke="blue" stroke-width="0.1" />
<polygon points="57.62555798279688,2.0353450889003675 58.516975772318354,2.0353450889003675 44.94005864051405,18.318105800103304 44.06625176239372,18.318105800103304" fill="lightblue" fill-opacity="0.5" stroke="blue" stroke-width="0.1" />
<polygon points="58.525694389205306,2.0353450889003675 59.576721918151286,2.0353450889003675 45.95371074408011,18.318105800103304 44.95009720736796,18.318105800103304" fill="lightblue" fill-opacity="0.5" stroke="blue" stroke-width="0.1" />
<polygon points="59.715629284409964,2.0353450889003675 60.6196213341429,2.0353450889003675 46.95822740445386,18.318105800103304 46.066948557034166,18.318105800103304" fill="lightblue" fill-opacity="0.5" stroke="blue" stroke-width="0.1" />
<polygon points="60.65057068731531,2.0353450889003675 62.05423327058939,2.0353450889003675 48.335004691032715,18.318105800103304 46.98431378406383,18.318105800103304" fill="lightblue" fill-opacity="0.5" stroke="blue" stroke-width="0.1" />
<polygon points="62.13693855667639,2.0353450889003675 62.96162940181604,2.0353450889003675 49.180536851439975,18.318105800103304 48.387976367337906,18.318105800103304" fill="lightblue" fill-opacity="0.5" stroke="blue" stroke-width="0.1" />
<polygon points="62.995600745702255,2.0353450889003675 64.41732580220827,2.0353450889003675 50.55807831957864,18.318105800103304 49.20679690867718,18.318105800103304" fill="lightblue" fill-opacity="0.5" stroke="blue" stroke-width="0.1" />
<polygon points="64.41850681007344,2.0353450889003675 65.64922121215173,2.0353450889003675 51.71265244987924,18.318105800103304 50.54988073557338,18.318105800103304" fill="lightblue" fill-opacity="0.5" stroke="blue" stroke-width="0.1" />
<polygon points="65.66509534728057,2.0353450889003675 68.09026026287151,2.0353450889003675 54.027636278755374,18.318105800103304 51.727692932397375,18.318105800103304" fill="lightblue" fill-opacity="0.5" stroke="blue" stroke-width="0.1" />
<polygon points="68.13051873686345,2.0353450889003675 68.81032770536771,2.0353450889003675 54.68302617287107,18.318105800103304 54.055146814908625,18.318105800103304" fill="lightblue" fill-opacity="0.5" stroke="blue" stroke-width="0.1" />
<polygon points="68.92307922096552,2.0353450889003675 69.95798946610455,2.0353450889003675 55.763960989226085,18.318105800103304 54.77792362838962,18.318105800103304" fill="lightblue" fill-opacity="0.5" stroke="blue" stroke-width="0.1" />
<polygon points="70.05274797952131,2.0353450889003675 73.9077313290472,2.0353450889003675 59.61599181908905,18.318105800103304 55.87000854841281,18.318105800103304" fill="lightblue" fill-opacity="0.5" stroke="blue" stroke-width="0.1" />
<polygon points="73.97563928129418,2.0353450889003675 76.30274580855097,2.0353450889003675 61.900790476352576,18.318105800103304 59.65833442460776,18.318105800103304" fill="lightblue" fill-opacity="0.5" stroke="blue" stroke-width="0.1" />
<polygon points="76.34689466139288,2.0353450889003675 78.91541309049958,2.0353450889003675 64.3795175721813,18.318105800103304 61.93576915047673,18.318105800103304" fill="lightblue" fill-opacity="0.5" stroke="blue" stroke-width="0.1" />
<polygon points="78.94987073174205,2.0353450889003675 79.4206413081121,2.0353450889003675 64.8689063901904,18.318105800103304 64.41880345146075,18.318105800103304" fill="lightblue" fill-opacity="0.5" stroke="blue" stroke-width="0.1" />
<polygon points="79.47062572922893,2.0353450889003675 80.03490434009969,2.0353450889003675 65.45294951503996,18.318105800103304 64.90232196566949,18.318105800103304" fill="lightblue" fill-opacity="0.5" stroke="blue" stroke-width="0.1" />
<polygon points="80.06449900777972,2.0353450889003675 80.62624192529292,2.0353450889003675 66.00204870129082,18.318105800103304 65.46937941857594,18.318105800103304" fill="lightblue" fill-opacity="0.5" stroke="blue" stroke-width="0.1" />
<polygon points="80.72940643586762,2.0353450889003675 81.45426738087538,2.0353450889003675 66.79200402098444,18.318105800103304 66.08235723612204,18.318105800103304" fill="lightblue" fill-opacity="0.5" stroke="blue" stroke-width="0.1" />
<polygon points="81.51456825304969,2.0353450889003675 82.38135855502992,2.0353450889003675 67.69297408000357,18.318105800103304 66.84191897105038,18.318105800103304" fill="lightblue" fill-opacity="0.5" stroke="blue" stroke-width="0.1" />
<polygon points="82.47486658953063,2.0353450889003675 82.66994130043554,2.0353450889003675 67.965578483704,18.318105800103304 67.78043813307666,18.318105800103304" fill="lightblue" fill-opacity="0.5" stroke="blue" stroke-width="0.1" />
<polygon points="82.6699065649101,2.0353450889003675 83.67977249620253,2.0353450889003675 68.93803425409106,18.318105800103304 67.97631176106682,18.318105800103304" fill="lightblue" fill-opacity="0.5" stroke="blue" stroke-width="0.1" />
<polygon points="52.92643189388158,2.0353450889003675 52.5083898451386,2.0353450889003675 69.25371070934459,18.318105800103304 68.86790322821552,18.318105800103304" fill="pink" fill-opacity="0.5" stroke="orchid" stroke-width="0.1" />
<polygon points="83.88200272534932,2.0353450889003675 84.14442962009409,2.0353450889003675 69.33756226777129,18.318105800103304 69.09566406856514,18.318105800103304" fill="lightblue" fill-opacity="0.5" stroke="blue" stroke-width="0.1" />
<polygon points="82.7106513362583,2.0353450889003675 82.90148831305878,2.0353450889003675 75.92119481871009,18.318105800103304 75.7369228562189,18.318105800103304" fill="lightblue" fill-opacity="0.5" stroke="blue" stroke-width="0.1" />
<polygon points="82.7106513362583,2.0353450889003675 82.90148831305878,2.0353450889003675 79.96753617791815,18.318105800103304 79.78326421542695,18.318105800103304" fill="lightblue" fill-opacity="0.5" stroke="blue" stroke-width="0.1" />
<polygon points="86.47052673298141,2.0353450889003675 86.14442962009409,2.0353450889003675 12.58662605852172,18.318105800103304 12.272894792693174,18.318105800103304" fill="pink" fill-opacity="0.5" stroke="orchid" stroke-width="0.1" />
<polygon points="86.78891255921974,2.0353450889003675 86.1780883442513,2.0353450889003675 39.58074915497151,18.318105800103304 38.99945013663219,18.318105800103304" fill="pink" fill-opacity="0.5" stroke="orchid" stroke-width="0.1" />
<polygon points="86.14442962009409,2.0353450889003675 86.78891255921972,2.0353450889003675 69.44927171760574,18.318105800103304 68.83563392507617,18.318105800103304" fill="lightblue" fill-opacity="0.5" stroke="blue" stroke-width="0.1" />
<polygon points="89.50571486232401,2.0353450889003675 89.15787331050747,2.0353450889003675 11.67461010241075,18.318105800103304 11.344101577791772,18.318105800103304" fill="pink" fill-opacity="0.5" stroke="orchid" stroke-width="0.1" />
<polygon points="89.45031169923759,2.0353450889003675 88.86588648360814,2.0353450889003675 38.983541265977905,18.318105800103304 38.42836336277401,18.318105800103304" fill="pink" fill-opacity="0.5" stroke="orchid" stroke-width="0.1" />
<polygon points="88.86588648360814,2.0353450889003675 89.50574959784946,2.0353450889003675 70.07291334146376,18.318105800103304 69.46518058826001,18.318105800103304" fill="lightblue" fill-opacity="0.5" stroke="blue" stroke-width="0.1" />
<polygon points="92.08506869123836,2.0353450889003675 92.06572100356492,2.0353450889003675 11.328922153171856,18.318105800103304 11.310199704956446,18.318105800103304" fill="pink" fill-opacity="0.5" stroke="orchid" stroke-width="0.1" />
<polygon points="92.04550492775532,2.0353450889003675 91.70929977696319,2.0353450889003675 11.673706978749152,18.318105800103304 11.344101577791772,18.318105800103304" fill="pink" fill-opacity="0.5" stroke="orchid" stroke-width="0.1" />
<polygon points="91.99281113565368,2.0353450889003675 91.59449886536406,2.0353450889003675 38.816185504378936,18.318105800103304 38.428571775926684,18.318105800103304" fill="pink" fill-opacity="0.5" stroke="orchid" stroke-width="0.1" />
<polygon points="91.59449886536406,2.0353450889003675 92.11601804441075,2.0353450889003675 70.14158547527057,18.318105800103304 69.632536349859,18.318105800103304" fill="lightblue" fill-opacity="0.5" stroke="blue" stroke-width="0.1" />
<polygon points="92.06884720085506,2.0353450889003675 92.0873612359178,2.0353450889003675 73.87975325272144,18.318105800103304 73.86193392816763,18.318105800103304" fill="lightblue" fill-opacity="0.5" stroke="blue" stroke-width="0.1" />
<polygon points="125.82309196890337,2.0353450889003675 127.49494754414624,2.0353450889003675 1.5986330876026478,18.318105800103304 0.0,18.318105800103304" fill="lightblue" fill-opacity="0.5" stroke="blue" stroke-width="0.1" />
<polygon points="127.53531022471455,2.0353450889003675 127.83375785934685,2.0353450889003675 1.9111486100405815,18.318105800103304 1.6269425408411624,18.318105800103304" fill="lightblue" fill-opacity="0.5" stroke="blue" stroke-width="0.1" />
<polygon points="127.85345290227474,2.0353450889003675 128.6092632004549,2.0353450889003675 2.652092103329852,18.318105800103304 1.9223334492342032,18.318105800103304" fill="lightblue" fill-opacity="0.5" stroke="blue" stroke-width="0.1" />
<polygon points="128.86307568488905,2.0353450889003675 129.10938529582685,2.0353450889003675 3.0720098704469105,18.318105800103304 2.8374061315844226,18.318105800103304" fill="lightblue" fill-opacity="0.5" stroke="blue" stroke-width="0.1" />
<polygon points="129.17256921661317,2.0353450889003675 129.3735489668439,2.0353450889003675 3.3197436379279983,18.318105800103304 3.116853433797736,18.318105800103304" fill="lightblue" fill-opacity="0.5" stroke="blue" stroke-width="0.1" />
<polygon points="129.41863567887285,2.0353450889003675 129.88308438961172,2.0353450889003675 3.810139786175052,18.318105800103304 3.353367626559755,18.318105800103304" fill="lightblue" fill-opacity="0.5" stroke="blue" stroke-width="0.1" />
<polygon points="129.96537284939336,2.0353450889003675 130.28577333610755,2.0353450889003675 4.178787917733771,18.318105800103304 3.8677312873645704,18.318105800103304" fill="lightblue" fill-opacity="0.5" stroke="blue" stroke-width="0.1" />
<polygon points="130.46761381181753,2.0353450889003675 131.3333620480344,2.0353450889003675 5.152077340731537,18.318105800103304 4.319814151044653,18.318105800103304" fill="lightblue" fill-opacity="0.5" stroke="blue" stroke-width="0.1" />
<polygon points="131.3423585491249,2.0353450889003675 133.6675198869567,2.0353450889003675 7.3830706690791645,18.318105800103304 5.160761222093044,18.318105800103304" fill="lightblue" fill-opacity="0.5" stroke="blue" stroke-width="0.1" />
<polygon points="133.6972534967385,2.0353450889003675 134.09250904078888,2.0353450889003675 7.782251327504944,18.318105800103304 7.408462338180213,18.318105800103304" fill="lightblue" fill-opacity="0.5" stroke="blue" stroke-width="0.1" />
<polygon points="134.12672353335324,2.0353450889003675 134.43996850182555,2.0353450889003675 8.10105398004861,18.318105800103304 7.807052492673409,18.318105800103304" fill="lightblue" fill-opacity="0.5" stroke="blue" stroke-width="0.1" />
<polygon points="134.49144655053655,2.0353450889003675 135.79250039164305,2.0353450889003675 9.401517317222533,18.318105800103304 8.138047314648631,18.318105800103304" fill="lightblue" fill-opacity="0.5" stroke="blue" stroke-width="0.1" />
<polygon points="135.82136561328872,2.0353450889003675 136.14391970258055,2.0353450889003675 9.73841717852358,18.318105800103304 9.424477499542359,18.318105800103304" fill="lightblue" fill-opacity="0.5" stroke="blue" stroke-width="0.1" />
<polygon points="136.21623906655918,2.0353450889003675 136.7176811118981,2.0353450889003675 10.288940521317713,18.318105800103304 9.799794851986716,18.318105800103304" fill="lightblue" fill-opacity="0.5" stroke="blue" stroke-width="0.1" />
<polygon points="136.7512703650044,2.0353450889003675 138.10932520336783,2.0353450889003675 11.59402368337596,18.318105800103304 10.303981003835844,18.318105800103304" fill="lightblue" fill-opacity="0.5" stroke="blue" stroke-width="0.1" />
<polygon points="100.57119862225012,2.0353450889003675 100.37911116653358,2.0353450889003675 17.63342002162634,18.318105800103304 17.450329067000315,18.318105800103304" fill="pink" fill-opacity="0.5" stroke="orchid" stroke-width="0.1" />
<polygon points="100.57116388672468,2.0353450889003675 100.37897222443179,2.0353450889003675 19.180366647365293,18.318105800103304 18.99814408087542,18.318105800103304" fill="pink" fill-opacity="0.5" stroke="orchid" stroke-width="0.1" />
<polygon points="137.90469822296527,2.0353450889003675 138.10932520336783,2.0353450889003675 38.625730618358354,18.318105800103304 38.42839809829945,18.318105800103304" fill="lightblue" fill-opacity="0.5" stroke="blue" stroke-width="0.1" />
<polygon points="100.38383519799424,2.0353450889003675 100.5710944156738,2.0353450889003675 68.19684761212366,18.318105800103304 68.01476398773558,18.318105800103304" fill="lightblue" fill-opacity="0.5" stroke="blue" stroke-width="0.1" />
<polygon points="138.10932520336783,2.0353450889003675 137.84988556381143,2.0353450889003675 70.07287860593831,18.318105800103304 69.82295650035412,18.318105800103304" fill="pink" fill-opacity="0.5" stroke="orchid" stroke-width="0.1" />
<polygon points="94.29796272669707,2.0353450889003675 95.00010663806312,2.0353450889003675 70.60186592295591,18.318105800103304 69.93421438835776,18.318105800103304" fill="lightblue" fill-opacity="0.5" stroke="blue" stroke-width="0.1" />
<polygon points="95.04185873964926,2.0353450889003675 101.14509897366943,2.0353450889003675 76.476685341643,18.318105800103304 70.63243318534842,18.318105800103304" fill="lightblue" fill-opacity="0.5" stroke="blue" stroke-width="0.1" />
<polygon points="104.59002944530492,2.0353450889003675 104.7748224406778,2.0353450889003675 75.92171585159178,18.318105800103304 75.73720074042247,18.318105800103304" fill="lightblue" fill-opacity="0.5" stroke="blue" stroke-width="0.1" />
<polygon points="101.15388706160728,2.0353450889003675 102.86263176487384,2.0353450889003675 78.1296100555178,18.318105800103304 76.48804385846385,18.318105800103304" fill="lightblue" fill-opacity="0.5" stroke="blue" stroke-width="0.1" />
<polygon points="102.87694280135761,2.0353450889003675 103.13415936728546,2.0353450889003675 78.399470352708,18.318105800103304 78.14096857233864,18.318105800103304" fill="lightblue" fill-opacity="0.5" stroke="blue" stroke-width="0.1" />
<polygon points="103.15329864180623,2.0353450889003675 104.81011373453097,2.0353450889003675 80.00209802573694,18.318105800103304 78.41909592458501,18.318105800103304" fill="lightblue" fill-opacity="0.5" stroke="blue" stroke-width="0.1" />
<polygon points="100.38383519799424,2.0353450889003675 100.57126809330103,2.0353450889003675 79.96805721079983,18.318105800103304 79.78326421542695,18.318105800103304" fill="lightblue" fill-opacity="0.5" stroke="blue" stroke-width="0.1" />
<polygon points="104.92856187630194,2.0353450889003675 105.77339932620029,2.0353450889003675 80.89396737708921,18.318105800103304 80.09386928396535,18.318105800103304" fill="lightblue" fill-opacity="0.5" stroke="blue" stroke-width="0.1" />
<polygon points="105.79274701387372,2.0353450889003675 107.20808073369767,2.0353450889003675 82.27123096102432,18.318105800103304 80.91838645147777,18.318105800103304" fill="lightblue" fill-opacity="0.5" stroke="blue" stroke-width="0.1" />
<polygon points="107.21978660577298,2.0353450889003675 108.67187051151883,2.0353450889003675 83.67069054571942,18.318105800103304 82.28189476733624,18.318105800103304" fill="lightblue" fill-opacity="0.5" stroke="blue" stroke-width="0.1" />
<polygon points="108.80136455038163,2.0353450889003675 112.5159816415801,2.0353450889003675 87.27870430932403,18.318105800103304 83.76954785113882,18.318105800103304" fill="lightblue" fill-opacity="0.5" stroke="blue" stroke-width="0.1" />
<polygon points="112.53849026206913,2.0353450889003675 113.96973285254737,2.0353450889003675 88.6447135830146,18.318105800103304 87.29360584974037,18.318105800103304" fill="lightblue" fill-opacity="0.5" stroke="blue" stroke-width="0.1" />
<polygon points="114.09328711655888,2.0353450889003675 115.81707230234358,2.0353450889003675 90.40174066665115,18.318105800103304 88.74155622795814,18.318105800103304" fill="lightblue" fill-opacity="0.5" stroke="blue" stroke-width="0.1" />
<polygon points="115.86865455763093,2.0353450889003675 116.16185712792087,2.0353450889003675 90.74878330138243,18.318105800103304 90.46103420858752,18.318105800103304" fill="lightblue" fill-opacity="0.5" stroke="blue" stroke-width="0.1" />
<polygon points="116.19499481919638,2.0353450889003675 116.50997656394098,2.0353450889003675 91.0781455536617,18.318105800103304 90.7837619755066,18.318105800103304" fill="lightblue" fill-opacity="0.5" stroke="blue" stroke-width="0.1" />
<polygon points="116.52453074910288,2.0353450889003675 116.79317530290248,2.0353450889003675 91.34821426400458,18.318105800103304 91.0820706680371,18.318105800103304" fill="lightblue" fill-opacity="0.5" stroke="blue" stroke-width="0.1" />
<polygon points="116.7994624330082,2.0353450889003675 118.27791060256759,2.0353450889003675 92.78543136485953,18.318105800103304 91.35477927831388,18.318105800103304" fill="lightblue" fill-opacity="0.5" stroke="blue" stroke-width="0.1" />
<polygon points="118.34105978782847,2.0353450889003675 120.59994574310926,2.0353450889003675 94.9940550148199,18.318105800103304 92.84767742645882,18.318105800103304" fill="lightblue" fill-opacity="0.5" stroke="blue" stroke-width="0.1" />
<polygon points="120.62332275173443,2.0353450889003675 120.90707725910306,2.0353450889003675 95.26933405397969,18.318105800103304 95.01472265246029,18.318105800103304" fill="lightblue" fill-opacity="0.5" stroke="blue" stroke-width="0.1" />
<polygon points="120.9741862942648,2.0353450889003675 123.40081010192446,2.0353450889003675 97.65924241124293,18.318105800103304 95.31796378960415,18.318105800103304" fill="lightblue" fill-opacity="0.5" stroke="blue" stroke-width="0.1" />
<polygon points="123.4209914422086,2.0353450889003675 125.82309196890337,2.0353450889003675 100.0,18.318105800103304 97.67859009891636,18.318105800103304" fill="lightblue" fill-opacity="0.5" stroke="blue" stroke-width="0.1" />
<!-- hits after vs ref -->
<polygon points="0.0,25.102589429771196 12.43323397815205,25.102589429771196 57.29482506668352,40.36767759652395 69.7278506316829,40.36767759652395" fill="pink" fill-opacity="0.5" stroke="orchid" stroke-width="0.1" />
<polygon points="11.344101577791772,25.102589429771196 11.67461010241075,25.102589429771196 100.03831328456697,40.36767759652395 99.70777002442254,40.36767759652395" fill="lightblue" fill-opacity="0.5" stroke="blue" stroke-width="0.1" />
<polygon points="11.396725898842508,25.102589429771196 11.67461010241075,25.102589429771196 30.842367754039135,40.36767759652395 31.120286693132822,40.36767759652395" fill="pink" fill-opacity="0.5" stroke="orchid" stroke-width="0.1" />
<polygon points="12.24343906711494,25.102589429771196 12.554356755382356,25.102589429771196 0.6817541579292348,40.36767759652395 0.37031543678012796,40.36767759652395" fill="lightblue" fill-opacity="0.5" stroke="blue" stroke-width="0.1" />
<polygon points="12.24343906711494,25.102589429771196 12.636019975705974,25.102589429771196 29.8863071516626,40.36767759652395 30.27937435760988,40.36767759652395" fill="pink" fill-opacity="0.5" stroke="orchid" stroke-width="0.1" />
<polygon points="12.47390927844935,25.102589429771196 19.17557314485374,25.102589429771196 50.553284817067095,40.36767759652395 57.25498341899693,40.36767759652395" fill="pink" fill-opacity="0.5" stroke="orchid" stroke-width="0.1" />
<polygon points="17.448314406524442,25.102589429771196 17.638074582036104,25.102589429771196 50.364115145488014,40.36767759652395 50.55172171842202,40.36767759652395" fill="pink" fill-opacity="0.5" stroke="orchid" stroke-width="0.1" />
<polygon points="17.449425943338717,25.102589429771196 17.62876546121657,25.102589429771196 29.114831131506268,40.36767759652395 29.2978526150814,40.36767759652395" fill="pink" fill-opacity="0.5" stroke="orchid" stroke-width="0.1" />
<polygon points="18.99814408087542,25.102589429771196 39.58074915497151,25.102589429771196 29.967970371986215,40.36767759652395 50.549672322420705,40.36767759652395" fill="pink" fill-opacity="0.5" stroke="orchid" stroke-width="0.1" />
<polygon points="18.99814408087542,25.102589429771196 19.184882265673277,25.102589429771196 52.090783379884726,40.36767759652395 52.27849415939507,40.36767759652395" fill="pink" fill-opacity="0.5" stroke="orchid" stroke-width="0.1" />
<polygon points="18.99814408087542,25.102589429771196 19.175573144853743,25.102589429771196 89.94472535835774,40.36767759652395 89.7600365695612,40.36767759652395" fill="lightblue" fill-opacity="0.5" stroke="blue" stroke-width="0.1" />
<polygon points="18.99814408087542,25.102589429771196 19.180227705263512,25.102589429771196 93.99565180692467,40.36767759652395 93.80637792876925,40.36767759652395" fill="lightblue" fill-opacity="0.5" stroke="blue" stroke-width="0.1" />
<polygon points="18.99821355192631,25.102589429771196 19.17557314485374,25.102589429771196 29.114831131506268,40.36767759652395 29.29691475589436,40.36767759652395" fill="pink" fill-opacity="0.5" stroke="orchid" stroke-width="0.1" />
<polygon points="38.42839809829945,25.102589429771196 38.70631703739314,25.102589429771196 58.05348367795027,40.36767759652395 58.33136788151851,40.36767759652395" fill="pink" fill-opacity="0.5" stroke="orchid" stroke-width="0.1" />
<polygon points="38.42839809829945,25.102589429771196 38.98201290285828,25.102589429771196 100.31446071186292,40.36767759652395 99.76039434547329,40.36767759652395" fill="lightblue" fill-opacity="0.5" stroke="blue" stroke-width="0.1" />
<polygon points="38.899064468093165,25.102589429771196 45.0197766714127,25.102589429771196 6.119913286234277,40.36767759652395 0.0,40.36767759652395" fill="lightblue" fill-opacity="0.5" stroke="blue" stroke-width="0.1" />
<polygon points="39.2693104338224,25.102589429771196 39.459626377741195,25.102589429771196 57.29482506668352,40.36767759652395 57.48465471324608,40.36767759652395" fill="pink" fill-opacity="0.5" stroke="orchid" stroke-width="0.1" />
<polygon points="44.32475354276308,25.102589429771196 70.02025428488759,25.102589429771196 31.12028669313282,40.36767759652395 5.425758545720809,40.36767759652395" fill="lightblue" fill-opacity="0.5" stroke="blue" stroke-width="0.1" />
<polygon points="68.00559380901782,25.102589429771196 68.19684761212366,25.102589429771196 89.76010604061209,40.36767759652395 89.96282256711513,40.36767759652395" fill="pink" fill-opacity="0.5" stroke="orchid" stroke-width="0.1" />
<polygon points="68.01459031010835,25.102589429771196 68.19684761212366,25.102589429771196 50.730644409994525,40.36767759652395 50.553111139439864,40.36767759652395" fill="lightblue" fill-opacity="0.5" stroke="blue" stroke-width="0.1" />
<polygon points="68.01476398773558,25.102589429771196 68.19778547131071,25.102589429771196 50.550610181607745,40.36767759652395 50.373424266307545,40.36767759652395" fill="lightblue" fill-opacity="0.5" stroke="blue" stroke-width="0.1" />
<polygon points="68.01476398773558,25.102589429771196 68.19778547131071,25.102589429771196 52.27943201858212,40.36767759652395 52.100092500704264,40.36767759652395" fill="lightblue" fill-opacity="0.5" stroke="blue" stroke-width="0.1" />
<polygon points="68.01476398773558,25.102589429771196 68.19684761212366,25.102589429771196 93.80644739982014,40.36767759652395 93.9910667175658,40.36767759652395" fill="pink" fill-opacity="0.5" stroke="orchid" stroke-width="0.1" />
<polygon points="68.86790322821552,25.102589429771196 69.54965738614476,25.102589429771196 0.0,40.36767759652395 0.6817541579292347,40.36767759652395" fill="pink" fill-opacity="0.5" stroke="orchid" stroke-width="0.1" />
<polygon points="68.98902600544584,25.102589429771196 69.17934194936464,25.102589429771196 57.48465471324608,40.36767759652395 57.29482506668352,40.36767759652395" fill="lightblue" fill-opacity="0.5" stroke="blue" stroke-width="0.1" />
<polygon points="69.46670895137964,25.102589429771196 74.80753913738491,25.102589429771196 94.97328317060318,40.36767759652395 100.3144607118629,40.36767759652395" fill="pink" fill-opacity="0.5" stroke="orchid" stroke-width="0.1" />
<polygon points="69.74240481684478,25.102589429771196 70.07287860593831,25.102589429771196 58.383992202569246,40.36767759652395 58.05348367795027,40.36767759652395" fill="lightblue" fill-opacity="0.5" stroke="blue" stroke-width="0.1" />
<polygon points="74.80726125318134,25.102589429771196 100.0,25.102589429771196 69.7278506316829,40.36767759652395 94.92072832060335,40.36767759652395" fill="pink" fill-opacity="0.5" stroke="orchid" stroke-width="0.1" />
<polygon points="75.73233776686001,25.102589429771196 75.92164638054088,25.102589429771196 50.54970705794615,40.36767759652395 50.368769705897776,40.36767759652395" fill="lightblue" fill-opacity="0.5" stroke="blue" stroke-width="0.1" />
<polygon points="75.73233776686001,25.102589429771196 75.92164638054088,25.102589429771196 52.27852889492052,40.36767759652395 52.095437940294495,40.36767759652395" fill="lightblue" fill-opacity="0.5" stroke="blue" stroke-width="0.1" />
<polygon points="75.7369228562189,25.102589429771196 75.92154217396455,25.102589429771196 29.29691475589436,40.36767759652395 29.114831131506268,40.36767759652395" fill="lightblue" fill-opacity="0.5" stroke="blue" stroke-width="0.1" />
<polygon points="75.7369228562189,25.102589429771196 75.92161164501545,25.102589429771196 50.73071388104542,40.36767759652395 50.553284817067095,40.36767759652395" fill="lightblue" fill-opacity="0.5" stroke="blue" stroke-width="0.1" />
<polygon points="79.76516700666957,25.102589429771196 79.96788353317261,25.102589429771196 29.296914755894356,40.36767759652395 29.105660952788515,40.36767759652395" fill="lightblue" fill-opacity="0.5" stroke="blue" stroke-width="0.1" />
<polygon points="79.78326421542695,25.102589429771196 79.96798773974895,25.102589429771196 50.54970705794615,40.36767759652395 50.373424266307545,40.36767759652395" fill="lightblue" fill-opacity="0.5" stroke="blue" stroke-width="0.1" />
<polygon points="79.78326421542695,25.102589429771196 79.9679530042235,25.102589429771196 50.73071388104542,40.36767759652395 50.553284817067095,40.36767759652395" fill="lightblue" fill-opacity="0.5" stroke="blue" stroke-width="0.1" />
<polygon points="74.71017545955968,25.102589429771196 74.94387607476057,25.102589429771196 102.54836974021647,40.36767759652395 102.3144607118629,40.36767759652395" fill="lightblue" fill-opacity="0.5" stroke="blue" stroke-width="0.1" />
</svg>
