<?xml version="1.0" standalone="no"?>
<!DOCTYPE svg PUBLIC " -//W3C//DTD SVG 1.0//EN" "http://www.w3.org/TR/2001/REC-SVG-20010904/DTD/svg10.dtd">
<svg width="106.05758965830135" height="31.817276897490405">
<!-- reference contigs -->
<polygon points="2.166651463995561e-05,15.145023803205433 2.166651463995561e-05,14.915939409543501 0.6370605299586148,14.915939409543501 0.6370821964732547,15.145023803205433 0.6858318544131548,15.145023803205433 0.6858535209277948,14.915939409543501 1.089825686389767,14.915939409543501 1.089847352904407,15.145023803205433 1.156146887702671,15.145023803205433 1.1561685542173112,14.915939409543501 1.4356015935288187,14.915939409543501 1.4356232600434586,15.145023803205433 1.4612330803478861,15.145023803205433 1.461254746862526,14.915939409543501 1.9669295320444502,14.915939409543501 1.96695119855909,15.145023803205433 1.9982159791845462,15.145023803205433 1.998237645699186,14.915939409543501 2.2199077569805716,14.915939409543501 2.2199294234952114,15.145023803205433 2.2509125394303484,15.145023803205433 2.250934205944988,14.915939409543501 3.261937112074597,14.915939409543501 3.261958778589237,15.145023803205433 3.492295495726605,15.145023803205433 3.4923171622412448,14.915939409543501 4.214202097015286,14.915939409543501 4.214223763529926,15.145023803205433 4.221698711080711,15.145023803205433 4.22172037759535,14.915939409543501 4.4692819738714835,14.915939409543501 4.469303640386123,15.145023803205433 4.490016828381921,15.145023803205433 4.490038494896561,14.915939409543501 4.702478670941325,14.915939409543501 4.702500337455965,15.145023803205433 4.708328629894114,15.145023803205433 4.708350296408754,14.915939409543501 5.675218512216772,14.915939409543501 5.675240178731412,15.145023803205433 5.72531149406435,15.145023803205433 5.72533316057899,14.915939409543501 5.967283129563374,14.915939409543501 5.967304796078015,15.145023803205433 5.998179579439951,15.145023803205433 5.998201245954591,14.915939409543501 6.304955760227083,14.915939409543501 6.304977426741723,15.145023803205433 6.382781880813803,15.145023803205433 6.382803547328443,14.915939409543501 6.485156162487593,14.915939409543501 6.485177829002233,15.145023803205433 6.653851645474288,15.145023803205433 6.653873311988928,14.915939409543501 6.684943093982624,14.915939409543501 6.684964760497264,14.686855015881571 6.782074079113545,14.686855015881571 6.782095745628185,14.915939409543501 7.212956055758342,14.915939409543501 7.212977722272982,15.145023803205433 7.218351017903691,15.145023803205433 7.2183726844183305,14.915939409543501 7.427627882811022,14.915939409543501 7.427649549325663,15.145023803205433 7.444007767878829,15.145023803205433 7.444029434393468,14.915939409543501 7.736895712781749,14.915939409543501 7.736917379296388,15.145023803205433 7.798991943739861,15.145023803205433 7.799013610254502,14.915939409543501 7.935252654310541,14.915939409543501 7.935274320825182,15.145023803205433 8.081848292364482,15.145023803205433 8.081869958879121,14.915939409543501 9.324162908790257,14.915939409543501 9.324184575304896,15.145023803205433 9.333414510541518,15.145023803205433 9.333436177056157,14.915939409543501 9.904305504789708,14.915939409543501 9.904327171304349,15.145023803205433 9.91266877944073,15.145023803205433 9.91269044595537,14.915939409543501 10.198753438746705,14.915939409543501 10.198775105261344,15.145023803205433 10.206878381736688,15.145023803205433 10.206900048251327,14.915939409543501 10.539394381916086,14.915939409543501 10.539416048430725,15.145023803205433 10.558569247372448,15.145023803205433 10.558590913887087,14.915939409543501 11.320428901657206,14.915939409543501 11.320450568171847,15.145023803205433 11.503532616879472,15.145023803205433 11.503554283394111,14.915939409543501 11.627616746222497,14.915939409543501 11.627638412737136,15.145023803205433 11.648243268159735,15.145023803205433 11.648264934674375,14.915939409543501 12.052453765282747,14.915939409543501 12.052475431797387,15.145023803205433 12.066731998430477,15.145023803205433 12.066753664945116,14.915939409543501 12.274513873827651,14.915939409543501 12.27453554034229,15.145023803205433 12.281490491541717,15.145023803205433 12.281512158056358,14.915939409543501 12.640829636845382,14.915939409543501 12.640851303360021,15.145023803205433 12.654414541524634,15.145023803205433 12.654436208039273,14.915939409543501 13.034813539058334,14.915939409543501 13.034835205572973,15.145023803205433 13.04553846380511,15.145023803205433 13.045560130319751,14.915939409543501 13.84719950548347,14.915939409543501 13.84722117199811,15.145023803205433 13.879287613665243,15.145023803205433 13.879309280179884,14.915939409543501 14.37430247364431,14.915939409543501 14.374324140158949,15.145023803205433 14.391224021578115,15.145023803205433 14.391245688092756,14.915939409543501 14.844314175728865,14.915939409543501 14.844335842243506,15.145023803205433 14.848279147907979,15.145023803205433 14.848300814422617,14.915939409543501 15.346955648861197,14.915939409543501 15.346977315375835,15.145023803205433 15.384698717364,15.145023803205433 15.38472038387864,14.915939409543501 15.609423807209618,14.915939409543501 15.609445473724259,15.145023803205433 15.617830414889921,15.145023803205433 15.617852081404562,14.915939409543501 15.87785025708403,14.915939409543501 15.877871923598669,15.145023803205433 15.900145100648544,15.145023803205433 15.900166767163185,14.915939409543501 16.02297257214245,14.915939409543501 16.02299423865709,15.145023803205433 16.035084153826187,15.145023803205433 16.035105820340828,14.915939409543501 16.871476618472393,14.915939409543501 16.87149828498703,15.145023803205433 16.90276306561249,15.145023803205433 16.90278473212713,14.915939409543501 17.103828321471276,14.915939409543501 17.103849987985917,15.145023803205433 17.135591431933452,15.145023803205433 17.13561309844809,14.915939409543501 17.949060724090586,14.915939409543501 17.949082390605223,15.145023803205433 17.963858953589675,15.145023803205433 17.963880620104312,14.915939409543501 18.462275456367212,14.915939409543501 18.462297122881854,15.145023803205433 18.492500244289953,15.145023803205433 18.492521910804594,14.915939409543501 18.648737481358673,14.915939409543501 18.648759147873314,15.145023803205433 18.66472736916296,15.145023803205433 18.664749035677602,14.915939409543501 18.84091946621508,14.915939409543501 18.840941132729718,15.145023803205433 18.87437256481917,15.145023803205433 18.87439423133381,14.915939409543501 19.66481035191403,14.915939409543501 19.664832018428672,15.145023803205433 19.678243590990803,15.145023803205433 19.67826525750544,14.915939409543501 19.92301020687838,14.915939409543501 19.923031873393022,15.145023803205433 19.928708500228687,15.145023803205433 19.92873016674333,14.915939409543501 20.574348969984726,14.915939409543501 20.574370636499367,15.145023803205433 20.580783924832794,15.145023803205433 20.58080559134743,14.915939409543501 20.87980349337882,14.915939409543501 20.87982515989346,15.145023803205433 20.88470012568745,15.145023803205433 20.88472179220209,14.915939409543501 21.654728055991473,14.915939409543501 21.654749722506114,14.686855015881571 21.663329662303536,14.686855015881571 21.663351328818173,14.915939409543501 21.883266452413725,14.915939409543501 21.883288118928366,15.145023803205433 21.89999300171577,15.145023803205433 21.900014668230412,14.915939409543501 22.365931399048016,14.915939409543501 22.365953065562657,15.145023803205433 22.368423048231612,15.145023803205433 22.36844471474625,14.915939409543501 23.010163545352455,14.915939409543501 23.010185211867096,15.145023803205433 23.018591819547396,15.145023803205433 23.018613486062037,14.915939409543501 24.190251931732277,14.915939409543501 24.190273598246918,15.145023803205433 24.2100551261132,15.145023803205433 24.210076792627838,14.915939409543501 24.358449084882253,14.915939409543501 24.358470751396894,15.145023803205433 24.383907239584204,15.145023803205433 24.38392890609884,14.915939409543501 24.656190329064522,14.915939409543501 24.656211995579163,15.145023803205433 24.66271194997115,15.145023803205433 24.66273361648579,14.915939409543501 25.905893226982524,14.915939409543501 25.905914893497165,15.145023803205433 25.913584839679707,15.145023803205433 25.91360650619435,14.915939409543501 26.484475833927895,14.915939409543501 26.484497500442536,15.145023803205433 26.50768067110729,15.145023803205433 26.50770233762193,14.915939409543501 29.194870149327784,14.915939409543501 29.194891815842425,15.145023803205433 29.244139803619042,15.145023803205433 29.244161470133683,14.915939409543501 30.282139186990037,14.915939409543501 30.282160853504678,15.145023803205433 30.29984072945088,15.145023803205433 30.299862395965523,14.915939409543501 30.566620524212656,14.915939409543501 30.566642190727293,15.145023803205433 30.57821210954503,15.145023803205433 30.578233776059673,14.915939409543501 30.923359687759522,14.915939409543501 30.923381354274163,15.145023803205433 30.943769544550364,15.145023803205433 30.943791211065005,14.915939409543501 31.84126158048124,14.915939409543501 31.841283246995882,15.145023803205433 31.857988129783287,15.145023803205433 31.858009796297928,14.915939409543501 32.21186731339768,14.915939409543501 32.211888979912324,15.145023803205433 32.24161543799834,15.145023803205433 32.24163710451298,14.915939409543501 33.46354186414792,14.915939409543501 33.46356353066256,15.145023803205433 33.470063485054546,15.145023803205433 33.47008515156919,14.915939409543501 34.09761241508622,14.915939409543501 34.09763408160086,15.145023803205433 34.13867046032894,15.145023803205433 34.13869212684358,14.915939409543501 34.4122752072023,14.915939409543501 34.41229687371693,15.145023803205433 34.48442470095335,15.145023803205433 34.48444636746798,14.915939409543501 36.775138627777295,14.915939409543501 36.775160294291936,15.145023803205433 36.7979751342078,15.145023803205433 36.797996800722444,14.915939409543501 37.252646943927274,14.915939409543501 37.252668610441916,15.145023803205433 37.262071877795655,15.145023803205433 37.2620935443103,14.915939409543501 37.86225599983706,14.915939409543501 37.8622776663517,15.145023803205433 37.88067253728103,15.145023803205433 37.88069420379567,14.915939409543501 38.053094660785796,14.915939409543501 38.05311632730044,15.145023803205433 38.07588783418703,15.145023803205433 38.07590950070167,14.915939409543501 38.20103362274741,14.915939409543501 38.20105528926205,15.145023803205433 38.223155134194805,15.145023803205433 38.223176800709446,14.915939409543501 38.49067159045434,14.915939409543501 38.490693256968974,15.145023803205433 38.4999231922056,15.145023803205433 38.49994485872024,14.915939409543501 39.02004954265237,14.915939409543501 39.020071209167014,15.145023803205433 39.028781148052275,15.145023803205433 39.028802814566916,14.915939409543501 39.488067925390055,14.915939409543501 39.488089591904696,15.145023803205433 39.52392600711918,15.145023803205433 39.52394767363382,14.915939409543501 42.55706472459585,14.915939409543501 42.55708639111049,15.145023803205433 42.56022803573328,15.145023803205433 42.56024970224792,14.915939409543501 43.118379119373174,14.915939409543501 43.118400785887815,15.145023803205433 43.29465788248386,15.145023803205433 43.2946795489985,14.915939409543501 44.541197469264425,14.915939409543501 44.54121913577906,15.145023803205433 44.56776061621301,15.145023803205433 44.56778228272765,14.915939409543501 45.721524187305285,14.915939409543501 45.721545853819926,15.145023803205433 45.730927454659025,15.145023803205433 45.730949121173666,14.915939409543501 46.22256233835426,14.915939409543501 46.2225840048689,15.145023803205433 46.261952061969694,15.145023803205433 46.261973728484335,14.915939409543501 46.636414434492046,14.915939409543501 46.63643610100669,15.145023803205433 46.64128940028604,15.145023803205433 46.64131106680068,14.915939409543501 46.75954523719091,14.915939409543501 46.759566903705554,15.145023803205433 46.839213011522034,15.145023803205433 46.839234678036675,14.915939409543501 46.99185360716052,14.915939409543501 46.99187527367516,15.145023803205433 46.998895224418504,15.145023803205433 46.998916890933145,14.915939409543501 47.67166217050377,14.915939409543501 47.671683837018406,15.145023803205433 47.67415381968736,15.145023803205433 47.674175486202,14.915939409543501 49.51405257639776,14.915939409543501 49.51407424291239,15.145023803205433 49.521224192743574,15.145023803205433 49.521245859258215,14.915939409543501 49.73520269132778,14.915939409543501 49.73522435784242,15.145023803205433 49.816777118947215,15.145023803205433 49.816798785461856,14.915939409543501 50.074608643162684,14.915939409543501 50.074630309677325,15.145023803205433 50.10221178281399,15.145023803205433 50.10223344932863,14.915939409543501 50.51463388898555,14.915939409543501 50.514655555500184,15.145023803205433 50.52360382604649,15.145023803205433 50.52362549256113,14.915939409543501 51.10030144621818,14.915939409543501 51.10032311273282,15.145023803205433 51.117894656105825,15.145023803205433 51.11791632262047,14.915939409543501 52.24747839685991,14.915939409543501 52.24750006337455,15.145023803205433 52.25436834851542,15.145023803205433 52.25439001503006,14.915939409543501 52.85632912475731,14.915939409543501 52.85635079127194,15.145023803205433 52.866079056345285,15.145023803205433 52.866100722859926,14.915939409543501 53.591213968315316,14.915939409543501 53.59123563482996,15.145023803205433 53.76391775651041,15.145023803205433 53.76393942302505,14.915939409543501 54.59944356057102,14.915939409543501 54.59946522708566,15.145023803205433 54.603885196072206,15.145023803205433 54.60390686258685,14.915939409543501 54.894454823908646,14.915939409543501 54.89447649042329,15.145023803205433 54.93395288009729,15.145023803205433 54.93397454661193,14.915939409543501 55.11224662906949,14.915939409543501 55.11226829558413,15.145023803205433 55.154691331249154,15.145023803205433 55.154712997763795,14.915939409543501 55.402729590847365,14.915939409543501 55.402751257362006,15.145023803205433 55.4594091931455,15.145023803205433 55.45943085966013,14.915939409543501 56.4333190262115,14.915939409543501 56.433340692726134,15.145023803205433 56.4416173013186,15.145023803205433 56.441638967833235,14.915939409543501 56.55974313913564,14.915939409543501 56.55976480565028,15.145023803205433 56.56578809672018,15.145023803205433 56.565809763234824,14.915939409543501 56.778509937455276,14.915939409543501 56.77853160396991,15.145023803205433 56.79374149724716,15.145023803205433 56.7937631637618,14.915939409543501 57.33614102474381,14.915939409543501 57.33616269125845,15.145023803205433 57.34177431855019,15.145023803205433 57.341795985064834,14.915939409543501 58.3440456192799,14.915939409543501 58.344067285794544,15.145023803205433 58.448261554698085,15.145023803205433 58.448283221212726,14.915939409543501 58.984767790212665,14.915939409543501 58.984789456727306,15.145023803205433 59.00548097820847,15.145023803205433 59.00550264472311,14.915939409543501 59.768358958681304,14.915939409543501 59.768380625195945,15.145023803205433 59.78935381136742,15.145023803205433 59.78937547788206,14.915939409543501 60.88275447267279,14.915939409543501 60.88277613918743,15.145023803205433 60.89118274686773,15.145023803205433 60.89120441338237,14.915939409543501 60.8924177382022,14.915939409543501 60.89243940471684,14.686855015881571 60.938437415297464,14.686855015881571 60.938459081812105,14.45777062221964 61.01557020741571,14.45777062221964 61.015591873930354,14.686855015881571 61.02057517229754,14.686855015881571 61.02059683881218,14.915939409543501 61.737715140365424,14.915939409543501 61.737736806880065,15.145023803205433 61.745775083811495,15.145023803205433 61.745796750326136,14.915939409543501 63.08673734139298,14.915939409543501 63.086759007907624,15.145023803205433 63.09282563200682,15.145023803205433 63.09284729852146,14.915939409543501 63.32160236009011,14.915939409543501 63.32162402660475,15.145023803205433 63.32740898601361,15.145023803205433 63.32743065252825,14.915939409543501 63.67907818513473,14.915939409543501 63.67909985164937,15.145023803205433 63.684841478028964,15.145023803205433 63.684863144543606,14.915939409543501 64.25601413696747,14.915939409543501 64.2560358034821,15.145023803205433 64.27898064248583,15.145023803205433 64.27900230900048,14.915939409543501 64.7885337337883,14.915939409543501 64.78855540030294,15.145023803205433 64.82759845968414,15.145023803205433 64.82762012619878,14.915939409543501 65.00840552435456,14.915939409543501 65.0084271908692,15.145023803205433 65.01427714982201,15.145023803205433 65.01429881633663,14.915939409543501 66.06109480465146,14.915939409543501 66.0611164711661,15.145023803205433 66.06720476177992,15.145023803205433 66.06722642829456,14.915939409543501 66.47230358600316,14.915939409543501 66.4723252525178,15.145023803205433 66.63289579251452,15.145023803205433 66.63291745902916,14.915939409543501 67.0139881185167,14.915939409543501 67.01400978503135,15.145023803205433 67.21269172427974,15.145023803205433 67.21271339079438,14.915939409543501 67.76271786492966,14.915939409543501 67.7627395314443,15.145023803205433 67.77095114049283,15.145023803205433 67.77097280700747,14.915939409543501 68.3727385846176,14.915939409543501 68.37276025113223,15.145023803205433 68.37332358051287,15.145023803205433 68.37334524702752,14.915939409543501 68.90562651218731,14.915939409543501 68.90564817870195,15.145023803205433 68.96666108392806,15.145023803205433 68.9666827504427,14.915939409543501 69.3343851703974,14.915939409543501 69.33440683691204,15.145023803205433 69.35234671103392,15.145023803205433 69.35236837754856,14.915939409543501 69.69870761406824,14.915939409543501 69.69872928058288,15.145023803205433 69.7125091838939,15.145023803205433 69.71253085040854,14.915939409543501 69.85308153087792,14.915939409543501 69.85310319739256,15.145023803205433 69.85810816227439,15.145023803205433 69.85812982878903,14.915939409543501 70.18111256252685,14.915939409543501 70.18113422904149,15.145023803205433 70.186399192099,15.145023803205433 70.18642085861364,14.915939409543501 70.3790578402775,14.915939409543501 70.37907950679212,15.145023803205433 70.38781111219203,15.145023803205433 70.38783277870667,14.915939409543501 70.90694080296537,14.915939409543501 70.90696246948,15.145023803205433 70.91484908080895,15.145023803205433 70.91487074732359,14.915939409543501 71.72760337798296,14.915939409543501 71.7276250444976,15.145023803205433 71.74536991998772,15.145023803205433 71.74539158650236,14.915939409543501 72.39187705032936,14.915939409543501 72.391898716844,15.145023803205433 72.40758527344333,15.145023803205433 72.40760693995797,14.915939409543501 73.21487960892809,14.915939409543501 73.21490127544271,15.145023803205433 73.24750937997584,15.145023803205433 73.24753104649048,14.915939409543501 73.4313714232105,14.915939409543501 73.43139308972515,15.145023803205433 73.44320134020393,15.145023803205433 73.44322300671857,14.915939409543501 73.77350735589005,14.915939409543501 73.77352902240469,15.145023803205433 73.77963897953316,15.145023803205433 73.7796606460478,14.915939409543501 74.64876954780034,14.915939409543501 74.64879121431498,14.686855015881571 74.65017787125193,14.686855015881571 74.65019953776657,14.45777062221964 74.77302700926049,14.45777062221964 74.77304867577512,14.686855015881571 74.77330867395081,14.686855015881571 74.77333034046544,14.915939409543501 75.03848514662921,14.915939409543501 75.03850681314385,15.145023803205433 75.06825493774451,15.145023803205433 75.06827660425915,14.915939409543501 75.53568832458691,14.915939409543501 75.53570999110156,14.686855015881571 75.56892475804462,14.686855015881571 75.56894642455926,14.915939409543501 75.62007939910954,14.915939409543501 75.62010106562418,14.686855015881571 75.66341242838946,14.686855015881571 75.6634340949041,14.915939409543501 76.807772732128,14.915939409543501 76.80779439864264,15.145023803205433 76.8548974014699,15.145023803205433 76.85491906798454,14.915939409543501 77.54907086401943,14.915939409543501 77.54909253053407,15.145023803205433 77.56378242745997,15.145023803205433 77.56380409397461,14.915939409543501 78.47327771250137,14.915939409543501 78.47329937901601,15.145023803205433 78.47841267647105,15.145023803205433 78.4784343429857,14.915939409543501 79.1026899627921,14.915939409543501 79.10271162930673,15.145023803205433 79.10879991992056,15.145023803205433 79.1088215864352,14.915939409543501 79.5113420954163,14.915939409543501 79.51136376193094,15.145023803205433 79.52254368348515,15.145023803205433 79.5225653499998,14.915939409543501 80.09848297564446,14.915939409543501 80.0985046421591,15.145023803205433 80.10285961160172,15.145023803205433 80.10288127811636,14.915939409543501 80.29772824427349,14.915939409543501 80.29774991078813,15.145023803205433 80.36662776082854,15.145023803205433 80.36664942734318,14.915939409543501 80.47669365519951,14.915939409543501 80.47671532171415,15.145023803205433 80.49530519127524,15.145023803205433 80.49532685778988,14.915939409543501 80.63895418333814,14.915939409543501 80.63897584985278,15.145023803205433 80.69093215195939,15.145023803205433 80.69095381847403,14.915939409543501 81.04017470144083,14.915939409543501 81.04019636795547,15.145023803205433 81.19119030848132,15.145023803205433 81.19121197499597,14.915939409543501 81.66373699277877,14.915939409543501 81.6637586592934,15.145023803205433 81.67662856898953,15.145023803205433 81.67665023550417,14.915939409543501 81.84471738956631,14.915939409543501 81.84473905608095,15.145023803205433 81.87715216198232,15.145023803205433 81.87717382849696,14.915939409543501 82.17235842395172,14.915939409543501 82.17238009046636,15.145023803205433 82.19168495501057,15.145023803205433 82.19170662152521,14.915939409543501 82.29022426359309,14.915939409543501 82.29024593010773,14.686855015881571 82.29026759662237,14.686855015881571 82.29026759662237,14.45777062221964 82.41331173326266,14.45777062221964 82.4133333997773,14.686855015881571 82.41818669905666,14.686855015881571 82.4182083655713,14.915939409543501 83.30506214281397,14.915939409543501 83.30508380932861,15.145023803205433 83.42195298929653,15.145023803205433 83.42197465581117,14.915939409543501 84.04308863099477,14.915939409543501 84.04311029750941,15.145023803205433 84.04313196402406,15.145023803205433 84.04313196402406,14.915939409543501 84.40320777082546,14.915939409543501 84.4032294373401,15.145023803205433 84.42738760116366,15.145023803205433 84.4274092676783,14.915939409543501 84.6354728077658,14.915939409543501 84.63549447428043,15.145023803205433 84.70838062952924,15.145023803205433 84.70840229604389,14.915939409543501 85.04496993446097,14.915939409543501 85.04499160097559,15.145023803205433 85.11393445055994,15.145023803205433 85.11395611707458,14.915939409543501 85.26687837740339,14.915939409543501 85.26690004391803,15.145023803205433 85.27249000469513,15.145023803205433 85.27251167120977,14.915939409543501 86.62699383392659,14.915939409543501 86.62701550044123,15.145023803205433 86.627210499073,15.145023803205433 86.62723216558764,14.915939409543501 86.81408418784261,14.915939409543501 86.81410585435725,15.145023803205433 86.82756075994867,15.145023803205433 86.82758242646331,14.915939409543501 87.67604313976396,14.915939409543501 87.6760648062786,15.145023803205433 87.76816916001306,15.145023803205433 87.7681908265277,14.915939409543501 88.57940680116228,14.915939409543501 88.57942846767692,15.145023803205433 88.59598168486184,15.145023803205433 88.59600335137648,14.915939409543501 89.01525040965963,14.915939409543501 89.01527207617427,15.145023803205433 89.03095863277359,15.145023803205433 89.03098029928823,14.915939409543501 89.14648448883383,14.915939409543501 89.14650615534848,15.145023803205433 89.15268111202086,15.145023803205433 89.1527027785355,14.915939409543501 89.96140543747185,14.915939409543501 89.96142710398648,15.145023803205433 89.96753706111495,15.145023803205433 89.9675587276296,14.915939409543501 90.16546067235095,14.915939409543501 90.16548233886559,15.145023803205433 90.17432227683868,15.145023803205433 90.17434394335332,14.915939409543501 90.89755053552041,14.915939409543501 90.89757220203505,14.686855015881571 90.95657012139965,14.686855015881571 90.95659178791429,14.915939409543501 91.01994467672151,14.915939409543501 91.01996634323615,15.145023803205433 91.04919447148545,15.145023803205433 91.04921613800009,14.915939409543501 91.7024832209094,14.915939409543501 91.70250488742404,15.145023803205433 91.75911949017824,15.145023803205433 91.75914115669288,14.915939409543501 92.1014287549749,14.915939409543501 92.10145042148955,15.145023803205433 92.31438892737101,15.145023803205433 92.31441059388565,14.915939409543501 92.577485414644,14.915939409543501 92.57750708115864,15.145023803205433 92.72327939165626,15.145023803205433 92.7233010581709,14.915939409543501 94.20929896475226,14.915939409543501 94.2093206312669,15.145023803205433 94.2263505117739,15.145023803205433 94.22637217828854,14.915939409543501 94.9504887640705,14.915939409543501 94.95051043058514,15.145023803205433 94.9848085232602,15.145023803205433 94.98483018977483,14.915939409543501 95.19787702822953,14.915939409543501 95.19789869474417,15.145023803205433 95.31238455810168,15.145023803205433 95.31240622461632,14.915939409543501 95.53856130442817,14.915939409543501 95.53858297094281,15.145023803205433 95.70621679471215,15.145023803205433 95.70623846122679,14.915939409543501 95.95455838551533,14.915939409543501 95.95458005202997,15.145023803205433 96.03394449515613,15.145023803205433 96.03396616167076,14.915939409543501 97.49418091583057,14.915939409543501 97.49420258234521,15.145023803205433 97.59462687770142,15.145023803205433 97.59464854421604,14.915939409543501 98.5555151354688,14.915939409543501 98.5555151354688,15.145023803205433" fill="black" stroke="black" stroke-width="0.1" />
<polygon points="2.166651463995561e-05,16.672253094284972 2.166651463995561e-05,16.672253094284972 1.2015382358733782,16.672253094284972 1.2015599023880181,15.526831125975319 1.2302247012566794,15.526831125975319 1.2302463677713196,16.672253094284972 2.9820707424702904,16.672253094284972 2.9820924089849306,15.526831125975319 3.0166938328649393,15.526831125975319 3.016715499379579,16.672253094284972 3.0967299379449353,16.672253094284972 3.0967516044595755,15.526831125975319 3.1313530283395847,15.526831125975319 3.1313746948542245,16.672253094284972 5.484574849899803,16.672253094284972 5.4845965164144435,15.526831125975319 5.494714778751302,15.526831125975319 5.494736445265942,16.672253094284972 6.653613313813247,16.672253094284972 6.653634980327888,15.526831125975319 6.782074079113545,15.526831125975319 6.782095745628185,16.672253094284972 8.345464775988821,16.672253094284972 8.345486442503462,15.526831125975319 8.3748445698406,15.526831125975319 8.37486623635524,16.672253094284972 9.091161210352173,16.672253094284972 9.091182876866814,15.526831125975319 9.106652768319742,15.526831125975319 9.106674434834382,16.672253094284972 10.256971363584265,16.672253094284972 10.256993030098904,15.526831125975319 10.285701161996846,15.526831125975319 10.285722828511487,16.672253094284972 12.151253072040943,16.672253094284972 12.151274738555584,15.526831125975319 12.17740455521137,15.526831125975319 12.17742622172601,16.672253094284972 14.53539300999238,16.672253094284972 14.53541467650702,15.526831125975319 14.568824442081832,15.526831125975319 14.568846108596471,16.672253094284972 16.720569344005103,16.672253094284972 16.720591010519744,15.526831125975319 16.754217441240954,15.526831125975319 16.75423910775559,16.672253094284972 17.5607534487133,16.672253094284972 17.56077511522794,15.526831125975319 17.59476987669803,15.526831125975319 17.594791543212672,16.672253094284972 21.346305220091708,16.672253094284972 21.346326886606345,15.526831125975319 21.375208350621406,15.526831125975319 21.375230017136044,16.672253094284972 24.914000186765357,16.672253094284972 24.914021853279998,15.526831125975319 24.94571996419825,15.526831125975319 24.94574163071289,16.672253094284972 26.206364452009428,16.672253094284972 26.206386118524065,15.526831125975319 26.23520258299521,15.526831125975319 26.235224249509848,16.672253094284972 26.4535143845074,16.672253094284972 26.45353605102204,15.526831125975319 26.482070850802863,15.526831125975319 26.4820925173175,16.672253094284972 26.523952223601896,16.672253094284972 26.523973890116537,15.526831125975319 26.553917013348954,15.526831125975319 26.553938679863595,16.672253094284972 27.468525595845403,16.672253094284972 27.468547262360044,15.526831125975319 27.497948722726463,15.526831125975319 27.4979703892411,16.672253094284972 28.164735710771094,16.672253094284972 28.164757377285735,15.526831125975319 28.191688854983198,15.526831125975319 28.19171052149784,16.672253094284972 28.356722696995742,16.672253094284972 28.356744363510384,15.526831125975319 28.368487614445236,15.526831125975319 28.368509280959877,16.672253094284972 28.46440527475632,16.672253094284972 28.46442694127096,15.526831125975319 28.520239882983486,15.526831125975319 28.520261549498127,16.672253094284972 28.7001152875244,16.672253094284972 28.70013695403904,15.526831125975319 28.7292350832005,15.526831125975319 28.729256749715137,16.672253094284972 29.406118667067354,16.672253094284972 29.40614033358199,15.526831125975319 29.439290100981125,15.526831125975319 29.439311767495767,16.672253094284972 30.42515985012838,16.672253094284972 30.425181516643022,15.526831125975319 30.44377138620411,15.526831125975319 30.44379305271875,16.672253094284972 30.700887915436457,16.672253094284972 30.700909581951098,15.526831125975319 30.729921045054,15.526831125975319 30.72994271156864,16.672253094284972 38.52327969498747,16.672253094284972 38.523301361502114,15.526831125975319 38.552117825973255,15.526831125975319 38.552139492487896,16.672253094284972 44.251429502469655,16.672253094284972 44.251451168984296,15.526831125975319 44.27090769913097,15.526831125975319 44.270929365645614,16.672253094284972 45.33653188866791,16.672253094284972 45.336553555182554,15.526831125975319 45.36595501554897,15.526831125975319 45.36597668206361,16.672253094284972 45.37631160954687,16.672253094284972 45.37633327606151,15.526831125975319 45.41498633817919,15.526831125975319 45.41500800469383,16.672253094284972 45.446511116980325,16.672253094284972 45.446532783494966,15.526831125975319 45.4726842666654,15.526831125975319 45.47270593318004,16.672253094284972 49.05389913847438,16.672253094284972 49.05392080498901,15.526831125975319 49.10310379322171,15.526831125975319 49.103125459736354,16.672253094284972 50.295022096594955,16.672253094284972 50.2950437631096,15.526831125975319 50.32893019200648,15.526831125975319 50.32895185852112,16.672253094284972 51.871867699061646,16.672253094284972 51.87188936557629,15.526831125975319 51.891085897547285,15.526831125975319 51.891107564061926,16.672253094284972 55.702897484669315,16.672253094284972 55.702919151183956,15.526831125975319 55.761180409050795,15.526831125975319 55.761202075565436,16.672253094284972 60.65074943390813,16.672253094284972 60.65077110042277,15.526831125975319 60.67945756580608,15.526831125975319 60.67947923232072,16.672253094284972 60.83053817239049,16.672253094284972 60.83055983890513,15.526831125975319 60.86230128285267,15.526831125975319 60.86232294936731,16.672253094284972 60.87183454929425,16.672253094284972 60.87185621580889,15.526831125975319 60.890836082633484,15.526831125975319 60.890857749148125,16.672253094284972 60.89098774823596,16.672253094284972 60.8910094147506,15.526831125975319 61.02061850532682,15.526831125975319 61.020640171841464,16.672253094284972 63.418126682811106,16.672253094284972 63.41814834932575,15.526831125975319 63.476539606280426,15.526831125975319 63.47656127279507,16.672253094284972 63.96821782300495,16.672253094284972 63.968239489519576,15.526831125975319 63.998290945325195,15.526831125975319 63.998312611839836,16.672253094284972 69.07705197601862,16.672253094284972 69.07707364253326,15.526831125975319 69.10812175801233,15.526831125975319 69.10814342452696,16.672253094284972 74.62855468964126,16.672253094284972 74.6285763561559,15.526831125975319 74.6425729246133,15.526831125975319 74.64259459112795,16.672253094284972 74.6487478812857,16.672253094284972 74.64876954780034,15.526831125975319 74.77681864932248,15.526831125975319 74.77684031583712,16.672253094284972 75.09100477811647,16.672253094284972 75.09102644463111,15.526831125975319 75.11143630142195,15.526831125975319 75.11145796793659,16.672253094284972 75.51798678212607,16.672253094284972 75.51800844864071,15.526831125975319 75.53350000660829,15.526831125975319 75.53352167312293,16.672253094284972 75.53371667175469,16.672253094284972 75.53373833826933,15.526831125975319 75.66399742428474,15.526831125975319 75.66401909079939,16.672253094284972 78.52059738047504,16.672253094284972 78.52061904698968,15.526831125975319 78.54007557713636,15.526831125975319 78.540097243651,16.672253094284972 78.96086095795894,16.672253094284972 78.96088262447358,15.526831125975319 79.09337336149692,15.526831125975319 79.09339502801156,16.672253094284972 79.3217167592874,16.672253094284972 79.32173842580204,15.526831125975319 79.35059822330247,15.526831125975319 79.3506198898171,16.672253094284972 82.2895309351246,16.672253094284972 82.28955260163924,15.526831125975319 82.41866336237874,15.526831125975319 82.41868502889338,16.672253094284972 90.89404056014874,16.672253094284972 90.89406222666337,15.526831125975319 91.01996634323615,15.526831125975319 91.01998800975079,16.672253094284972 92.66510479984798,16.672253094284972 92.66512646636262,15.526831125975319 92.69394293083376,15.526831125975319 92.6939645973484,16.672253094284972 93.37318816479637,16.672253094284972 93.37320983131102,15.526831125975319 93.40243795956032,15.526831125975319 93.40245962607496,16.672253094284972 94.74129856522173,16.672253094284972 94.74132023173637,15.526831125975319 94.8023981365064,15.526831125975319 94.80241980302104,16.672253094284972 95.65306883430034,16.672253094284972 95.65309050081498,15.526831125975319 95.682275296035,15.526831125975319 95.68229696254964,16.672253094284972 98.5555151354688,16.672253094284972 98.5555151354688,16.672253094284972" fill="blue" stroke="blue" stroke-width="0.1" />
<polygon points="2.166651463995561e-05,18.19948238536451 2.166651463995561e-05,17.97039799170258 5.487348163773717,17.97039799170258 5.487369830288357,17.741313598040648 5.491941464877388,17.741313598040648 5.491963131392028,17.97039799170258 6.653613313813247,17.97039799170258 6.653634980327888,17.741313598040648 6.655151636352685,17.741313598040648 6.6551733028673254,17.51222920437872 6.777697443156274,17.51222920437872 6.7777191096709135,17.741313598040648 6.782074079113545,17.741313598040648 6.782095745628185,17.97039799170258 21.654728055991473,17.97039799170258 21.654749722506114,17.741313598040648 21.66597297708961,17.741313598040648 21.66599464360425,17.97039799170258 36.77251697950586,17.97039799170258 36.7725386460205,17.741313598040648 36.77676361637529,17.741313598040648 36.77678528288993,17.97039799170258 38.17228215782019,17.97039799170258 38.17230382433483,17.741313598040648 38.18027710172234,17.741313598040648 38.18029876823698,17.97039799170258 46.62399952160336,17.97039799170258 46.624021188118,17.741313598040648 46.83899634637563,17.741313598040648 46.83901801289027,17.51222920437872 46.83927801106595,17.51222920437872 46.83929967758059,17.054060417054856 46.84638462786786,17.054060417054856 46.846406294382504,17.51222920437872 47.05895480300046,17.51222920437872 47.0589764695151,17.741313598040648 47.06207478110861,17.741313598040648 47.062096447623254,17.97039799170258 52.85444413798363,17.97039799170258 52.85446580449827,17.741313598040648 52.863024077781056,17.741313598040648 52.8630457442957,17.97039799170258 60.87194288186744,17.97039799170258 60.87196454838208,17.741313598040648 60.88275447267279,17.741313598040648 60.88277613918743,17.97039799170258 60.89246107123148,17.97039799170258 60.89248273774612,17.51222920437872 61.02057517229754,17.51222920437872 61.02059683881218,17.97039799170258 74.65000453913481,17.97039799170258 74.65002620564945,17.51222920437872 74.77350367258256,17.51222920437872 74.7735253390972,17.97039799170258 75.53566665807227,17.97039799170258 75.53568832458691,17.741313598040648 75.53570999110156,17.741313598040648 75.53570999110156,17.283144810716788 75.61191112309028,17.283144810716788 75.61193278960492,17.51222920437872 75.61973273487531,17.51222920437872 75.61975440138995,17.283144810716788 75.65890579334435,17.283144810716788 75.65892745985899,17.51222920437872 75.66044411588379,17.51222920437872 75.66046578239843,17.741313598040648 75.6636507600505,17.741313598040648 75.66367242656514,17.97039799170258 78.96086095795894,17.97039799170258 78.96088262447358,17.741313598040648 78.96523759391621,17.741313598040648 78.96525926043086,17.51222920437872 79.08858506176148,17.51222920437872 79.08860672827612,17.741313598040648 79.09012338430091,17.741313598040648 79.09014505081555,17.97039799170258 82.2895309351246,17.97039799170258 82.28955260163924,17.741313598040648 82.29005093147596,17.741313598040648 82.2900725979906,17.51222920437872 82.29024593010773,17.51222920437872 82.29026759662237,17.283144810716788 82.41357173143834,17.283144810716788 82.41359339795298,17.51222920437872 82.41831669814451,17.51222920437872 82.41833836465914,17.741313598040648 82.41866336237874,17.741313598040648 82.41868502889338,17.97039799170258 85.81064289532235,17.97039799170258 85.81066456183699,17.741313598040648 86.09187425534898,17.741313598040648 86.09189592186361,17.97039799170258 86.62019054832966,17.97039799170258 86.6202122148443,17.741313598040648 86.62697216741196,17.741313598040648 86.62699383392659,17.97039799170258 90.89735553688865,17.97039799170258 90.8973772034033,17.51222920437872 91.01994467672151,17.51222920437872 91.01996634323615,17.97039799170258 95.64747887352323,17.97039799170258 95.64750054003787,17.741313598040648 95.65341549853459,17.741313598040648 95.65343716504923,17.97039799170258 97.04865237528917,17.97039799170258 97.0486740418038,17.741313598040648 97.48196100157364,17.741313598040648 97.48198266808828,17.97039799170258 98.5555151354688,17.97039799170258 98.5555151354688,18.19948238536451" fill="black" stroke="black" stroke-width="0.1" />
<polygon points="103.55555846849808,15.145023803205433 103.55555846849808,15.145023803205433 103.55575346712983,15.145023803205433 103.55577513364447,14.915939409543501 103.76890863815773,14.915939409543501 103.76893030467235,15.145023803205433 103.77441193287626,15.145023803205433 103.7744335993909,14.915939409543501 104.080429785651,14.915939409543501 104.08045145216563,15.145023803205433 104.10148963788103,15.145023803205433 104.10151130439567,14.915939409543501 104.43498063121923,14.915939409543501 104.43500229773387,15.145023803205433 104.99987000091215,15.145023803205433 104.99987000091215,15.145023803205433" fill="black" stroke="black" stroke-width="0.1" />
<polygon points="103.55555846849808,16.672253094284972 103.55555846849808,16.672253094284972 103.7653769962714,16.672253094284972 103.76539866278604,15.526831125975319 103.77675191645739,15.526831125975319 103.77677358297203,16.672253094284972 104.3347513344948,16.672253094284972 104.33477300100944,15.526831125975319 104.34809790751301,15.526831125975319 104.34811957402765,16.672253094284972 104.58315792484188,16.672253094284972 104.58317959135653,15.526831125975319 104.5965044978601,15.526831125975319 104.59652616437474,16.672253094284972 104.99987000091215,16.672253094284972 104.99987000091215,16.672253094284972" fill="blue" stroke="blue" stroke-width="0.1" />
<polygon points="103.55555846849808,18.19948238536451 103.55555846849808,18.19948238536451 103.63429458269968,18.19948238536451 103.63431624921431,17.97039799170258 104.05260998085329,17.97039799170258 104.05263164736793,17.741313598040648 104.06725654474991,17.741313598040648 104.06727821126455,17.97039799170258 104.3347513344948,17.97039799170258 104.33477300100944,17.741313598040648 104.34809790751301,17.741313598040648 104.34811957402765,17.97039799170258 104.3747693870348,17.97039799170258 104.37479105354943,17.741313598040648 104.38094434370718,17.741313598040648 104.38096601022183,17.97039799170258 104.40300085561066,17.97039799170258 104.4030225221253,18.19948238536451 104.50156183070781,18.19948238536451 104.50158349722246,17.97039799170258 104.880487505246,17.97039799170258 104.88050917176064,18.19948238536451 104.99987000091215,18.19948238536451 104.99987000091215,18.19948238536451" fill="black" stroke="black" stroke-width="0.1" />
<!-- assembly contigs before -->
<polygon points="0,0 103.09642996118222,0 103.09642996118222,1.2726910758996162 0,1.2726910758996162" fill="grey" stroke="grey" stroke-width="0" />
<polygon points="105.09642996118222,0 106.04197935092252,0 106.04197935092252,1.2726910758996162 105.09642996118222,1.2726910758996162" fill="grey" stroke="grey" stroke-width="0" />
<!-- assembly contigs after -->
<polygon points="0,30.54458582159079 98.9002281919794,30.54458582159079 98.9002281919794,31.817276897490405 0,31.817276897490405" fill="grey" stroke="grey" stroke-width="0" />
<polygon points="100.9002281919794,30.54458582159079 101.65082207178904,30.54458582159079 101.65082207178904,31.817276897490405 100.9002281919794,31.817276897490405" fill="grey" stroke="grey" stroke-width="0" />
<polygon points="103.65082207178904,30.54458582159079 103.6786635732628,30.54458582159079 103.6786635732628,31.817276897490405 103.65082207178904,31.817276897490405" fill="grey" stroke="grey" stroke-width="0" />
<polygon points="105.6786635732628,30.54458582159079 106.05758965830135,30.54458582159079 106.05758965830135,31.817276897490405 105.6786635732628,31.817276897490405" fill="grey" stroke="grey" stroke-width="0" />
<!-- hits before vs ref -->
<polygon points="31.583854269131336,1.5272292910795393 32.23961371162531,1.5272292910795393 0.6370828866415392,13.745063619715854 0.0,13.745063619715854" fill="lightblue" fill-opacity="0.5" stroke="blue" stroke-width="0.1" />
<polygon points="32.30368166482212,1.5272292910795393 32.723644173044576,1.5272292910795393 1.0898485335653676,13.745063619715854 0.6858542639313674,13.745063619715854" fill="lightblue" fill-opacity="0.5" stroke="blue" stroke-width="0.1" />
<polygon points="32.81479529888123,1.5272292910795393 33.10088026811041,1.5272292910795393 1.4356248152927626,13.745063619715854 1.1561698067258135,13.745063619715854" fill="lightblue" fill-opacity="0.5" stroke="blue" stroke-width="0.1" />
<polygon points="33.12980509648976,1.5272292910795393 33.647202026601306,1.5272292910795393 1.9669533294102455,13.745063619715854 1.4612563298791095,13.745063619715854" fill="lightblue" fill-opacity="0.5" stroke="blue" stroke-width="0.1" />
<polygon points="33.68069849452227,1.5272292910795393 33.90639882203366,1.5272292910795393 2.219931828404485,13.745063619715854 1.9982398104437913,13.745063619715854" fill="lightblue" fill-opacity="0.5" stroke="blue" stroke-width="0.1" />
<polygon points="33.947760243289224,1.5272292910795393 34.99167571605742,1.5272292910795393 3.261962312356947,13.745063619715854 2.2509366444425765,13.745063619715854" fill="lightblue" fill-opacity="0.5" stroke="blue" stroke-width="0.1" />
<polygon points="35.23832758592299,1.5272292910795393 35.968706585674255,1.5272292910795393 4.214228328911915,13.745063619715854 3.4923209455623896,13.745063619715854" fill="lightblue" fill-opacity="0.5" stroke="blue" stroke-width="0.1" />
<polygon points="36.00261471781934,1.5272292910795393 36.25877819791602,1.5272292910795393 4.469308482103006,13.745063619715854 4.221724951098624,13.745063619715854" fill="lightblue" fill-opacity="0.5" stroke="blue" stroke-width="0.1" />
<polygon points="36.28187472754328,1.5272292910795393 36.50200675475992,1.5272292910795393 4.702505431801105,13.745063619715854 4.490043359076069,13.745063619715854" fill="lightblue" fill-opacity="0.5" stroke="blue" stroke-width="0.1" />
<polygon points="36.508095051969356,1.5272292910795393 37.50989077464807,1.5272292910795393 5.675246326871794,13.745063619715854 4.708355397091311,13.745063619715854" fill="lightblue" fill-opacity="0.5" stroke="blue" stroke-width="0.1" />
<polygon points="37.579093697377395,1.5272292910795393 37.83430384979716,1.5272292910795393 5.967311260619853,13.745063619715854 5.725339362986446,13.745063619715854" fill="lightblue" fill-opacity="0.5" stroke="blue" stroke-width="0.1" />
<polygon points="37.879565247912865,1.5272292910795393 38.19609170318923,1.5272292910795393 6.304984257093408,13.745063619715854 5.998207743967386,13.745063619715854" fill="lightblue" fill-opacity="0.5" stroke="blue" stroke-width="0.1" />
<polygon points="38.28314785332274,1.5272292910795393 38.39509885574679,1.5272292910795393 6.485184854569862,13.745063619715854 6.382810461991259,13.745063619715854" fill="lightblue" fill-opacity="0.5" stroke="blue" stroke-width="0.1" />
<polygon points="11.09591083092907,1.5272292910795393 10.966193267253281,1.5272292910795393 6.782103092854982,13.745063619715854 6.653880520308912,13.745063619715854" fill="pink" fill-opacity="0.5" stroke="orchid" stroke-width="0.1" />
<polygon points="38.59768098709281,1.5272292910795393 39.137936114912385,1.5272292910795393 7.212985536285817,13.745063619715854 6.6849720024994514,13.745063619715854" fill="lightblue" fill-opacity="0.5" stroke="blue" stroke-width="0.1" />
<polygon points="39.14346108213091,1.5272292910795393 39.364893101634266,1.5272292910795393 7.427657595898264,13.745063619715854 7.218380504275674,13.745063619715854" fill="lightblue" fill-opacity="0.5" stroke="blue" stroke-width="0.1" />
<polygon points="39.37912801717376,1.5272292910795393 39.67799624388895,1.5272292910795393 7.736925760907153,13.745063619715854 7.444037498710841,13.745063619715854" fill="lightblue" fill-opacity="0.5" stroke="blue" stroke-width="0.1" />
<polygon points="39.75762077145009,1.5272292910795393 39.900338257993006,1.5272292910795393 7.9352829173213575,13.745063619715854 7.799022059135782,13.745063619715854" fill="lightblue" fill-opacity="0.5" stroke="blue" stroke-width="0.1" />
<polygon points="40.08199051352295,1.5272292910795393 41.37225452462315,1.5272292910795393 9.32419467644492,13.745063619715854 8.081878714186296,13.745063619715854" fill="lightblue" fill-opacity="0.5" stroke="blue" stroke-width="0.1" />
<polygon points="41.38365112367,1.5272292910795393 41.974324285675905,1.5272292910795393 9.904337900928455,13.745063619715854 9.33344628821869,13.745063619715854" fill="lightblue" fill-opacity="0.5" stroke="blue" stroke-width="0.1" />
<polygon points="41.984290893207366,1.5272292910795393 42.27863081345717,1.5272292910795393 10.19878615386882,13.745063619715854 9.912701184639637,13.745063619715854" fill="lightblue" fill-opacity="0.5" stroke="blue" stroke-width="0.1" />
<polygon points="42.292042400548425,1.5272292910795393 42.64044033338736,1.5272292910795393 10.539427466063701,13.745063619715854 10.206911105660772,13.745063619715854" fill="lightblue" fill-opacity="0.5" stroke="blue" stroke-width="0.1" />
<polygon points="42.66197687227056,1.5272292910795393 43.449165534951156,1.5272292910795393 11.32046283192053,13.745063619715854 10.55860235229271,13.745063619715854" fill="lightblue" fill-opacity="0.5" stroke="blue" stroke-width="0.1" />
<polygon points="43.658940956950325,1.5272292910795393 43.793966822463524,1.5272292910795393 11.627651009270677,13.745063619715854 11.503566745503976,13.745063619715854" fill="lightblue" fill-opacity="0.5" stroke="blue" stroke-width="0.1" />
<polygon points="43.81130005295302,1.5272292910795393 44.226864253938764,1.5272292910795393 12.0524884885683,13.745063619715854 11.648277553553182,13.745063619715854" fill="lightblue" fill-opacity="0.5" stroke="blue" stroke-width="0.1" />
<polygon points="44.24376415366602,1.5272292910795393 44.45754788521588,1.5272292910795393 12.274548837676896,13.745063619715854 12.066766737184025,13.745063619715854" fill="lightblue" fill-opacity="0.5" stroke="blue" stroke-width="0.1" />
<polygon points="44.46599783507951,1.5272292910795393 44.82984400959221,1.5272292910795393 12.640864997534349,13.745063619715854 12.28152546294892,13.745063619715854" fill="lightblue" fill-opacity="0.5" stroke="blue" stroke-width="0.1" />
<polygon points="44.84340726245024,1.5272292910795393 45.23359994730698,1.5272292910795393 13.034849326560662,13.745063619715854 12.654449916930492,13.745063619715854" fill="lightblue" fill-opacity="0.5" stroke="blue" stroke-width="0.1" />
<polygon points="45.24789986246082,1.5272292910795393 46.07575661717741,1.5272292910795393 13.847236173065374,13.745063619715854 13.04557426292604,13.745063619715854" fill="lightblue" fill-opacity="0.5" stroke="blue" stroke-width="0.1" />
<polygon points="46.11235140004836,1.5272292910795393 46.62426669601761,1.5272292910795393 14.37433971225104,13.745063619715854 13.879324316009058,13.745063619715854" fill="lightblue" fill-opacity="0.5" stroke="blue" stroke-width="0.1" />
<polygon points="46.64352824839906,1.5272292910795393 47.111785470072874,1.5272292910795393 14.84435192351192,13.745063619715854 14.391261278516414,13.745063619715854" fill="lightblue" fill-opacity="0.5" stroke="blue" stroke-width="0.1" />
<polygon points="47.12125374722777,1.5272292910795393 47.65880055778336,1.5272292910795393 15.346993941169282,13.745063619715854 14.848316899986393,13.745063619715854" fill="lightblue" fill-opacity="0.5" stroke="blue" stroke-width="0.1" />
<polygon points="47.70629360932458,1.5272292910795393 47.93268726605555,1.5272292910795393 15.609462383856522,13.745063619715854 15.384737050560167,13.745063619715854" fill="lightblue" fill-opacity="0.5" stroke="blue" stroke-width="0.1" />
<polygon points="47.946445517756594,1.5272292910795393 48.206508974713415,1.5272292910795393 15.877889124524529,13.745063619715854 15.61786900064393,13.745063619715854" fill="lightblue" fill-opacity="0.5" stroke="blue" stroke-width="0.1" />
<polygon points="48.236235465002906,1.5272292910795393 48.356159753452125,1.5272292910795393 16.023011596797858,13.745063619715854 15.900183992241645,13.745063619715854" fill="lightblue" fill-opacity="0.5" stroke="blue" stroke-width="0.1" />
<polygon points="48.36740468673219,1.5272292910795393 49.242364495303995,1.5272292910795393 16.87151656233506,13.745063619715854 16.035123191602395,13.745063619715854" fill="lightblue" fill-opacity="0.5" stroke="blue" stroke-width="0.1" />
<polygon points="49.282707589268306,1.5272292910795393 49.491898014738446,1.5272292910795393 17.1038685170468,13.745063619715854 16.90280304336861,13.745063619715854" fill="lightblue" fill-opacity="0.5" stroke="blue" stroke-width="0.1" />
<polygon points="49.53601108633422,1.5272292910795393 50.37355278358682,1.5272292910795393 17.94910183532911,13.745063619715854 17.135631661918804,13.745063619715854" fill="lightblue" fill-opacity="0.5" stroke="blue" stroke-width="0.1" />
<polygon points="50.39043101677597,1.5272292910795393 50.896431347840675,1.5272292910795393 18.462317123585066,13.745063619715854 17.96390008085952,13.745063619715854" fill="lightblue" fill-opacity="0.5" stroke="blue" stroke-width="0.1" />
<polygon points="50.9213045335931,1.5272292910795393 51.081940247154535,1.5272292910795393 18.648779350575854,13.745063619715854 18.49254194425113,13.745063619715854" fill="lightblue" fill-opacity="0.5" stroke="blue" stroke-width="0.1" />
<polygon points="51.10022680532096,1.5272292910795393 51.287144029612094,1.5272292910795393 18.840961543628175,13.745063619715854 18.664769255702417,13.745063619715854" fill="lightblue" fill-opacity="0.5" stroke="blue" stroke-width="0.1" />
<polygon points="51.3274871235764,1.5272292910795393 52.14537727076152,1.5272292910795393 19.66485332187029,13.745063619715854 18.874414678472906,13.745063619715854" fill="lightblue" fill-opacity="0.5" stroke="blue" stroke-width="0.1" />
<polygon points="52.16567881697235,1.5272292910795393 52.42266562551729,1.5272292910795393 19.92305345654949,13.745063619715854 19.67828657549965,13.745063619715854" fill="lightblue" fill-opacity="0.5" stroke="blue" stroke-width="0.1" />
<polygon points="52.42903558772218,1.5272292910795393 53.10331992030181,1.5272292910795393 20.574392925268643,13.745063619715854 19.928751756072913,13.745063619715854" fill="lightblue" fill-opacity="0.5" stroke="blue" stroke-width="0.1" />
<polygon points="53.11189986939411,1.5272292910795393 53.43087464347712,1.5272292910795393 20.879847779569843,13.745063619715854 20.58082788708787,13.745063619715854" fill="lightblue" fill-opacity="0.5" stroke="blue" stroke-width="0.1" />
<polygon points="53.43954125872187,1.5272292910795393 54.25888306396049,1.5272292910795393 21.663374797309537,13.745063619715854 20.884744417183125,13.745063619715854" fill="lightblue" fill-opacity="0.5" stroke="blue" stroke-width="0.1" />
<polygon points="54.24711813376574,1.5272292910795393 54.48794170487922,1.5272292910795393 21.88331182568317,13.745063619715854 21.654773181679122,13.745063619715854" fill="lightblue" fill-opacity="0.5" stroke="blue" stroke-width="0.1" />
<polygon points="54.5150898771334,1.5272292910795393 54.98956539524532,1.5272292910795393 22.365977295201382,13.745063619715854 21.900038393105536,13.745063619715854" fill="lightblue" fill-opacity="0.5" stroke="blue" stroke-width="0.1" />
<polygon points="54.99818867741385,1.5272292910795393 55.6608380790274,1.5272292910795393 23.010210139419836,13.745063619715854 22.368468947084246,13.745063619715854" fill="lightblue" fill-opacity="0.5" stroke="blue" stroke-width="0.1" />
<polygon points="55.669006363895576,1.5272292910795393 56.894942423341625,1.5272292910795393 24.190299804221162,13.745063619715854 23.018638422745358,13.745063619715854" fill="lightblue" fill-opacity="0.5" stroke="blue" stroke-width="0.1" />
<polygon points="56.91522230301434,1.5272292910795393 57.06160143449816,1.5272292910795393 24.358497139583637,13.745063619715854 24.210103020055413,13.745063619715854" fill="lightblue" fill-opacity="0.5" stroke="blue" stroke-width="0.1" />
<polygon points="57.08950793558625,1.5272292910795393 57.37047960182103,1.5272292910795393 24.65623870631701,13.745063619715854 24.38395532186509,13.745063619715854" fill="lightblue" fill-opacity="0.5" stroke="blue" stroke-width="0.1" />
<polygon points="57.376871230564035,1.5272292910795393 58.638427078666005,1.5272292910795393 25.905942958071783,13.745063619715854 24.662760334288684,13.745063619715854" fill="lightblue" fill-opacity="0.5" stroke="blue" stroke-width="0.1" />
<polygon points="58.650517006932425,1.5272292910795393 59.24450514926945,1.5272292910795393 26.484526191811263,13.745063619715854 25.913634579101497,13.745063619715854" fill="lightblue" fill-opacity="0.5" stroke="blue" stroke-width="0.1" />
<polygon points="59.271371656528174,1.5272292910795393 62.06897672407144,1.5272292910795393 29.194923443454236,13.745063619715854 26.507731054129078,13.745063619715854" fill="lightblue" fill-opacity="0.5" stroke="blue" stroke-width="0.1" />
<polygon points="62.12680471429203,1.5272292910795393 63.17440349853924,1.5272292910795393 30.28219365898429,13.745063619715854 29.244193151120637,13.745063619715854" fill="lightblue" fill-opacity="0.5" stroke="blue" stroke-width="0.1" />
<polygon points="63.19544170704587,1.5272292910795393 63.468093422645694,1.5272292910795393 30.566675304393197,13.745063619715854 30.299895220621693,13.745063619715854" fill="lightblue" fill-opacity="0.5" stroke="blue" stroke-width="0.1" />
<polygon points="63.48295666779044,1.5272292910795393 63.835991239785315,1.5272292910795393 30.9234148544052,13.745063619715854 30.578266902283048,13.745063619715854" fill="lightblue" fill-opacity="0.5" stroke="blue" stroke-width="0.1" />
<polygon points="63.85954276671292,1.5272292910795393 64.79874386078643,1.5272292910795393 31.841317741514732,13.745063619715854 30.94382473330658,13.745063619715854" fill="lightblue" fill-opacity="0.5" stroke="blue" stroke-width="0.1" />
<polygon points="64.81466876629865,1.5272292910795393 65.17730161467709,1.5272292910795393 32.21192387591834,13.745063619715854 31.8580443089371,13.745063619715854" fill="lightblue" fill-opacity="0.5" stroke="blue" stroke-width="0.1" />
<polygon points="65.21469805945819,1.5272292910795393 66.49081382117133,1.5272292910795393 33.46359978264129,13.745063619715854 32.24167203274594,13.745063619715854" fill="lightblue" fill-opacity="0.5" stroke="blue" stroke-width="0.1" />
<polygon points="66.5006070963979,1.5272292910795393 67.14995324361075,1.5272292910795393 34.09767102048528,13.745063619715854 33.47012141061296,13.745063619715854" fill="lightblue" fill-opacity="0.5" stroke="blue" stroke-width="0.1" />
<polygon points="67.20628624270162,1.5272292910795393 67.49176454886367,1.5272292910795393 34.412334153484025,13.745063619715854 34.13872911020728,13.745063619715854" fill="lightblue" fill-opacity="0.5" stroke="blue" stroke-width="0.1" />
<polygon points="67.55984081161118,1.5272292910795393 69.98027478370295,1.5272292910795393 36.77520013381254,13.745063619715854 34.484483725396565,13.745063619715854" fill="lightblue" fill-opacity="0.5" stroke="blue" stroke-width="0.1" />
<polygon points="70.01663123465467,1.5272292910795393 70.47713183568443,1.5272292910795393 37.252708967260126,13.745063619715854 36.798036664982455,13.745063619715854" fill="lightblue" fill-opacity="0.5" stroke="blue" stroke-width="0.1" />
<polygon points="70.48647011361066,1.5272292910795393 71.11382472463997,1.5272292910795393 37.862318683575815,13.745063619715854 37.26213391133879,13.745063619715854" fill="lightblue" fill-opacity="0.5" stroke="blue" stroke-width="0.1" />
<polygon points="71.13897957538785,1.5272292910795393 71.31599519176186,1.5272292910795393 38.0531575512652,13.745063619715854 37.88073524097091,13.745063619715854" fill="lightblue" fill-opacity="0.5" stroke="blue" stroke-width="0.1" />
<polygon points="71.35196164502757,1.5272292910795393 71.49309747428832,1.5272292910795393 38.20109667349307,13.745063619715854 38.07595074935889,13.745063619715854" fill="lightblue" fill-opacity="0.5" stroke="blue" stroke-width="0.1" />
<polygon points="71.52343062764494,1.5272292910795393 71.80193230853497,1.5272292910795393 38.4907349549726,13.745063619715854 38.223218208905294,13.745063619715854" fill="lightblue" fill-opacity="0.5" stroke="blue" stroke-width="0.1" />
<polygon points="71.81027392570805,1.5272292910795393 72.34866573125,1.5272292910795393 39.020113480660015,13.745063619715854 38.49998656674637,13.745063619715854" fill="lightblue" fill-opacity="0.5" stroke="blue" stroke-width="0.1" />
<polygon points="72.36233731679859,1.5272292910795393 72.84950942624407,1.5272292910795393 39.488132370414604,13.745063619715854 39.0288450955191,13.745063619715854" fill="lightblue" fill-opacity="0.5" stroke="blue" stroke-width="0.1" />
<polygon points="72.89240917170558,1.5272292910795393 76.02959389107625,1.5272292910795393 42.5571324943472,13.745063619715854 39.52399049098975,13.745063619715854" fill="lightblue" fill-opacity="0.5" stroke="blue" stroke-width="0.1" />
<polygon points="76.03800050786366,1.5272292910795393 76.62839200487412,1.5272292910795393 43.11844749721151,13.745063619715854 42.56029580891153,13.745063619715854" fill="lightblue" fill-opacity="0.5" stroke="blue" stroke-width="0.1" />
<polygon points="76.8442340575446,1.5272292910795393 78.10067660265216,1.5272292910795393 44.54126738848016,13.745063619715854 43.29472645128972,13.745063619715854" fill="lightblue" fill-opacity="0.5" stroke="blue" stroke-width="0.1" />
<polygon points="78.13913470780074,1.5272292910795393 79.32442434174891,1.5272292910795393 45.721595385200715,13.745063619715854 44.567830564205316,13.745063619715854" fill="lightblue" fill-opacity="0.5" stroke="blue" stroke-width="0.1" />
<polygon points="79.33616760540554,1.5272292910795393 79.85440953050345,1.5272292910795393 46.2226340790378,13.745063619715854 45.73099866274127,13.745063619715854" fill="lightblue" fill-opacity="0.5" stroke="blue" stroke-width="0.1" />
<polygon points="79.89525095484433,1.5272292910795393 80.283493651271,1.5272292910795393 46.636486623512695,13.745063619715854 46.26202384532518,13.745063619715854" fill="lightblue" fill-opacity="0.5" stroke="blue" stroke-width="0.1" />
<polygon points="80.28943028271365,1.5272292910795393 80.41108789421182,1.5272292910795393 46.759617559602475,13.745063619715854 46.64136159458787,13.745063619715854" fill="lightblue" fill-opacity="0.5" stroke="blue" stroke-width="0.1" />
<polygon points="80.50923731185861,1.5272292910795393 80.67097801886375,1.5272292910795393 46.99192618123799,13.745063619715854 46.83928542023984,13.745063619715854" fill="lightblue" fill-opacity="0.5" stroke="blue" stroke-width="0.1" />
<polygon points="80.67804131028822,1.5272292910795393 81.3828754616056,1.5272292910795393 47.671735481036144,13.745063619715854 46.99896780612435,13.745063619715854" fill="lightblue" fill-opacity="0.5" stroke="blue" stroke-width="0.1" />
<polygon points="81.39316706720874,1.5272292910795393 83.27046426191205,1.5272292910795393 49.51412788284123,13.745063619715854 47.674227132919015,13.745063619715854" fill="lightblue" fill-opacity="0.5" stroke="blue" stroke-width="0.1" />
<polygon points="83.27980253983826,1.5272292910795393 83.51178616340209,1.5272292910795393 49.73527823734913,13.745063619715854 49.52129950695626,13.745063619715854" fill="lightblue" fill-opacity="0.5" stroke="blue" stroke-width="0.1" />
<polygon points="83.60475727844015,1.5272292910795393 83.8725340229648,1.5272292910795393 50.074684556871624,13.745063619715854 49.81685275334033,13.745063619715854" fill="lightblue" fill-opacity="0.5" stroke="blue" stroke-width="0.1" />
<polygon points="83.9042755012987,1.5272292910795393 84.32787798792394,1.5272292910795393 50.514710279385675,13.745063619715854 50.102287726426155,13.745063619715854" fill="lightblue" fill-opacity="0.5" stroke="blue" stroke-width="0.1" />
<polygon points="84.33498461242463,1.5272292910795393 84.92353445369558,1.5272292910795393 51.10037847108774,13.745063619715854 50.52368022616399,13.745063619715854" fill="lightblue" fill-opacity="0.5" stroke="blue" stroke-width="0.1" />
<polygon points="84.94465932835465,1.5272292910795393 86.08919420411438,1.5272292910795393 52.247556664497125,13.745063619715854 51.11797170003458,13.745063619715854" fill="lightblue" fill-opacity="0.5" stroke="blue" stroke-width="0.1" />
<polygon points="86.09586749785285,1.5272292910795393 86.73273371911327,1.5272292910795393 52.856408051978896,13.745063619715854 52.2544466236167,13.745063619715854" fill="lightblue" fill-opacity="0.5" stroke="blue" stroke-width="0.1" />
<polygon points="86.74328532317375,1.5272292910795393 87.49873250752046,1.5272292910795393 53.59129369165743,13.745063619715854 52.86615799412923,13.745063619715854" fill="lightblue" fill-opacity="0.5" stroke="blue" stroke-width="0.1" />
<polygon points="87.70686127262312,1.5272292910795393 88.58000109199352,1.5272292910795393 54.599524376155365,13.745063619715854 53.763997666947176,13.745063619715854" fill="lightblue" fill-opacity="0.5" stroke="blue" stroke-width="0.1" />
<polygon points="88.58710771649422,1.5272292910795393 88.89895419953842,1.5272292910795393 54.894535959086646,13.745063619715854 54.603966016468306,13.745063619715854" fill="lightblue" fill-opacity="0.5" stroke="blue" stroke-width="0.1" />
<polygon points="88.94690224838,1.5272292910795393 89.13715611954036,1.5272292910795393 55.1123280001872,13.745063619715854 54.93403405806459,13.745063619715854" fill="lightblue" fill-opacity="0.5" stroke="blue" stroke-width="0.1" />
<polygon points="89.20772403417072,1.5272292910795393 89.47801409711634,1.5272292910795393 55.40281127665309,13.745063619715854 55.15477274834836,13.745063619715854" fill="lightblue" fill-opacity="0.5" stroke="blue" stroke-width="0.1" />
<polygon points="89.54769368368414,1.5272292910795393 90.57375592904816,1.5272292910795393 56.43340182848248,13.745063619715854 55.45949094035375,13.745063619715854" fill="lightblue" fill-opacity="0.5" stroke="blue" stroke-width="0.1" />
<polygon points="90.58536919347611,1.5272292910795393 90.7041234888673,1.5272292910795393 56.55982607836527,13.745063619715854 56.44170011257933,13.745063619715854" fill="lightblue" fill-opacity="0.5" stroke="blue" stroke-width="0.1" />
<polygon points="90.71021178607674,1.5272292910795393 90.93500211898743,1.5272292910795393 56.778593113680856,13.745063619715854 56.56587104249848,13.745063619715854" fill="lightblue" fill-opacity="0.5" stroke="blue" stroke-width="0.1" />
<polygon points="90.95051536027553,1.5272292910795393 91.50065042947412,1.5272292910795393 57.33622480506615,13.745063619715854 56.793824689973505,13.745063619715854" fill="lightblue" fill-opacity="0.5" stroke="blue" stroke-width="0.1" />
<polygon points="91.50762705474614,1.5272292910795393 92.545280898,1.5272292910795393 58.34413049149242,13.745063619715854 57.341858104975245,13.745063619715854" fill="lightblue" fill-opacity="0.5" stroke="blue" stroke-width="0.1" />
<polygon points="92.66637517950727,1.5272292910795393 93.22476519972648,1.5272292910795393 58.98485335653675,13.745063619715854 58.44834653981053,13.745063619715854" fill="lightblue" fill-opacity="0.5" stroke="blue" stroke-width="0.1" />
<polygon points="93.24337675596458,1.5272292910795393 94.02300379684414,1.5272292910795393 59.76844537389078,13.745063619715854 59.0055665669717,13.745063619715854" fill="lightblue" fill-opacity="0.5" stroke="blue" stroke-width="0.1" />
<polygon points="94.04926364103574,1.5272292910795393 95.16526368610214,1.5272292910795393 60.8828420951369,13.745063619715854 59.78944024932119,13.745063619715854" fill="lightblue" fill-opacity="0.5" stroke="blue" stroke-width="0.1" />
<polygon points="6.50838971688768,1.5272292910795393 6.637457284420113,1.5272292910795393 61.01565797376269,13.745063619715854 60.89127037846242,13.745063619715854" fill="lightblue" fill-opacity="0.5" stroke="blue" stroke-width="0.1" />
<polygon points="14.518313858004442,1.5272292910795393 14.65507304656659,1.5272292910795393 61.02066294406653,13.745063619715854 60.892505371134796,13.745063619715854" fill="lightblue" fill-opacity="0.5" stroke="blue" stroke-width="0.1" />
<polygon points="95.25145317471116,1.5272292910795393 96.09165985615152,1.5272292910795393 61.737803689031445,13.745063619715854 60.93852509808442,13.745063619715854" fill="lightblue" fill-opacity="0.5" stroke="blue" stroke-width="0.1" />
<polygon points="96.10234145944068,1.5272292910795393 97.49911817189886,1.5272292910795393 63.086827351491046,13.745063619715854 61.74586364120906,13.745063619715854" fill="lightblue" fill-opacity="0.5" stroke="blue" stroke-width="0.1" />
<polygon points="97.51469641280129,1.5272292910795393 97.75662497735847,1.5272292910795393 63.32169262462376,13.745063619715854 63.09291564870048,13.745063619715854" fill="lightblue" fill-opacity="0.5" stroke="blue" stroke-width="0.1" />
<polygon points="97.76975489945427,1.5272292910795393 98.13154275284634,1.5272292910795393 63.67916883693157,13.745063619715854 63.32749925683774,13.745063619715854" fill="lightblue" fill-opacity="0.5" stroke="blue" stroke-width="0.1" />
<polygon points="98.13873604349948,1.5272292910795393 98.7347175073428,1.5272292910795393 64.25610541377455,13.745063619715854 63.68493213606933,13.745063619715854" fill="lightblue" fill-opacity="0.5" stroke="blue" stroke-width="0.1" />
<polygon points="98.75865903195641,1.5272292910795393 99.29594584405466,1.5272292910795393 64.78862558748817,13.745063619715854 64.27907194417313,13.745063619715854" fill="lightblue" fill-opacity="0.5" stroke="blue" stroke-width="0.1" />
<polygon points="99.33899725528295,1.5272292910795393 99.52220950155696,1.5272292910795393 65.00849761624748,13.745063619715854 64.8276903557039,13.745063619715854" fill="lightblue" fill-opacity="0.5" stroke="blue" stroke-width="0.1" />
<polygon points="99.52875279606674,1.5272292910795393 100.62247963995414,1.5272292910795393 66.06118803695098,13.745063619715854 65.0143692480758,13.745063619715854" fill="lightblue" fill-opacity="0.5" stroke="blue" stroke-width="0.1" />
<polygon points="100.63138458711812,1.5272292910795393 101.05663373063987,1.5272292910795393 66.47239726377623,13.745063619715854 66.06729800069853,13.745063619715854" fill="lightblue" fill-opacity="0.5" stroke="blue" stroke-width="0.1" />
<polygon points="101.24918425484009,1.5272292910795393 101.64752355802689,1.5272292910795393 67.01408238311119,13.745063619715854 66.63298964426144,13.745063619715854" fill="lightblue" fill-opacity="0.5" stroke="blue" stroke-width="0.1" />
<polygon points="101.8663339264187,1.5272292910795393 102.45208878427322,1.5272292910795393 67.76281294064322,13.745063619715854 67.21278620413518,13.745063619715854" fill="lightblue" fill-opacity="0.5" stroke="blue" stroke-width="0.1" />
<polygon points="102.46303038601971,1.5272292910795393 103.09632162849167,1.5272292910795393 68.37283432118302,13.745063619715854 67.77104622512573,13.745063619715854" fill="lightblue" fill-opacity="0.5" stroke="blue" stroke-width="0.1" />
<polygon points="0.0,1.5272292910795393 0.5396917978286662,1.5272292910795393 68.90572282604457,13.745063619715854 68.37341931771205,13.745063619715854" fill="lightblue" fill-opacity="0.5" stroke="blue" stroke-width="0.1" />
<polygon points="0.6072263971233771,1.5272292910795393 0.9876474732916585,1.5272292910795393 69.33448194874043,13.745063619715854 68.96675746390571,13.745063619715854" fill="lightblue" fill-opacity="0.5" stroke="blue" stroke-width="0.1" />
<polygon points="1.012087328281852,1.5272292910795393 1.366465225639661,1.5272292910795393 69.69880478709159,13.745063619715854 69.35244350883518,13.745063619715854" fill="lightblue" fill-opacity="0.5" stroke="blue" stroke-width="0.1" />
<polygon points="1.3765618323997943,1.5272292910795393 1.5171776647458557,1.5272292910795393 69.8531788711387,13.745063619715854 69.71260637186886,13.745063619715854" fill="lightblue" fill-opacity="0.5" stroke="blue" stroke-width="0.1" />
<polygon points="1.5231142961885094,1.5272292910795393 1.8550239935243051,1.5272292910795393 70.18121025815248,13.745063619715854 69.85820550798066,13.745063619715854" fill="lightblue" fill-opacity="0.5" stroke="blue" stroke-width="0.1" />
<polygon points="1.8621956176393353,1.5272292910795393 2.0682227285451438,1.5272292910795393 70.37915575034255,13.745063619715854 70.18649689345176,13.745063619715854" fill="lightblue" fill-opacity="0.5" stroke="blue" stroke-width="0.1" />
<polygon points="2.0789476649105216,1.5272292910795393 2.6108611755570252,1.5272292910795393 70.90703928490024,13.745063619715854 70.38790903173974,13.745063619715854" fill="lightblue" fill-opacity="0.5" stroke="blue" stroke-width="0.1" />
<polygon points="2.619267792344432,1.5272292910795393 3.456722823444581,1.5272292910795393 71.7277027489637,13.745063619715854 70.91494757131107,13.745063619715854" fill="lightblue" fill-opacity="0.5" stroke="blue" stroke-width="0.1" />
<polygon points="3.4798410196099505,1.5272292910795393 4.148817050352168,1.5272292910795393 72.39197714093564,13.745063619715854 71.74546931021543,13.745063619715854" fill="lightblue" fill-opacity="0.5" stroke="blue" stroke-width="0.1" />
<polygon points="4.169313595406001,1.5272292910795393 5.007071958039716,1.5272292910795393 73.21498059111516,13.745063619715854 72.40768538106674,13.745063619715854" fill="lightblue" fill-opacity="0.5" stroke="blue" stroke-width="0.1" />
<polygon points="5.047046720856123,1.5272292910795393 5.235220604357748,1.5272292910795393 73.431472639929,13.745063619715854 73.24761039751164,13.745063619715854" fill="lightblue" fill-opacity="0.5" stroke="blue" stroke-width="0.1" />
<polygon points="5.250083849502493,1.5272292910795393 5.604960077236876,1.5272292910795393 73.77360894325359,13.745063619715854 73.44330256973808,13.745063619715854" fill="lightblue" fill-opacity="0.5" stroke="blue" stroke-width="0.1" />
<polygon points="5.612716697880926,1.5272292910795393 6.910932328468185,1.5272292910795393 75.03858810437724,13.745063619715854 73.77974057353926,13.745063619715854" fill="lightblue" fill-opacity="0.5" stroke="blue" stroke-width="0.1" />
<polygon points="95.20396012316994,1.5272292910795393 95.33281102532125,1.5272292910795393 74.77341134442602,13.745063619715854 74.64887208335897,13.745063619715854" fill="lightblue" fill-opacity="0.5" stroke="blue" stroke-width="0.1" />
<polygon points="14.518313858004442,1.5272292910795393 14.649266414352608,1.5272292910795393 74.77312967943057,13.745063619715854 74.65028040833624,13.745063619715854" fill="lightblue" fill-opacity="0.5" stroke="blue" stroke-width="0.1" />
<polygon points="6.939163827627956,1.5272292910795393 7.469322348687398,1.5272292910795393 75.56902829043214,13.745063619715854 75.06835792774297,13.745063619715854" fill="lightblue" fill-opacity="0.5" stroke="blue" stroke-width="0.1" />
<polygon points="10.97056990795188,1.5272292910795393 11.099160811645852,1.5272292910795393 75.66351606313802,13.745063619715854 75.53579182096853,13.745063619715854" fill="lightblue" fill-opacity="0.5" stroke="blue" stroke-width="0.1" />
<polygon points="7.5261970112310665,1.5272292910795393 8.748558091888654,1.5272292910795393 76.80787760659287,13.745063619715854 75.62018298691427,13.745063619715854" fill="lightblue" fill-opacity="0.5" stroke="blue" stroke-width="0.1" />
<polygon points="8.812236047399452,1.5272292910795393 9.506453595042002,1.5272292910795393 77.54917654155253,13.745063619715854 76.8550023269862,13.745063619715854" fill="lightblue" fill-opacity="0.5" stroke="blue" stroke-width="0.1" />
<polygon points="9.53024345388884,1.5272292910795393 10.475229513638219,1.5272292910795393 78.47338439125261,13.745063619715854 77.56388812093049,13.745063619715854" fill="lightblue" fill-opacity="0.5" stroke="blue" stroke-width="0.1" />
<polygon points="10.475207847100107,1.5272292910795393 11.109257418405983,1.5272292910795393 79.10279732340256,13.745063619715854 78.47851936078513,13.745063619715854" fill="lightblue" fill-opacity="0.5" stroke="blue" stroke-width="0.1" />
<polygon points="11.115172383310526,1.5272292910795393 11.554764775062335,1.5272292910795393 79.5114498987306,13.745063619715854 79.1089072871501,13.745063619715854" fill="lightblue" fill-opacity="0.5" stroke="blue" stroke-width="0.1" />
<polygon points="11.571058011722464,1.5272292910795393 12.16209950487627,1.5272292910795393 80.09859141502427,13.745063619715854 79.52265149893444,13.745063619715854" fill="lightblue" fill-opacity="0.5" stroke="blue" stroke-width="0.1" />
<polygon points="12.16937946168186,1.5272292910795393 12.375601571430675,1.5272292910795393 80.29783689950106,13.745063619715854 80.10296805572287,13.745063619715854" fill="lightblue" fill-opacity="0.5" stroke="blue" stroke-width="0.1" />
<polygon points="12.465496038056841,1.5272292910795393 12.57707870933299,1.5272292910795393 80.47680250430514,13.745063619715854 80.36673649069682,13.745063619715854" fill="lightblue" fill-opacity="0.5" stroke="blue" stroke-width="0.1" />
<polygon points="12.599330243973887,1.5272292910795393 12.760767619445458,1.5272292910795393 80.63906320822497,13.745063619715854 80.49541406054324,13.745063619715854" fill="lightblue" fill-opacity="0.5" stroke="blue" stroke-width="0.1" />
<polygon points="12.824012244194018,1.5272292910795393 13.183958441846578,1.5272292910795393 81.04028416098065,13.745063619715854 80.69104123315535,13.745063619715854" fill="lightblue" fill-opacity="0.5" stroke="blue" stroke-width="0.1" />
<polygon points="13.362469049350308,1.5272292910795393 13.841624539694399,1.5272292910795393 81.66384712784037,13.745063619715854 81.1912999316204,13.745063619715854" fill="lightblue" fill-opacity="0.5" stroke="blue" stroke-width="0.1" />
<polygon points="13.861406088990538,1.5272292910795393 14.032528406998118,1.5272292910795393 81.84482772068885,13.745063619715854 81.67673871801694,13.745063619715854" fill="lightblue" fill-opacity="0.5" stroke="blue" stroke-width="0.1" />
<polygon points="14.081148118521163,1.5272292910795393 14.386191308598235,1.5272292910795393 82.1724691100166,13.745063619715854 81.87726252824233,13.745063619715854" fill="lightblue" fill-opacity="0.5" stroke="blue" stroke-width="0.1" />
<polygon points="14.417131125021992,1.5272292910795393 15.585195861171224,1.5272292910795393 83.30517405596727,13.745063619715854 82.19179566201241,13.745063619715854" fill="lightblue" fill-opacity="0.5" stroke="blue" stroke-width="0.1" />
<polygon points="6.509776375326839,1.5272292910795393 6.637457284420112,1.5272292910795393 82.41342268035876,13.745063619715854 82.2903350773452,13.745063619715854" fill="lightblue" fill-opacity="0.5" stroke="blue" stroke-width="0.1" />
<polygon points="95.20547678083777,1.5272292910795393 95.33788099523943,1.5272292910795393 82.41829765143393,13.745063619715854 82.29035674388332,13.745063619715854" fill="lightblue" fill-opacity="0.5" stroke="blue" stroke-width="0.1" />
<polygon points="15.734694974143153,1.5272292910795393 16.376457833016858,1.5272292910795393 84.04320134367202,13.745063619715854 83.42206502908083,13.745063619715854" fill="lightblue" fill-opacity="0.5" stroke="blue" stroke-width="0.1" />
<polygon points="16.38664110592944,1.5272292910795393 16.768015509774642,1.5272292910795393 84.40332087362948,13.745063619715854 84.04322301021014,13.745063619715854" fill="lightblue" fill-opacity="0.5" stroke="blue" stroke-width="0.1" />
<polygon points="16.793278693213086,1.5272292910795393 17.02142733953112,1.5272292910795393 84.63558616218877,13.745063619715854 84.42750073016234,13.745063619715854" fill="lightblue" fill-opacity="0.5" stroke="blue" stroke-width="0.1" />
<polygon points="17.10443184703771,1.5272292910795393 17.454736435230487,1.5272292910795393 85.04508373250319,13.745063619715854 84.70849406293523,13.745063619715854" fill="lightblue" fill-opacity="0.5" stroke="blue" stroke-width="0.1" />
<polygon points="17.547815882959096,1.5272292910795393 17.704703285427176,1.5272292910795393 85.266992415845,13.745063619715854 85.11404832331328,13.745063619715854" fill="lightblue" fill-opacity="0.5" stroke="blue" stroke-width="0.1" />
<polygon points="17.710943248403392,1.5272292910795393 19.103798317463315,1.5272292910795393 86.62710934581787,13.745063619715854 85.27260404921597,13.745063619715854" fill="lightblue" fill-opacity="0.5" stroke="blue" stroke-width="0.1" />
<polygon points="19.10938828429618,1.5272292910795393 19.30365046500724,1.5272292910795393 86.81419990241392,13.745063619715854 86.627326011199,13.745063619715854" fill="lightblue" fill-opacity="0.5" stroke="blue" stroke-width="0.1" />
<polygon points="19.33517527796002,1.5272292910795393 20.212366739957343,1.5272292910795393 87.6761597881186,13.745063619715854 86.8276764891195,13.745063619715854" fill="lightblue" fill-opacity="0.5" stroke="blue" stroke-width="0.1" />
<polygon points="20.323147749323354,1.5272292910795393 21.164784422279094,1.5272292910795393 88.57952442815507,13.745063619715854 87.76828590817028,13.745063619715854" fill="lightblue" fill-opacity="0.5" stroke="blue" stroke-width="0.1" />
<polygon points="21.181835987773137,1.5272292910795393 21.608428456657823,1.5272292910795393 89.01536850881351,13.745063619715854 88.59609932981064,13.745063619715854" fill="lightblue" fill-opacity="0.5" stroke="blue" stroke-width="0.1" />
<polygon points="21.627646675963057,1.5272292910795393 21.74850262555109,1.5272292910795393 89.14660273015714,13.745063619715854 89.03107674894463,13.745063619715854" fill="lightblue" fill-opacity="0.5" stroke="blue" stroke-width="0.1" />
<polygon points="21.75625924619514,1.5272292910795393 22.58829764276732,1.5272292910795393 89.96152456162093,13.745063619715854 89.15279936005713,13.745063619715854" fill="lightblue" fill-opacity="0.5" stroke="blue" stroke-width="0.1" />
<polygon points="22.594147608057526,1.5272292910795393 22.802861369689207,1.5272292910795393 90.16558001755857,13.745063619715854 89.9676561919066,13.745063619715854" fill="lightblue" fill-opacity="0.5" stroke="blue" stroke-width="0.1" />
<polygon points="22.81204798184864,1.5272292910795393 23.622159841851605,1.5272292910795393 90.95669032363742,13.745063619715854 90.17444163164632,13.745063619715854" fill="lightblue" fill-opacity="0.5" stroke="blue" stroke-width="0.1" />
<polygon points="11.094437506337464,1.5272292910795393 10.97056990795188,1.5272292910795393 91.02006494761464,13.745063619715854 90.89767067382067,13.745063619715854" fill="pink" fill-opacity="0.5" stroke="orchid" stroke-width="0.1" />
<polygon points="23.7369274942302,1.5272292910795393 24.411948489105633,1.5272292910795393 91.7026042312149,13.745063619715854 91.04931477406568,13.745063619715854" fill="lightblue" fill-opacity="0.5" stroke="blue" stroke-width="0.1" />
<polygon points="24.479613087629012,1.5272292910795393 24.830546005427035,1.5272292910795393 92.10155019746882,13.745063619715854 91.75924056183933,13.745063619715854" fill="lightblue" fill-opacity="0.5" stroke="blue" stroke-width="0.1" />
<polygon points="25.06164130092828,1.5272292910795393 25.33370801999908,1.5272292910795393 92.57760737286293,13.745063619715854 92.31451060057044,13.745063619715854" fill="lightblue" fill-opacity="0.5" stroke="blue" stroke-width="0.1" />
<polygon points="25.480737147626257,1.5272292910795393 27.033101270265796,1.5272292910795393 94.20942269075871,13.745063619715854 92.72340150781773,13.745063619715854" fill="lightblue" fill-opacity="0.5" stroke="blue" stroke-width="0.1" />
<polygon points="27.057432792565432,1.5272292910795393 27.79903505905865,1.5272292910795393 94.95061329302779,13.745063619715854 94.22647425625274,13.745063619715854" fill="lightblue" fill-opacity="0.5" stroke="blue" stroke-width="0.1" />
<polygon points="27.846549777137987,1.5272292910795393 28.067245134345534,1.5272292910795393 95.19800182518917,13.745063619715854 94.984933089397,13.745063619715854" fill="lightblue" fill-opacity="0.5" stroke="blue" stroke-width="0.1" />
<polygon points="28.207232637086353,1.5272292910795393 28.434904619565923,1.5272292910795393 95.53868647046026,13.745063619715854 95.31250947911042,13.745063619715854" fill="lightblue" fill-opacity="0.5" stroke="blue" stroke-width="0.1" />
<polygon points="28.647540024595855,1.5272292910795393 28.91354011299533,1.5272292910795393 95.95468400220827,13.745063619715854 95.70634214236996,13.745063619715854" fill="lightblue" fill-opacity="0.5" stroke="blue" stroke-width="0.1" />
<polygon points="29.003434579621494,1.5272292910795393 30.517080598655113,1.5272292910795393 97.49430820043801,13.745063619715854 96.03407019785016,13.745063619715854" fill="lightblue" fill-opacity="0.5" stroke="blue" stroke-width="0.1" />
<polygon points="30.61910832662393,1.5272292910795393 31.583854269131336,1.5272292910795393 98.55564356984816,13.745063619715854 97.59475427112466,13.745063619715854" fill="lightblue" fill-opacity="0.5" stroke="blue" stroke-width="0.1" />
<polygon points="105.13022976063675,1.5272292910795393 105.3598733980845,1.5272292910795393 103.76893053584729,13.745063619715854 103.55577513390267,13.745063619715854" fill="lightblue" fill-opacity="0.5" stroke="blue" stroke-width="0.1" />
<polygon points="105.36568003029848,1.5272292910795393 105.6757281906794,1.5272292910795393 104.08045202081979,13.745063619715854 103.77443383652769,13.745063619715854" fill="lightblue" fill-opacity="0.5" stroke="blue" stroke-width="0.1" />
<polygon points="105.70361302522937,1.5272292910795393 106.0419793509225,1.5272292910795393 104.43500325048251,13.745063619715854 104.10151189586455,13.745063619715854" fill="lightblue" fill-opacity="0.5" stroke="blue" stroke-width="0.1" />
<!-- hits after vs ref -->
<polygon points="0.0,18.83582792331432 5.491969080983453,18.83582792331432 18.246561737067026,30.290047606410866 12.754570989545462,30.290047606410866" fill="lightblue" fill-opacity="0.5" stroke="blue" stroke-width="0.1" />
<polygon points="5.487375774903736,18.83582792331432 21.666018114959186,18.83582792331432 34.417815787626324,30.290047606410866 18.23919511410899,30.290047606410866" fill="lightblue" fill-opacity="0.5" stroke="blue" stroke-width="0.1" />
<polygon points="6.653642188389682,18.83582792331432 6.782103092854983,18.83582792331432 91.76942383475192,30.290047606410866 91.89870806766547,30.290047606410866" fill="pink" fill-opacity="0.5" stroke="orchid" stroke-width="0.1" />
<polygon points="6.655180512595625,18.83582792331432 6.777726452156384,18.83582792331432 5.214724059303915,30.290047606410866 5.092156453205044,30.290047606410866" fill="lightblue" fill-opacity="0.5" stroke="blue" stroke-width="0.1" />
<polygon points="21.654773181679122,18.83582792331432 36.77682512417093,18.83582792331432 49.53135278064017,30.290047606410866 34.40921417199591,30.290047606410866" fill="lightblue" fill-opacity="0.5" stroke="blue" stroke-width="0.1" />
<polygon points="36.772578482701,18.83582792331432 38.18034012998189,18.83582792331432 50.940241087902876,30.290047606410866 49.53243610754576,30.290047606410866" fill="lightblue" fill-opacity="0.5" stroke="blue" stroke-width="0.1" />
<polygon points="38.17234517741861,18.83582792331432 46.84645704435487,18.83582792331432 59.61010631336921,30.290047606410866 50.93599444643295,30.290047606410866" fill="lightblue" fill-opacity="0.5" stroke="blue" stroke-width="0.1" />
<polygon points="46.6240716971746,18.83582792331432 46.84645704435487,18.83582792331432 59.61127630642725,30.290047606410866 59.38772096618894,30.290047606410866" fill="lightblue" fill-opacity="0.5" stroke="blue" stroke-width="0.1" />
<polygon points="46.83906875485872,18.83582792331432 47.05902744977047,18.83582792331432 59.83749663085332,30.290047606410866 59.61870792899962,30.290047606410866" fill="lightblue" fill-opacity="0.5" stroke="blue" stroke-width="0.1" />
<polygon points="46.83935041985418,18.83582792331432 47.06214743125857,18.83582792331432 59.84061661234143,30.290047606410866 59.61742960325102,30.290047606410866" fill="lightblue" fill-opacity="0.5" stroke="blue" stroke-width="0.1" />
<polygon points="46.83935041985418,18.83582792331432 52.863103012255465,18.83582792331432 65.64157219333832,30.290047606410866 59.61781960093703,30.290047606410866" fill="lightblue" fill-opacity="0.5" stroke="blue" stroke-width="0.1" />
<polygon points="52.85452306316316,18.83582792331432 60.8828420951369,18.83582792331432 73.66417125925052,30.290047606410866 65.635895560353,30.290047606410866" fill="lightblue" fill-opacity="0.5" stroke="blue" stroke-width="0.1" />
<polygon points="60.872030492619075,18.83582792331432 75.6120147020461,18.83582792331432 88.42177036416251,30.290047606410866 73.68341114509387,30.290047606410866" fill="lightblue" fill-opacity="0.5" stroke="blue" stroke-width="0.1" />
<polygon points="60.89254870421102,18.83582792331432 61.02066294406654,18.83582792331432 88.47223173142507,30.290047606410866 88.34424749079822,30.290047606410866" fill="lightblue" fill-opacity="0.5" stroke="blue" stroke-width="0.1" />
<polygon points="60.89254870421102,18.83582792331432 61.02066294406654,18.83582792331432 95.22683998741607,30.290047606410866 95.09883408025112,30.290047606410866" fill="lightblue" fill-opacity="0.5" stroke="blue" stroke-width="0.1" />
<polygon points="74.65010707603135,18.83582792331432 74.77360634326902,18.83582792331432 88.46748675957856,30.290047606410866 88.34405249195521,30.290047606410866" fill="lightblue" fill-opacity="0.5" stroke="blue" stroke-width="0.1" />
<polygon points="74.65010707603135,18.83582792331432 74.77360634326902,18.83582792331432 95.22209501556958,30.290047606410866 95.09863908140812,30.290047606410866" fill="lightblue" fill-opacity="0.5" stroke="blue" stroke-width="0.1" />
<polygon points="75.53577015443042,18.83582792331432 75.65900942321076,18.83582792331432 5.092156453205044,30.290047606410866 5.214745725842026,30.290047606410866" fill="pink" fill-opacity="0.5" stroke="orchid" stroke-width="0.1" />
<polygon points="75.53579182096853,18.83582792331432 75.6605477474167,18.83582792331432 19.405461527594937,30.290047606410866 19.529480791747304,30.290047606410866" fill="pink" fill-opacity="0.5" stroke="orchid" stroke-width="0.1" />
<polygon points="75.53579182096853,18.83582792331432 75.66375439505725,18.83582792331432 91.90191471530602,30.290047606410866 91.77380047545051,30.290047606410866" fill="lightblue" fill-opacity="0.5" stroke="blue" stroke-width="0.1" />
<polygon points="75.6198363223045,18.83582792331432 86.09198918753083,18.83582792331432 98.9002281919794,30.290047606410866 88.4283136586723,30.290047606410866" fill="lightblue" fill-opacity="0.5" stroke="blue" stroke-width="0.1" />
<polygon points="78.96096816492222,18.83582792331432 79.09023073129767,18.83582792331432 19.405461527594937,30.290047606410866 19.533857432445902,30.290047606410866" fill="pink" fill-opacity="0.5" stroke="orchid" stroke-width="0.1" />
<polygon points="78.96534480562082,18.83582792331432 79.08869240709171,18.83582792331432 5.092156453205044,30.290047606410866 5.214724059303915,30.290047606410866" fill="pink" fill-opacity="0.5" stroke="orchid" stroke-width="0.1" />
<polygon points="82.28964174812563,18.83582792331432 82.4187743152724,18.83582792331432 88.47257839603486,30.290047606410866 88.34353249504053,30.290047606410866" fill="lightblue" fill-opacity="0.5" stroke="blue" stroke-width="0.1" />
<polygon points="82.29016174504031,18.83582792331432 82.4136826788161,18.83582792331432 87.58334033884732,30.290047606410866 87.45975440545719,30.290047606410866" fill="lightblue" fill-opacity="0.5" stroke="blue" stroke-width="0.1" />
<polygon points="82.29035674388332,18.83582792331432 82.41842765066261,18.83582792331432 73.83028860695427,30.290047606410866 73.7040810224526,30.290047606410866" fill="lightblue" fill-opacity="0.5" stroke="blue" stroke-width="0.1" />
<polygon points="85.8107575228387,18.83582792331432 86.62708767927977,18.83582792331432 0.8190818067812797,30.290047606410866 0.0,30.290047606410866" fill="lightblue" fill-opacity="0.5" stroke="blue" stroke-width="0.1" />
<polygon points="86.62030605285075,18.83582792331432 95.65354078899132,18.83582792331432 9.848178234142477,30.290047606410866 0.8149868310781356,30.290047606410866" fill="lightblue" fill-opacity="0.5" stroke="blue" stroke-width="0.1" />
<polygon points="90.89747567497766,18.83582792331432 91.02006494761464,18.83582792331432 19.529480791747304,30.290047606410866 19.40699985180088,30.290047606410866" fill="lightblue" fill-opacity="0.5" stroke="blue" stroke-width="0.1" />
<polygon points="90.89747567497766,18.83582792331432 91.02006494761464,18.83582792331432 91.77380047545051,30.290047606410866 91.89716974345953,30.290047606410866" fill="pink" fill-opacity="0.5" stroke="orchid" stroke-width="0.1" />
<polygon points="95.64760415754867,18.83582792331432 97.48208827294292,18.83582792331432 11.681015692640225,30.290047606410866 9.847181573389332,30.290047606410866" fill="lightblue" fill-opacity="0.5" stroke="blue" stroke-width="0.1" />
<polygon points="97.04877917724355,18.83582792331432 98.55564356984814,18.83582792331432 12.754570989545462,30.290047606410866 11.248399926160438,30.290047606410866" fill="lightblue" fill-opacity="0.5" stroke="blue" stroke-width="0.1" />
<polygon points="103.6343163345582,18.83582792331432 104.06727876564779,18.83582792331432 101.33321228960709,30.290047606410866 100.90024985851751,30.290047606410866" fill="lightblue" fill-opacity="0.5" stroke="blue" stroke-width="0.1" />
<polygon points="104.05263218588416,18.83582792331432 104.3809669044315,18.83582792331432 101.65082207178904,30.290047606410866 101.3224656867036,30.290047606410866" fill="lightblue" fill-opacity="0.5" stroke="blue" stroke-width="0.1" />
<polygon points="104.37479194106962,18.83582792331432 104.40302344022939,18.83582792331432 103.6786635732628,30.290047606410866 103.65082207178904,30.290047606410866" fill="lightblue" fill-opacity="0.5" stroke="blue" stroke-width="0.1" />
<polygon points="104.33477384517698,18.83582792331432 104.3481204326539,18.83582792331432 105.760238089254,30.290047606410866 105.77358467673092,30.290047606410866" fill="pink" fill-opacity="0.5" stroke="orchid" stroke-width="0.1" />
<polygon points="104.5015845221003,18.83582792331432 104.88051060713886,18.83582792331432 106.05758965830135,30.290047606410866 105.6786635732628,30.290047606410866" fill="lightblue" fill-opacity="0.5" stroke="blue" stroke-width="0.1" />
</svg>
